<?xml version="1.0" encoding="UTF-8"?>
<svg id="Capa_2" data-name="Capa 2" xmlns="http://www.w3.org/2000/svg" viewBox="0 0 39.75 34.15">
  <defs>
    <style>
      .cls-1 {
        fill: #000;
      }

      .cls-1, .cls-2 {
        stroke-width: 0px;
      }

      .cls-2 {
        fill: #d8d8d8;
      }
    </style>
  </defs>
  <g id="Capa_2-2" data-name="Capa 2">
    <g>
      <g>
        <path class="cls-1" d="M0,19.72c.25-.63.4-1.32.76-1.88.82-1.3,2.07-1.96,3.61-2,.9-.02,1.81,0,2.82,0-2.16-1.66-3.16-3.76-2.89-6.39.18-1.77,1-3.25,2.37-4.4,2.8-2.35,6.96-2.04,9.38.65,2.56,2.85,2.36,7.55-1.19,10.14h3.64c.04-.08.13-.22.21-.36,1.21-2.09,2.42-4.19,3.62-6.28.03-.06.06-.11.1-.17.21-.3.56-.38.85-.21.25.15.34.48.18.79-.43.78-.88,1.55-1.33,2.32-.73,1.27-1.46,2.53-2.19,3.8-.09.16-.17.32-.27.51.78.41,1.41.97,1.88,1.7.06.09.25.12.37.12,1.19,0,2.38,0,3.57,0,3.87,0,7.74,0,11.61,0,.82,0,1.35-.35,1.43-1.06.04-.33-.08-.72-.25-1.01-2.05-3.59-4.13-7.17-6.2-10.75-.62-1.07-1.24-2.15-1.86-3.22-.61-1.05-1.7-1.08-2.33-.02-1.01,1.7-1.99,3.42-2.98,5.13-.27.47-.66.58-.97.29-.27-.25-.26-.53-.08-.84.58-.99,1.15-1.99,1.73-2.99.43-.75.86-1.5,1.3-2.25,1.04-1.76,3.3-1.76,4.33,0,2.73,4.71,5.45,9.42,8.16,14.14,1.04,1.81-.11,3.78-2.19,3.78-4.88,0-9.76,0-14.64,0h-.39c0,4.48,0,8.93,0,13.38,0,.97-.54,1.52-1.51,1.52-6.37,0-12.73,0-19.1,0-.77,0-1.26-.37-1.53-1.08C0,30.07,0,27.07,0,24.06c.14-.13.26-.31.42-.37.42-.15.74.17.74.71,0,2.7,0,5.41,0,8.11,0,.36.12.47.47.47,1.9-.01,3.8,0,5.7,0,.1,0,.2-.01.32-.02.02-.08.03-.14.04-.2.17-1.23.33-2.46.5-3.69.38-2.82.75-5.64,1.12-8.45.02-.19.02-.4-.04-.57-.32-.93-.67-1.85-.99-2.77-.07-.2-.16-.28-.39-.28-1.18.01-2.35,0-3.53.01-1.54.02-2.87,1.15-3.12,2.67-.09.53-.06,1.08-.07,1.62,0,.33-.03.63-.39.76C.42,22.2.21,21.98,0,21.73,0,21.06,0,20.39,0,19.72ZM14.45,32.92c.06.02.08.04.1.04,2.03,0,4.06,0,6.09,0,.26,0,.32-.13.32-.37,0-4.17,0-8.33-.02-12.5-.01-1.66-1.46-3.07-3.13-3.1-1.19-.02-2.38,0-3.57-.01-.23,0-.31.09-.37.29-.21.63-.39,1.26-.66,1.86-.35.79-.35,1.58-.22,2.42.19,1.19.31,2.38.45,3.58.04.38-.22.67-.58.69-.29.02-.57-.23-.62-.58-.09-.65-.16-1.31-.24-1.96-.1-.82-.21-1.63-.32-2.44h-1.16c-.03.18-.07.33-.09.48-.24,1.86-.48,3.71-.73,5.57-.24,1.85-.49,3.71-.75,5.56-.04.32.03.47.4.46,1.11-.02,2.23,0,3.34,0,.5,0,.52-.05.46-.54-.19-1.43-.36-2.87-.53-4.3-.05-.42.16-.72.49-.75.37-.03.65.21.7.62.09.65.16,1.31.24,1.96.13,1.01.26,2.02.39,3.01ZM5.46,10.76c.02,1.09.64,2.44,1.8,3.57.48.46.98.59,1.61.48,4.29-.76,6.51-5.3,4.48-9.14-.27-.51-.62-.84-1.2-.9-.2-.02-.41-.08-.61-.09-3.29-.28-6.08,2.27-6.08,6.08ZM12.67,17.06h-3.17c.29.8.56,1.58.86,2.34.08.22,1.34.22,1.48.03.01-.02.02-.05.03-.07.26-.74.52-1.48.81-2.29Z"/>
        <path class="cls-1" d="M34.6,21.81c1.24,0,2.48,0,3.72,0,.5,0,.75.2.75.58,0,.38-.26.59-.75.59-2.5,0-4.99,0-7.49,0-.46,0-.71-.22-.71-.58,0-.37.25-.57.71-.58.08,0,.16,0,.23,0,1.18,0,2.35,0,3.53,0Z"/>
        <path class="cls-1" d="M34.59,27.79c-1.23,0-2.46,0-3.69,0-.52,0-.79-.21-.78-.59,0-.38.26-.57.76-.57,2.48,0,4.97,0,7.45,0,.49,0,.75.21.74.59,0,.38-.26.57-.76.58-1.24,0-2.48,0-3.72,0Z"/>
        <path class="cls-1" d="M34.6,32.61c-1.28,0-2.56,0-3.84,0-.39,0-.64-.24-.64-.58,0-.34.24-.57.63-.58.01,0,.03,0,.04,0,2.53,0,5.07,0,7.6,0,.43,0,.68.22.68.58,0,.36-.25.58-.67.58-1.27,0-2.53,0-3.8,0Z"/>
        <path class="cls-1" d="M28.42,8.32c0-.7,0-1.4,0-2.09,0-.49.25-.78.62-.77.37,0,.6.28.6.76,0,1.42,0,2.84,0,4.27,0,.49-.25.79-.62.78-.37,0-.6-.31-.6-.8,0-.71,0-1.42,0-2.13Z"/>
        <path class="cls-1" d="M25.76,27.54c.42-.53.83-1.05,1.24-1.56.08-.1.16-.21.24-.3.24-.26.58-.31.83-.11.25.2.29.54.07.83-.38.5-.78,1-1.17,1.49-.22.28-.44.58-.68.85-.26.3-.59.33-.88.06-.46-.42-.91-.85-1.35-1.28-.25-.25-.25-.56-.03-.8.21-.24.56-.26.83-.03.3.26.58.55.91.85Z"/>
        <path class="cls-1" d="M25.76,32.36c.51-.65.99-1.26,1.48-1.86.23-.28.57-.32.83-.12.25.2.29.53.09.83-.02.03-.05.06-.07.09-.57.72-1.13,1.45-1.71,2.16-.34.42-.65.45-1.05.08-.41-.38-.81-.76-1.21-1.15-.3-.3-.32-.63-.07-.89.23-.23.58-.22.87.04.28.25.54.52.85.81Z"/>
        <path class="cls-1" d="M25.76,22.72c.51-.65.99-1.26,1.48-1.86.23-.28.58-.31.83-.12.25.2.28.54.08.83-.02.03-.05.06-.07.09-.56.71-1.12,1.42-1.68,2.13-.37.47-.67.49-1.1.08-.4-.37-.79-.74-1.18-1.12-.31-.3-.33-.63-.07-.89.24-.23.58-.22.87.04.28.25.54.51.85.81Z"/>
        <path class="cls-1" d="M28.42,14.29c0-.06,0-.13,0-.19.01-.44.24-.71.59-.72.37-.02.62.25.64.71,0,.18,0,.36-.01.54-.04.36-.28.59-.6.59-.33,0-.58-.25-.61-.62,0-.1,0-.21,0-.31,0,0,0,0,0,0Z"/>
      </g>
      <circle class="cls-2" cx="10.91" cy="10.34" r="5.67"/>
    </g>
  </g>
</svg>