<?xml version="1.0" encoding="UTF-8"?>
<svg id="Capa_2" data-name="Capa 2" xmlns="http://www.w3.org/2000/svg" viewBox="0 0 40.45 39.42">
  <defs>
    <style>
      .cls-1 {
        fill: #000;
        stroke-width: 0px;
      }
    </style>
  </defs>
  <g id="Capa_2-2" data-name="Capa 2">
    <g>
      <path class="cls-1" d="M40.45,31.33c-.13.29-.22.6-.39.85-.96,1.41-2.92,1.36-3.81-.11-.65-1.07-1.26-2.16-1.88-3.24-.46-.8-.93-1.59-1.37-2.39-.11-.19-.21-.24-.44-.2-3.87.66-7.32-1.29-8.74-4.94-1.46-3.75.53-8.3,4.28-9.79,4.17-1.66,8.68.27,10.24,4.48,1,2.68.52,5.2-1.2,7.48-.12.16-.25.31-.38.47.1.19.2.37.31.55.87,1.51,1.76,3.02,2.62,4.55.29.51.51,1.05.77,1.58v.71ZM31.08,12.09c-3.65,0-6.55,2.94-6.54,6.64,0,3.59,2.96,6.47,6.64,6.46,3.58,0,6.46-2.96,6.47-6.64.01-3.51-3-6.47-6.57-6.47ZM34.03,25.85c.27.46.53.92.79,1.37.79,1.38,1.59,2.76,2.38,4.13.3.52.72.74,1.19.64.78-.17,1.09-.94.66-1.7-.98-1.71-1.97-3.42-2.95-5.12-.08-.13-.16-.27-.23-.39-.61.35-1.2.69-1.84,1.06Z"/>
      <path class="cls-1" d="M22.27,33.11c.09.19.15.31.22.44.81,1.58,1.62,3.16,2.43,4.74.07.13.18.28.16.39-.04.22-.11.49-.26.63-.21.18-.5.14-.71-.09-.1-.12-.17-.26-.24-.4-.91-1.78-1.83-3.55-2.73-5.34-.14-.27-.28-.38-.6-.38-1.92.02-3.84.01-5.77,0-.29,0-.44.09-.57.35-.9,1.8-1.83,3.58-2.75,5.37-.07.13-.13.26-.22.37-.19.24-.46.27-.71.14-.26-.13-.37-.37-.29-.66.04-.14.11-.27.18-.4.81-1.58,1.62-3.16,2.42-4.74.06-.11.11-.23.21-.43-.19,0-.33,0-.46,0-1.71,0-3.42,0-5.14,0-1.17,0-1.66-.49-1.66-1.65,0-.31,0-.63,0-1-.16,0-.3,0-.44,0-1.16,0-2.32,0-3.48,0-1.16,0-1.85-.69-1.85-1.84C0,20.57,0,12.53,0,4.48c0-1.13.69-1.82,1.82-1.83.84,0,1.69,0,2.53,0,.48,0,.78.32.69.7-.08.35-.33.48-.68.48-.82,0-1.63,0-2.45,0-.57,0-.73.16-.73.72,0,7.99,0,15.99,0,23.98,0,.6.15.73.8.73,10.23,0,20.46,0,30.69,0,.14,0,.29-.01.43,0,.33.04.53.22.55.56.02.32-.2.57-.55.6-.25.02-.5.01-.75.01-.92,0-1.84,0-2.83,0,0,.38,0,.74,0,1.1,0,1-.53,1.54-1.53,1.55-1.75,0-3.5,0-5.25,0-.14,0-.28,0-.49,0ZM28.35,30.48H6.98s-.03.07-.03.1c0,.26,0,.53,0,.79q0,.55.57.55c6.75,0,13.51,0,20.26,0,.09,0,.2.03.27,0,.11-.07.27-.18.28-.28.03-.38.01-.76.01-1.15Z"/>
      <path class="cls-1" d="M18.4,15.56c.1-.28-.07-.43-.34-.57-.52-.28-1.03-.59-1.55-.86-.12-.06-.33-.05-.44.02-.78.48-1.53.48-2.3-.01-.1-.07-.3-.08-.41-.02-.56.29-1.1.63-1.65.92-.23.12-.27.26-.26.5.04,1.06-.74,1.95-1.74,2.04-1.09.09-2.01-.61-2.16-1.69-.11-.8.19-1.46.86-1.9.7-.46,1.45-.46,2.15,0,.23.15.37.16.59.03.52-.31,1.04-.61,1.58-.9.18-.1.26-.2.25-.43-.05-1.19.82-2.12,1.95-2.12,1.15,0,1.99.93,1.98,2.15,0,.12.09.3.2.36.56.34,1.13.67,1.72.97.1.05.3.03.4-.03.47-.29.95-.42,1.5-.34.13.02.34-.06.42-.16.99-1.35,1.96-2.71,2.92-4.08.07-.11.09-.32.03-.44-.44-.89-.27-1.86.46-2.47.69-.58,1.69-.62,2.41-.1.74.54,1.02,1.52.67,2.36-.36.87-1.23,1.32-2.23,1.18-.11-.02-.28.06-.34.14-1,1.37-1.98,2.76-2.98,4.13-.15.21-.04.33.04.49.38.74.25,1.62-.31,2.24-.53.59-1.43.79-2.17.49-.75-.3-1.24-1.03-1.23-1.89ZM14.94,11.75c-.41,0-.78.36-.79.78,0,.42.35.78.78.79.42,0,.79-.35.79-.77,0-.41-.36-.79-.78-.79ZM25.8,7.24c-.42,0-.77.37-.76.8,0,.43.36.78.78.77.42,0,.77-.37.77-.79,0-.42-.37-.78-.79-.78ZM21.15,15.63c0-.41-.36-.79-.77-.8-.41,0-.78.35-.79.77,0,.43.33.78.77.79.42,0,.79-.35.8-.76ZM10.27,15.63c0-.42-.36-.79-.77-.79-.41,0-.79.37-.79.78,0,.42.35.78.78.78.43,0,.78-.34.79-.77Z"/>
      <path class="cls-1" d="M14.37,2.65c0-.41,0-.77,0-1.14.02-.87.59-1.47,1.46-1.49,1.21-.03,2.42-.03,3.63,0,.88.02,1.46.64,1.47,1.52,0,.35,0,.71,0,1.11h.49c3.96,0,7.93,0,11.89,0,1.33,0,1.99.66,1.99,1.99,0,1.67,0,3.34,0,5.02,0,.17.02.39-.07.5-.14.17-.37.35-.57.37-.28.04-.48-.18-.53-.48-.02-.13-.01-.26-.01-.39,0-1.67,0-3.34,0-5.02,0-.67-.14-.8-.82-.8-8.69,0-17.38,0-26.07,0-.16,0-.32,0-.47-.01-.3-.05-.47-.24-.5-.53-.02-.29.13-.51.42-.59.15-.04.31-.04.47-.04,2.25,0,4.5,0,6.75,0h.47ZM19.75,2.63c0-.38,0-.72,0-1.06,0-.24-.12-.37-.36-.37-1.16,0-2.31-.01-3.47.01-.12,0-.33.19-.35.31-.05.36-.02.73-.02,1.11h4.2Z"/>
      <path class="cls-1" d="M13.13,22.32c0-1.29,0-2.58,0-3.87,0-.66.2-.85.84-.86.66,0,1.32,0,1.97,0,.55,0,.78.22.78.76,0,2.65,0,5.29,0,7.94,0,.53-.22.75-.74.75-.7,0-1.4,0-2.09,0-.54,0-.76-.22-.76-.78,0-1.32,0-2.63,0-3.95ZM15.52,25.85v-7.04h-1.17v7.04h1.17Z"/>
      <path class="cls-1" d="M18.57,23.83c0-.8,0-1.6,0-2.41,0-.58.2-.79.78-.79.68,0,1.37,0,2.05,0,.56,0,.76.2.76.77,0,1.63,0,3.26,0,4.89,0,.55-.22.76-.77.76-.68,0-1.37,0-2.05,0-.55,0-.76-.22-.76-.77,0-.82,0-1.63,0-2.45ZM20.95,25.85v-4h-1.17v4h1.17Z"/>
      <path class="cls-1" d="M11.29,23.82c0,.82,0,1.63,0,2.45,0,.56-.22.78-.76.78-.7,0-1.39,0-2.09,0-.53,0-.75-.22-.75-.75,0-1.64,0-3.29,0-4.93,0-.53.21-.73.75-.74.7,0,1.39,0,2.09,0,.55,0,.75.22.75.78,0,.8,0,1.6,0,2.41ZM8.9,21.83v4h1.17v-4h-1.17Z"/>
      <path class="cls-1" d="M25.2,25.87c.58,0,1.11,0,1.65,0,.48,0,.73.2.74.57,0,.37-.25.6-.71.61-.71,0-1.42,0-2.13,0-.51,0-.72-.22-.73-.72,0-.51,0-1.02,0-1.54,0-.41.23-.65.58-.66.34,0,.58.24.6.64.01.35,0,.7,0,1.09Z"/>
      <path class="cls-1" d="M35.54,18.48c-.05-.26-.15-.76-.25-1.25-.04-.17-.12-.32-.17-.48-.11-.37.02-.66.32-.79.3-.12.61.01.77.36.38.83.57,1.7.5,2.61-.22,2.74-1.96,4.7-4.65,5.25-3.04.63-6.26-1.76-6.55-4.85-.27-2.92,1.34-5.32,4.17-6.11,1.71-.48,3.31-.11,4.75.91.3.21.36.56.17.83-.19.27-.51.34-.84.13-.66-.43-1.35-.75-2.14-.85-2.35-.28-4.53,1.31-4.91,3.64-.28,1.77.3,3.27,1.76,4.33,1.47,1.07,3.08,1.19,4.69.33,1.5-.8,2.26-2.11,2.37-4.06Z"/>
    </g>
  </g>
</svg>