<?xml version="1.0" encoding="UTF-8"?>
<svg id="Capa_2" data-name="Capa 2" xmlns="http://www.w3.org/2000/svg" viewBox="0 0 45.02 50.51">
  <defs>
    <style>
      .cls-1 {
        fill: #fff;
        stroke-width: 0px;
      }
    </style>
  </defs>
  <g id="Capa_2-2" data-name="Capa 2">
    <g>
      <path class="cls-1" d="M2.96,50.51c-1.13-.59-1.35-1.15-.96-2.37.69-2.16,1.37-4.32,2.06-6.48.34-1.09.77-1.4,1.9-1.41,1.56,0,3.12,0,4.69,0,.08,0,.16,0,.25,0,.52.02.86.33.85.76-.01.42-.34.71-.84.71-1.58,0-3.16.02-4.74,0-.43,0-.62.11-.75.54-.63,2.09-1.31,4.17-1.97,6.25-.05.15-.09.31-.14.49h38.38c-.04-.17-.08-.32-.12-.46-.67-2.11-1.34-4.22-1.99-6.34-.11-.36-.27-.47-.65-.47-8.01.01-16.02,0-24.03,0-.13,0-.26,0-.39,0-.58-.01-.9-.28-.89-.75,0-.46.33-.73.92-.73,8.24,0,16.48,0,24.72,0,.85,0,1.36.37,1.62,1.17.75,2.33,1.49,4.66,2.22,6.99.3.95-.01,1.54-1.05,2.08H2.96Z"/>
      <path class="cls-1" d="M27.45,30.98c.17,1.83.33,3.57.49,5.34,1.11,0,2.1-.02,3.08.01.27.01.6.14.77.32.36.4.08,1.03-.46,1.12-.16.03-.33.02-.49.02-5.56,0-11.12,0-16.68,0-.76,0-1.12-.24-1.12-.73,0-.5.37-.75,1.12-.75.82,0,1.64.01,2.47-.01.13,0,.37-.14.38-.24.2-1.67.38-3.35.56-5.09h-.73c-4.54,0-9.08,0-13.62,0-2.02,0-3.23-1.2-3.23-3.2C0,19.59,0,11.4,0,3.22,0,1.21,1.22,0,3.23,0,16.07,0,28.92,0,41.76,0c2.04,0,3.24,1.21,3.24,3.26,0,8.16-.03,16.31.02,24.47.01,1.88-1.36,3.31-3.3,3.28-4.52-.07-9.04-.02-13.57-.02h-.71ZM4.91,23.84h35.18v-.61c0-3.3,0-6.61,0-9.91,0-.2,0-.4.05-.58.1-.36.37-.54.74-.51.38.03.61.24.66.61.03.18.02.36.02.54,0,3.29,0,6.58,0,9.86v.61h1.95v-.55c0-6.67,0-13.35,0-20.02,0-1.25-.55-1.79-1.81-1.79-12.81,0-25.62,0-38.43,0-1.26,0-1.8.54-1.8,1.79,0,6.67,0,13.35,0,20.02v.55h1.95c0-.6,0-1.17,0-1.74,0-5.61,0-11.21.02-16.82,0-.45.15-.95.39-1.33.33-.53.92-.61,1.53-.61,11.43,0,22.86,0,34.28,0,.15,0,.3,0,.44.01.74.07,1.43.66,1.45,1.39.05,1.63.03,3.25.02,4.88,0,.4-.27.63-.67.65-.4.02-.66-.18-.75-.57-.04-.16-.04-.33-.04-.49,0-1.25,0-2.5,0-3.75q0-.64-.65-.64c-11.3,0-22.59,0-33.89,0q-.64,0-.64.65c0,5.93,0,11.87,0,17.8v.56ZM43.52,25.38H1.53c-.02.06-.04.09-.04.12,0,.72,0,1.45,0,2.17,0,1.32.52,1.83,1.86,1.83,12.77,0,25.55,0,38.32,0,.15,0,.3,0,.44,0,.77-.04,1.39-.61,1.41-1.38.03-.9,0-1.8,0-2.74ZM19.03,31c-.16,1.8-.31,3.54-.46,5.28h7.86c-.15-1.78-.3-3.52-.45-5.28h-6.95Z"/>
      <path class="cls-1" d="M14.52,47.45c-.2,0-.4.02-.59,0-.41-.06-.65-.32-.66-.73,0-.41.24-.69.65-.73.37-.04.75-.03,1.13,0,.42.03.71.36.68.75-.03.41-.27.66-.68.71-.18.02-.36,0-.54,0Z"/>
      <path class="cls-1" d="M18.53,44.79c-.18,0-.36.01-.54,0-.42-.03-.67-.28-.7-.69-.03-.41.21-.71.61-.76.42-.05.85-.05,1.27,0,.4.06.61.36.57.79-.04.4-.28.61-.68.65-.18.02-.36,0-.54,0Z"/>
      <path class="cls-1" d="M10.48,44.79c-.16,0-.33,0-.49,0-.43-.03-.71-.3-.72-.71,0-.4.25-.72.68-.75.36-.03.72-.03,1.08,0,.42.03.71.35.71.74,0,.4-.31.7-.77.73-.16,0-.33,0-.49,0Z"/>
      <path class="cls-1" d="M22.52,44.79c-.16,0-.33,0-.49,0-.42-.03-.66-.26-.71-.67-.04-.39.23-.74.64-.78.39-.04.79-.04,1.18,0,.42.04.69.4.64.79-.05.41-.3.64-.72.66-.18,0-.36,0-.54,0Z"/>
      <path class="cls-1" d="M26.55,44.79c-.16,0-.33,0-.49,0-.43-.03-.71-.31-.72-.71,0-.4.26-.71.69-.75.36-.03.72-.03,1.08,0,.42.03.71.36.71.74,0,.4-.32.7-.77.72-.16,0-.33,0-.49,0Z"/>
      <path class="cls-1" d="M34.5,44.79c-.18,0-.36.01-.54,0-.42-.04-.67-.29-.69-.7-.02-.41.22-.7.62-.75.39-.05.79-.04,1.17,0,.42.04.68.37.66.77-.02.4-.3.66-.74.69-.16,0-.33,0-.49,0h0Z"/>
      <path class="cls-1" d="M18.57,45.98c.18,0,.36-.02.54,0,.4.07.65.31.65.73,0,.42-.25.68-.66.72-.36.04-.72.03-1.08,0-.42-.02-.72-.33-.73-.71-.01-.4.3-.72.74-.76.18-.01.36,0,.54,0,0,0,0,0,0,0Z"/>
      <path class="cls-1" d="M30.57,47.45c-.18,0-.36.02-.54,0-.42-.05-.65-.3-.68-.71-.03-.38.27-.72.68-.75.36-.03.72-.02,1.08,0,.43.03.71.34.71.73,0,.4-.28.7-.71.73-.18.02-.36,0-.54,0Z"/>
      <path class="cls-1" d="M10.5,47.45c-.18,0-.36.01-.54,0-.42-.04-.7-.33-.7-.74,0-.4.28-.7.71-.73.34-.02.69-.02,1.03,0,.44.03.75.36.74.76-.02.39-.31.68-.74.71-.16.01-.33,0-.49,0Z"/>
      <path class="cls-1" d="M34.49,47.45c-.16,0-.33.01-.49,0-.42-.03-.72-.33-.73-.72-.01-.4.3-.73.74-.75.33-.02.65-.02.98,0,.46.02.75.32.75.74,0,.42-.3.7-.76.73-.16,0-.33,0-.49,0Z"/>
      <path class="cls-1" d="M30.6,44.79c-.18,0-.36,0-.54,0-.42-.03-.67-.27-.7-.68-.03-.41.2-.71.61-.77.4-.05.82-.05,1.22,0,.4.05.63.32.63.75,0,.4-.29.68-.73.71-.16.01-.33,0-.49,0Z"/>
      <path class="cls-1" d="M26.57,47.45c-.16,0-.33,0-.49,0-.46-.03-.75-.33-.74-.75,0-.4.28-.7.71-.72.34-.02.69-.02,1.03,0,.42.03.72.34.73.72,0,.4-.3.72-.75.75-.16.01-.33,0-.49,0Z"/>
      <path class="cls-1" d="M14.51,44.79c-.18,0-.36.01-.54,0-.42-.03-.67-.28-.69-.69-.02-.42.21-.71.62-.76.4-.05.82-.05,1.22,0,.4.05.64.34.62.76-.02.41-.26.66-.69.69-.18.01-.36,0-.54,0Z"/>
      <path class="cls-1" d="M22.52,47.45c-.18,0-.36.02-.54,0-.41-.06-.65-.3-.66-.72,0-.42.24-.68.65-.73.37-.04.75-.03,1.13,0,.42.03.7.36.69.75-.01.39-.3.68-.73.72-.18.01-.36,0-.54,0,0,0,0,0,0,0Z"/>
      <path class="cls-1" d="M19.47,9.77c-.16.29-.23.51-.37.68-2.49,2.93-4.99,5.85-7.49,8.77-.35.41-.78.48-1.12.2-.35-.29-.36-.74,0-1.17,2.49-2.92,4.99-5.85,7.49-8.77.24-.28.54-.5.9-.31.23.12.38.38.59.6Z"/>
      <path class="cls-1" d="M13.84,11.69c-.12.25-.16.44-.27.57-.67.78-1.36,1.56-2.05,2.32-.31.33-.76.34-1.06.07-.3-.28-.33-.71-.03-1.06.66-.77,1.32-1.54,2.03-2.27.18-.18.58-.27.82-.21.22.05.37.38.55.58Z"/>
      <path class="cls-1" d="M22.52,26.69c.46,0,.92-.01,1.38,0,.51.02.82.3.83.72,0,.42-.31.74-.81.75-.95.02-1.91.02-2.86,0-.49,0-.81-.33-.81-.75,0-.42.32-.71.83-.72.48-.01.95,0,1.43,0Z"/>
    </g>
  </g>
</svg>