<?xml version="1.0" encoding="UTF-8"?>
<svg id="Capa_2" data-name="Capa 2" xmlns="http://www.w3.org/2000/svg" viewBox="0 0 51.5 51.48">
  <defs>
    <style>
      .cls-1 {
        fill: #fff;
        stroke-width: 0px;
      }
    </style>
  </defs>
  <g id="Capa_1-2" data-name="Capa 1">
    <g>
      <path class="cls-1" d="M34.28,23.17c0-1.25,0-2.5,0-3.75,0-.36-.1-.51-.49-.51-1.05.02-2.11.01-3.16,0-.24,0-.45.08-.65.2-.98.59-1.96,1.17-2.94,1.76-.36.22-.55.83-.39,1.21.09.22.29.18.46.18.93,0,1.86,0,2.78,0,.7,0,1.01.32,1.02,1.02,0,1.64,0,3.28,0,4.92,0,.66-.33.97-1,.98-.93.01-1.86.01-2.78,0-.36,0-.51.11-.5.49.03,1.37-.14,1.13,1.12,1.15.89.01,1.78.01,2.68,0,.37,0,.5.13.5.5-.03,1.55.18,1.26-1.26,1.29-.86.01-1.71.01-2.57,0-.35,0-.47.13-.47.47.02,1.44-.15,1.15,1.21,1.17,2.33.03,3.8,2.37,2.76,4.42-.21.41-.41.5-.76.17-.13-.12-.27-.23-.43-.32-.41-.23-.54-.51-.37-.99.2-.59-.19-1.19-.79-1.38-.19-.06-.38-.1-.58-.1-1.3,0-2.61-.02-3.91,0-1.06.02-1.65.82-1.3,1.7.23.58.73.75,1.29.78,1.2.06,1.19.06,1.16,1.29,0,.36-.12.53-.49.51-.57-.04-1.14.06-1.7-.11-1.48-.45-2.36-1.84-2.15-3.4.19-1.45,1.47-2.54,2.98-2.56q1.28-.02,1.28-1.3c0-1.09-.01-2.18,0-3.27,0-.37-.12-.51-.49-.5-.93.02-1.86.01-2.78,0-.7,0-1.01-.32-1.01-1.02,0-1.62,0-3.25,0-4.87,0-.73.31-1.02,1.06-1.03.82,0,1.64.01,2.46-.01.25,0,.6.17.74-.22.16-.45-.02-.94-.42-1.19-1.02-.62-2.05-1.23-3.07-1.85-1.07-.64-1.06-1.33.02-1.98,1.01-.61,2.02-1.21,3.03-1.82.42-.25.61-.8.45-1.23-.06-.17-.19-.19-.34-.19-.3,0-.61,0-.91,0-1.71-.02-3.01-1.33-3.02-3.03,0-1.71,1.29-3.03,3-3.04,1.46-.01,2.93-.01,4.39,0,1.67.01,2.96,1.34,2.97,3.02,0,1.71-1.29,3.03-2.99,3.05-.18,0-.36-.02-.53,0-.25.04-.66-.18-.73.22-.07.41-.17.87.36,1.17,1,.55,1.97,1.16,2.94,1.76.26.16.52.2.81.2,1.39,0,2.78,0,4.18,0,.81,0,1.1.29,1.1,1.1,0,2.89,0,5.78,0,8.67,0,.43-.12.6-.57.59-1.44-.04-1.2.16-1.22-1.22-.01-1.03,0-2.07,0-3.1ZM25.81,24.06c-.98,0-1.96.01-2.94,0-.36,0-.51.11-.5.49.02.8.02,1.61,0,2.41,0,.35.14.46.48.46,1.95-.01,3.89-.01,5.84,0,.34,0,.48-.11.48-.46-.02-.8-.02-1.61,0-2.41,0-.38-.14-.5-.5-.49-.95.02-1.89,0-2.84,0ZM25.76,9.5c-.68,0-1.36-.02-2.03,0-.81.03-1.34.55-1.33,1.25,0,.68.52,1.2,1.3,1.22,1.37.03,2.75.03,4.12,0,.55,0,1.01-.24,1.22-.8.31-.85-.25-1.62-1.24-1.67-.68-.03-1.36,0-2.03,0ZM25.76,19.48c.07-.02.13-.03.17-.06.69-.41,1.38-.82,2.06-1.23.24-.14.09-.26-.06-.35-.64-.39-1.28-.77-1.92-1.16-.17-.1-.33-.11-.5,0-.64.39-1.28.77-1.92,1.15-.19.12-.28.24-.03.38.66.39,1.31.79,1.97,1.18.07.04.16.06.23.09Z"/>
      <path class="cls-1" d="M25.76,6.07c-5.46,0-10.92,0-16.38,0q-.71,0-.72.69c0,1.28-.01,2.57,0,3.85,0,.42-.11.61-.57.6-1.45-.04-1.21.16-1.22-1.22-.01-1.89,0-3.78,0-5.67C6.88,1.87,8.75,0,11.22,0c9.69,0,19.38,0,29.07,0,2.47,0,4.34,1.86,4.35,4.33,0,9.78,0,19.56.01,29.34,0,.56-.18.7-.7.68-1.25-.05-1.09.13-1.09-1.08,0-8.81,0-17.63,0-26.44q0-.75-.77-.75c-5.44,0-10.88,0-16.33,0ZM25.78,1.79c-4.76,0-9.52,0-14.29,0-1.33,0-2.28.61-2.66,1.67-.27.75-.22.82.56.82,10.86,0,21.72,0,32.58,0,.91,0,.99-.12.63-.96-.06-.13-.13-.26-.2-.38-.58-.88-1.45-1.16-2.45-1.16-4.73,0-9.45,0-14.18,0Z"/>
      <path class="cls-1" d="M6.79,32.09c-.42.33-.74.72-1.07,1.11-2.32,2.77-3.63,5.94-3.85,9.55-.16,2.66-.03,5.32-.07,7.97-.01.75,0,.75-.72.75-1.2,0-1.06.13-1.06-1.05,0-2.39-.04-4.78.01-7.17.1-4.46,1.72-8.34,4.68-11.66.53-.6,1.1-1.17,1.73-1.67.33-.26.44-.55.44-.96-.01-5.1,0-10.21,0-15.31,0-.8,0-.81.83-.8,1.05,0,.96-.1.96.94,0,7.28,0,14.56,0,21.84v.8c.74-.75,1.37-1.39,2.01-2.03.66-.66,1.45-1.02,2.4-1,1.43.03,2.47.69,3.03,1.99.56,1.29.37,2.54-.61,3.57-1.15,1.22-2.35,2.39-3.55,3.56-.32.32-.38.56-.15.96.25.43.45.89.6,1.37.13.42.33.55.76.55,3.66-.02,7.32,0,10.97,0q.82,0,.82.82c0,.12-.01.25,0,.37.06.48-.15.61-.61.61-3.6-.02-7.21,0-10.81-.02-.47,0-.66.09-.63.61.03.49-.07.99-.14,1.49-.04.27.04.41.33.41.16,0,.32,0,.48,0,5.25,0,10.49,0,15.74,0,.77,0,.78,0,.77.75,0,1.17.12,1.04-1.02,1.04-5.73,0-11.46,0-17.18,0-1.12,0-1.46-.44-1.15-1.51.66-2.28.34-4.41-1-6.38-.44-.65-.4-.98.17-1.55,1.35-1.35,2.7-2.7,4.05-4.05.43-.43.74-.92.58-1.57-.27-1.09-1.44-1.53-2.35-.88-.2.14-.38.32-.56.5-1.81,1.8-3.62,3.6-5.41,5.42-.31.32-.5.32-.81,0-.87-.89-.95-.97,0-1.73,1.22-.97,1.67-2.12,1.5-3.66-.12-1.13-.02-2.28-.03-3.42,0-.17.05-.35-.07-.55Z"/>
      <path class="cls-1" d="M32.57,42.25c0-.69,0-1.38,0-2.08,0-2.68,0-5.35,0-8.03,0-1.55,1.12-2.83,2.59-3.01,1.63-.19,3.05.77,3.42,2.34.13.54.05,1.1.06,1.65.01.86.01,1.71,0,2.57,0,.34.05.49.45.38.91-.25,1.78-.11,2.55.44.3.21.51.19.81,0,1.14-.75,2.32-.75,3.46,0,.3.19.5.22.81.01,1.04-.7,2.14-.77,3.23-.16,1.07.6,1.56,1.56,1.55,2.79-.01,3.71,0,7.42,0,11.13,0,.92-.27,1.19-1.17,1.19-5.53,0-11.06,0-16.59,0-.44,0-.79-.13-1.11-.42-2.25-2.01-4.51-4-6.75-6.02-1.31-1.19-1.37-3.28-.17-4.58,1.24-1.34,3.34-1.47,4.67-.23.72.67,1.37,1.4,2.04,2.11.05-.03.1-.06.15-.09ZM41.67,49.69c2.46,0,4.92-.01,7.39.01.53,0,.67-.16.66-.67-.03-1.07-.01-2.14-.01-3.21,0-2.12,0-4.25,0-6.37,0-1.06-.46-1.66-1.26-1.65-.79.01-1.23.6-1.24,1.68,0,.29.01.57,0,.86-.03.53-.4.87-.9.86-.5,0-.85-.35-.88-.88-.02-.39,0-.79-.01-1.18-.05-.81-.55-1.34-1.25-1.34-.7,0-1.19.53-1.23,1.35-.02.39,0,.79-.01,1.18-.03.53-.39.87-.89.87-.5,0-.86-.34-.88-.88-.02-.39,0-.79-.01-1.18-.05-.81-.55-1.34-1.24-1.34-.7,0-1.19.53-1.24,1.35-.02.41,0,.82-.02,1.23-.02.42-.27.7-.67.8-.42.1-.77-.05-1-.44-.13-.21-.1-.45-.1-.68,0-2.46,0-4.92,0-7.39,0-.29,0-.57-.09-.85-.21-.67-.85-1.01-1.52-.81-.58.18-.88.63-.88,1.43,0,1.75,0,3.5,0,5.25,0,2.27,0,4.53,0,6.8,0,.41-.14.74-.52.91-.4.18-.77.08-1.07-.23-.12-.13-.25-.25-.38-.38-1.02-1.02-2.03-2.06-3.07-3.06-.71-.68-1.66-.68-2.25-.05-.6.65-.51,1.54.25,2.22,2.05,1.82,4.11,3.64,6.16,5.47.26.23.52.33.86.33,2.44-.01,4.89,0,7.33,0Z"/>
      <path class="cls-1" d="M35.98,10.35c-.69,0-1.39,0-2.08,0-.34,0-.48-.12-.47-.47.02-1.6-.18-1.3,1.27-1.32,1.14-.02,2.28,0,3.42,0,.39,0,.54.13.53.52-.03,1.51.17,1.24-1.22,1.27-.48,0-.96,0-1.44,0h0Z"/>
      <path class="cls-1" d="M35.98,13.78c-.69,0-1.39-.01-2.08,0-.34,0-.48-.12-.47-.47.02-1.6-.18-1.3,1.27-1.32,1.14-.02,2.28,0,3.42,0,.39,0,.54.13.53.53-.03,1.51.17,1.24-1.22,1.27-.48,0-.96,0-1.44,0h0Z"/>
      <path class="cls-1" d="M15.51,17.21c-.71,0-1.43-.01-2.14,0-.35,0-.52-.1-.51-.48.03-1.57-.17-1.28,1.24-1.3,1.12-.02,2.25.01,3.37-.01.45,0,.64.11.63.6-.04,1.41.15,1.18-1.19,1.2-.46,0-.93,0-1.39,0Z"/>
      <path class="cls-1" d="M15.47,20.63c-.71,0-1.43,0-2.14,0-.34,0-.48-.12-.47-.47.02-1.6-.18-1.3,1.27-1.32,1.14-.02,2.28,0,3.42,0,.39,0,.54.13.53.52-.03,1.51.17,1.24-1.22,1.27-.46,0-.93,0-1.39,0h0Z"/>
      <path class="cls-1" d="M15.47,24.92c-.71,0-1.43-.01-2.14,0-.35,0-.47-.14-.47-.47.02-1.58-.17-1.29,1.23-1.31,1.16-.02,2.32,0,3.47,0,.4,0,.53.14.52.53-.03,1.5.17,1.23-1.23,1.26-.46,0-.93,0-1.39,0h0Z"/>
      <path class="cls-1" d="M15.47,28.34c-.71,0-1.43,0-2.14,0-.34,0-.48-.13-.47-.47.02-1.59-.17-1.3,1.22-1.32,1.16-.02,2.32,0,3.47,0,.39,0,.53.13.53.53-.03,1.51.17,1.24-1.22,1.27-.46,0-.93,0-1.39,0h0Z"/>
      <path class="cls-1" d="M12.09,8.61q0,.89-.9.89t-.89-.9.95-.89.84.9Z"/>
      <path class="cls-1" d="M13.72,8.55q0-.84.95-.84t.84.95-.95.84-.84-.95Z"/>
      <path class="cls-1" d="M18.02,9.5c-.87,0-.87,0-.87-.92,0-.97-.07-.86.98-.86.81,0,.81,0,.81.97q0,.81-.92.81Z"/>
    </g>
  </g>
</svg>