<?xml version="1.0" encoding="UTF-8"?>
<svg id="Capa_2" data-name="Capa 2" xmlns="http://www.w3.org/2000/svg" viewBox="0 0 71.25 71.25">
  <defs>
    <style>
      .cls-1 {
        fill: #fff;
        stroke-width: 0px;
      }
    </style>
  </defs>
  <g id="Capa_1-2" data-name="Capa 1">
    <g>
      <path class="cls-1" d="M.89,71.15c-1.02-.76-1.15-1.38-.46-2.56,3.94-6.81,7.88-13.62,11.83-20.43,1.74-3,3.47-6.01,5.22-9.01.84-1.44,2.06-1.44,2.93-.03,1.54,2.5,3.08,5.01,4.63,7.5.42.69.45.68.88-.02,2.62-4.26,5.24-8.51,7.87-12.76.28-.45.39-.91.39-1.44,0-10.16,0-20.32,0-30.48,0-.46-.03-.93.27-1.33C34.76.18,35.19,0,35.71,0,43.04,0,50.38,0,57.72,0c.64,0,1.13.23,1.41.82.29.61.13,1.17-.28,1.68-1.39,1.74-2.75,3.49-4.17,5.2-.43.52-.42.85,0,1.36,1.35,1.62,2.65,3.28,3.96,4.92.29.36.59.72.62,1.22.05.83-.5,1.48-1.34,1.55-.25.02-.51.01-.76.01-6.41,0-12.82.01-19.23-.02-.71,0-.89.2-.89.9.03,4.95.02,9.91,0,14.86,0,.48.12.89.37,1.3,2.64,4.27,5.27,8.55,7.91,12.82.42.68.44.69.88-.02,1.51-2.44,3.08-4.85,4.49-7.35.82-1.45,2.24-1.6,3.2.07,5.63,9.84,11.34,19.64,17.02,29.45.08.14.17.28.25.41,0,.65.25,1.55-.07,1.87-.32.32-1.22.07-1.87.07-22.78,0-45.55,0-68.33,0ZM35.57,68.33c6.22,0,12.45,0,18.67,0,.26,0,.62.15.77-.12.12-.22-.16-.46-.29-.66-6.22-10.11-12.44-20.22-18.66-30.32-.45-.73-.47-.73-.92,0-6.22,10.11-12.44,20.21-18.66,30.32-.13.21-.41.44-.29.66.15.27.51.12.77.12,6.2,0,12.4,0,18.61,0ZM8.27,68.33c1.13,0,2.27-.04,3.4.01.63.03,1-.19,1.34-.73,3.45-5.64,6.91-11.28,10.4-16.9.28-.45.24-.77-.03-1.18-1.35-2.16-2.68-4.33-4.01-6.49-.38-.62-.4-.63-.77.02-1.72,2.96-3.43,5.92-5.14,8.89-3.03,5.24-6.07,10.49-9.1,15.73-.37.64-.37.65.38.65,1.18,0,2.36,0,3.54,0ZM62.91,68.33c1.16,0,2.31,0,3.47,0,.24,0,.57.15.69-.13.1-.21-.15-.41-.26-.61-2.48-4.28-4.96-8.57-7.43-12.85-2.25-3.88-4.49-7.77-6.75-11.64-.13-.22-.25-.92-.69-.2-1.41,2.28-2.81,4.57-4.22,6.85-.18.3-.17.53.01.82.68,1.07,1.34,2.16,2.01,3.25,2.81,4.57,5.63,9.13,8.42,13.72.37.61.79.85,1.5.82,1.08-.06,2.17-.02,3.26-.02ZM45.88,2.88c-2.71,0-5.41.01-8.12,0-.53,0-.73.14-.73.7.02,3.22.02,6.43,0,9.65,0,.51.17.68.68.68,5.46-.01,10.92,0,16.38-.01.17,0,.41.1.49-.12.06-.16-.12-.28-.22-.41-.97-1.21-1.94-2.42-2.9-3.63-.86-1.08-.86-1.61.02-2.7.94-1.17,1.88-2.35,2.81-3.52.12-.15.38-.3.28-.51-.1-.22-.38-.1-.57-.1-2.71,0-5.41,0-8.12,0Z"/>
      <path class="cls-1" d="M38.91,47.92c.58.01.98.51,1.33,1.08,1.87,3.03,3.73,6.06,5.6,9.1,1.03,1.67,2.06,3.35,3.09,5.02.22.36.43.73.39,1.16-.05.6-.37,1.04-.94,1.26-.57.21-1.12.12-1.52-.34-.32-.36-.57-.78-.82-1.2-2.77-4.49-5.53-8.98-8.29-13.47-.14-.23-.29-.48-.37-.74-.31-.93.39-1.87,1.53-1.87Z"/>
      <path class="cls-1" d="M35.61,46.19c-.82,0-1.45-.64-1.43-1.46.02-.79.63-1.4,1.42-1.4.82,0,1.45.64,1.43,1.46-.02.79-.63,1.4-1.42,1.4Z"/>
    </g>
  </g>
</svg>