<?xml version="1.0" encoding="UTF-8"?>
<svg id="Capa_2" data-name="Capa 2" xmlns="http://www.w3.org/2000/svg" viewBox="0 0 35.34 35.34">
  <defs>
    <style>
      .cls-1 {
        fill: #fff;
        stroke-width: 0px;
      }
    </style>
  </defs>
  <g id="Capa_1-2" data-name="Capa 1">
    <g>
      <path class="cls-1" d="M34.34,35.33h-5.72c-.4-.29-.52-.58-.4-.93.11-.33.37-.48.86-.48,1.45,0,2.9,0,4.34,0,.48,0,.48,0,.48-.48,0-4.86,0-9.72,0-14.58,0-.46,0-.47-.46-.47-1.67,0-3.33,0-5,0-.68,0-.98-.43-.77-1.07.09-.27.18-.55.13-.84-.1-.7-.46-1.2-1.14-1.43-.65-.22-1.23-.08-1.71.4-.51.51-.62,1.13-.38,1.81.25.72-.04,1.12-.82,1.13-1.65,0-3.31,0-4.96,0-.31,0-.43.09-.42.41.01,1.28.01,2.55,0,3.83,0,.33.12.41.43.41,1.69.02,3.03,1.41,3.03,3.12,0,1.71-1.34,3.11-3.02,3.13-.33,0-.44.11-.43.44.02,1.25,0,2.5,0,3.76,0,.44,0,.45.44.45,1.46,0,2.92,0,4.38,0,.49,0,.75.14.86.48.12.35,0,.64-.4.93-7.79,0-15.58,0-23.37,0-.24,0-.28-.05-.28-.28C0,23.71,0,12.35,0,1,.31.3.83,0,1.61,0c10.71.01,21.41,0,32.12,0,.31,0,.62,0,.9.18.52.32.71.79.71,1.39,0,10.71,0,21.41,0,32.12,0,.79-.28,1.32-1,1.64ZM1.41,9.19c0,2.45,0,4.89,0,7.34,0,.33.09.45.43.44.99-.02,1.98,0,2.96,0,.72,0,1.45,0,2.17,0,.55,0,.85.44.7.96-.03.1-.07.19-.1.29-.35,1.24.69,2.38,1.94,2.13,1.01-.21,1.57-1.21,1.23-2.23-.26-.78.02-1.16.84-1.16,1.63,0,3.26,0,4.89,0,.45,0,.46,0,.46-.47,0-1.24-.01-2.48,0-3.72,0-.35-.11-.45-.46-.45-1.65-.02-3-1.42-3-3.11,0-1.71,1.34-3.11,3.01-3.13.36,0,.45-.13.44-.47-.02-1.24,0-2.48,0-3.72,0-.45,0-.46-.47-.46-4.86,0-9.72,0-14.58,0-.48,0-.48,0-.48.48,0,2.42,0,4.85,0,7.27ZM26.15,1.44c-2.45,0-4.89,0-7.34,0-.33,0-.44.1-.44.43.02,1.06,0,2.11,0,3.17,0,.65,0,1.31,0,1.96,0,.54-.44.85-.97.7-.1-.03-.19-.07-.29-.1-1.24-.35-2.38.7-2.12,1.95.21,1.01,1.21,1.56,2.23,1.23.78-.26,1.16.02,1.16.84,0,1.63,0,3.26,0,4.89,0,.44.01.46.44.46,1.25,0,2.5-.01,3.76,0,.35,0,.45-.12.45-.46.02-1.65,1.42-2.99,3.11-3,1.7,0,3.1,1.33,3.14,2.98.01.47.01.47.46.47,1.24,0,2.48,0,3.72,0,.45,0,.45,0,.45-.47,0-4.86,0-9.72,0-14.58,0-.48,0-.48-.48-.48-2.42,0-4.85,0-7.27,0ZM9.17,33.93c2.44,0,4.87,0,7.31,0,.46,0,.47,0,.47-.46,0-1.67,0-3.33,0-5,0-.68.43-.98,1.07-.77.27.09.55.18.84.13,1.07-.16,1.71-1.07,1.47-2.08-.21-.87-1.19-1.54-2.25-1.15-.72.26-1.12-.04-1.12-.82,0-1.65,0-3.31,0-4.96,0-.31-.08-.43-.41-.43-1.27.01-2.55.01-3.82,0-.32,0-.41.11-.41.42-.02,1.69-1.41,3.03-3.11,3.03-1.71,0-3.11-1.34-3.13-3.01,0-.33-.1-.44-.43-.44-1.24.02-2.48,0-3.72,0-.49,0-.49,0-.49.47,0,4.86,0,9.72,0,14.58,0,.48,0,.48.49.48,2.42,0,4.85,0,7.27,0Z"/>
      <path class="cls-1" d="M25.86,35.33c-.21-.13-.38-.29-.43-.55-.06-.35.12-.68.44-.81.32-.13.69-.01.87.28.18.29.14.67-.11.91-.06.06-.14.11-.22.17h-.55Z"/>
    </g>
  </g>
</svg>