<?xml version="1.0" encoding="UTF-8"?>
<svg id="Capa_2" data-name="Capa 2" xmlns="http://www.w3.org/2000/svg" viewBox="0 0 32.45 42.99">
  <defs>
    <style>
      .cls-1 {
        fill: #fff;
        stroke-width: 0px;
      }
    </style>
  </defs>
  <g id="Capa_1-2" data-name="Capa 1">
    <g>
      <path class="cls-1" d="M30.5,0c1.4.51,1.96,1.28,1.96,2.77,0,6.92,0,13.84,0,20.76,0,.08,0,.17,0,.25,0,.5-.25.8-.65.82-.4.01-.66-.26-.71-.77-.02-.18-.01-.36-.01-.54,0-6.78,0-13.56,0-20.34,0-.21,0-.42-.02-.63-.05-.47-.37-.83-.82-.95-.25-.07-.5-.07-.75-.07-8.84,0-17.67,0-26.51,0-.24,0-.47,0-.71.06-.52.13-.85.49-.88,1.03-.02.42,0,.84-.02,1.26,0,.18-.01.36-.05.54-.08.34-.31.54-.66.53-.36-.01-.63-.23-.64-.6-.02-.67-.07-1.35.02-2.01C.21.99.92.32,1.97,0h28.52Z"/>
      <path class="cls-1" d="M.02,21.73c0-4.78,0-9.56,0-14.34,0-.74.19-1.06.65-1.07.47-.01.71.33.72,1.07,0,6.44,0,12.89,0,19.33,0,3.06,0,6.12,0,9.18,0,1.1.39,1.48,1.49,1.49.56,0,1.12-.01,1.68,0,.3,0,.43-.08.43-.4-.01-1.06-.01-2.12,0-3.19,0-.27-.13-.44-.3-.61-1.32-1.36-2.02-2.99-2.01-4.87.02-3.46,2.44-6,5.22-6.69,4.09-1.01,8.08,1.76,8.55,5.96.24,2.13-.44,3.97-1.9,5.52-.27.29-.39.57-.38.96.02.96.02,1.93,0,2.89,0,.33.11.43.44.43,5.07,0,10.15,0,15.22,0,.81,0,1.26-.47,1.26-1.29,0-2.88,0-5.76,0-8.64,0-.24,0-.48.05-.71.07-.37.31-.56.68-.53.37.02.58.25.62.62.01.12,0,.25,0,.38,0,2.92,0,5.84,0,8.76,0,1.73-1.04,2.78-2.81,2.78-3.33,0-6.65,0-9.98,0-1.66,0-3.33.01-4.99,0-.41,0-.53.13-.52.53.03.87.01,1.73,0,2.6,0,.53-.22.88-.63,1.03-.46.16-.85.04-1.17-.32-.83-.92-1.68-1.83-2.51-2.76-.21-.24-.32-.25-.54,0-.8.91-1.63,1.8-2.45,2.7-.38.42-.81.55-1.23.38-.43-.17-.65-.53-.66-1.11,0-.85-.02-1.71,0-2.56.01-.4-.14-.5-.51-.5-.74,0-1.48.06-2.22-.04-1.35-.19-2.23-1.19-2.23-2.56,0-4.81,0-9.62,0-14.43ZM9.55,33.87c3.08,0,5.56-2.45,5.57-5.51,0-3.09-2.48-5.59-5.55-5.6-3.04,0-5.56,2.51-5.56,5.55,0,3.06,2.48,5.55,5.54,5.56ZM12.77,41.03c.02-.26.03-.37.03-.48,0-1.86,0-3.72,0-5.58,0-.5-.02-.51-.49-.31-1.86.78-3.72.77-5.57-.06-.32-.14-.4-.11-.4.25.01,1.94,0,3.88,0,5.83,0,.09-.03.19.05.28.12,0,.15-.11.21-.18.73-.79,1.44-1.59,2.18-2.38.49-.52,1.08-.5,1.58.01.3.31.59.64.88.96.48.52.96,1.04,1.52,1.65Z"/>
      <path class="cls-1" d="M16.24,13.65c3.1,0,6.21,0,9.31,0,.67,0,1.02.23,1.01.67,0,.44-.36.69-1.01.69-6.21,0-12.41,0-18.62,0-.01,0-.03,0-.04,0-.62-.01-.97-.26-.97-.7,0-.43.34-.67.97-.67,3.12,0,6.23,0,9.35,0Z"/>
      <path class="cls-1" d="M16.24,11.68c-3.09,0-6.18,0-9.26,0-.71,0-1.05-.22-1.06-.68,0-.45.35-.69,1.05-.69,6.18,0,12.35,0,18.53,0,.19,0,.39-.01.58.06.3.11.47.32.47.63,0,.31-.17.52-.46.63-.19.07-.39.06-.58.06-3.09,0-6.18,0-9.26,0Z"/>
      <path class="cls-1" d="M16.24,18.32c-3.07,0-6.15,0-9.22,0-.15,0-.31,0-.46,0-.37-.04-.64-.32-.64-.65,0-.36.28-.63.68-.66.11,0,.22,0,.34,0,6.2,0,12.41,0,18.61,0,.69,0,1.02.21,1.02.65,0,.44-.34.67-1.01.67-3.1,0-6.2,0-9.3,0Z"/>
      <path class="cls-1" d="M16.23,4.84c1.51,0,3.02,0,4.52,0,.15,0,.31,0,.46.04.31.09.5.3.5.64,0,.33-.17.56-.49.64-.17.04-.36.05-.54.05-2.96,0-5.92,0-8.88,0-.72,0-1.04-.21-1.04-.69,0-.47.31-.68,1.03-.68,1.48,0,2.96,0,4.44,0Z"/>
      <path class="cls-1" d="M23.19,29.97c-.81,0-1.62,0-2.43,0-.53,0-.84-.25-.86-.66-.01-.4.3-.69.82-.7,1.66-.02,3.32-.02,4.98,0,.52,0,.84.3.84.69,0,.41-.33.66-.89.67-.82,0-1.65,0-2.47,0Z"/>
      <path class="cls-1" d="M23.24,24.13c.84,0,1.67,0,2.51,0,.5,0,.8.26.8.66,0,.39-.31.66-.81.66-1.69,0-3.38,0-5.06,0-.47,0-.77-.25-.78-.64-.01-.4.29-.67.78-.68.85,0,1.7,0,2.55,0Z"/>
      <path class="cls-1" d="M5.45,28.34c0-2.33,1.82-4.13,4.16-4.13,2.26,0,4.12,1.85,4.12,4.11,0,2.25-1.88,4.14-4.14,4.16-2.26.01-4.14-1.86-4.13-4.14ZM9.56,31.1c1.55,0,2.78-1.22,2.79-2.75,0-1.55-1.25-2.82-2.79-2.82-1.5,0-2.79,1.29-2.78,2.79,0,1.53,1.25,2.77,2.78,2.78Z"/>
    </g>
  </g>
</svg>