<?xml version="1.0" encoding="UTF-8"?>
<svg id="Capa_2" data-name="Capa 2" xmlns="http://www.w3.org/2000/svg" viewBox="0 0 35.14 41.51">
  <defs>
    <style>
      .cls-1 {
        fill: #fff;
        stroke-width: 0px;
      }
    </style>
  </defs>
  <g id="Capa_1-2" data-name="Capa 1">
    <g>
      <path class="cls-1" d="M13.02,41.51c-.29-.17-.37-.44-.43-.74-.29-1.65-.59-3.29-.87-4.94-.05-.3-.15-.35-.45-.33-1.16.09-2.32.11-3.44-.27-1.33-.45-2.24-1.32-2.68-2.66-.68-2.08-1.1-4.23-1.55-6.37-.02-.09-.05-.18-.06-.28-.01-.36-.22-.44-.54-.43-.44.02-.89,0-1.34,0-1.28-.02-2.01-1.09-1.53-2.28.68-1.69,1.38-3.37,2.08-5.05,1.06-2.56,2.01-5.15,2.78-7.81.67-2.3,1.81-4.38,3.45-6.16,1.87-2.04,4.18-3.32,6.88-3.84,4.48-.85,8.75-.22,12.75,2.02.08.05.16.09.24.14.5.31.64.65.43,1.02-.22.37-.59.41-1.09.11-.5-.29-1.01-.57-1.54-.81-2.04-.92-4.18-1.4-6.42-1.5-2-.09-3.96.11-5.85.8-2.9,1.05-4.96,3.04-6.4,5.72-.64,1.19-1.16,2.44-1.49,3.75-.59,2.34-1.54,4.55-2.44,6.77-.69,1.72-1.4,3.42-2.11,5.13-.24.58-.14.72.49.73.63,0,1.27,0,1.9,0,.58,0,.76.16.87.74.43,2.16.85,4.31,1.45,6.43.12.43.23.86.45,1.26.55,1.01,1.5,1.38,2.57,1.54.91.14,1.8.05,2.7-.1.61-.1.89.07,1,.68.28,1.55.55,3.11.83,4.66.17.97.03.83.96.83,4.66,0,9.31,0,13.97,0,.36,0,.5-.06.42-.47-.18-.95-.3-1.92-.45-2.88-.01-.09-.03-.19-.04-.28-.03-.46.17-.76.53-.82.37-.06.67.17.75.62.14.77.25,1.54.37,2.32.09.6.15,1.21.28,1.8.08.39-.02.69-.29.95H13.02Z"/>
      <path class="cls-1" d="M16.94,15.26c.51,0,1.03-.02,1.54,0,.34.01.45-.12.43-.45-.02-.51-.03-1.03,0-1.54.02-.36-.11-.39-.42-.32-1.08.24-2.17-.22-2.74-1.12-.6-.96-.55-2.15.16-3.02.67-.82,1.56-1.14,2.6-.9.36.08.41-.02.4-.33-.02-.54-.02-1.08,0-1.62,0-.28-.09-.34-.35-.32-1.9.17-3.61.85-5.16,1.96-.12.09-.24.18-.35.27-.4.29-.74.28-1-.05-.25-.32-.19-.66.2-.98.74-.61,1.56-1.12,2.44-1.51,6.36-2.82,13.57.21,15.85,6.78,1.46,4.2.68,8.12-2.24,11.5-2.46,2.86-5.67,4.12-9.43,3.98-5.29-.21-10-4.43-10.82-9.67-.52-3.3.18-6.29,2.16-8.99.05-.07.09-.13.15-.19.26-.29.62-.34.91-.13.28.2.34.58.13.91-.25.4-.55.77-.79,1.17-.75,1.24-1.18,2.6-1.36,4.03-.06.48-.01.53.49.53.92,0,1.84,0,2.75,0,.15,0,.3,0,.44.02.27.04.49.16.58.44.09.28,0,.53-.22.73-.44.38-.67.84-.5,1.43.15.51.57.88,1.07.92.56.05,1.01-.16,1.29-.65.26-.45.21-1.03-.12-1.44-.03-.03-.05-.06-.08-.09-.31-.25-.58-.53-.38-.96.2-.42.6-.4.98-.4.46,0,.92,0,1.38,0ZM18.91,18.65c0-.53-.02-1.05,0-1.58.02-.36-.08-.51-.47-.49-.51.03-1.03.02-1.54,0-.31-.01-.42.04-.34.4.39,1.84-1.19,3.44-3.04,3.09-1.41-.27-2.34-1.66-2.03-3.09.08-.37-.04-.41-.34-.4-.47.02-.94,0-1.42,0-.51,0-.56.04-.49.56.17,1.32.53,2.59,1.2,3.75,1.73,3.01,4.3,4.8,7.75,5.3q.71.1.71-.62c0-.98,0-1.97,0-2.95,0-.33.12-.58.43-.7.31-.11.55.02.75.25.06.07.13.14.19.21.51.46,1.33.44,1.79-.05.48-.5.46-1.34-.04-1.82-.56-.54-1.36-.48-1.92.16-.22.25-.47.37-.79.26-.33-.11-.43-.38-.42-.7,0-.53,0-1.05,0-1.58ZM22.2,16.59c-.51,0-1.03.02-1.54,0-.36-.02-.52.08-.49.47.03.44,0,.89,0,1.34.01.57-.12.61.56.49,1.77-.31,3.34,1.32,2.96,3.07-.31,1.44-1.66,2.32-3.11,2.01-.34-.07-.43,0-.41.34.02.51.02,1.03,0,1.54-.02.35.11.45.45.41,2.7-.33,4.97-1.49,6.76-3.54,1.4-1.6,2.19-3.48,2.46-5.58.06-.49.02-.54-.47-.54-.94,0-1.89,0-2.83,0-.37,0-.75.01-.94-.4-.18-.41.06-.69.36-.94.05-.04.09-.1.13-.15.33-.43.35-1.04.05-1.48-.32-.46-.85-.67-1.37-.54-.49.12-.8.42-.94.9-.15.53.02.96.4,1.31.27.25.45.51.3.88-.15.35-.47.4-.81.4-.5,0-1,0-1.5,0ZM20.18,13.25c0,.55,0,1.11,0,1.66,0,.26.09.37.35.36.54,0,1.08-.01,1.62,0,.32.01.44-.02.36-.42-.4-1.98,1.49-3.62,3.39-2.96,1.24.43,1.95,1.68,1.68,3-.06.3-.01.39.29.38.47-.02.94,0,1.42,0,.58,0,.61-.05.53-.63-.3-2.16-1.16-4.06-2.64-5.67-1.78-1.93-3.98-3.05-6.61-3.32-.34-.04-.41.08-.4.39.02,1.07,0,2.13,0,3.2,0,.33-.1.59-.43.71-.33.12-.58-.02-.78-.27-.05-.06-.1-.13-.16-.18-.42-.39-1.06-.45-1.54-.16-.49.3-.72.9-.57,1.48.13.52.63.88,1.21.9.46.01.8-.19,1.08-.53.19-.23.44-.37.75-.25.32.12.44.37.43.7,0,.54,0,1.08,0,1.62Z"/>
      <path class="cls-1" d="M35.14,14.44c-.04,3.4-.79,6.33-1.98,9.17-1.03,2.47-2.35,4.8-3.84,7.01-.22.33-.29.64-.23,1.02.13.73.23,1.46.35,2.2.07.45-.14.79-.53.86-.35.06-.68-.2-.75-.63-.16-1-.32-2-.47-2.99-.06-.36.17-.61.35-.88,1.08-1.58,2.07-3.22,2.93-4.94,1.35-2.69,2.38-5.49,2.73-8.51.42-3.65-.22-7.04-2.51-10.01-.41-.54-.88-1.02-1.37-1.49-.36-.34-.39-.7-.12-.99.27-.29.67-.27,1.03.07,2.47,2.3,3.88,5.14,4.27,8.49.07.64.11,1.29.14,1.63Z"/>
    </g>
  </g>
</svg>