<?xml version="1.0" encoding="UTF-8"?>
<svg id="Capa_2" data-name="Capa 2" xmlns="http://www.w3.org/2000/svg" viewBox="0 0 41.69 41.69">
  <defs>
    <style>
      .cls-1 {
        fill: #000;
        stroke-width: 0px;
      }
    </style>
  </defs>
  <g id="Capa_2-2" data-name="Capa 2">
    <g>
      <path class="cls-1" d="M22.64,0c.14.12.29.24.42.37,2.4,2.4,4.8,4.8,7.2,7.19.26.26.38.53.37.9-.02,1.42,0,2.85-.01,4.27,0,.27.07.43.32.57,2.75,1.63,4.48,4,5.17,7.12.03.12.05.24.05.36.01.35-.15.58-.5.63-.34.05-.59-.1-.68-.44-.1-.35-.16-.71-.26-1.06-1.28-4.31-5.28-7.07-9.84-6.81-4.27.25-7.91,3.52-8.7,7.83-.98,5.39,2.79,10.5,8.24,11.15,5.42.65,10.21-3.27,10.67-8.73.04-.46.3-.73.67-.7.36.04.58.32.54.76-.13,1.65-.6,3.19-1.44,4.62-.08.14-.16.28-.22.39.5.49.98.97,1.48,1.47.39-.27.73-.11,1.08.25,1.02,1.05,2.05,2.09,3.11,3.11.63.61,1.2,1.25,1.37,2.15v.9c-.03.09-.06.18-.09.27-.57,2.14-3.2,2.9-4.79,1.36-1.3-1.25-2.56-2.55-3.84-3.82-.31-.31-.3-.64-.1-.95-.5-.5-.97-.98-1.46-1.46-.01,0-.04,0-.06.02-.61.22-.76.63-.75,1.27.05,2.22.02,4.45.02,6.68,0,1.28-.74,2.02-2.02,2.02-8.86,0-17.72,0-26.58,0-1.27,0-2.01-.75-2.01-2.03,0-9.99,0-19.97,0-29.96,0-.11,0-.22,0-.33.05-.34.26-.55.6-.55.34,0,.56.2.61.54.02.15,0,.3,0,.45,0,9.89,0,19.78,0,29.68,0,.83.15.98.96.98,8.75,0,17.5,0,26.26,0,.81,0,.96-.15.96-.94,0-2.12,0-4.23,0-6.35,0-.13,0-.27,0-.44-.53.14-1.03.32-1.54.4-.76.12-1.53.24-2.3.24-4.44.02-8.87.01-13.31.01-.11,0-.22,0-.33,0-.31-.05-.49-.24-.52-.54-.03-.31.12-.53.41-.62.15-.05.32-.05.48-.05,2.55,0,5.1,0,7.65,0,.15,0,.3,0,.52,0-.52-.36-1.05-.61-1.43-1-.64-.65-1.36-.79-2.23-.75-1.49.06-2.98.02-4.48.02-.12,0-.25,0-.37-.01-.36-.05-.58-.31-.57-.63.01-.32.25-.57.61-.58.64-.02,1.28,0,1.91,0,1,0,2,0,3.06,0-.08-.14-.12-.23-.18-.31-.85-1.18-1.43-2.49-1.74-3.91-.05-.24-.14-.34-.4-.33-.85.02-1.71,0-2.56,0-.31,0-.6-.11-.66-.43-.04-.19.04-.47.16-.62.11-.13.36-.17.55-.17.87-.02,1.73,0,2.63,0v-1.77c-.66,0-1.33,0-2.01,0-.26,0-.52,0-.77,0-.37-.02-.62-.28-.61-.62.01-.34.26-.58.65-.59.79-.01,1.57,0,2.36,0,.19,0,.38,0,.61,0,.35-1.57.98-3.01,2.02-4.38-.23,0-.37,0-.5,0-1.4,0-2.8,0-4.19,0-.15,0-.3,0-.45-.02-.31-.06-.52-.27-.47-.56.03-.21.23-.43.4-.58.1-.09.31-.06.47-.06,1.83,0,3.66,0,5.5-.01.2,0,.44-.11.61-.23.67-.48,1.31-.98,2.01-1.5-.17,0-.31,0-.45,0-2.55,0-5.1,0-7.65,0-.14,0-.28.01-.4-.02-.33-.08-.52-.3-.49-.65.03-.32.23-.51.56-.55.05,0,.11,0,.16,0,4.56,0,9.12,0,13.68,0,1.12,0,2.21.22,3.27.57.09.03.18.05.3.09v-3.74c-.16,0-.31,0-.45,0-1.71,0-3.42,0-5.13,0-1.22,0-1.97-.76-1.97-1.99,0-1.84,0-3.69,0-5.59h-.45c-6.42,0-12.84,0-19.26,0-.71,0-.89.18-.89.88,0,1.59,0,3.18,0,4.76,0,.32-.1.6-.41.67-.2.04-.47-.06-.65-.18-.11-.07-.16-.31-.16-.48C0,5.2,0,3.51,0,1.83.02.86.61.31,1.47,0,8.53,0,15.58,0,22.64,0ZM34.23,33.66c1.1,1.09,2.21,2.21,3.33,3.31.73.73,1.75.75,2.43.06.67-.68.65-1.7-.08-2.43-.83-.84-1.67-1.67-2.5-2.5-.28-.28-.54-.56-.79-.82-.81.81-1.57,1.57-2.38,2.38ZM23.05,2.19c0,1.54,0,3.07,0,4.59,0,.59.2.79.82.79,1.42,0,2.85,0,4.27,0,.1,0,.2-.01.28-.01-1.78-1.79-3.56-3.56-5.36-5.37ZM35.14,30.86c-.43-.43-.85-.86-1.23-1.23-.44.44-.91.9-1.32,1.31.39.4.83.83,1.24,1.24.42-.43.88-.89,1.31-1.32Z"/>
      <path class="cls-1" d="M4.18,13.96c0-.42,0-.84,0-1.26.02-.89.58-1.44,1.46-1.45.83,0,1.65,0,2.48,0,.91,0,1.47.57,1.48,1.47,0,.83,0,1.65,0,2.48,0,.88-.57,1.46-1.44,1.47-.84.01-1.68,0-2.52,0-.86,0-1.42-.55-1.45-1.42-.02-.43,0-.87,0-1.3ZM8.38,13.96c0-.38-.01-.76,0-1.14.01-.27-.1-.36-.36-.35-.76,0-1.51,0-2.27,0-.23,0-.35.07-.35.32,0,.78,0,1.57,0,2.35,0,.22.09.31.32.31.78,0,1.57,0,2.35,0,.23,0,.31-.1.31-.32,0-.39,0-.78,0-1.18Z"/>
      <path class="cls-1" d="M9.61,31.31c0,.43,0,.87,0,1.3-.02.79-.56,1.37-1.35,1.39-.91.03-1.82.03-2.72,0-.76-.02-1.31-.55-1.34-1.31-.03-.92-.03-1.84,0-2.76.03-.8.6-1.33,1.4-1.34.87-.01,1.73-.01,2.6,0,.83.01,1.39.59,1.41,1.42,0,.43,0,.87,0,1.3ZM6.94,29.81c-.39,0-.78,0-1.18,0-.23,0-.35.06-.35.32,0,.78,0,1.57,0,2.35,0,.22.09.32.32.31.78,0,1.57,0,2.35,0,.22,0,.31-.09.31-.32,0-.78,0-1.57,0-2.35,0-.23-.09-.32-.31-.31-.38,0-.76,0-1.14,0Z"/>
      <path class="cls-1" d="M6.87,25.25c-.42,0-.84,0-1.26,0-.81-.01-1.38-.53-1.41-1.32-.03-.92-.03-1.85,0-2.77.03-.78.59-1.29,1.38-1.31.88-.01,1.76-.01,2.65,0,.81.01,1.37.58,1.38,1.4.01.87.01,1.74,0,2.61-.01.81-.58,1.37-1.39,1.39-.45.01-.9,0-1.34,0ZM5.42,21.08c0,.94,0,1.85.01,2.75,0,.07.15.19.24.19.83.01,1.65.02,2.48,0,.08,0,.23-.16.23-.24.02-.81.02-1.63,0-2.44,0-.09-.14-.25-.22-.25-.89-.02-1.78-.01-2.74-.01Z"/>
      <path class="cls-1" d="M33.57,22.65c-.02,3.35-2.16,6.38-5.3,7.49-3.23,1.14-6.72.15-8.88-2.5-.36-.44-.38-.82-.05-1.06.31-.24.64-.13,1,.28,1.76,2.07,4,2.91,6.66,2.35,2.57-.54,4.28-2.16,5.05-4.67,1.14-3.71-1.19-7.64-4.97-8.48-3.82-.85-7.59,1.72-8.16,5.55-.14.97-.08,1.92.18,2.86.04.15.09.32.08.48-.02.31-.22.5-.52.53-.32.04-.55-.13-.65-.43-.3-.91-.44-1.85-.37-2.81.27-3.86,2.86-6.75,6.67-7.46,4.34-.81,8.73,2.47,9.19,6.86.04.34.06.67.09,1.01Z"/>
      <path class="cls-1" d="M24.81,21.61c.65-.61,1.27-1.17,1.87-1.76.83-.81,1.98-.87,2.76-.12.78.75.77,1.93-.04,2.76-1.01,1.04-2.02,2.08-3.04,3.12-.87.89-1.98.89-2.88.02-.5-.48-.99-.96-1.48-1.45-.83-.82-.89-1.97-.14-2.76.75-.78,1.91-.78,2.76.01.08.07.16.15.19.17ZM28.84,21.12c-.08-.18-.13-.34-.22-.46-.27-.33-.71-.31-1.06.05-.71.72-1.42,1.46-2.13,2.18-.36.37-.67.37-1.05.01-.21-.19-.41-.4-.61-.59-.34-.31-.73-.33-1.01-.04-.28.29-.26.67.08,1.01.51.51,1.02,1.01,1.54,1.5.38.36.74.36,1.1,0,1.03-1.04,2.05-2.09,3.06-3.14.13-.14.21-.33.31-.51Z"/>
    </g>
  </g>
</svg>