<svg xmlns="http://www.w3.org/2000/svg" viewBox="0 0 1437.26 630.22"><defs><style>.cls-1{fill:none;stroke:#2f3146;stroke-miterlimit:10;}.cls-2{fill:#2f3146;}</style></defs><g id="Capa_2" data-name="Capa 2"><g id="Capa_2-2" data-name="Capa 2"><path class="cls-1" d="M5.87,46.52H26.36A14.86,14.86,0,0,1,41.23,61.39V614.85A14.87,14.87,0,0,0,56.1,629.72H434.82a14.87,14.87,0,0,0,14.87-14.87V15.37A14.87,14.87,0,0,1,464.56.5h286a14.87,14.87,0,0,1,14.87,14.87V614.85a14.87,14.87,0,0,0,14.87,14.87H986.69a14.87,14.87,0,0,0,14.87-14.87V15.37A14.87,14.87,0,0,1,1016.43.5h400.09a14.87,14.87,0,0,1,14.87,14.87V495.88"/><circle class="cls-2" cx="1431.39" cy="497.85" r="5.87"/><circle class="cls-2" cx="5.87" cy="46.52" r="5.87"/></g></g></svg>