<?xml version="1.0" encoding="UTF-8"?>
<svg id="Capa_2" data-name="Capa 2" xmlns="http://www.w3.org/2000/svg" viewBox="0 0 57.51 57.65">
  <defs>
    <style>
      .cls-1 {
        fill: #fff;
        stroke-width: 0px;
      }
    </style>
  </defs>
  <g id="Capa_1-2" data-name="Capa 1">
    <g>
      <path class="cls-1" d="M29.09,0c.55.3.78.79.78,1.39,0,1.52,0,3.03,0,4.55,0,.19-.03.37-.08.55-.15.57-.68.91-1.29.84-.56-.06-1-.5-1.01-1.1-.02-1.72,0-3.45,0-5.17,0-.51.32-.82.71-1.08h.9Z"/>
      <path class="cls-1" d="M30.01,45.24c-1.07,0-2.13,0-3.2,0-.65,0-1.19.2-1.65.68-1.13,1.17-2.29,2.32-3.46,3.46-.29.29-.36.53-.2.93.62,1.59.33,3.02-.86,4.24-.67.69-1.34,1.37-2.03,2.02-1.39,1.32-3.49,1.44-4.99.24-1.05-.85-1.97-1.85-2.88-2.84-.49-.54-.44-1.2.05-1.66.46-.44,1.16-.44,1.67.05.77.74,1.51,1.51,2.27,2.26.82.81,1.63.82,2.45.02.54-.53,1.06-1.06,1.59-1.59.85-.85.84-1.57,0-2.41-3.74-3.76-7.48-7.52-11.23-11.27-.09-.09-.18-.19-.28-.28-1.18-1.15-1.75-1.15-2.92.01-.48.48-.96.95-1.43,1.43-.71.73-.71,1.56,0,2.28.77.79,1.58,1.55,2.34,2.35.69.74.38,1.8-.56,2.04-.45.11-.82-.06-1.13-.36-.87-.85-1.76-1.69-2.58-2.59-1.39-1.53-1.33-3.77.1-5.25.68-.7,1.36-1.39,2.07-2.07,1.08-1.03,2.35-1.36,3.78-.91.39.12.62.04.88-.23.96-.98,1.92-1.95,2.9-2.9.29-.28.31-.46.05-.79-1.68-2.08-1.12-4.81,1.24-6.11.33-.18.35-.32.2-.65-1.03-2.22-.07-4.59,2.21-5.48.3-.12.44-.21.39-.59-.27-1.94.72-3.63,2.54-4.34.37-.14.47-.32.41-.71-.4-2.65,2.07-4.97,4.69-4.41.4.09.68.04,1.02-.21.79-.56,1.71-.53,2.6-.37,2.6.46,5.19.96,7.79,1.44.24.04.48.06.72.07,2.45.03,4.25,2.08,3.93,4.52-.05.37.03.52.37.65,1.86.73,2.79,2.26,2.58,4.25-.04.41.07.58.45.72,1.76.65,2.78,2.41,2.51,4.3-.04.31.02.46.33.59,2.8,1.18,3.53,4.04,1.65,6.43-.18.22-.19.37.01.57,1.07,1.05,2.13,2.11,3.18,3.18.17.17.33.18.55.09,1.7-.66,3.15-.27,4.4,1.02.52.54,1.06,1.06,1.59,1.59,1.79,1.8,1.79,4.05-.02,5.86-1.56,1.57-3.13,3.13-4.69,4.69-2.32,2.32-4.64,4.64-6.96,6.95-1.82,1.81-4.03,1.85-5.87.07-.69-.66-1.38-1.33-2-2.05-.99-1.15-1.2-2.47-.65-3.89.12-.32.09-.5-.15-.73-1.31-1.29-2.61-2.59-3.9-3.89-.25-.25-.5-.35-.85-.33-.35.02-.71,0-1.07,0,0-.04,0-.08,0-.11ZM30.81,18.83c0,1.94-1.38,3.59-3.29,3.92-.38.07-.64.16-.72.61-.34,1.89-1.47,3.02-3.37,3.35-.34.06-.52.21-.58.57-.33,1.92-1.49,3.05-3.39,3.4-.34.06-.51.21-.56.57-.43,2.67-3.06,4.13-5.55,3.07-.34-.14-.53-.1-.78.15-.94.97-1.89,1.92-2.87,2.86-.32.31-.31.5,0,.81,3.19,3.17,6.38,6.35,9.55,9.54.32.33.51.29.81-.02,1.19-1.22,2.41-2.41,3.61-3.62.56-.56,1.22-.92,2-1.07.82-.15,1.64-.18,2.46-.09.86.09,1.72.07,2.58.1,1.12.03,2.06-.32,2.79-1.19.17-.2.36-.38.56-.55.56-.47,1.27-.45,1.72.03.44.47.43,1.16-.06,1.67-.42.45-.86.89-1.33,1.29-.25.22-.26.34-.03.57,1.02,1,2.03,2,3.02,3.02.24.25.39.24.63,0,3.24-3.25,6.49-6.5,9.74-9.74.22-.22.25-.36,0-.59-1-.96-1.99-1.93-2.96-2.92-.29-.3-.48-.25-.72.03-.22.25-.46.5-.79.61-.52.18-1.09-.02-1.38-.48-.29-.45-.25-1.03.15-1.45.81-.84,1.65-1.64,2.45-2.48.7-.74.71-1.75.08-2.36-.67-.64-1.6-.59-2.36.13-.23.22-.45.45-.68.67-.64.62-1.38.69-1.88.17-.53-.55-.47-1.2.2-1.88.58-.59,1.18-1.16,1.74-1.76.65-.69.65-1.66.02-2.27-.63-.61-1.59-.6-2.28.04-.36.33-.69.69-1.04,1.02-.3.28-.64.46-1.07.4-.46-.07-.81-.32-.96-.77-.15-.46-.07-.9.28-1.25.64-.66,1.3-1.3,1.94-1.95.79-.8.84-1.75.15-2.43-.65-.64-1.65-.58-2.41.16-.28.28-.55.56-.84.83-.62.6-1.26.65-1.79.15-.54-.52-.51-1.2.11-1.83.64-.66,1.31-1.29,1.94-1.95.65-.69.64-1.73.01-2.32-.61-.58-1.63-.56-2.29.08-.97.94-1.91,1.91-2.87,2.85-.21.2-.24.38-.11.64.26.53.39,1.09.38,1.68ZM38.11,51.66c-.04.45.13.81.44,1.12.62.63,1.23,1.25,1.87,1.86.7.67,1.54.67,2.24-.02,3.98-3.97,7.95-7.94,11.92-11.91.71-.71.7-1.55,0-2.28-.57-.59-1.16-1.17-1.75-1.74-.77-.74-1.55-.72-2.32.03-.8.79-1.59,1.59-2.39,2.38-3.13,3.12-6.25,6.25-9.38,9.37-.34.34-.65.68-.62,1.2ZM17.19,18.79c-.03.46.26.85.61,1.2,1.26,1.26,2.51,2.51,3.77,3.77.16.16.34.3.53.41.69.38,1.49.23,1.98-.35.49-.58.53-1.5-.01-2.06-1.41-1.45-2.84-2.87-4.29-4.28-.49-.47-1.13-.49-1.73-.21-.6.28-.88.79-.86,1.53ZM21.89,12.16c-.84,0-1.33.31-1.61.9-.3.64-.19,1.26.3,1.76.7.73,1.42,1.44,2.14,2.15.99.99,1.97,2,2.99,2.97.86.82,2.18.52,2.59-.55.3-.78.04-1.31-.7-1.66-2.2-1.03-3.88-2.61-4.83-4.87-.22-.53-.52-.73-.88-.72ZM20.51,26.79c0-.41-.1-.74-.33-.99-1.09-1.21-2.23-2.37-3.45-3.44-.6-.53-1.55-.39-2.09.18-.55.57-.62,1.49-.05,2.09,1.08,1.14,2.19,2.25,3.33,3.33.49.46,1.13.48,1.73.19.57-.28.83-.78.87-1.35ZM14.98,32.25c.64,0,1.11-.3,1.4-.86.3-.59.25-1.18-.18-1.68-.41-.48-.87-.93-1.34-1.35-.53-.47-1.15-.52-1.77-.21-.6.3-.85.81-.83,1.47.03.97,1.76,2.64,2.73,2.63ZM25.83,11.62c-.94-.04-1.02.04-.76.59.63,1.32,1.67,2.27,2.88,3.05.18.12.35.09.5-.06.76-.77,1.53-1.53,2.3-2.3.19-.19.17-.32-.11-.38-1.7-.32-3.41-.64-4.81-.91Z"/>
      <path class="cls-1" d="M42.86,6.75c-.84-.03-1.41-.95-1.02-1.7.1-.2.25-.37.41-.53,1.28-1.29,2.56-2.58,3.86-3.85.75-.73,1.83-.45,2.07.51.12.47-.08.85-.39,1.17-.45.48-.92.94-1.38,1.4-.85.84-1.71,1.68-2.56,2.52-.28.28-.59.46-.99.47Z"/>
      <path class="cls-1" d="M15.61,5.57c-.05.47-.26.85-.71,1.06-.5.23-.96.12-1.34-.26-.82-.8-1.62-1.61-2.43-2.42-.54-.54-1.09-1.08-1.63-1.63-.53-.55-.55-1.2-.07-1.7.48-.51,1.19-.51,1.75.03,1.35,1.32,2.68,2.67,4.02,4,.25.25.39.55.41.91Z"/>
      <path class="cls-1" d="M9,49.53c0,.66-.54,1.19-1.18,1.18-.64,0-1.16-.55-1.15-1.21,0-.67.52-1.18,1.18-1.17.66,0,1.15.52,1.15,1.2Z"/>
      <path class="cls-1" d="M38.47,37.31c.64-.01,1.19.5,1.21,1.14.03.65-.53,1.22-1.2,1.22-.62,0-1.18-.55-1.19-1.17-.01-.61.55-1.18,1.18-1.19Z"/>
    </g>
  </g>
</svg>