<?xml version="1.0" encoding="UTF-8"?>
<svg id="Capa_2" data-name="Capa 2" xmlns="http://www.w3.org/2000/svg" viewBox="0 0 62.65 69.63">
  <defs>
    <style>
      .cls-1 {
        fill: #fff;
        stroke-width: 0px;
      }
    </style>
  </defs>
  <g id="Capa_1-2" data-name="Capa 1">
    <g>
      <path class="cls-1" d="M31.87,0c.62.37.88.9.87,1.63-.02,2.87,0,5.74-.02,8.61,0,1.14-1.02,1.82-1.99,1.37-.52-.24-.81-.66-.81-1.23,0-3.03,0-6.06,0-9.08,0-.62.38-.99.86-1.29h1.09Z"/>
      <path class="cls-1" d="M31.33,53.88c-6.3-.02-12.01-1.99-17.31-5.28-5.16-3.21-9.48-7.33-13.16-12.14-.15-.2-.29-.4-.43-.61-.56-.82-.57-1.3,0-2.11,1.59-2.24,3.4-4.3,5.36-6.22,3.63-3.56,7.66-6.58,12.29-8.74,4.89-2.29,10.02-3.42,15.43-3.01,5.46.42,10.45,2.29,15.08,5.17,5.12,3.18,9.42,7.26,13.1,12.02.18.23.35.47.52.72.61.89.63,1.36,0,2.22-2.05,2.84-4.4,5.41-7,7.75-3.73,3.36-7.85,6.14-12.54,8-3.63,1.44-7.39,2.28-11.32,2.24ZM31.32,51.08c.47-.04.95-.1,1.42-.12,4.22-.18,8.14-1.43,11.86-3.36,5.74-2.99,10.42-7.25,14.46-12.26.33-.41.32-.7,0-1.11-4.04-5.01-8.71-9.28-14.46-12.25-4.6-2.38-9.47-3.66-14.71-3.36-4.22.24-8.14,1.45-11.86,3.39-5.7,2.97-10.35,7.19-14.36,12.16-.34.43-.43.73-.04,1.21,3.69,4.57,7.92,8.52,13.04,11.46,4.53,2.61,9.38,4.15,14.65,4.24Z"/>
      <path class="cls-1" d="M32.73,63.82c0,1.43,0,2.85,0,4.28,0,.96-.56,1.55-1.42,1.54-.83,0-1.38-.58-1.38-1.51,0-2.92,0-5.84,0-8.76,0-.92.55-1.5,1.39-1.51.86,0,1.41.58,1.42,1.54.01,1.47,0,2.94,0,4.41Z"/>
      <path class="cls-1" d="M12.73,17.54c-.04.48-.25.91-.73,1.18-.5.28-1,.27-1.48-.04-.13-.09-.25-.19-.36-.3-1.84-1.84-3.69-3.67-5.52-5.52-.87-.88-.64-2.08.43-2.47.55-.2,1.04-.07,1.44.32,1.94,1.93,3.88,3.87,5.81,5.8.26.27.4.6.4,1.03Z"/>
      <path class="cls-1" d="M51.23,18.92c-.52-.08-.95-.33-1.18-.86-.24-.56-.16-1.07.24-1.51.47-.52.98-1,1.48-1.5,1.42-1.42,2.83-2.86,4.28-4.26.86-.83,2.11-.52,2.43.57.15.5.04.96-.32,1.32-1.94,1.96-3.89,3.91-5.85,5.86-.28.28-.65.41-1.08.39Z"/>
      <path class="cls-1" d="M12.74,53.4c-.02.53-.23.87-.52,1.16-1.86,1.85-3.71,3.72-5.57,5.56-.68.67-1.52.69-2.11.09-.59-.59-.57-1.43.1-2.11,1.85-1.86,3.71-3.71,5.56-5.57.47-.47,1.01-.67,1.66-.39.59.25.83.73.87,1.25Z"/>
      <path class="cls-1" d="M57.13,60.65c-.49-.02-.83-.22-1.13-.52-1.85-1.86-3.72-3.7-5.56-5.57-.67-.68-.69-1.52-.1-2.11.59-.59,1.43-.58,2.11.09,1.86,1.85,3.71,3.71,5.57,5.56.47.47.67,1.01.39,1.66-.25.59-.73.83-1.28.88Z"/>
      <path class="cls-1" d="M31.2,22.52c6.4,0,11.67,4.69,12.37,10.92.81,7.22-4.88,13.55-12.13,13.66-5.65.08-11.48-4.09-12.34-10.86-.15-1.16-.13-2.35.09-3.52.17-.87.85-1.44,1.61-1.32.86.13,1.36.84,1.21,1.8-.85,5.51,2.81,9.67,6.89,10.73,5.64,1.46,11.16-2.36,11.79-8.14.59-5.44-3.58-9.93-8.37-10.35-1.45-.13-2.84.06-4.21.48-.94.29-1.65.04-1.97-.68-.36-.8,0-1.61.9-1.96,1.37-.52,2.78-.8,4.15-.75Z"/>
      <path class="cls-1" d="M31.37,29.31c3.05,0,5.44,2.43,5.44,5.51,0,3.09-2.44,5.47-5.56,5.45-3.03-.02-5.41-2.46-5.4-5.55.01-3.05,2.44-5.43,5.53-5.42ZM28.67,34.71c-.08,1.38,1.11,2.66,2.57,2.74,1.38.08,2.66-1.11,2.74-2.57.08-1.38-1.11-2.66-2.57-2.74-1.38-.08-2.66,1.11-2.74,2.57Z"/>
      <path class="cls-1" d="M23.15,26.6c.81-.01,1.42.59,1.43,1.39,0,.81-.6,1.41-1.41,1.41-.78,0-1.37-.58-1.39-1.36-.02-.81.57-1.43,1.38-1.44Z"/>
    </g>
  </g>
</svg>