<svg xmlns="http://www.w3.org/2000/svg" viewBox="0 0 49.6 49.62"><g id="Capa_2" data-name="Capa 2"><g id="Capa_1-2" data-name="Capa 1"><path d="M44.92,49.62A5.58,5.58,0,0,1,42.35,48q-5.9-5.92-11.83-11.84c-.5-.5-.5-.5-1.12-.12a18.89,18.89,0,0,1-11.46,2.76A18.94,18.94,0,0,1,6.28,33.71,19.25,19.25,0,0,1,.21,22.59C.13,22.15.07,21.7,0,21.26V17.58c.18-.93.3-1.87.52-2.8a19.07,19.07,0,0,1,5.09-9A19.35,19.35,0,0,1,28.49,2.3,19.49,19.49,0,0,1,38.74,20.69,18.79,18.79,0,0,1,36,29.42c-.41.66-.4.66.13,1.19l12.05,12a4.25,4.25,0,0,1,1.43,3.07,3.88,3.88,0,0,1-2.77,3.77l-.36.13Zm-8.17-30.2A17.37,17.37,0,1,0,19.4,36.78,17.36,17.36,0,0,0,36.75,19.42ZM47.57,45.74A2,2,0,0,0,47,44.39q-4.11-4.1-8.2-8.21c-.25-.25-.4-.24-.62,0a19.94,19.94,0,0,1-2,2c-.35.29-.33.48,0,.79,2.67,2.65,5.32,5.31,8,8,.1.1.2.2.31.29a1.87,1.87,0,0,0,3.07-1.45ZM34.36,37a2.49,2.49,0,0,0,.24-.17,20.49,20.49,0,0,0,2.19-2.18c.19-.22.12-.36,0-.52L34.62,32c-.2-.22-.33-.22-.53,0A17.6,17.6,0,0,1,32,34.15c-.23.19-.23.32,0,.53.72.69,1.42,1.41,2.12,2.11A3.42,3.42,0,0,0,34.36,37Z"/><path d="M19.34,34.94A15.53,15.53,0,1,1,34.89,19.45,15.52,15.52,0,0,1,19.34,34.94Zm0-2A13.5,13.5,0,1,0,5.88,19.42,13.48,13.48,0,0,0,19.35,32.93Z"/><path d="M19.89,7.77a11.7,11.7,0,0,1,10.33,7.39,1,1,0,0,1-.57,1.39,1,1,0,0,1-1.31-.65,9.86,9.86,0,0,0-4-4.71,10.49,10.49,0,0,0-5-1.43,1,1,0,0,1-.95-1.06,1,1,0,0,1,1-.93Z"/><path d="M31,19.4a1,1,0,1,1-1-1A1,1,0,0,1,31,19.4Z"/></g></g></svg>