<?xml version="1.0" encoding="UTF-8"?>
<svg id="Capa_2" data-name="Capa 2" xmlns="http://www.w3.org/2000/svg" viewBox="0 0 51.78 51.78">
  <defs>
    <style>
      .cls-1 {
        fill: #fff;
        stroke-width: 0px;
      }
    </style>
  </defs>
  <g id="Capa_1-2" data-name="Capa 1">
    <g>
      <path class="cls-1" d="M45.47,51.77c-.74-.48-1.29-1.17-1.92-1.78-.77-.75-1.54-1.51-2.28-2.29-.62-.64-.65-1.21-.16-1.95.16-.25,0-.59-.36-.69-.14-.04-.3-.03-.45-.03-2.64,0-5.29.01-7.93,0-.49,0-.88.11-1.22.46-.15.15-.33.3-.51.41-.37.24-.74.22-1.05-.1-.28-.29-.32-.86.03-1.09.72-.48.79-1.13.84-1.9.06-1.02.64-1.81,1.59-2.24.44-.2.33-.33.07-.59-1.52-1.51-3-3.05-4.55-4.52-1.25-1.18-1.2-3.08.18-3.95.22-.14.21-.29.15-.52-.27-.94-.14-1.81.6-2.51.71-.67,1.55-.85,2.47-.5.24.09.35.02.49-.18,1-1.38,2.59-1.5,3.81-.27.32.32.46.42.8-.01.87-1.11,2.47-1.14,3.52-.11,1.47,1.44,2.92,2.89,4.35,4.36.32.33.5.32.86.04,1.71-1.38,3.22-2.93,4.14-4.96,2-4.45,1.62-8.7-1.16-12.72-.1-.14-.17-.39-.39-.35-.24.05-.16.3-.17.47-.16,1.97-.96,3.62-2.41,4.96-.48.45-.93.93-1.4,1.39-.44.42-.9.45-1.24.1-.34-.35-.3-.82.11-1.25.55-.57,1.12-1.12,1.67-1.68,1.05-1.07,1.62-2.35,1.61-3.85,0-.75.42-1.22.92-1.66.33-.29.37-.49.02-.83-1.24-1.19-2.44-2.41-3.65-3.64-.25-.26-.43-.34-.68-.02-.44.56-1.03.7-1.74.69-2.61-.04-5.22-.02-7.83-.02-.5,0-.64.2-.47.66.18.48.54.77,1.06.81.28.02.57.02.86,0,.44-.01.86.04,1.06.5.22.48-.07.79-.38,1.1-1.93,1.93-3.86,3.86-5.79,5.79-.14.14-.29.28-.42.44-.32.4-.32.8-.03,1.09.29.29.77.27,1.13-.08.48-.47.96-.95,1.43-1.43.93-.93,1.85-1.86,2.79-2.78.46-.46.93-.5,1.28-.13.37.38.33.81-.14,1.28-1.7,1.71-3.4,3.41-5.11,5.11-.57.57-.65.97-.28,1.34.34.35.84.26,1.35-.26,1.66-1.65,3.31-3.31,4.97-4.96.13-.13.26-.27.41-.37.35-.24.71-.22,1.01.08.31.31.35.68.08,1.05-.1.13-.22.25-.34.37-1.27,1.27-2.55,2.55-3.82,3.82-.12.12-.24.24-.34.37-.26.33-.3.67,0,1,.26.28.71.3,1.06.04.13-.1.25-.23.37-.35,1.25-1.25,2.5-2.5,3.75-3.75.1-.1.19-.19.29-.28.41-.36.84-.39,1.17-.07.35.33.35.81-.04,1.21-.62.64-1.26,1.27-1.89,1.9-.54.54-.64.99-.31,1.35.35.37.83.27,1.39-.28.3-.3.59-.61.9-.89.4-.36.84-.35,1.17,0,.3.31.3.78-.04,1.14-.43.45-.86.91-1.33,1.31-1.06.91-2.6.76-3.44-.36-.23-.31-.35-.29-.59-.03-.69.76-1.53,1.14-2.58.86-.58-.15-1.02-.51-1.34-1-.15-.23-.27-.28-.53-.18-.93.35-1.76.14-2.47-.53-.7-.67-.84-1.51-.59-2.42.08-.28.05-.44-.2-.63-1.28-.99-1.39-2.58-.25-3.73,1.55-1.57,3.11-3.13,4.68-4.68.29-.29.35-.47-.1-.61-.03,0-.07-.02-.09-.05-.6-.65-1.11-.33-1.67.11-1.16.89-2.17,1.91-2.99,3.13-.85,1.25-1.9,1.25-2.76-.02-.93-1.37-2.09-2.5-3.45-3.44-.32-.22-.58-.3-.87.02-.09.09-.22.15-.34.22q-.52.28-.08.72c1.49,1.49,2.98,2.97,4.46,4.47,1.28,1.29,1.22,2.77-.19,3.9-.25.2-.2.38-.13.61.4,1.44-.4,2.75-1.85,3.05-.43.09-.84.04-1.24-.13-.23-.1-.35-.04-.49.16-1.01,1.39-2.6,1.52-3.81.29-.35-.35-.49-.4-.84.04-.83,1.04-2.4,1.14-3.37.19-2.04-1.98-4.06-3.99-6.03-6.05-1.12-1.17-1.6-2.67-1.73-4.27-.01-.16.05-.38-.17-.43-.18-.04-.24.16-.33.27-1.36,1.84-2.21,3.89-2.39,6.18-.38,4.65,1.38,8.37,4.97,11.28.8.65.79.66,1.51-.07,1.27-1.27,2.55-2.55,3.82-3.82,1.34-1.33,2.7-1.29,3.93.14.18.21.26.11.39-.02.28-.29.56-.58.93-.77,1.09-.56,2.32-.27,3.04.75.18.26.31.35.64.23.87-.31,1.66-.12,2.34.49.72.65.9,1.48.67,2.4-.07.3-.12.5.19.73,1.29.98,1.38,2.55.23,3.73-1.17,1.21-2.38,2.39-3.57,3.58-.39.39-.78.79-1.18,1.18-.2.19-.26.32.06.47,1.2.56,1.74,1.54,1.71,2.84-.01.45.13.75.48,1.04,1.22,1.01,2.43,2.03,3.62,3.07.32.28.56.3.86,0,.2-.2.43-.39.66-.55.37-.25.74-.23,1.05.09.29.29.3.78,0,1.1-.37.39-.78.75-1.24,1.03-.71.42-1.45.33-2.15-.25-1.34-1.12-2.68-2.25-4-3.4-.37-.32-.74-.46-1.23-.45-2.66.02-5.32,0-7.98,0-.22,0-.43-.02-.62.15-.22.2-.35.34-.1.66.41.49.42,1.17-.02,1.62-1.42,1.48-2.8,3.01-4.39,4.31-1.98,0-3.96,0-5.94,0-.29,0-.33-.07-.33-.34.01-2.92,0-5.84,0-8.76.21-.33.47-.62.74-.89,1.15-1.14,2.28-2.29,3.43-3.42.23-.22.36-.46.38-.79.1-1.35.5-2.6,1.29-3.72.4-.56.4-.57-.15-1.01-1.96-1.57-3.55-3.44-4.57-5.76C.56,25.78.24,24.39,0,22.98c0-1.04,0-2.09,0-3.13.02-.08.05-.16.07-.24.33-2.44,1.23-4.64,2.72-6.59.33-.43.3-.66-.07-1.04-.93-.93-1.94-1.77-2.72-2.84V.85C.33.23.83-.01,1.53,0c1.4.03,2.79,0,4.19.01.65,0,1.5.61,1.73,1.21.07.18.07.36,0,.54-.21.56-.87.75-1.31.29-.4-.42-.84-.48-1.36-.46-.91.02-1.82.02-2.73,0-.37,0-.5.12-.5.49.01,2,.01,4.01,0,6.01,0,.29.08.51.29.71.51.49,1.02.98,1.5,1.5.28.31.47.31.77,0,1.45-1.48,2.92-2.93,4.38-4.4.22-.22.57-.4.61-.71.04-.29-.34-.43-.5-.66-.23-.32-.29-.65-.05-.98.22-.31.56-.47.88-.3.69.36,1.28.88,1.5,1.67.09.34.02.7-.2,1.01-.27.38-.11.75.37.83.13.02.27,0,.4,0,2.78,0,5.55,0,8.33,0,.97,0,1.49.53,1.51,1.5,0,.17.02.34,0,.5-.04.32.08.52.36.7,1.52.97,2.82,2.18,3.86,3.65.25.36.39.3.62-.02.96-1.36,2.14-2.52,3.54-3.42.52-.33.71-.69.68-1.3-.05-1.13.49-1.63,1.62-1.63,2.74,0,5.49,0,8.23,0,.15,0,.31.01.45-.02.38-.09.56-.45.38-.72-.46-.68-.45-1.28.12-1.87,1.23-1.27,2.49-2.51,3.75-3.75.3-.3.67-.42,1.1-.42,1.4.01,2.79,0,4.19,0,1.07,0,1.52.46,1.52,1.55,0,2.29-.01,4.58,0,6.87,0,.57-.18,1.01-.58,1.39-.69.67-1.36,1.36-2.04,2.03-.74.74-.63.59-.11,1.29,3.78,5.12,3.61,12.21-.41,17.16-.82,1.01-1.78,1.88-2.79,2.7-.23.18-.4.33-.14.65.92,1.14,1.36,2.46,1.46,3.91.02.35.17.59.4.83,1.2,1.18,2.38,2.38,3.58,3.56.42.41.63.87.62,1.48-.02,2.27-.02,4.54,0,6.82,0,.7-.23,1.21-.85,1.52h-5.46ZM37.82,28.31c-.41,0-.69.29-.71.71-.01.32.17.53.37.74.68.68,1.36,1.36,2.03,2.04.27.28.36.61.18.97-.16.32-.43.47-.79.43-.29-.03-.48-.21-.68-.41-1.32-1.32-2.64-2.64-3.96-3.96-.13-.13-.26-.27-.42-.36-.32-.17-.65-.19-.93.09-.29.29-.3.63-.06.96.11.15.24.28.37.41,1.28,1.29,2.57,2.57,3.85,3.86.14.14.29.29.39.46.19.31.13.62-.09.89-.22.27-.52.36-.86.24-.23-.08-.39-.25-.56-.42-1.65-1.65-3.31-3.31-4.96-4.96-.12-.12-.23-.24-.37-.35-.34-.26-.8-.24-1.05.05-.29.33-.26.68,0,1.01.1.13.23.25.35.37,1.64,1.64,3.29,3.29,4.93,4.93.14.14.29.29.4.45.18.26.14.55-.02.81-.16.27-.41.4-.72.38-.31-.02-.52-.22-.72-.42-1.36-1.36-2.71-2.72-4.07-4.07-.42-.41-.88-.48-1.2-.19-.36.32-.32.77.12,1.24.37.39.76.77,1.14,1.15,1.69,1.69,3.38,3.38,5.07,5.07.26.26.44.56.28.95-.17.4-.49.53-.89.53-.34,0-.67,0-1.01,0-.52.03-.89.31-1.08.78-.2.48-.05.69.47.69,2.59,0,5.19.02,7.78-.02.73-.01,1.33.12,1.79.7.22.28.4.25.64,0,1.2-1.23,2.41-2.45,3.65-3.64.35-.34.37-.55,0-.87-.51-.43-.91-.92-.91-1.66.01-1.45-.51-2.71-1.52-3.74-1.82-1.85-3.66-3.67-5.49-5.51-.2-.2-.42-.33-.71-.34ZM15.03,43.36s0,.01,0,.02c1.38,0,2.76,0,4.14,0,.5,0,.62-.2.47-.67-.15-.45-.6-.78-1.12-.81-.37-.02-.74,0-1.11-.01-.35-.01-.61-.17-.76-.49-.15-.34-.05-.62.18-.88.1-.11.21-.22.32-.33,1.93-1.93,3.86-3.86,5.78-5.79.2-.2.42-.4.51-.68.15-.46-.14-.89-.62-.94-.34-.03-.57.15-.79.37-1.32,1.32-2.64,2.64-3.96,3.96-.14.14-.29.29-.46.39-.34.21-.69.17-.97-.12-.29-.3-.35-.65-.09-1.01.11-.15.24-.28.37-.41,1.64-1.64,3.29-3.29,4.93-4.93.15-.15.3-.32.43-.5.17-.25.15-.51,0-.76-.16-.25-.4-.34-.69-.33-.32.01-.51.22-.72.43-1.68,1.68-3.36,3.36-5.04,5.03-.17.17-.32.34-.55.43-.34.13-.64.06-.87-.21-.23-.26-.31-.57-.13-.89.1-.17.25-.32.39-.46,1.29-1.3,2.59-2.6,3.89-3.9.15-.15.3-.32.42-.5.15-.23.14-.48,0-.71-.16-.25-.39-.35-.68-.34-.32.01-.52.21-.72.41-1.31,1.31-2.62,2.62-3.93,3.93-.14.14-.29.29-.46.39-.35.2-.69.16-.97-.13-.27-.29-.31-.63-.1-.97.1-.15.24-.28.37-.41.65-.66,1.32-1.3,1.95-1.97.31-.32.33-.7.04-1.05-.24-.3-.69-.3-1.05-.04-.08.06-.15.13-.23.2-1.8,1.8-3.6,3.59-5.39,5.39-.92.93-1.51,2.06-1.54,3.37-.02.93-.31,1.63-1.02,2.19-.34.27-.24.46.02.71,1.19,1.17,2.36,2.35,3.54,3.53.53.53.42.56.95.01.35-.35.74-.55,1.25-.55,1.35.02,2.69,0,4.04,0ZM19.68,8.82c.04-.4-.25-.38-.53-.38-2.59,0-5.18-.02-7.78.02-.73.01-1.33-.12-1.79-.7-.22-.28-.4-.25-.64,0-1.2,1.23-2.41,2.45-3.65,3.64-.35.34-.38.55,0,.87.51.43.91.92.91,1.66-.01,1.48.54,2.76,1.58,3.81,1.79,1.81,3.59,3.6,5.39,5.39.44.44.92.5,1.25.18.32-.32.26-.8-.17-1.24-.58-.59-1.17-1.17-1.75-1.75-.1-.1-.19-.19-.28-.29-.35-.4-.36-.84-.04-1.18.32-.33.77-.31,1.17.04.11.1.22.21.32.32,1.26,1.26,2.52,2.52,3.79,3.78.13.13.26.27.42.36.34.19.69.17.97-.13.27-.29.25-.61.03-.92-.11-.15-.24-.28-.37-.41-1.27-1.27-2.55-2.55-3.82-3.82-.12-.12-.24-.23-.35-.37-.28-.36-.25-.73.05-1.05.31-.33.68-.34,1.05-.09.15.1.28.24.41.37,1.63,1.63,3.26,3.26,4.89,4.89.12.12.23.24.37.35.34.26.8.24,1.05-.05.29-.33.26-.68,0-1.01-.1-.13-.23-.25-.35-.37-1.63-1.63-3.26-3.26-4.89-4.89-.13-.13-.27-.26-.38-.41-.26-.35-.22-.7.05-1.01.28-.32.64-.36,1-.13.17.11.31.26.45.4,1.26,1.26,2.52,2.52,3.79,3.78.11.11.21.22.32.32.32.28.78.3,1.06.05.3-.27.32-.67.04-1.05-.13-.18-.29-.33-.44-.48-1.96-1.97-3.93-3.93-5.89-5.89-.27-.27-.48-.57-.31-.99.17-.42.52-.54.94-.53.34,0,.67.01,1.01-.01.59-.05,1.08-.55,1.09-1.09ZM50.18,5.13c0-1.01-.01-2.02,0-3.03,0-.36-.09-.52-.48-.51-1.08.02-2.15.01-3.23,0-.25,0-.45.07-.63.25-1.01,1.02-2.02,2.03-3.03,3.03-.23.23-.24.38,0,.62,1.64,1.62,3.27,3.25,4.89,4.89.23.23.39.25.62,0,.51-.54,1.03-1.06,1.57-1.57.23-.22.31-.46.3-.76-.01-.98,0-1.95,0-2.93ZM50.18,46.72c0-.99,0-1.98,0-2.98,0-.29-.07-.51-.28-.72-.53-.51-1.06-1.03-1.57-1.57-.24-.26-.41-.24-.66,0-1.61,1.63-3.23,3.24-4.85,4.85-.25.25-.24.41,0,.66,1.01.99,2.01,1.99,3,2.99.19.19.4.27.67.27,1.06,0,2.12-.02,3.18,0,.42.01.51-.16.51-.54-.02-.99,0-1.98,0-2.98ZM1.56,46.68c0,1.03.01,2.05,0,3.08,0,.35.12.47.47.47,1.08-.02,2.15-.01,3.23,0,.27,0,.48-.09.67-.28.99-1,1.99-2.01,3-2.99.26-.26.22-.42-.02-.66-1.63-1.61-3.24-3.23-4.85-4.85-.22-.22-.38-.27-.62-.02-.53.56-1.09,1.1-1.64,1.64-.19.18-.24.39-.24.64,0,.99,0,1.98,0,2.98Z"/>
      <path class="cls-1" d="M6.75,5.14c0,.28-.12.5-.31.68-.63.63-1.26,1.27-1.9,1.89-.42.41-.86.42-1.21.07-.33-.33-.31-.81.07-1.21.63-.65,1.28-1.29,1.93-1.93.26-.25.57-.36.92-.2.3.14.46.38.49.7Z"/>
      <path class="cls-1" d="M48.63,7.11c-.01.42-.15.66-.42.81-.3.17-.61.16-.85-.07-.75-.72-1.5-1.45-2.21-2.21-.28-.3-.23-.7.06-1.01.29-.31.68-.39,1-.12.82.7,1.57,1.47,2.28,2.28.1.11.13.27.13.32Z"/>
      <path class="cls-1" d="M48.63,44.49c0,.38-.13.59-.31.78-.62.62-1.23,1.24-1.86,1.85-.43.42-.9.43-1.24.06-.33-.35-.3-.79.11-1.21.64-.65,1.28-1.29,1.93-1.92.26-.25.57-.35.92-.18.3.15.44.4.46.62Z"/>
      <path class="cls-1" d="M6.75,46.65c-.02.31-.17.54-.44.69-.3.16-.61.14-.85-.08-.74-.71-1.48-1.43-2.17-2.18-.29-.32-.26-.72.05-1.05.3-.32.74-.36,1.09-.04.72.68,1.41,1.39,2.11,2.1.15.15.2.35.21.55Z"/>
    </g>
  </g>
</svg>