<?xml version="1.0" encoding="UTF-8"?>
<svg id="Capa_2" data-name="Capa 2" xmlns="http://www.w3.org/2000/svg" viewBox="0 0 72.69 72.67">
  <defs>
    <style>
      .cls-1 {
        fill: #fff;
        stroke-width: 0px;
      }
    </style>
  </defs>
  <g id="Capa_1-2" data-name="Capa 1">
    <g>
      <path class="cls-1" d="M0,44.53c.65-1.53,1.82-2.18,3.47-2.16,3.33.04,6.67,0,10,.01,2.33,0,3.52,1.19,3.55,3.54q.01,1.14,1.02.64c1.88-.94,3.75-1.92,5.66-2.79,3.67-1.68,7.25-1.38,10.71.66,1.34.79,2.72,1.55,4,2.43,2.31,1.6,4.85,1.81,7.53,1.54,1.14-.11,2.3-.33,3.46-.13,2.66.46,4.3,2.71,3.96,5.39-.1.8-.06.83.76.67,4.38-.83,8.76-1.69,13.15-2.49,2.32-.42,4.56,1.02,5.22,3.26.69,2.32-.41,4.83-2.66,5.68-3.51,1.32-7.08,2.52-10.62,3.76-.72.25-1.32-.06-1.55-.71-.21-.62.11-1.2.87-1.47,3.25-1.15,6.51-2.29,9.76-3.44.16-.05.31-.11.47-.17,1.27-.51,1.89-1.7,1.55-2.96-.33-1.22-1.55-1.95-2.89-1.69-3.99.76-7.98,1.53-11.96,2.3-5.33,1.03-10.67,2.01-16.04,2.83-2.91.44-5.79.13-8.66-.42-.65-.12-1.3-.22-1.95-.36-.74-.16-1.11-.65-1.03-1.29.09-.64.57-1.02,1.36-.92,1.15.14,2.28.36,3.42.56,3.21.56,6.4.29,9.57-.31,2.13-.4,4.28-.75,6.42-1.11,1.54-.26,2.29-.88,2.51-2.1.26-1.41-.78-2.76-2.22-2.77-1.06,0-2.13.03-3.18.17-3.03.4-5.82-.18-8.39-1.86-1.32-.87-2.7-1.66-4.06-2.46-2.88-1.69-5.84-1.88-8.86-.4-2.21,1.08-4.39,2.2-6.6,3.28-.5.25-.74.54-.74,1.14.02,5.06.01,10.12.01,15.17,0,.39.01.74.47.92,3.11,1.27,6.18,2.58,9.54,3.13,5.01.81,9.88.35,14.65-1.34,4.05-1.43,8.11-2.85,12.17-4.27.11-.04.22-.08.34-.11.71-.21,1.29.03,1.52.63.24.61-.06,1.24-.78,1.52-.68.27-1.38.49-2.07.73-3.68,1.29-7.35,2.61-11.04,3.86-7.71,2.6-15.29,2.15-22.74-1.02-.46-.19-.93-.36-1.37-.57-.47-.22-.71-.17-.69.41,0,.23-.05.47-.08.7-.23,1.43-1.39,2.48-2.83,2.49-3.76.01-7.52,0-11.27,0-1.42,0-2.23-.87-2.82-2.03v-15.88c.36-.4.76-.75,1.35-.56.68.21.83.74.83,1.39-.01,4.54,0,9.07,0,13.61,0,1.01.24,1.26,1.25,1.26,3.35,0,6.71,0,10.06,0,.99,0,1.21-.23,1.21-1.21,0-7.79,0-15.59,0-23.38,0-.94-.19-1.13-1.11-1.13-3.42,0-6.85,0-10.27,0-.91,0-1.13.22-1.14,1.12,0,1.63-.01,3.26,0,4.89,0,.59-.11,1.11-.72,1.32-.62.22-1.1-.03-1.46-.56v-6.95Z"/>
      <path class="cls-1" d="M44.25,0c.53.3.73.76.73,1.35,0,1.32,0,2.64,0,3.96,0,.91-.48,1.47-1.19,1.46-.67,0-1.12-.57-1.13-1.44-.01-1.25.02-2.5-.01-3.74-.01-.63.13-1.16.61-1.58h.99Z"/>
      <path class="cls-1" d="M36.85,38.11c.49-2.13-.4-3.5-2.04-4.93-4.8-4.2-5.34-12.08-1.4-17.07.67-.85,1.64-.83,2.06.04.26.53.02.96-.28,1.38-.9,1.24-1.57,2.59-1.85,4.1-.82,4.34.48,7.94,3.9,10.71,1.04.84,1.93,1.67,1.93,3.1,0,.26.15.39.41.39.87,0,1.75,0,2.62,0,.34,0,.45-.2.45-.5,0-1.8,0-3.59,0-5.39,0-.39-.28-.5-.55-.66-1.12-.65-1.77-1.6-1.93-2.89-.09-.73.3-1.34.93-1.45.64-.11,1.18.32,1.33,1.07.19.96.62,1.38,1.42,1.36.76-.02,1.17-.44,1.34-1.37.13-.72.63-1.14,1.26-1.07.61.08,1,.56.98,1.26-.03,1.38-.71,2.39-1.88,3.04-.44.25-.59.53-.58,1.01.02,1.63.02,3.26,0,4.89,0,.51.16.73.69.71.75-.03,1.51-.02,2.27,0,.34,0,.53-.12.54-.49,0-1.26.69-2.09,1.65-2.8,2.91-2.16,4.4-5.1,4.42-8.7.03-7.89-8.38-13.06-15.44-9.56-.3.15-.58.32-.88.46-.64.3-1.29.11-1.58-.46-.28-.54-.1-1.15.49-1.52,1.44-.91,3.01-1.48,4.69-1.72,7.36-1.06,14,3.87,14.88,11.25.59,4.89-1.18,8.96-5.11,12-.59.46-.82.92-.82,1.66,0,1.79.17,3.6-.1,5.38-.35,2.36-2.33,4.06-4.72,4.1-1.39.02-2.79.02-4.18,0-2.78-.03-4.88-2.12-4.93-4.9-.02-.8,0-1.61,0-2.41ZM43.85,38.15c-1.32,0-2.64.01-3.96,0-.5,0-.74.17-.72.7.03.61,0,1.23.01,1.84.04,1.34,1.04,2.38,2.38,2.41,1.51.04,3.02.04,4.53,0,1.29-.03,2.3-1.06,2.37-2.36.03-.61-.01-1.23.02-1.84.03-.55-.18-.76-.74-.75-1.3.02-2.6,0-3.89,0Z"/>
      <path class="cls-1" d="M23.97,22.09c.71,0,1.42-.01,2.12,0,.75.02,1.22.43,1.27,1.07.04.6-.42,1.17-1.14,1.19-1.53.05-3.07.05-4.6,0-.7-.03-1.11-.56-1.09-1.16.03-.63.5-1.07,1.24-1.09.73-.02,1.46,0,2.19,0Z"/>
      <path class="cls-1" d="M63.65,24.39c-.66,0-1.32.02-1.98,0-.87-.04-1.41-.51-1.41-1.18,0-.68.55-1.11,1.44-1.12,1.34,0,2.69,0,4.03,0,.83,0,1.35.45,1.37,1.11.02.63-.47,1.08-1.26,1.18-.07,0-.14.01-.21.01-.66,0-1.32,0-1.98,0,0,0,0,0,0,0Z"/>
      <path class="cls-1" d="M60.6,7.59c0,.33-.15.59-.37.82-1.03,1.04-2.06,2.08-3.11,3.1-.58.56-1.21.56-1.69.06-.43-.45-.42-1.12.09-1.65,1.02-1.05,2.06-2.08,3.1-3.11.39-.38.85-.5,1.36-.25.42.21.62.57.62,1.03Z"/>
      <path class="cls-1" d="M32.51,10.79c-.02.42-.21.78-.62,1-.39.21-.82.2-1.13-.09-1.19-1.14-2.37-2.29-3.5-3.5-.42-.45-.31-1.04.13-1.47.46-.44,1.01-.43,1.47-.03.59.51,1.12,1.08,1.68,1.62.5.5,1,1,1.5,1.5.26.26.45.55.47.96Z"/>
      <path class="cls-1" d="M9.04,63.95c0-.45-.03-.9,0-1.34.05-.62.42-.99,1.03-1.07.56-.07,1.08.36,1.18.98.14.98.14,1.97,0,2.95-.09.64-.58,1.03-1.16,1-.59-.03-1.02-.46-1.06-1.12-.03-.47,0-.94,0-1.41h0Z"/>
    </g>
  </g>
</svg>