<svg xmlns="http://www.w3.org/2000/svg" viewBox="0 0 61.26 61.26"><defs><style>.cls-1{fill:#5596d6;}.cls-2{fill:none;stroke:#fff;stroke-miterlimit:10;stroke-width:0.39px;}.cls-3{fill:#fff;}</style></defs><g id="Capa_2" data-name="Capa 2"><g id="Capa_2-2" data-name="Capa 2"><circle class="cls-1" cx="30.63" cy="30.63" r="30.63"/><circle class="cls-2" cx="30.63" cy="30.63" r="28"/><path class="cls-3" d="M23.66,45.51a.94.94,0,0,1-.53-1.4c.29-.75.56-1.5.86-2.25a.65.65,0,0,1,.31-.34.43.43,0,0,1,.41.11.52.52,0,0,1,.1.46c-.18.56-.4,1.11-.61,1.66-.11.28-.21.56-.33.88.33,0,.63,0,.92,0,.07,0,.17-.13.2-.22.69-1.8,1.36-3.6,2-5.4l.91-2.41c0-.1.07-.2.11-.33a8.9,8.9,0,0,0-.9,0c-.08,0-.18.15-.22.25-.46,1.19-.9,2.39-1.35,3.58a1.51,1.51,0,0,1-.13.29.42.42,0,0,1-.78-.32c.06-.23.15-.44.23-.66L26,36.56c0-.08.06-.18.09-.29a1.14,1.14,0,0,1-1.17-.57,6.68,6.68,0,0,1-.31-1.33H19.4c-.57,0-.76-.19-.76-.75v-1c0-.57.18-.75.74-.76h.19V18.3l-.38,0a.55.55,0,0,1-.54-.55c0-.47,0-.94,0-1.42a.54.54,0,0,1,.56-.54H22a.45.45,0,0,1,.46.44.44.44,0,0,1-.48.43c-.7,0-1.4,0-2.1,0h-.32v.76h22.2v-.76H24c-.1,0-.21,0-.31,0a.43.43,0,0,1,0-.86,1,1,0,0,1,.24,0H41.85c.58,0,.77.19.77.76v1c0,.55-.17.73-.72.76l-.23,0v9.93a2.25,2.25,0,0,1,0,.26.44.44,0,1,1-.87,0V18.31H20.48V31.83H40.8V30.27a.45.45,0,0,1,.44-.45.44.44,0,0,1,.43.46c0,.42,0,.85,0,1.27v.3H42a.57.57,0,0,1,.62.61c0,.41,0,.82,0,1.22s-.21.68-.7.69H36.58c0,.21,0,.39,0,.57a1.19,1.19,0,0,1-1.22,1.32l-.17,0c.32.85.63,1.68,1,2.51q1,2.67,2,5.32a.94.94,0,0,1-.53,1.4H36.15a1.25,1.25,0,0,1-.7-.79c-1-2.74-2.06-5.47-3.08-8.2-.07-.2-.16-.33-.42-.22v7a.9.9,0,0,1-1,1h-.67c-.76,0-1.07-.31-1.07-1.08V36.3c-.27-.1-.27.1-.31.22-1,2.73-2.07,5.46-3.09,8.2a1.22,1.22,0,0,1-.7.79ZM41.73,32.74H19.53v.74h22.2Zm-6,1.64H25.56v.42c0,.53.06.59.58.59h9c.1,0,.21,0,.29,0a.5.5,0,0,0,.26-.28A3.32,3.32,0,0,0,35.7,34.38Zm-2.5,1.88.45,1.19c.87,2.31,1.74,4.63,2.62,6.94,0,.09.12.23.19.23.3,0,.6,0,.92,0,0-.12-.06-.21-.1-.3-.37-1-.75-2-1.13-3-.6-1.6-1.2-3.2-1.82-4.79a.44.44,0,0,0-.24-.26A8.63,8.63,0,0,0,33.2,36.26Zm-3.09,0v7.12c.23,0,.43,0,.63,0s.35-.06.34-.33c0-2.16,0-4.32,0-6.48v-.32Z"/><path class="cls-3" d="M30.62,31.1H28a.9.9,0,0,1-1-1c0-.58,0-1.15,0-1.72a.89.89,0,0,1,1-1h5.31a.89.89,0,0,1,1,.95q0,.88,0,1.77a.89.89,0,0,1-1,.94Zm-2.73-.89h5.47V28.33H27.89Z"/><path class="cls-3" d="M30.63,22.69H28a.9.9,0,0,1-1-1c0-.56,0-1.13,0-1.69a.9.9,0,0,1,1-1h5.29a.89.89,0,0,1,1,1c0,.55,0,1.1,0,1.65a.92.92,0,0,1-1,1ZM27.9,21.8h5.46V19.92H27.9Z"/><path class="cls-3" d="M30.63,23.24h2.61a.9.9,0,0,1,1,1c0,.56,0,1.12,0,1.68a.89.89,0,0,1-1,1H28a.9.9,0,0,1-1-1q0-.86,0-1.71a.9.9,0,0,1,1-1ZM33.36,26V24.14H27.9V26Z"/><path class="cls-3" d="M23.84,28.82h1.29a1.13,1.13,0,0,1-.08-.24.36.36,0,0,1,.2-.46.65.65,0,0,1,.5.06,6.31,6.31,0,0,1,.71.84.42.42,0,0,1,0,.56l-.57.7a.44.44,0,0,1-.62.13.42.42,0,0,1-.12-.61.56.56,0,0,0,0-.1c-.42,0-.84,0-1.25,0a.81.81,0,0,1-.93-.9V21.34a.81.81,0,0,1,.89-.91h1.83c.35,0,.54.16.55.43s-.19.44-.56.44c-.6,0-1.2,0-1.82,0Z"/><path class="cls-3" d="M37.43,29V21.53H36.16s0,0,0,0c.13.34.09.54-.13.66s-.43.06-.65-.2l-.5-.61a.44.44,0,0,1,0-.67c.18-.23.37-.45.55-.67a.43.43,0,0,1,.61-.15.41.41,0,0,1,.14.6,1,1,0,0,1,0,.11h1.28a.8.8,0,0,1,.9.89V29a.81.81,0,0,1-.88.89c-.62,0-1.24,0-1.86,0-.34,0-.53-.17-.52-.45s.18-.42.54-.42h1.84Z"/></g></g></svg>