<?xml version="1.0" encoding="UTF-8"?>
<svg id="Capa_2" data-name="Capa 2" xmlns="http://www.w3.org/2000/svg" viewBox="0 0 41.13 41.13">
  <defs>
    <style>
      .cls-1 {
        fill: #fff;
        stroke-width: 0px;
      }
    </style>
  </defs>
  <g id="Capa_1-2" data-name="Capa 1">
    <g>
      <path class="cls-1" d="M36.12,41.13c-.59-.38-1.03-.93-1.53-1.42-.61-.6-1.22-1.2-1.81-1.82-.49-.51-.52-.96-.13-1.55.13-.2,0-.47-.29-.55-.11-.03-.24-.02-.36-.02-2.1,0-4.2,0-6.3,0-.39,0-.7.09-.97.36-.12.12-.26.24-.4.33-.3.19-.59.17-.84-.08-.23-.23-.25-.68.02-.87.57-.38.63-.89.67-1.51.05-.81.51-1.44,1.26-1.78.35-.16.26-.27.06-.47-1.21-1.2-2.38-2.43-3.61-3.59-.99-.94-.95-2.44.14-3.14.17-.11.17-.23.12-.41-.22-.75-.11-1.44.47-1.99.57-.53,1.23-.67,1.97-.39.19.07.28.01.39-.14.8-1.1,2.06-1.19,3.03-.22.25.25.36.34.64-.01.69-.88,1.97-.91,2.8-.09,1.16,1.14,2.32,2.3,3.46,3.46.25.26.4.26.68.03,1.36-1.1,2.56-2.33,3.29-3.94,1.59-3.54,1.28-6.91-.92-10.1-.08-.11-.14-.31-.31-.28-.19.04-.13.24-.14.38-.13,1.56-.76,2.88-1.92,3.94-.38.35-.74.74-1.11,1.1-.35.34-.71.36-.99.08-.27-.28-.24-.65.09-.99.44-.45.89-.89,1.33-1.34.83-.85,1.29-1.87,1.28-3.06,0-.59.33-.97.73-1.32.26-.23.3-.39.02-.66-.98-.95-1.94-1.92-2.9-2.89-.2-.2-.34-.27-.54-.02-.35.45-.82.56-1.38.55-2.07-.03-4.15-.02-6.22-.02-.4,0-.51.16-.37.53.14.38.43.61.84.64.23.02.45.01.68,0,.35,0,.68.03.85.4.17.38-.06.63-.3.88-1.53,1.53-3.07,3.06-4.6,4.6-.11.11-.23.23-.33.35-.25.32-.26.63-.02.87.23.23.61.21.9-.06.39-.37.76-.75,1.14-1.13.74-.74,1.47-1.48,2.21-2.21.37-.36.74-.39,1.02-.11.29.3.26.64-.11,1.02-1.35,1.35-2.7,2.71-4.06,4.06-.46.46-.52.77-.23,1.06.27.28.66.2,1.07-.21,1.32-1.31,2.63-2.63,3.94-3.94.1-.1.21-.21.33-.29.28-.19.57-.18.8.07.24.25.28.54.06.84-.08.11-.18.2-.27.29-1.01,1.01-2.02,2.02-3.04,3.04-.09.09-.19.19-.27.29-.2.26-.24.54,0,.8.2.22.57.24.84.03.11-.08.2-.18.29-.27.99-.99,1.99-1.99,2.98-2.98.08-.08.15-.15.23-.22.32-.29.67-.31.93-.06.28.27.28.64-.03.96-.49.51-1,1.01-1.5,1.51-.43.43-.51.79-.24,1.07.28.3.66.22,1.11-.23.24-.24.47-.48.71-.7.31-.28.67-.28.93,0,.24.25.24.62-.03.9-.34.36-.68.72-1.06,1.04-.85.73-2.07.6-2.73-.29-.19-.25-.28-.23-.47-.03-.55.61-1.22.9-2.05.68-.46-.12-.81-.4-1.07-.8-.12-.18-.22-.22-.42-.14-.74.28-1.4.11-1.96-.42-.56-.53-.67-1.2-.47-1.92.06-.23.04-.35-.16-.5-1.02-.79-1.11-2.05-.2-2.96,1.23-1.25,2.47-2.48,3.72-3.72.23-.23.28-.37-.08-.48-.03,0-.05-.02-.07-.04-.48-.51-.88-.26-1.33.09-.92.71-1.72,1.52-2.37,2.48-.67.99-1.51.99-2.19-.01-.74-1.09-1.66-1.99-2.74-2.73-.26-.18-.46-.24-.69.01-.07.08-.18.12-.27.17q-.41.23-.06.57c1.18,1.18,2.37,2.36,3.55,3.55,1.02,1.03.97,2.2-.15,3.1-.2.16-.16.3-.1.49.32,1.15-.32,2.19-1.47,2.43-.34.07-.67.03-.98-.1-.18-.08-.27-.03-.39.13-.8,1.1-2.07,1.21-3.02.23-.28-.28-.39-.32-.66.03-.66.83-1.9.9-2.68.15-1.62-1.58-3.22-3.17-4.79-4.8-.89-.93-1.27-2.12-1.37-3.39-.01-.12.04-.3-.13-.34-.14-.03-.19.12-.26.22-1.08,1.46-1.75,3.09-1.9,4.91-.3,3.69,1.1,6.65,3.95,8.96.63.51.63.52,1.2-.05,1.01-1.01,2.02-2.03,3.04-3.04,1.06-1.06,2.15-1.03,3.12.11.14.17.21.09.31-.01.23-.23.45-.46.74-.61.86-.44,1.84-.21,2.42.6.15.2.25.28.51.18.69-.25,1.32-.1,1.86.39.57.52.71,1.18.53,1.9-.06.24-.09.39.15.58,1.02.78,1.1,2.03.18,2.96-.93.96-1.89,1.89-2.83,2.84-.31.31-.62.63-.94.94-.16.15-.21.25.05.37.96.44,1.39,1.22,1.36,2.25-.01.36.11.6.38.82.97.8,1.93,1.61,2.88,2.44.25.22.45.24.68,0,.16-.16.34-.31.53-.43.29-.2.58-.18.84.07.23.23.24.62,0,.87-.29.31-.62.6-.99.81-.56.33-1.15.26-1.71-.2-1.07-.89-2.13-1.79-3.18-2.7-.29-.25-.59-.36-.97-.36-2.11.02-4.23,0-6.34,0-.17,0-.34-.01-.49.12-.17.16-.28.27-.08.52.32.39.33.93-.02,1.29-1.13,1.18-2.22,2.39-3.49,3.42-1.57,0-3.15,0-4.72,0-.23,0-.26-.06-.26-.27,0-2.32,0-4.64,0-6.96.17-.26.37-.49.59-.71.91-.9,1.81-1.82,2.73-2.72.18-.18.28-.36.3-.63.08-1.07.39-2.07,1.03-2.95.32-.44.32-.45-.12-.8-1.56-1.25-2.82-2.73-3.63-4.57-.46-1.05-.71-2.15-.9-3.27,0-.83,0-1.66,0-2.49.02-.06.04-.13.05-.19.26-1.93.98-3.69,2.16-5.23.26-.34.24-.53-.06-.83C1.43,8.78.62,8.11,0,7.26V.68C.26.18.66-.01,1.22,0c1.11.02,2.22,0,3.33,0,.51,0,1.2.49,1.37.96.05.14.05.29,0,.43-.17.44-.69.59-1.04.23-.32-.33-.67-.38-1.08-.37-.72.02-1.44.02-2.17,0-.3,0-.4.09-.39.39.01,1.59,0,3.18,0,4.77,0,.23.07.41.23.57.4.39.81.78,1.19,1.19.22.24.37.25.61,0,1.15-1.17,2.32-2.33,3.48-3.5.18-.18.45-.32.49-.56.03-.23-.27-.34-.4-.52-.18-.25-.23-.51-.04-.78.17-.25.44-.38.7-.24.55.29,1.02.7,1.19,1.33.07.27.02.56-.16.8-.22.3-.08.6.29.66.1.02.21,0,.32,0,2.21,0,4.41,0,6.62,0,.77,0,1.19.42,1.2,1.19,0,.13.01.27,0,.4-.03.26.07.42.29.56,1.21.77,2.24,1.73,3.07,2.9.2.28.31.24.49-.01.77-1.08,1.7-2,2.81-2.71.42-.26.57-.54.54-1.03-.04-.9.39-1.29,1.29-1.29,2.18,0,4.36,0,6.54,0,.12,0,.24.01.36-.02.3-.07.45-.36.3-.57-.37-.54-.36-1.02.1-1.49.98-1.01,1.98-1.99,2.98-2.98.24-.24.53-.34.87-.33,1.11,0,2.22,0,3.33,0,.85,0,1.21.37,1.21,1.23,0,1.82,0,3.64,0,5.46,0,.45-.14.8-.46,1.11-.55.53-1.08,1.08-1.62,1.62-.59.59-.5.47-.09,1.02,3,4.07,2.87,9.7-.33,13.63-.65.8-1.42,1.49-2.22,2.14-.18.15-.31.26-.11.52.73.9,1.08,1.96,1.16,3.1.02.28.13.47.32.66.95.94,1.89,1.89,2.84,2.83.33.33.5.69.49,1.17-.02,1.81-.02,3.61,0,5.42,0,.56-.18.96-.68,1.21h-4.33ZM30.04,22.49c-.32,0-.55.23-.56.56-.01.25.13.42.3.59.54.54,1.08,1.08,1.61,1.62.22.22.29.48.14.77-.13.25-.34.37-.63.34-.23-.02-.38-.17-.54-.32-1.05-1.05-2.1-2.1-3.15-3.15-.1-.1-.21-.22-.33-.29-.25-.14-.52-.15-.74.07-.23.23-.24.5-.05.76.08.12.19.22.29.33,1.02,1.02,2.04,2.04,3.06,3.07.11.11.23.23.31.36.15.25.1.49-.07.71-.18.22-.41.28-.69.19-.18-.06-.31-.2-.44-.33-1.31-1.31-2.63-2.63-3.94-3.94-.09-.09-.19-.19-.29-.27-.27-.21-.64-.19-.84.04-.23.26-.21.54,0,.8.08.1.18.2.27.29,1.3,1.31,2.61,2.61,3.91,3.92.11.11.23.23.32.36.14.21.11.43-.01.64-.13.21-.33.32-.57.3-.25-.01-.41-.17-.57-.33-1.08-1.08-2.15-2.16-3.23-3.23-.33-.33-.7-.38-.96-.15-.28.26-.26.61.09.99.29.31.6.61.9.91,1.34,1.34,2.69,2.69,4.03,4.03.21.21.35.45.22.75-.13.31-.39.42-.71.42-.27,0-.54,0-.8,0-.42.02-.7.24-.86.62-.16.38-.04.55.38.55,2.06,0,4.12.02,6.18-.01.58,0,1.06.09,1.42.56.18.23.32.2.51,0,.96-.97,1.91-1.94,2.9-2.89.28-.27.3-.44,0-.69-.4-.34-.73-.73-.72-1.32,0-1.15-.4-2.15-1.21-2.97-1.44-1.47-2.91-2.92-4.36-4.37-.16-.16-.34-.26-.56-.27ZM11.94,34.45s0,0,0,.01c1.1,0,2.19,0,3.29,0,.39,0,.5-.16.37-.53-.12-.36-.48-.62-.89-.64-.29-.01-.59,0-.88-.01-.28,0-.49-.13-.6-.39-.12-.27-.04-.5.14-.7.08-.09.17-.17.25-.26,1.53-1.53,3.06-3.06,4.6-4.6.16-.16.33-.31.4-.54.12-.37-.11-.71-.5-.74-.27-.02-.45.12-.63.29-1.05,1.05-2.1,2.1-3.15,3.15-.11.11-.23.23-.36.31-.27.17-.55.14-.77-.1-.23-.24-.27-.52-.08-.8.08-.12.19-.22.3-.33,1.3-1.31,2.61-2.61,3.91-3.92.12-.12.24-.25.34-.39.13-.2.12-.4,0-.6-.13-.2-.32-.27-.55-.26-.25.01-.41.18-.57.34-1.33,1.33-2.67,2.67-4,4-.13.13-.26.27-.44.34-.27.1-.51.04-.69-.17-.18-.21-.25-.45-.1-.7.08-.14.19-.25.31-.37,1.03-1.03,2.06-2.06,3.09-3.1.12-.12.24-.26.33-.4.12-.18.11-.38,0-.57-.13-.2-.31-.28-.54-.27-.25,0-.41.17-.58.33-1.04,1.04-2.08,2.08-3.12,3.12-.11.11-.23.23-.36.31-.27.16-.55.13-.77-.11-.22-.23-.25-.5-.08-.77.08-.12.19-.23.29-.33.52-.52,1.04-1.04,1.55-1.57.24-.25.26-.56.03-.83-.19-.24-.55-.24-.84-.03-.06.05-.12.1-.18.16-1.43,1.43-2.86,2.85-4.28,4.28-.73.74-1.2,1.64-1.22,2.67-.02.74-.25,1.3-.81,1.74-.27.21-.19.36.02.57.95.93,1.87,1.87,2.81,2.8.42.42.33.44.76.01.28-.28.59-.44.99-.43,1.07.01,2.14,0,3.21,0ZM15.63,7c.03-.32-.2-.3-.42-.3-2.06,0-4.12-.02-6.18.02-.58,0-1.06-.09-1.42-.56-.18-.22-.31-.2-.51,0-.96.97-1.91,1.94-2.9,2.89-.28.27-.3.43,0,.69.41.34.73.73.72,1.32,0,1.18.43,2.19,1.26,3.03,1.42,1.44,2.85,2.86,4.28,4.28.35.35.73.4.99.14.26-.25.21-.64-.13-.98-.46-.47-.93-.93-1.39-1.39-.08-.08-.15-.15-.22-.23-.28-.32-.29-.67-.03-.93.25-.26.61-.25.93.03.09.08.17.17.26.25,1,1,2,2.01,3.01,3.01.1.1.21.22.33.29.27.15.55.14.77-.1.22-.23.2-.49.02-.73-.08-.12-.19-.22-.29-.33-1.01-1.01-2.02-2.02-3.03-3.04-.09-.09-.19-.19-.28-.29-.22-.29-.2-.58.04-.84.25-.26.54-.27.83-.07.12.08.22.19.32.3,1.3,1.29,2.59,2.59,3.89,3.89.09.09.19.19.29.27.27.21.64.19.84-.04.23-.26.21-.54,0-.8-.08-.1-.18-.2-.27-.29-1.29-1.3-2.59-2.59-3.89-3.89-.1-.1-.21-.21-.3-.32-.21-.28-.18-.56.04-.8.23-.25.51-.29.8-.11.13.08.25.2.36.32,1,1,2.01,2,3.01,3.01.09.09.17.17.26.25.26.22.62.24.84.04.24-.21.26-.53.04-.83-.1-.14-.23-.26-.35-.38-1.56-1.56-3.12-3.12-4.68-4.68-.22-.22-.38-.45-.25-.78.14-.33.41-.43.75-.42.27,0,.54.01.8,0,.47-.04.86-.43.87-.87ZM39.87,4.07c0-.8,0-1.6,0-2.4,0-.28-.07-.41-.38-.41-.85.02-1.71,0-2.57,0-.2,0-.36.05-.5.2-.8.81-1.6,1.61-2.41,2.41-.18.18-.19.3,0,.49,1.3,1.29,2.59,2.58,3.88,3.88.18.18.31.2.49,0,.41-.43.82-.84,1.25-1.25.18-.17.24-.36.24-.61-.01-.77,0-1.55,0-2.32ZM39.87,37.11c0-.79,0-1.58,0-2.36,0-.23-.06-.41-.22-.57-.42-.41-.84-.82-1.25-1.25-.19-.2-.33-.19-.52,0-1.28,1.29-2.56,2.58-3.85,3.85-.2.2-.19.33,0,.52.8.78,1.59,1.58,2.38,2.38.15.15.32.22.53.21.84,0,1.68-.02,2.53,0,.33,0,.41-.12.4-.43-.02-.79,0-1.58,0-2.36ZM1.24,37.08c0,.82,0,1.63,0,2.45,0,.28.1.38.37.37.85-.01,1.71,0,2.57,0,.22,0,.38-.07.53-.22.79-.8,1.58-1.59,2.38-2.38.21-.2.18-.33-.01-.52-1.29-1.28-2.58-2.56-3.86-3.85-.18-.18-.3-.21-.49-.02-.42.44-.86.88-1.3,1.31-.15.14-.19.31-.19.5,0,.79,0,1.58,0,2.36Z"/>
      <path class="cls-1" d="M5.36,4.09c0,.22-.1.4-.24.54-.5.5-1,1.01-1.51,1.5-.33.32-.68.33-.96.06-.26-.26-.25-.65.06-.96.5-.52,1.02-1.03,1.53-1.53.2-.2.45-.29.73-.16.24.11.36.3.39.55Z"/>
      <path class="cls-1" d="M38.64,5.65c-.01.33-.12.52-.33.64-.23.13-.49.13-.67-.05-.6-.57-1.19-1.15-1.75-1.76-.22-.24-.19-.55.05-.8.23-.24.54-.31.79-.09.65.55,1.25,1.17,1.81,1.81.08.09.11.21.1.25Z"/>
      <path class="cls-1" d="M38.63,35.34c0,.3-.1.47-.25.62-.49.49-.98.99-1.48,1.47-.34.33-.71.34-.99.05-.26-.28-.24-.63.08-.96.5-.52,1.02-1.02,1.53-1.53.21-.2.45-.28.73-.14.24.12.35.32.36.49Z"/>
      <path class="cls-1" d="M5.36,37.06c-.02.25-.13.43-.35.55-.24.13-.49.11-.67-.06-.59-.56-1.17-1.13-1.73-1.73-.23-.25-.21-.57.04-.84.24-.26.59-.29.86-.03.57.54,1.12,1.11,1.68,1.67.12.12.16.28.17.44Z"/>
    </g>
  </g>
</svg>