<svg xmlns="http://www.w3.org/2000/svg" viewBox="0 0 61.26 61.26"><defs><style>.cls-1{fill:#61ab69;}.cls-2{fill:none;stroke:#fff;stroke-miterlimit:10;stroke-width:0.39px;}.cls-3{fill:#fff;}</style></defs><g id="Capa_2" data-name="Capa 2"><g id="Capa_2-2" data-name="Capa 2"><circle class="cls-1" cx="30.63" cy="30.63" r="30.63"/><circle class="cls-2" cx="30.63" cy="30.63" r="28"/><path class="cls-3" d="M30.61,33.36c-.07.34-.13.68-.21,1a1.26,1.26,0,0,1-1.32,1.14,1,1,0,0,1-1-.8,2.42,2.42,0,0,1-.06-.66c.05-1.26.12-2.53.18-3.79v-.21l-.4.11A1.17,1.17,0,0,1,26.22,29a15.19,15.19,0,0,1,.27-2.42c.19-1,.46-1.9.69-2.85a2.25,2.25,0,0,1,1.58-1.64,5.91,5.91,0,0,1,3.83,0,2.24,2.24,0,0,1,1.48,1.54,24.84,24.84,0,0,1,1,4.76,4.1,4.1,0,0,1,0,.61,1.21,1.21,0,0,1-1.54,1.18L33.1,30c0,.74.08,1.47.11,2.19l.09,1.91a2,2,0,0,1,0,.25,1.08,1.08,0,0,1-.86,1.11A1.22,1.22,0,0,1,31,34.75a12.12,12.12,0,0,1-.32-1.22.85.85,0,0,0,0-.17Zm-1.55-3.44h0c-.05.85-.1,1.7-.14,2.55q0,.91-.06,1.83a.38.38,0,0,0,.18.31.32.32,0,0,0,.42-.22,3,3,0,0,0,.11-.4l.6-3.72c.05-.34.2-.48.46-.48s.4.16.45.47c.17,1,.32,2.1.49,3.15a8.4,8.4,0,0,0,.24,1,.29.29,0,0,0,.39.21c.09,0,.15-.19.19-.31a.53.53,0,0,0,0-.22c0-.95-.09-1.9-.14-2.85-.09-1.83-.2-3.67-.3-5.51,0-.36.13-.56.41-.58s.44.16.48.51c.13,1,.24,1.93.4,2.88a1.49,1.49,0,0,0,.38.71c.2.2.46.09.52-.19a2.25,2.25,0,0,0,0-.58,24.42,24.42,0,0,0-1-4.63,1.32,1.32,0,0,0-.84-.89,5,5,0,0,0-3.44,0,1.32,1.32,0,0,0-.88,1c-.09.32-.19.64-.27,1a19.83,19.83,0,0,0-.69,3.89c0,.24,0,.5.28.56s.43-.16.54-.38a1.19,1.19,0,0,0,.1-.32c0-.25.1-.51.13-.76.1-.76.19-1.51.28-2.26a.44.44,0,1,1,.88.05v.25Z"/><path class="cls-3" d="M41.42,32.42c.07-.92.14-1.78.2-2.65A1.91,1.91,0,0,1,42,28.56,1.5,1.5,0,0,1,43.56,28a1,1,0,0,1,.82,1c0,1.86,0,3.73,0,5.6a2.09,2.09,0,0,1-.36,1c-.51.79-1,1.57-1.6,2.32-1,1.29-1.95,2.56-2.94,3.83a1.69,1.69,0,0,0-.41,1.27,4.93,4.93,0,0,1,0,.86.45.45,0,0,1-.44.47.44.44,0,0,1-.44-.45,13.34,13.34,0,0,1,0-1.55,1.56,1.56,0,0,1,.3-.73c.84-1.14,1.71-2.26,2.55-3.39.69-.92,1.37-1.86,2-2.79a2.17,2.17,0,0,0,.42-1.4c0-1.61,0-3.22,0-4.83,0-.37-.18-.49-.53-.32a.78.78,0,0,0-.45.73c0,.57-.08,1.13-.13,1.69-.07.87-.12,1.75-.22,2.62a1.4,1.4,0,0,1-.37.75c-1,1.09-2.13,2.15-3.2,3.22l-.12.12a.45.45,0,0,1-.61,0,.43.43,0,0,1,0-.6l.21-.22,3-3c.32-.32.36-.57.16-.85a.78.78,0,0,0-1-.19,1.82,1.82,0,0,0-.35.27l-2.5,2.23a5.32,5.32,0,0,1-1.36.89,5,5,0,0,0-2.6,2.86,2.57,2.57,0,0,0,0,1.71,8.18,8.18,0,0,1,.29,2.69c0,.34-.18.55-.46.54a.45.45,0,0,1-.42-.54,8.39,8.39,0,0,0-.31-2.63,4,4,0,0,1,1-3.73,6.3,6.3,0,0,1,2.31-1.81,4.81,4.81,0,0,0,1.06-.74c.79-.68,1.57-1.37,2.33-2.08A1.83,1.83,0,0,1,41.42,32.42Z"/><path class="cls-3" d="M19.86,32.42a1.8,1.8,0,0,1,2.16.4c.86.79,1.73,1.57,2.61,2.32a4.35,4.35,0,0,0,.93.6,6.07,6.07,0,0,1,3.12,3.37,3.24,3.24,0,0,1,0,2.15,8,8,0,0,0-.29,2.57v.11a.46.46,0,0,1-.44.45.43.43,0,0,1-.44-.44,7.08,7.08,0,0,1,.21-2.47c.08-.24.11-.51.17-.76a2.7,2.7,0,0,0-.4-2,5.31,5.31,0,0,0-2.44-2.22,4.09,4.09,0,0,1-1-.68c-.92-.78-1.82-1.6-2.72-2.41a.89.89,0,0,0-.8-.28.63.63,0,0,0-.54.46.58.58,0,0,0,.19.62c1,1,2,2,3.06,3a1.75,1.75,0,0,1,.19.2.41.41,0,0,1,0,.58.42.42,0,0,1-.6,0l-.16-.15L19.5,34.77a1.32,1.32,0,0,1-.41-.85c-.11-1.38-.22-2.76-.32-4.14,0-.51-.2-.78-.57-.89s-.43,0-.43.31c0,1.77,0,3.55,0,5.32a1.5,1.5,0,0,0,.28.76c.65.94,1.33,1.87,2,2.79l2.68,3.6a1.63,1.63,0,0,1,.34,1.17c0,.34,0,.68,0,1s-.18.53-.45.53-.43-.2-.44-.53,0-.76,0-1.14a1.15,1.15,0,0,0-.18-.61c-.8-1.09-1.64-2.14-2.44-3.23s-1.45-2-2.16-3a3,3,0,0,1-.54-1.85c0-1.61,0-3.22,0-4.83a1.15,1.15,0,0,1,1.65-1.15,1.51,1.51,0,0,1,1.07,1.3c.1.88.15,1.76.22,2.65C19.83,32.14,19.84,32.26,19.86,32.42Z"/><path class="cls-3" d="M38.65,27.9c0,.61.07,1.18.1,1.75s0,.94.07,1.41c0,.12,0,.24,0,.36a1,1,0,0,1-.79,1,1.17,1.17,0,0,1-1.31-.66c-.12-.3-.19-.63-.29-1l-.07.17a6.77,6.77,0,0,1-.22.77,1.16,1.16,0,0,1-1.44.66A1,1,0,0,1,34,31.27a.41.41,0,0,1,.41-.35.43.43,0,0,1,.44.31c0,.1,0,.3.21.29s.27-.18.3-.34l.48-2.56c0-.18.06-.36.1-.54s.21-.46.46-.45.4.18.45.44c.16.9.32,1.81.49,2.72a1.88,1.88,0,0,0,.14.53c0,.09.2.13.3.2,0-.09.13-.18.13-.26,0-.76-.06-1.52-.1-2.27l-.27-4.57c0-.31.13-.51.39-.53s.43.13.49.43c.14.7.27,1.41.42,2.11a2.52,2.52,0,0,0,.25.61c0,.07.19.16.24.14a.35.35,0,0,0,.16-.26,2.89,2.89,0,0,0-.08-.65c-.3-1.21-.62-2.41-.93-3.62a.87.87,0,0,0-.62-.65,4.36,4.36,0,0,0-3,0,1.55,1.55,0,0,0-.43.29.45.45,0,0,1-.63,0,.42.42,0,0,1,0-.64,3.18,3.18,0,0,1,.92-.54,5.34,5.34,0,0,1,3.19,0,1.89,1.89,0,0,1,1.4,1.46c.31,1.32.65,2.63,1,3.95a2,2,0,0,1,0,.55,1,1,0,0,1-1.48.94Z"/><path class="cls-3" d="M22.61,27.89l-.14.06a1.05,1.05,0,0,1-1.58-1.05,9.15,9.15,0,0,1,.3-1.71c.21-.87.48-1.73.68-2.6a1.94,1.94,0,0,1,1.48-1.52,5.35,5.35,0,0,1,3.12,0,2.92,2.92,0,0,1,.91.54.41.41,0,0,1,.05.65.46.46,0,0,1-.64,0,2.44,2.44,0,0,0-.65-.36,4.66,4.66,0,0,0-2.54,0,1.09,1.09,0,0,0-.86.87c-.3,1.27-.63,2.52-.94,3.79-.05.21-.13.52.11.59s.38-.24.43-.45c.17-.74.32-1.5.48-2.25v0c.06-.4.24-.59.52-.56s.4.24.38.65c-.13,2.18-.25,4.35-.37,6.53a.34.34,0,0,0,0,.14c0,.1.1.21.15.31.11-.08.28-.15.31-.25.13-.57.24-1.14.35-1.71s.18-1,.26-1.5a.45.45,0,0,1,.46-.43c.24,0,.4.13.45.42.19,1,.36,2,.55,3,.08.38.15.43.47.42a2.33,2.33,0,0,1,.07-.25.42.42,0,0,1,.48-.33.44.44,0,0,1,.38.47,1,1,0,0,1-.71,1,1.13,1.13,0,0,1-1.3-.48,6.51,6.51,0,0,1-.32-.94.38.38,0,0,0-.09-.18c-.07.27-.13.55-.22.81a1.09,1.09,0,0,1-1,.82.94.94,0,0,1-1.11-.9,11.88,11.88,0,0,1,0-1.46c0-.67.07-1.33.11-2C22.62,28,22.61,28,22.61,27.89Z"/><path class="cls-3" d="M28.84,18.88a2,2,0,0,1,.69-1.55,1.64,1.64,0,0,1,2.28.05,2.11,2.11,0,0,1,0,3,1.73,1.73,0,0,1-2.87-.93C28.88,19.26,28.87,19.07,28.84,18.88Zm.9,0h0v.22a1,1,0,0,0,.73.86.81.81,0,0,0,.82-.34,1.17,1.17,0,0,0,.22-.91,1,1,0,0,0-.85-.93,1,1,0,0,0-.89.75A2,2,0,0,0,29.74,18.87Z"/><path class="cls-3" d="M34.74,18.63a1.67,1.67,0,1,1,3.33-.06,1.67,1.67,0,1,1-3.33.06Zm2.44.05a.84.84,0,0,0-.79-.91.88.88,0,0,0-.77,1,.78.78,0,1,0,1.56-.07Z"/><path class="cls-3" d="M26.53,18.65a1.66,1.66,0,1,1-1.65-1.77A1.73,1.73,0,0,1,26.53,18.65Zm-2.44,0a.79.79,0,1,0,.77-.89A.85.85,0,0,0,24.09,18.66Z"/></g></g></svg>