<?xml version="1.0" encoding="UTF-8"?>
<svg id="Capa_2" data-name="Capa 2" xmlns="http://www.w3.org/2000/svg" viewBox="0 0 57.7 68.16">
  <defs>
    <style>
      .cls-1 {
        fill: #fff;
        stroke-width: 0px;
      }
    </style>
  </defs>
  <g id="Capa_1-2" data-name="Capa 1">
    <g>
      <path class="cls-1" d="M21.38,68.16c-.47-.27-.61-.72-.7-1.22-.47-2.7-.97-5.4-1.43-8.11-.08-.49-.24-.58-.74-.54-1.9.15-3.8.18-5.65-.45-2.18-.75-3.68-2.16-4.4-4.36-1.12-3.42-1.8-6.94-2.54-10.45-.03-.15-.09-.3-.09-.46-.02-.59-.35-.72-.88-.7-.73.03-1.46.01-2.19,0-2.11-.03-3.3-1.78-2.51-3.75,1.11-2.77,2.27-5.53,3.41-8.3,1.74-4.2,3.3-8.45,4.57-12.82,1.1-3.78,2.98-7.19,5.67-10.12,3.08-3.34,6.86-5.46,11.3-6.3,7.36-1.4,14.37-.35,20.94,3.32.14.08.27.16.4.24.82.51,1.06,1.07.71,1.67-.35.61-.96.67-1.79.18-.82-.48-1.65-.94-2.53-1.33-3.35-1.5-6.86-2.3-10.54-2.47-3.29-.15-6.5.18-9.61,1.31-4.76,1.72-8.14,4.99-10.51,9.38-1.06,1.96-1.9,4.01-2.45,6.16-.97,3.84-2.53,7.46-4,11.12-1.13,2.82-2.31,5.61-3.46,8.42-.39.95-.23,1.19.8,1.19,1.04,0,2.08,0,3.12,0,.95,0,1.24.26,1.43,1.21.7,3.54,1.4,7.08,2.39,10.56.2.7.38,1.42.73,2.06.91,1.66,2.47,2.26,4.22,2.53,1.49.23,2.96.08,4.43-.16,1.01-.17,1.46.12,1.64,1.12.46,2.55.9,5.1,1.36,7.65.29,1.58.05,1.36,1.57,1.36,7.65,0,15.29,0,22.94.01.6,0,.82-.1.7-.77-.29-1.57-.5-3.15-.74-4.72-.02-.15-.06-.31-.07-.46-.06-.75.27-1.25.87-1.35.6-.09,1.1.28,1.23,1.02.23,1.26.41,2.53.6,3.8.15.98.25,1.98.46,2.95.13.64-.03,1.13-.48,1.56h-28.19Z"/>
      <path class="cls-1" d="M27.81,25.06c.84,0,1.68-.03,2.53,0,.56.02.73-.2.71-.74-.03-.84-.04-1.69,0-2.52.03-.59-.18-.65-.7-.53-1.77.4-3.56-.36-4.5-1.84-.99-1.58-.91-3.53.27-4.96,1.11-1.35,2.56-1.87,4.27-1.48.6.14.67-.03.65-.55-.03-.89-.03-1.77,0-2.66.02-.46-.15-.56-.58-.52-3.13.28-5.93,1.39-8.46,3.21-.2.14-.39.3-.58.44-.66.48-1.22.45-1.64-.08-.41-.53-.32-1.08.33-1.61,1.22-1,2.56-1.83,4-2.47,10.44-4.63,22.28.35,26.02,11.13,2.39,6.9,1.11,13.33-3.67,18.88-4.04,4.69-9.31,6.77-15.48,6.53-8.68-.34-16.41-7.27-17.77-15.87-.85-5.41.29-10.33,3.55-14.76.08-.11.16-.22.24-.32.43-.47,1.02-.56,1.49-.21.45.33.56.95.22,1.49-.42.65-.9,1.27-1.3,1.93-1.23,2.04-1.94,4.26-2.23,6.62-.1.79-.02.87.8.87,1.51,0,3.01,0,4.52,0,.24,0,.49,0,.73.03.44.06.81.27.95.72.15.47.01.87-.36,1.2-.72.63-1.1,1.38-.82,2.35.24.84.93,1.44,1.75,1.52.92.08,1.65-.27,2.12-1.07.43-.74.34-1.69-.2-2.36-.04-.05-.08-.11-.13-.15-.5-.41-.95-.87-.62-1.58.32-.69.99-.65,1.62-.65.75,0,1.51,0,2.26,0ZM31.04,30.63c0-.86-.03-1.73.01-2.59.03-.59-.13-.85-.77-.81-.84.05-1.68.03-2.52,0-.51-.02-.68.06-.56.66.64,3.02-1.96,5.64-4.98,5.07-2.32-.44-3.84-2.72-3.33-5.08.13-.61-.07-.67-.56-.65-.77.03-1.55,0-2.32,0-.84,0-.92.07-.81.92.28,2.17.88,4.25,1.97,6.16,2.84,4.94,7.06,7.88,12.72,8.7q1.16.17,1.16-1.01c0-1.62,0-3.23,0-4.85,0-.55.19-.96.71-1.15.51-.19.9.03,1.23.42.1.12.21.23.32.34.83.76,2.18.72,2.94-.09.79-.83.76-2.2-.07-2.99-.92-.88-2.23-.79-3.15.26-.36.41-.77.6-1.29.43-.54-.18-.7-.62-.69-1.16.01-.86,0-1.73,0-2.59ZM36.45,27.24c-.84,0-1.69.03-2.53-.01-.59-.03-.85.13-.8.77.05.73,0,1.46.01,2.19.02.94-.19,1,.91.8,2.91-.51,5.48,2.17,4.86,5.05-.51,2.36-2.73,3.81-5.1,3.3-.55-.12-.7,0-.68.55.04.84.04,1.68,0,2.52-.03.57.18.74.73.68,4.43-.54,8.15-2.45,11.09-5.82,2.3-2.63,3.6-5.71,4.03-9.16.1-.81.03-.88-.78-.88-1.55,0-3.1,0-4.65,0-.61,0-1.24.02-1.54-.65-.3-.68.1-1.13.59-1.54.08-.07.15-.16.22-.25.54-.71.57-1.7.08-2.42-.52-.76-1.4-1.1-2.25-.89-.8.2-1.31.69-1.55,1.48-.25.86.03,1.58.66,2.16.45.41.75.84.49,1.45-.25.58-.77.66-1.34.65-.82-.01-1.64,0-2.46,0ZM33.13,21.75c0,.91.01,1.82,0,2.72,0,.43.15.6.58.59.89-.02,1.77-.02,2.66,0,.53.02.73-.04.6-.69-.66-3.25,2.44-5.94,5.57-4.86,2.04.7,3.21,2.76,2.75,4.93-.1.49-.02.64.48.62.77-.03,1.55,0,2.33,0,.95,0,1.01-.09.87-1.04-.49-3.55-1.9-6.67-4.33-9.31-2.93-3.17-6.54-5-10.85-5.45-.56-.06-.67.14-.66.64.03,1.75,0,3.5.01,5.25,0,.54-.17.97-.7,1.16-.53.19-.95-.03-1.28-.44-.08-.1-.17-.21-.26-.3-.68-.64-1.74-.74-2.53-.26-.81.5-1.18,1.47-.93,2.43.22.86,1.03,1.45,1.98,1.47.75.02,1.31-.31,1.78-.87.32-.38.72-.6,1.23-.41.53.2.72.6.71,1.15-.01.89,0,1.77,0,2.66Z"/>
      <path class="cls-1" d="M57.7,23.71c-.07,5.58-1.3,10.4-3.25,15.06-1.7,4.06-3.85,7.87-6.31,11.52-.36.54-.48,1.05-.37,1.67.21,1.2.38,2.4.57,3.61.11.74-.24,1.3-.87,1.41-.58.1-1.12-.32-1.23-1.03-.27-1.64-.52-3.28-.77-4.92-.09-.59.28-1,.58-1.44,1.78-2.6,3.4-5.29,4.81-8.11,2.22-4.42,3.91-9.02,4.48-13.97.69-5.98-.36-11.55-4.12-16.44-.68-.88-1.45-1.67-2.24-2.45-.58-.57-.64-1.15-.2-1.63.44-.48,1.11-.44,1.7.11,4.05,3.78,6.37,8.44,7.01,13.93.12,1.05.19,2.11.23,2.67Z"/>
    </g>
  </g>
</svg>