<?xml version="1.0" encoding="UTF-8"?>
<svg id="Capa_2" data-name="Capa 2" xmlns="http://www.w3.org/2000/svg" viewBox="0 0 52.99 52.96">
  <defs>
    <style>
      .cls-1 {
        fill: #fff;
        stroke-width: 0px;
      }
    </style>
  </defs>
  <g id="Capa_1-2" data-name="Capa 1">
    <g>
      <path class="cls-1" d="M36.87,52.96c-1.22-.41-2.1-1.15-2.43-2.44-.08-.31-.08-.61-.08-.92,0-2.67-.01-5.34,0-8.01.02-3.01,1.33-5.32,3.84-6.95.36-.23.43-.45.31-.84-.37-1.2-.72-2.41-1.06-3.62-.3-1.07.14-1.64,1.24-1.65,3.34,0,6.68,0,10.02,0,1.09,0,1.53.58,1.23,1.65-.35,1.24-.71,2.48-1.08,3.72-.08.28-.08.48.21.65,2.12,1.29,3.39,3.17,3.87,5.6.01.07.04.13.07.2v10.13c-.39,1.26-1.22,2.09-2.48,2.48h-13.64ZM43.69,50.86c1.89,0,3.79,0,5.68,0,1.08,0,1.51-.43,1.51-1.51,0-2.51.02-5.03,0-7.54-.01-1.88-.63-3.52-2.09-4.76-.57-.49-1.16-1-1.98-1-2.08,0-4.17,0-6.25,0-.27,0-.51.05-.74.18-2.26,1.2-3.3,3.14-3.33,5.65-.02,2.46,0,4.93,0,7.39,0,1.2.41,1.61,1.62,1.61,1.86,0,3.72,0,5.58,0ZM43.73,30.75c-1.12,0-2.24,0-3.36,0-.39,0-.48.13-.37.49.22.7.43,1.41.62,2.13.1.37.3.48.67.48,1.6-.01,3.2-.02,4.8,0,.38,0,.56-.15.65-.5.19-.7.39-1.39.61-2.08.12-.38.04-.53-.38-.52-1.08.02-2.17,0-3.25,0Z"/>
      <path class="cls-1" d="M19.29,52.96c-.74-.29-1.44-.64-1.95-1.29-1-1.29-1.06-2.94-.11-4.27.23-.32.25-.52,0-.85-.93-1.29-.93-2.84,0-4.14.22-.3.22-.5,0-.81-.82-1.13-.94-2.37-.33-3.61.64-1.31,1.74-2.02,3.23-2.02,2.46,0,4.93,0,7.39,0,1.49,0,2.58.7,3.23,2.02.61,1.24.49,2.48-.33,3.61-.22.31-.22.5,0,.81.95,1.31.93,2.84-.02,4.18-.16.23-.27.41-.05.68,1.52,1.88.68,4.79-1.74,5.58-.08.03-.15.07-.23.11h-9.1ZM23.85,38.11c-1.12,0-2.24,0-3.36,0-.26,0-.52.03-.76.1-.73.22-1.13.93-.93,1.66.19.71.71,1.06,1.63,1.06,2.27,0,4.55,0,6.82,0,.26,0,.52-.04.76-.11.56-.18.94-.71.95-1.29,0-.57-.38-1.12-.93-1.3-.28-.09-.57-.12-.87-.12-1.1,0-2.2,0-3.31,0ZM23.83,45.9c1.12,0,2.24,0,3.36,0,.28,0,.55-.03.81-.11.56-.18.94-.7.95-1.28.01-.59-.39-1.14-.97-1.32-.28-.09-.57-.11-.87-.11-2.07,0-4.13,0-6.2,0-.21,0-.41,0-.62,0-.94.04-1.55.59-1.56,1.39-.01.82.62,1.39,1.58,1.43.14,0,.28,0,.41,0,1.03,0,2.07,0,3.1,0ZM23.84,50.86h0c1.19,0,2.38.02,3.56,0,.93-.02,1.54-.6,1.54-1.4,0-.78-.59-1.39-1.49-1.4-2.41-.03-4.82-.03-7.23,0-.9,0-1.49.62-1.49,1.4,0,.78.59,1.34,1.49,1.4.14,0,.28,0,.41,0,1.07,0,2.14,0,3.2,0Z"/>
      <path class="cls-1" d="M2.76,52.96c-.74-.29-1.44-.64-1.95-1.29-1-1.29-1.07-2.94-.11-4.26.25-.35.22-.56-.01-.89-.79-1.12-.89-2.35-.29-3.56.64-1.29,1.71-2,3.18-2.01,2.49-.01,4.99-.01,7.48,0,1.47,0,2.54.72,3.18,2.01.61,1.24.48,2.47-.32,3.61-.17.24-.32.42-.08.72,1.51,1.88.68,4.79-1.75,5.57-.08.03-.15.07-.23.11H2.76ZM7.36,43.08s0,0,0,0c-1.21,0-2.41-.02-3.62,0-.93.02-1.54.6-1.54,1.4,0,.78.59,1.39,1.49,1.4,2.41.03,4.82.03,7.23,0,.9,0,1.49-.62,1.49-1.4,0-.78-.6-1.34-1.49-1.41-.14,0-.28,0-.41,0-1.05,0-2.1,0-3.15,0ZM7.3,50.86c1.12,0,2.24,0,3.36,0,.26,0,.52-.03.76-.1.73-.22,1.13-.93.93-1.66-.19-.71-.71-1.06-1.63-1.06-2.27,0-4.55,0-6.82,0-.26,0-.52.04-.76.11-.56.18-.94.71-.95,1.29,0,.57.38,1.12.93,1.3.28.09.57.12.87.12,1.1,0,2.2,0,3.31,0Z"/>
      <path class="cls-1" d="M48.1,8.55c0-.89,0-1.78,0-2.67,0-1.09,0-2.17,0-3.26,0-.23.02-.47-.32-.47-2.03,0-4.06,0-6.22,0,.45.46.82.83,1.18,1.2.79.81.75,1.41-.16,2.09-10.21,7.68-21.46,13.29-33.75,16.79-.35.1-.71.19-1.05,0-.38-.2-.6-.51-.6-.95,0-.43.18-.79.58-.96.41-.17.84-.3,1.27-.42,9.06-2.65,17.59-6.51,25.56-11.57,1.88-1.19,3.7-2.46,5.51-3.75.37-.26.45-.41.08-.75-.65-.59-1.25-1.24-1.87-1.85-.38-.37-.56-.79-.35-1.31C38.15.15,38.58,0,39.11,0c3.29,0,6.58,0,9.87,0,.87,0,1.25.39,1.26,1.27,0,3.29,0,6.58,0,9.87,0,.51-.15.92-.64,1.14-.51.22-.94.06-1.31-.31-.53-.54-1.09-1.06-1.6-1.61-.28-.3-.44-.31-.72,0-1.67,1.88-3.44,3.66-5.28,5.38-4.5,4.2-9.37,7.9-14.62,11.11-6.73,4.13-13.91,7.26-21.46,9.56-.23.07-.47.13-.7.14-.5.02-.92-.3-1.05-.76-.13-.47.05-.96.48-1.21.21-.12.44-.2.67-.27,5.25-1.6,10.33-3.61,15.22-6.13,5.07-2.61,9.84-5.67,14.32-9.2,4.09-3.23,7.88-6.79,11.34-10.69.05-.05.09-.1.14-.15,1.02-1.1,1.42-1.11,2.49-.04.16.16.28.35.42.52.06-.03.11-.06.17-.09Z"/>
      <path class="cls-1" d="M4.96,22.38c0,.6-.48,1.08-1.08,1.07-.58-.01-1.04-.48-1.04-1.06,0-.59.5-1.09,1.08-1.08.57.01,1.04.5,1.04,1.07Z"/>
      <path class="cls-1" d="M46.83,41.47c.02.93-.31,1.38-.92,1.47-.56.09-1.04-.29-1.21-.95-.21-.81-.9-1.15-1.56-.76-.25.15-.43.37-.42.67.01.31.2.55.5.67.24.09.5.13.76.15,1.37.1,2.56,1.1,2.82,2.35.27,1.32-.32,2.54-1.6,3.22-.26.14-.42.28-.48.6-.09.49-.52.8-1,.81-.51,0-.96-.3-1.05-.81-.06-.33-.23-.45-.48-.59-.99-.54-1.61-1.34-1.64-2.51-.01-.65.34-1.09.93-1.17.54-.08,1.04.3,1.2.91.19.75.61,1.05,1.29.9.39-.08.68-.32.7-.72.02-.38-.24-.64-.61-.74-.23-.06-.47-.09-.71-.12-1.34-.13-2.5-1.12-2.76-2.36-.27-1.3.36-2.57,1.62-3.22.27-.14.41-.29.45-.61.06-.54.5-.9,1.03-.91.55,0,1.01.35,1.06.92.03.33.19.46.46.6.98.52,1.57,1.32,1.64,2.21Z"/>
    </g>
  </g>
</svg>