<?xml version="1.0" encoding="UTF-8"?>
<svg id="Capa_2" data-name="Capa 2" xmlns="http://www.w3.org/2000/svg" viewBox="0 0 46.77 46.67">
  <defs>
    <style>
      .cls-1 {
        fill: #fff;
        stroke-width: 0px;
      }
    </style>
  </defs>
  <g id="Capa_1-2" data-name="Capa 1">
    <g>
      <path class="cls-1" d="M0,27.17c.64-.92,1.28-1.85,1.92-2.77.51-.72.96-.82,1.69-.34.84.55,1.67,1.11,2.5,1.67.59.4.74.95.4,1.43-.32.46-.87.52-1.46.18-.26-.15-.56-.54-.75-.41-.26.19.01.58.08.88.78,3.33,2.34,6.24,4.67,8.74,3.12,3.36,6.96,5.37,11.49,6.09.73.11,1.09.64.9,1.24-.15.49-.57.73-1.15.65-2.94-.42-5.69-1.4-8.19-2.99-5.1-3.25-8.35-7.81-9.7-13.72-.03-.13,0-.32-.14-.36-.18-.05-.21.17-.31.28-.05.06-.09.12-.13.19-.57.79-1.26.78-1.83-.02,0-.24,0-.49,0-.73Z"/>
      <path class="cls-1" d="M46.77,18.42c-.15.07-.21.21-.3.34-.54.81-1.08,1.62-1.63,2.42-.5.73-.97.82-1.69.33-.87-.59-1.73-1.18-2.59-1.79-.54-.38-.67-.96-.34-1.41.32-.45.88-.52,1.42-.17.24.15.47.32.8.54-.2-.95-.45-1.77-.79-2.56-2.87-6.74-7.87-10.85-15.11-12.19-.15-.03-.3-.05-.45-.09-.5-.13-.81-.58-.74-1.05.08-.49.47-.84.99-.81,1.17.08,2.31.35,3.42.73,7.46,2.52,12.29,7.56,14.46,15.13.04.13.08.26.13.42.24-.1.32-.3.42-.47.45-.79,1.29-.89,1.82-.2.03.04.1.06.15.09v.73Z"/>
      <path class="cls-1" d="M18.42,0c1.11.61,2.12,1.36,3.15,2.08.44.31.5.85.19,1.3-.65.94-1.31,1.87-1.98,2.78-.36.48-.93.54-1.37.21-.41-.32-.48-.85-.16-1.35.15-.23.31-.45.49-.71-.2-.05-.35,0-.5.05-7.56,2.35-12.24,7.37-14.02,15.09-.07.31-.11.63-.17.94-.12.62-.54.98-1.05.92-.59-.07-.92-.5-.83-1.19.21-1.73.66-3.4,1.35-5,2.63-6.15,7.12-10.29,13.47-12.4.23-.08.47-.14.7-.2.23-.07.47-.13.74-.21-.13-.22-.33-.3-.5-.41-.9-.62-.88-1.34.04-1.91h.46Z"/>
      <path class="cls-1" d="M14.25,13.15c.83.03,1.51.27,2.21.42,1.04.23,1.49-.02,1.79-1.05.1-.33.21-.67.3-1,.41-1.48,1.4-2.3,2.92-2.38,1.41-.07,2.83-.12,4.23.04,1.22.14,2.06.84,2.49,2,.18.48.3.99.45,1.48.25.84.75,1.14,1.62.95.65-.14,1.28-.37,1.95-.43,1.26-.1,2.26.37,2.94,1.44.65,1.04,1.28,2.1,1.9,3.16.66,1.13.5,2.46-.38,3.41-.39.42-.82.81-1.22,1.23-.55.58-.54,1.09.02,1.66.35.36.71.7,1.06,1.06,1.02,1.04,1.21,2.38.48,3.63-.59,1.01-1.19,2.01-1.81,3.01-.79,1.28-2.06,1.79-3.52,1.45-.49-.11-.97-.24-1.46-.35-.83-.19-1.32.09-1.57.89-.13.41-.25.81-.36,1.22-.38,1.36-1.27,2.21-2.66,2.33-1.51.13-3.04.16-4.55-.02-1.28-.15-2.1-.95-2.49-2.17-.15-.46-.27-.93-.41-1.4-.23-.74-.75-1.03-1.51-.86-.5.11-1,.25-1.5.36-1.47.34-2.73-.17-3.52-1.45-.62-.99-1.22-2-1.81-3.01-.73-1.26-.55-2.59.47-3.63.35-.36.71-.7,1.06-1.06.57-.58.57-1.12,0-1.7-.36-.37-.74-.73-1.1-1.1-.99-1.02-1.16-2.36-.43-3.59.6-1.02,1.21-2.04,1.83-3.05.61-1.01,1.54-1.47,2.58-1.51ZM32.39,31.43c.6,0,.95-.22,1.18-.62.58-.98,1.18-1.95,1.76-2.93.32-.55.27-.94-.17-1.4-.37-.38-.75-.75-1.13-1.13-1.18-1.2-1.19-2.96-.03-4.18.37-.38.76-.75,1.13-1.13.47-.48.52-.86.19-1.43-.58-.98-1.16-1.96-1.76-2.93-.32-.53-.76-.7-1.36-.56-.61.14-1.21.3-1.82.42-1.53.3-2.99-.54-3.49-2.03-.17-.52-.31-1.05-.48-1.57-.17-.56-.55-.88-1.13-.88-1.25-.02-2.49-.02-3.74,0-.58,0-.95.32-1.12.89-.16.52-.3,1.05-.48,1.57-.5,1.48-1.95,2.32-3.49,2.01-.61-.12-1.21-.28-1.82-.42-.58-.13-1.02.04-1.33.54-.6.98-1.2,1.97-1.78,2.97-.33.56-.28.94.17,1.4.4.42.83.8,1.22,1.23,1.07,1.16,1.05,2.9-.04,4.04-.38.39-.78.77-1.16,1.16-.47.48-.53.85-.18,1.43.57.97,1.15,1.93,1.73,2.89.36.59.78.74,1.48.59.59-.14,1.18-.3,1.77-.41,1.54-.28,2.97.58,3.45,2.08.16.5.3,1.02.46,1.53.19.6.54.87,1.18.87,1.2,0,2.4,0,3.6,0,.68,0,1.02-.27,1.23-.93.16-.51.3-1.02.46-1.53.26-.81.79-1.39,1.55-1.77.71-.35,1.45-.4,2.22-.2.62.16,1.24.3,1.73.41Z"/>
      <path class="cls-1" d="M27.55,44.46c.2.14.41.28.61.42.5.37.63.89.32,1.35-.3.45-.85.58-1.36.26-.94-.59-1.86-1.2-2.78-1.83-.48-.33-.6-.83-.29-1.32.62-.97,1.26-1.94,1.92-2.88.33-.48.87-.55,1.32-.25.43.29.54.83.25,1.33-.18.31-.39.61-.62.97.85-.09,1.6-.28,2.32-.54,7.45-2.59,11.98-7.73,13.5-15.49.03-.16.05-.33.09-.49.12-.53.56-.83,1.08-.76.49.06.83.45.79.99-.07,1.03-.3,2.05-.62,3.03-2.6,8.08-8.02,13.11-16.28,15.09-.08.02-.19-.01-.27.14Z"/>
      <path class="cls-1" d="M23.65,30.31c-3.77.01-6.93-2.84-7.25-6.35-.33-3.67,2.27-7.09,5.88-7.66,2.59-.41,4.75.45,6.49,2.39.15.17.29.35.33.59.08.46-.12.86-.52,1.06-.43.2-.84.1-1.21-.33-.79-.92-1.75-1.53-2.94-1.78-2.87-.6-5.77,1.57-6.1,4.46-.31,2.75,1.82,5.58,4.95,5.72,1.33.06,2.51-.4,3.5-1.29.24-.21.44-.46.66-.69.41-.44.96-.5,1.38-.14.42.36.47.91.08,1.38-.64.79-1.4,1.44-2.31,1.9-.99.5-2.04.77-2.95.76Z"/>
      <path class="cls-1" d="M22.52,26.1c-.29.02-.53-.1-.73-.3-.52-.51-1.04-1.02-1.54-1.55-.41-.43-.42-1.01-.04-1.39.38-.38.94-.37,1.39.04.22.21.44.42.64.64.2.23.35.2.55,0,.73-.75,1.48-1.49,2.22-2.23.3-.3.64-.46,1.07-.29.65.25.87,1.02.38,1.53-1.08,1.13-2.2,2.22-3.31,3.32-.17.17-.38.24-.62.23Z"/>
      <path class="cls-1" d="M30.48,23.24c0,.54-.4.95-.94.95-.53,0-.92-.38-.94-.9-.01-.53.39-.96.92-.98.53-.01.95.39.96.93Z"/>
    </g>
  </g>
</svg>