<svg xmlns="http://www.w3.org/2000/svg" viewBox="0 0 61.26 61.26"><defs><style>.cls-1{fill:#7da7ce;}.cls-2{fill:none;stroke:#fff;stroke-miterlimit:10;stroke-width:0.39px;}.cls-3{fill:#fff;}</style></defs><g id="Capa_2" data-name="Capa 2"><g id="Capa_2-2" data-name="Capa 2"><circle class="cls-1" cx="30.63" cy="30.63" r="30.63"/><circle class="cls-2" cx="30.63" cy="30.63" r="28"/><path class="cls-3" d="M25.42,33.39A9,9,0,0,0,24.09,30c-.34-.52-.69-1.05-1.06-1.55a9,9,0,0,1,.69-10.91,3,3,0,0,0,.21-.24l-.24,0H19.6c-.46,0-.58.12-.58.57s0,.91,0,1.37a.36.36,0,0,0,.26.4,1.72,1.72,0,1,1-1.38,0,.37.37,0,0,0,.27-.44c0-.47,0-.93,0-1.4a1.27,1.27,0,0,1,1.4-1.4h5.08a.81.81,0,0,0,.44-.13A9,9,0,0,1,38.27,18.7a10.64,10.64,0,0,1,.62,1.15.29.29,0,0,0,.3.2h2.55c.39,0,.5-.13.51-.52s0-1,0-1.46a.37.37,0,0,0-.27-.41,1.7,1.7,0,0,1-1-1.93,1.72,1.72,0,0,1,3.36,0,1.69,1.69,0,0,1-1,1.94.32.32,0,0,0-.26.36c0,.5,0,1,0,1.49a1.27,1.27,0,0,1-1.35,1.34H39.47l-.06,0c.09.48.19,1,.26,1.44a8.36,8.36,0,0,1-1.35,6c-.61.91-1.17,1.85-1.71,2.8A12.1,12.1,0,0,0,36,32.53h1.59a.43.43,0,1,1,0,.86H35.8c-.06.62-.13,1.22-.18,1.84,0,.45-.12.56-.58.56H26.21c-.44,0-.54-.1-.57-.55s-.05-.64-.08-1h-4.7a1.3,1.3,0,0,1-1.46-1.46c0-.33,0-.65,0-1a.33.33,0,0,0-.24-.38,1.7,1.7,0,0,1-1-1.94,1.72,1.72,0,0,1,3.38.06,1.7,1.7,0,0,1-1,1.88.34.34,0,0,0-.25.4c0,.37,0,.74,0,1.11a.4.4,0,0,0,.43.44Zm9.34,1.54c0-.18,0-.33,0-.49a8.19,8.19,0,0,1,.8-3.24c.51-1,1.1-1.92,1.68-2.85A10.46,10.46,0,0,0,38.47,26,7.83,7.83,0,0,0,37,18.43a8.06,8.06,0,0,0-12-1,8.2,8.2,0,0,0-1.4,10.35l1.06,1.55a9.17,9.17,0,0,1,1.58,3.55c.13.67.2,1.35.3,2h2.32c0-1,0-2,0-3,0-.33.16-.52.43-.51s.42.18.43.52v3h1.81v-2.1c0-.36.15-.55.44-.54s.42.19.42.55v2.12h2.36ZM19.44,21.21a.85.85,0,0,0-.85-.86.87.87,0,0,0-.87.84.89.89,0,0,0,.87.88A.86.86,0,0,0,19.44,21.21Zm23.24-4.27a.87.87,0,0,0,.87-.85.89.89,0,0,0-.88-.87.86.86,0,0,0-.84.87A.84.84,0,0,0,42.68,16.94ZM19.84,30.71a.85.85,0,0,0,.85-.85.86.86,0,1,0-.85.85Z"/><path class="cls-3" d="M33.45,39.5c0,.15-.08.27-.12.4a2.82,2.82,0,0,1-5.43-.09.29.29,0,0,0-.36-.27H25.31c-.35,0-.5-.13-.52-.4a.39.39,0,0,1,.37-.45h11a.35.35,0,0,1,.35.34.4.4,0,0,1-.32.45,1.56,1.56,0,0,1-.31,0Zm-.91,0H28.76a1.89,1.89,0,0,0,1.88,1.53A2,2,0,0,0,32.54,39.52Z"/><path class="cls-3" d="M41.21,35.65c0-.62,0-1.23,0-1.85a.39.39,0,0,0-.42-.41h-1c-.35,0-.52-.15-.52-.43s.16-.43.51-.43h1.09a1.23,1.23,0,0,1,1.22,1.22c0,.55,0,1.11,0,1.66a.29.29,0,0,0,.22.33,1.72,1.72,0,1,1-2.31,2,1.75,1.75,0,0,1,1-2Zm.45,2.51a.86.86,0,1,0-.86-.84A.85.85,0,0,0,41.66,38.16Z"/><path class="cls-3" d="M30.63,37.64H26.17c-.37,0-.53-.14-.52-.44a.38.38,0,0,1,.34-.4,1.56,1.56,0,0,1,.31,0H35a1.42,1.42,0,0,1,.36,0,.37.37,0,0,1,.27.44.35.35,0,0,1-.33.37H30.63Z"/><path class="cls-3" d="M24.49,25.64a2.12,2.12,0,0,1,.27-.34c.26-.22.53-.41.8-.61s.14-.17.13-.33a17.61,17.61,0,0,1,0-1.78.39.39,0,0,0-.18-.42c-.26-.18-.51-.37-.76-.57a.44.44,0,0,1-.13-.68c.25-.46.51-.92.77-1.37s.4-.42.78-.25.55.23.81.36a.3.3,0,0,0,.4-.06,4.17,4.17,0,0,1,1.54-.89.29.29,0,0,0,.24-.3c0-.32.07-.64.13-1s.2-.49.57-.5h1.57c.34,0,.46.11.51.45s.09.66.12,1c0,.16.06.25.23.3a4.34,4.34,0,0,1,1.57.91.32.32,0,0,0,.4,0l.92-.4a.52.52,0,0,1,.71.23c.27.48.55,1,.81,1.44a.46.46,0,0,1-.14.68c-.27.2-.55.39-.8.6a.42.42,0,0,0-.13.33,5.17,5.17,0,0,1,0,1.84.37.37,0,0,0,.12.31c.26.22.54.41.81.62a.44.44,0,0,1,.13.69c-.26.46-.52.93-.79,1.39a.48.48,0,0,1-.71.24c-.32-.13-.63-.28-.95-.4a.33.33,0,0,0-.29.05,5.34,5.34,0,0,1-1.65.95.37.37,0,0,0-.18.24c-.06.33-.09.66-.14,1s-.2.49-.57.5H29.84a.47.47,0,0,1-.55-.45c-.05-.34-.08-.68-.14-1a.38.38,0,0,0-.2-.26,5.34,5.34,0,0,1-1.62-.93.4.4,0,0,0-.32-.05c-.32.12-.62.28-.94.41a.45.45,0,0,1-.62-.19c-.3-.51-.58-1-.87-1.54A1.19,1.19,0,0,1,24.49,25.64Zm1.58,1c.32-.14.62-.25.91-.4a.57.57,0,0,1,.76.12,3.67,3.67,0,0,0,1.83,1,.52.52,0,0,1,.44.52c0,.36.07.71.11,1.07h1c0-.35.08-.69.11-1a.52.52,0,0,1,.41-.51,4.22,4.22,0,0,0,1.94-1.12.46.46,0,0,1,.56-.1c.35.16.7.3,1.07.45l.51-.9c-.3-.23-.56-.45-.84-.65a.56.56,0,0,1-.24-.69,3.88,3.88,0,0,0,0-2,.62.62,0,0,1,.27-.74c.28-.2.54-.41.81-.63l-.51-.89c-.35.14-.69.27-1,.42a.52.52,0,0,1-.67-.12,4,4,0,0,0-1.86-1.06.53.53,0,0,1-.44-.55c0-.35-.07-.7-.11-1h-1c0,.37-.08.72-.12,1.07a.49.49,0,0,1-.38.5,4.29,4.29,0,0,0-2,1.12.46.46,0,0,1-.59.09l-1-.44-.51.9c.28.23.56.45.84.65a.57.57,0,0,1,.25.69,3.78,3.78,0,0,0,0,2,.62.62,0,0,1-.27.74l-.81.63Z"/><path class="cls-3" d="M30.62,20.74a2.71,2.71,0,1,1-2.69,2.7A2.69,2.69,0,0,1,30.62,20.74Zm-1.83,2.65a1.85,1.85,0,1,0,3.69,0,1.85,1.85,0,0,0-3.69,0Z"/></g></g></svg>