<svg xmlns="http://www.w3.org/2000/svg" viewBox="0 0 61.26 61.26"><defs><style>.cls-1{fill:#61ab69;}.cls-2{fill:none;stroke:#fff;stroke-miterlimit:10;stroke-width:0.39px;}.cls-3{fill:#fff;}</style></defs><g id="Capa_2" data-name="Capa 2"><g id="Capa_2-2" data-name="Capa 2"><circle class="cls-1" cx="30.63" cy="30.63" r="30.63"/><circle class="cls-2" cx="30.63" cy="30.63" r="28"/><path class="cls-3" d="M40.87,18.74H24.62v.45c0,.66,0,1.32,0,2a1.61,1.61,0,0,1-1.69,1.69c-.7,0-1.4,0-2.1,0h-.34v.39c0,2.27,0,4.53,0,6.8a1.82,1.82,0,0,1,0,.33.36.36,0,0,1-.39.35.88.88,0,0,1-.44-.28c-.06-.06,0-.2,0-.31q0-3.78,0-7.54a.83.83,0,0,1,.27-.63q1.93-1.92,3.85-3.85a.91.91,0,0,1,.7-.29H40.63a.46.46,0,0,0,.48-.27,1.87,1.87,0,0,1,2.14-1,1.91,1.91,0,0,1,1.46,1.83c0,1.49,0,3,0,4.49V33.4a1.65,1.65,0,0,1-.14.62c-.34.77-.7,1.52-1,2.28a.78.78,0,0,1-.73.54.77.77,0,0,1-.73-.55c-.35-.75-.71-1.49-1-2.25a1.63,1.63,0,0,1-.15-.65V18.74Zm.89,3.13c0,.1,0,.15,0,.21V33.35a.44.44,0,0,0,0,.2c.33.72.66,1.44,1,2.21.32-.68.62-1.31.9-1.95a1.39,1.39,0,0,0,.13-.56c0-3.68,0-7.36,0-11v-.33l-.17,0ZM21.19,22c.62,0,1.21,0,1.81,0a.71.71,0,0,0,.72-.77c0-.53,0-1.06,0-1.59a.49.49,0,0,0,0-.15Zm20.57-2.78h2.06c0-.28,0-.54,0-.81a1,1,0,0,0-2.06,0C41.74,18.66,41.76,18.91,41.76,19.19Zm0,1.78h2v-.85h-2Z"/><path class="cls-3" d="M35.9,41.68H30.28a.53.53,0,0,0-.45.2c-.42.46-.86.9-1.31,1.32a1,1,0,0,1-1.33.05c-.23-.18-.45-.38-.69-.56a.37.37,0,0,0-.56.21c0,.3-.06.59-.09.89a1,1,0,0,1-1,.93H23.06a1,1,0,0,1-1-.93c0-.26-.06-.51-.07-.77a.41.41,0,0,0-.29-.38c-.19-.08-.27,0-.38.12l-.57.47a1,1,0,0,1-1.4-.06c-.41-.41-.83-.82-1.23-1.24A1,1,0,0,1,18,40.53l.47-.57c.1-.12.2-.21.11-.41a.38.38,0,0,0-.39-.27l-.77-.07a1,1,0,0,1-.9-1q0-.91,0-1.83a1,1,0,0,1,.92-1c.26,0,.51,0,.77-.06a.38.38,0,0,0,.37-.27c.09-.19,0-.29-.1-.41s-.32-.37-.47-.57a1,1,0,0,1,.06-1.39c.41-.43.82-.85,1.25-1.26a1,1,0,0,1,1.35-.06c.2.15.4.32.59.48s.21.21.41.12a.4.4,0,0,0,.27-.4c0-.25,0-.51.07-.76a1,1,0,0,1,1-.91q.91,0,1.83,0a1,1,0,0,1,1,.92c0,.28.06.55.07.83a.31.31,0,0,0,.29.31.52.52,0,0,0,.33-.07c.22-.15.42-.35.64-.52a1,1,0,0,1,1.35.06c.44.41.86.84,1.28,1.27a1,1,0,0,1,.07,1.35c-.18.24-.38.45-.56.69a.37.37,0,0,0,.2.56l.89.09a1,1,0,0,1,.93,1q0,.9,0,1.8a1,1,0,0,1-.92,1c-.26,0-.53.06-.79.07s-.28.12-.36.29,0,.25.09.36.39.5.6.73a.4.4,0,0,0,.27.12H41.52a.75.75,0,0,0,.82-.83c0-.66,0-1.33,0-2,0-.39.16-.6.45-.6s.43.22.43.62v1.89a1.65,1.65,0,0,1-1.8,1.8Zm-8.08.91a1,1,0,0,0,.15-.1l1.15-1.15c.13-.12.09-.21,0-.33s-.46-.56-.7-.83a.55.55,0,0,1-.08-.68,4.06,4.06,0,0,0,.27-.65.55.55,0,0,1,.55-.41c.35,0,.7-.07,1.06-.09.18,0,.25-.1.25-.29q0-.73,0-1.47c0-.22-.08-.3-.29-.31s-.7-.07-1.06-.09a.53.53,0,0,1-.5-.39,5.42,5.42,0,0,0-.29-.7.53.53,0,0,1,.07-.63c.25-.28.48-.58.73-.86a.22.22,0,0,0,0-.35L28,32.17c-.13-.14-.23-.13-.37,0s-.56.47-.84.7a.53.53,0,0,1-.65.08,4.11,4.11,0,0,0-.65-.28.54.54,0,0,1-.43-.56c0-.35-.06-.71-.09-1.06,0-.17-.09-.24-.26-.24H23.21c-.21,0-.28.08-.3.27,0,.36-.06.71-.09,1.06a.54.54,0,0,1-.39.53,5.56,5.56,0,0,0-.71.29.5.5,0,0,1-.6-.07l-.86-.72a.23.23,0,0,0-.38,0c-.35.37-.7.72-1.06,1.07-.15.14-.14.25,0,.4s.46.56.7.83a.53.53,0,0,1,.07.63,4.06,4.06,0,0,0-.27.65.56.56,0,0,1-.59.44l-1,.09c-.18,0-.25.1-.25.28,0,.5,0,1,0,1.48,0,.22.08.3.29.31l1.06.09a.52.52,0,0,1,.5.38,5.56,5.56,0,0,0,.29.71.53.53,0,0,1-.07.63c-.25.28-.48.58-.73.86a.22.22,0,0,0,0,.35c.37.36.73.72,1.09,1.09a.22.22,0,0,0,.37,0c.27-.24.55-.45.82-.69a.56.56,0,0,1,.7-.08,3,3,0,0,0,.62.26.56.56,0,0,1,.43.57c0,.35.06.7.09,1.06,0,.17.09.24.26.23h1.51c.21,0,.28-.08.3-.27,0-.35.06-.7.09-1.06a.53.53,0,0,1,.39-.52,5.56,5.56,0,0,0,.71-.29.5.5,0,0,1,.6.07l.84.7Z"/><path class="cls-3" d="M32.9,27.34v-.72a.76.76,0,0,1,.84-.82h1.15l.08,0v-.69a.77.77,0,0,1,.86-.86H37c0-.26,0-.5,0-.73a.74.74,0,0,1,.82-.81c.44,0,.88,0,1.33,0a.74.74,0,0,1,.8.82v7a.73.73,0,0,1-.81.81H31.65a.73.73,0,0,1-.81-.81c0-.79,0-1.57,0-2.36a.73.73,0,0,1,.8-.79C32,27.33,32.45,27.34,32.9,27.34Zm6.19,3.05V23.55a7.42,7.42,0,0,1-.82,0c-.26,0-.35.06-.35.34,0,2.07,0,4.14,0,6.21v.3Zm-2.07,0v-5.3c-.3,0-.59,0-.87,0s-.3.08-.29.3v4.73c0,.09,0,.18,0,.28ZM35,30.4V26.68c-.3,0-.57,0-.85,0s-.32.06-.32.31c0,1,0,2.09,0,3.13,0,.09,0,.17,0,.28Zm-2.07,0V28.22h-1a.23.23,0,0,0-.15.15c0,.67,0,1.33,0,2Z"/><path class="cls-3" d="M35.69,36.49H32.44a.44.44,0,0,1,0-.88h6.41c.37,0,.57.16.56.45s-.19.43-.55.43H35.69Z"/><path class="cls-3" d="M26,27H22.75a.4.4,0,0,1-.41-.42.41.41,0,0,1,.4-.45,2.84,2.84,0,0,1,.41,0H29a2.43,2.43,0,0,1,.27,0,.44.44,0,0,1,.41.46.41.41,0,0,1-.43.42H26Z"/><path class="cls-3" d="M36.55,33.59h2.22c.43,0,.63.14.63.43s-.2.45-.65.45H34.32c-.43,0-.64-.14-.64-.43s.21-.45.66-.45Z"/><path class="cls-3" d="M26.85,25H24.52c-.34,0-.52-.15-.53-.42s.19-.46.52-.46h4.67c.34,0,.54.18.53.46s-.19.42-.52.42Z"/><path class="cls-3" d="M36,38.5H34.93a.46.46,0,0,1-.5-.46.45.45,0,0,1,.5-.43h2.21a.44.44,0,1,1,0,.88Z"/><path class="cls-3" d="M26.33,29H25.22a.46.46,0,0,1-.49-.45.46.46,0,0,1,.47-.44h2.27a.45.45,0,1,1,0,.89Z"/><path class="cls-3" d="M33,38.5h-.53a.44.44,0,0,1-.44-.43.45.45,0,0,1,.45-.45h1a.44.44,0,0,1,.44.43.44.44,0,0,1-.45.45Z"/><path class="cls-3" d="M23.29,29h-.54a.39.39,0,0,1-.41-.41.41.41,0,0,1,.39-.46,10.46,10.46,0,0,1,1.12,0,.41.41,0,0,1,.39.44.42.42,0,0,1-.42.43Z"/><path class="cls-3" d="M23.65,24.58a.43.43,0,0,1-.46.43.44.44,0,0,1-.42-.44.46.46,0,0,1,.44-.44A.45.45,0,0,1,23.65,24.58Z"/><path class="cls-3" d="M28.83,28.15a.45.45,0,0,1,.44.46.44.44,0,0,1-.88,0A.45.45,0,0,1,28.83,28.15Z"/><path class="cls-3" d="M33.35,34a.44.44,0,1,1-.88,0,.43.43,0,0,1,.43-.43A.45.45,0,0,1,33.35,34Z"/><path class="cls-3" d="M38.52,37.61A.46.46,0,0,1,39,38a.46.46,0,0,1-.44.47.45.45,0,0,1-.44-.43A.44.44,0,0,1,38.52,37.61Z"/><path class="cls-3" d="M25.8,20.31a.44.44,0,0,1-.44-.46.44.44,0,0,1,.88,0A.44.44,0,0,1,25.8,20.31Z"/><path class="cls-3" d="M30.46,19.44a.44.44,0,0,1,.46.44.46.46,0,0,1-.44.43.43.43,0,0,1-.44-.44A.41.41,0,0,1,30.46,19.44Z"/><path class="cls-3" d="M35.16,20.31a.43.43,0,0,1-.45-.41.42.42,0,0,1,.42-.46.44.44,0,0,1,.46.43A.45.45,0,0,1,35.16,20.31Z"/><path class="cls-3" d="M39.81,20.31a.43.43,0,0,1-.43-.46.42.42,0,0,1,.44-.41.44.44,0,0,1,.44.42A.45.45,0,0,1,39.81,20.31Z"/><path class="cls-3" d="M27.64,37.07A3.73,3.73,0,0,1,24.12,41a3.69,3.69,0,0,1-.73-7.34,3.61,3.61,0,0,1,2.5.51c.34.21.43.44.29.69s-.41.27-.75.07a2.71,2.71,0,0,0-3.09.09,2.8,2.8,0,0,0,1,5,2.64,2.64,0,0,0,2.78-1,2.72,2.72,0,0,0,.3-3c0-.07-.08-.14-.11-.21a.44.44,0,1,1,.77-.43A3.44,3.44,0,0,1,27.64,37.07Z"/><path class="cls-3" d="M23.93,39.23a1.92,1.92,0,1,1,1.94-1.92A1.92,1.92,0,0,1,23.93,39.23ZM25,37.32a1,1,0,1,0-1,1A1,1,0,0,0,25,37.32Z"/></g></g></svg>