<?xml version="1.0" encoding="UTF-8"?>
<svg id="Capa_2" data-name="Capa 2" xmlns="http://www.w3.org/2000/svg" viewBox="0 0 38.04 39.46">
  <defs>
    <style>
      .cls-1 {
        fill: #000;
        stroke-width: 0px;
      }
    </style>
  </defs>
  <g id="Capa_2-2" data-name="Capa 2">
    <g>
      <path class="cls-1" d="M16.7,39.46q-.5-.34-.56-1.31c-.66-.15-1.32-.29-1.98-.46-6.96-1.79-12.5-7.73-13.81-14.82-.85-4.57-.16-8.91,2.08-12.99.42-.76.84-.88,1.62-.49.48.24.96.48,1.44.73.67.35.81.86.43,1.54-.98,1.74-1.63,3.59-1.87,5.58-.55,4.68.75,8.79,3.91,12.28,2.24,2.47,5.04,4,8.32,4.65.12.02.25.04.39.06.03-.15.05-.27.07-.4.15-.75.82-1,1.41-.5.82.7,1.63,1.41,2.45,2.12.21.19.43.37.64.56.6.54.53,1.15-.19,1.5-1.25.63-2.5,1.24-3.76,1.86-.04.02-.08.05-.13.08h-.46ZM20.2,36.65c-.8-.69-1.57-1.36-2.35-2.04-.33.73-.63.89-1.36.78-2.37-.38-4.56-1.23-6.52-2.6-4.47-3.13-6.9-7.44-7.2-12.9-.17-3.01.54-5.86,1.98-8.52.04-.08.07-.16.11-.26-.47-.24-.93-.47-1.37-.7-.04.03-.06.05-.07.07-.06.1-.12.2-.17.3-2.12,4.12-2.67,8.44-1.52,12.93,1.79,6.93,7.31,11.97,14.39,13.22.66.12,1.21.3,1.28,1.11.95-.47,1.86-.92,2.81-1.39Z"/>
      <path class="cls-1" d="M16.3,18.27c-.31.64-.58,1.17-.83,1.72-.29.63-.77.92-1.46.91-1.59-.01-3.18,0-4.85,0,0,.32,0,.62,0,.92,0,.47-.2.71-.56.72-.37,0-.59-.26-.59-.74,0-.28,0-.56,0-.9-.34,0-.65,0-.97,0-.82-.01-1.26-.69-.91-1.43.56-1.2,1.14-2.38,1.72-3.57.26-.54.71-.79,1.3-.79.74,0,1.48,0,2.26,0,0-.39,0-.73,0-1.08.02-.79.46-1.23,1.26-1.24.04,0,.08,0,.12,0,.67,0,.8-.1.95-.74.02-.08-.04-.19-.09-.26-.15-.17-.33-.33-.48-.5-.42-.46-.45-1.08-.03-1.53.36-.4.75-.78,1.14-1.14.46-.42,1.06-.41,1.53,0,.03.03.06.05.08.08q.62.59,1.43.19c0-.27,0-.55,0-.83.02-.68.46-1.13,1.14-1.15.5-.01,1-.02,1.5,0,.65.02,1.09.47,1.13,1.13,0,.09,0,.18,0,.27,0,.62.13.79.74.91.08.01.19-.04.26-.1.18-.16.34-.35.53-.51.46-.4,1.06-.4,1.5,0,.4.36.78.75,1.14,1.15.41.45.4,1.04.01,1.51-.07.08-.14.15-.21.22-.49.49-.51.56-.15,1.16.04.08.18.13.27.14.22.02.44,0,.65,0,.65.02,1.11.47,1.13,1.12.01.38,0,.76,0,1.19.69,0,1.34.02,1.99,0,.78-.04,1.29.3,1.6,1.01.17.4.39.78.56,1.18.1.24.24.32.49.31,1.53-.01,3.06,0,4.59,0,1.43,0,1.86.43,1.84,1.87,0,.31-.04.68-.21.91-.24.32-.62.53-1.05.87,0,.69-.04,1.57,0,2.43.06,1.06-.3,1.89-1.08,2.6-.61.55-1.17,1.15-1.78,1.76.59.59,1.14,1.19,1.74,1.72.82.73,1.19,1.6,1.12,2.7-.05.74,0,1.49-.01,2.23,0,.21.02.33.28.4.56.15.9.54.97,1.12.04.35.04.72,0,1.08-.08.71-.62,1.18-1.34,1.18-4.06,0-8.12,0-12.18,0-.74,0-1.28-.48-1.36-1.21-.04-.33-.04-.67,0-1,.06-.59.4-1.01.97-1.17.25-.07.29-.18.29-.4,0-.85.01-1.7,0-2.54-.02-.86.27-1.57.9-2.17.59-.56,1.15-1.14,1.81-1.8-.24,0-.38,0-.53,0-5.61,0-11.23,0-16.84,0-1.24,0-1.72-.48-1.72-1.73,0-.57,0-1.13,0-1.7,0-.42.23-.67.58-.68.35,0,.57.24.58.67,0,.63,0,1.26,0,1.89,0,.25.06.39.34.39,2.23,0,4.47,0,6.7,0,.02,0,.05-.02.09-.04v-8.73ZM35.61,21.07h-10.07c0,1,0,1.98,0,2.95,0,.48.16.87.5,1.2.68.66,1.35,1.34,2.02,2.02.54.54.54,1.07,0,1.61-.63.64-1.26,1.29-1.91,1.9-.43.41-.64.87-.62,1.47.03.8,0,1.59,0,2.39,0,.13.01.27.02.41h.86c0-.62,0-1.21,0-1.8,0-.56.32-.97.82-1,.64-.04,1.28-.03,1.92-.01.31,0,.49.22.51.53.02.31-.14.52-.44.58-.14.03-.28.03-.42.03-.4,0-.79,0-1.21,0v1.66h5.94v-1.67c-.58,0-1.13.01-1.68,0-.4-.01-.63-.24-.62-.59,0-.34.24-.55.64-.56.56,0,1.13,0,1.7,0,.79,0,1.15.36,1.15,1.16,0,.55,0,1.1,0,1.67h.85c.01-.12.03-.22.03-.32,0-.89,0-1.77,0-2.66,0-.47-.16-.84-.49-1.17-.69-.68-1.37-1.36-2.04-2.04-.52-.52-.52-1.05,0-1.58.55-.56,1.08-1.14,1.67-1.65.66-.57.94-1.23.88-2.1-.06-.8-.01-1.61-.01-2.43ZM26.11,27.02s.05-.06.08-.1c-.17-.15-.34-.3-.51-.44-1.01-.8-1.41-1.84-1.3-3.12.06-.76.01-1.53.01-2.36-.43-.04-.81-.11-1.2-.11-1.15-.01-2.31,0-3.46,0-.63,0-1.08-.28-1.35-.84-.2-.43-.41-.85-.62-1.28-.07-.14-.14-.28-.24-.46v8.71h8.6ZM24.36,10.54c-.36-.34-.69-.67-1.06-1.02-.56.71-1.17,1.11-2.24.68-1.06-.43-1.24-1.13-1.12-2.11h-1.5c.13,1-.09,1.68-1.14,2.11-1.07.44-1.67,0-2.22-.67-.37.36-.71.69-1.04,1.02.91,1.01,1.04,1.25.83,1.77-.19.47-.39.96-.7,1.35-.39.48-1.03.23-1.57.32v1.11h3.75c.21-2.06,1.1-3.14,2.62-3.22.72-.04,1.38.13,1.95.58.85.67,1.17,1.58,1.1,2.64h3.76v-1.11c-1.61-.11-1.59-.12-2.2-1.48-.42-.94.26-1.41.79-1.95ZM29.98,17.6c-.17-.36-.34-.65-.45-.96-.11-.3-.29-.39-.61-.39-3.55.01-7.11,0-10.66,0h-.43c.55,1.15,1.08,2.24,1.62,3.33.04.09.23.14.36.14.8.01,1.59,0,2.39,0,.3,0,.61,0,.93,0,0-.3-.01-.54,0-.78.04-.77.55-1.29,1.31-1.35.19-.01.38,0,.58,0,1.63,0,3.26,0,4.97,0ZM7.27,19.74c2.32,0,4.56,0,6.81-.01.12,0,.29-.15.35-.27.32-.61.61-1.24.91-1.87.2-.42.41-.85.61-1.27-.06-.03-.08-.05-.1-.05-2.22,0-4.44,0-6.66,0-.11,0-.28.1-.33.19-.53,1.07-1.04,2.14-1.59,3.27ZM30.62,18.75c-1.95,0-3.91,0-5.86,0-.48,0-.49.01-.49.59,0,.54,0,.55.48.55,2.16,0,4.32,0,6.47,0,1.73,0,3.47,0,5.2,0,.13,0,.37-.04.38-.09.04-.3.07-.61.01-.9-.01-.07-.33-.13-.5-.13-1.9,0-3.8,0-5.7,0ZM30.55,37.32c1.96,0,3.93,0,5.89,0,.13,0,.37-.04.37-.09.04-.29.07-.59.02-.87-.02-.08-.32-.16-.49-.16-3.85,0-7.7,0-11.56,0-.09,0-.2-.03-.27.01-.1.05-.21.14-.24.24-.04.13,0,.28-.02.42-.04.35.1.47.46.46,1.94-.02,3.88,0,5.82,0ZM17.59,15.08h3.19c.2-.6,0-1.27-.52-1.7-.53-.44-1.3-.5-1.9-.15-.63.37-.91,1.01-.77,1.85Z"/>
      <path class="cls-1" d="M6.98,4.58c-.34,1.02-.66,1.98-1,2.98,1.06-.08,2.06-.15,3.08-.22-.24-.9-.17-1.09.57-1.61C18.63-.64,31.37,3.67,34.66,14.19c.11.35.26.47.62.44.37-.03.74,0,1.18,0-.05-.19-.08-.35-.12-.5-.69-2.39-1.83-4.54-3.42-6.45-.07-.08-.13-.16-.19-.24-.19-.29-.15-.59.1-.79.23-.19.58-.17.8.08.34.4.67.81.98,1.24,1.43,1.96,2.43,4.13,3.02,6.48.19.78-.21,1.32-1.02,1.33-.58,0-1.16,0-1.73,0-.68,0-.99-.23-1.18-.88-1.08-3.68-3.25-6.54-6.46-8.62-5.05-3.27-11.9-3.14-16.82.32-.06.04-.12.09-.22.17.08.11.15.21.22.3.46.64.16,1.31-.63,1.38-.75.07-1.51.11-2.27.16-.61.04-1.23.08-1.84.12-.71.05-1.12-.46-.9-1.13.42-1.28.86-2.55,1.28-3.83.12-.36.29-.66.7-.73.41-.07.69.14.9.45.04.05.06.11.08.14.85-.51,1.62-1.02,2.43-1.45,6.86-3.67,15.56-2.67,21.42,2.45.33.29.39.63.15.9-.24.27-.56.27-.92-.04-2.22-1.89-4.73-3.22-7.57-3.86-5.3-1.2-10.19-.26-14.64,2.87-.53.37-1.01.54-1.6.06Z"/>
      <path class="cls-1" d="M34.19,24.64c-.08.13-.18.41-.38.61-.78.82-1.6,1.6-2.39,2.41-.13.14-.23.33-.28.51-.08.3-.26.48-.56.49-.3,0-.48-.17-.57-.47-.06-.2-.16-.4-.3-.55-.77-.79-1.55-1.57-2.34-2.35-.34-.34-.52-.71-.32-1.17.19-.44.56-.6,1.03-.6,1.67,0,3.34,0,5.01,0,.64,0,1.08.39,1.09,1.11ZM32.66,24.71h-4.1c.68.68,1.37,1.38,2.04,2.05.66-.66,1.35-1.34,2.06-2.05Z"/>
      <path class="cls-1" d="M31.15,30.1c0,.49-.2.76-.55.78-.39.02-.61-.28-.6-.8,0-.49.24-.78.61-.76.36.02.54.29.54.78Z"/>
    </g>
  </g>
</svg>