<?xml version="1.0" encoding="UTF-8"?>
<svg id="Capa_2" data-name="Capa 2" xmlns="http://www.w3.org/2000/svg" viewBox="0 0 50.12 48.63">
  <defs>
    <style>
      .cls-1 {
        fill: #fff;
        stroke-width: 0px;
      }
    </style>
  </defs>
  <g id="Capa_2-2" data-name="Capa 2">
    <g>
      <path class="cls-1" d="M50.12,34.21c-.34,1.32-1.27,2.08-2.42,2.69-1.87,1-3.69,2.08-5.54,3.12-.09.05-.17.1-.25.15-.44.22-.86.12-1.06-.25-.21-.38-.09-.78.35-1.03,1.24-.72,2.49-1.42,3.74-2.13.95-.54,1.91-1.06,2.85-1.62.68-.4,1-1.17.83-1.88-.18-.75-.78-1.29-1.55-1.35-.27-.02-.55.04-.82.1-3.45.82-6.75,2.08-9.98,3.53-.15.07-.32.3-.32.44.18,2.77-2.46,4.34-4.89,3.73-2.68-.68-5.33-1.51-7.98-2.29-.47-.14-.67-.53-.55-.94.12-.4.52-.59.99-.45,2.47.72,4.94,1.44,7.41,2.16.83.24,1.64.27,2.43-.12.86-.42,1.2-1.08,1.11-2.19-.07-.82-.64-1.23-1.33-1.45-4.93-1.54-9.85-3.11-14.79-4.57-3-.89-5.97-.59-8.83.67-.62.27-1.24.56-1.9.86,1.34,3.31,2.66,6.58,4,9.91.6-.26,1.18-.49,1.75-.77,1.46-.72,2.84-.59,4.21.28,1.46.92,2.91,1.88,4.47,2.62,3.96,1.87,7.93,1.69,11.79-.36,1.42-.75,2.81-1.58,4.21-2.38.35-.2.69-.23.99.07.25.24.29.54.12.85-.06.11-.16.22-.27.28-2.06,1.11-4.05,2.41-6.21,3.28-4.25,1.71-8.44,1.26-12.41-.99-1.22-.69-2.41-1.44-3.59-2.19-.85-.54-1.69-.61-2.59-.17-.64.31-1.32.56-1.96.88-.16.08-.31.27-.35.44-.31,1.34-1.08,2.28-2.36,2.79-2.07.84-4.13,1.68-6.21,2.5C1.49,49.09,0,48.08,0,46.26c0-2.59,0-5.19,0-7.78,0-.08,0-.16,0-.24.03-.45.33-.75.74-.75.41,0,.71.31.72.77.01,1.24,0,2.48,0,3.72,0,1.42,0,2.84,0,4.26,0,.79.45,1.11,1.18.81,2.09-.83,4.17-1.67,6.25-2.53,1.23-.51,1.73-1.7,1.23-2.94-1.26-3.16-2.54-6.32-3.83-9.47-.51-1.24-1.68-1.73-2.93-1.25-.44.17-.88.35-1.32.52-.42.16-.6.45-.59.9.02.78,0,1.57,0,2.35,0,.55-.26.86-.71.87-.47.01-.75-.31-.76-.88,0-.83,0-1.66,0-2.5,0-.69.23-1.33.81-1.7,1.02-.64,2.12-1.15,3.36-1.22.81-.05,1.56.19,2.19.69.29.22.5.18.79.06,1.37-.55,2.72-1.2,4.14-1.6,2.88-.81,5.73-.52,8.56.38,4.39,1.4,8.8,2.75,13.2,4.1.91.28,1.74.65,2.32,1.44,1.14-.47,2.23-1,3.36-1.38,2.37-.81,4.75-1.62,7.15-2.3,2.03-.58,3.53.36,4.15,2.4.01.05.04.09.07.13v1.08Z"/>
      <path class="cls-1" d="M32.46,0c1.76.01,3.42.42,4.99,1.22.6.31.78.67.56,1.11-.22.43-.63.5-1.23.2-5.66-2.81-12.3.3-13.71,6.42-1.39,6.01,3.28,11.81,9.47,11.67,3.99-.09,6.93-2.01,8.58-5.62,1.64-3.6,1.07-7.02-1.39-10.13-.09-.12-.2-.22-.27-.34-.2-.33-.18-.66.11-.93.31-.29.65-.28.97-.02.1.08.18.19.27.28,3.05,3.56,3.54,8.6,1.2,12.68-.18.32-.17.53.01.83,1.06,1.8,2.1,3.6,3.13,5.42.72,1.27-.01,2.72-1.4,2.76-.41.01-.83-.14-1.24-.24-.46-.11-.91-.25-1.37-.36-.56-.14-.87.04-1.04.6-.19.66-.37,1.32-.54,1.98-.21.79-.71,1.29-1.52,1.4-.82.11-1.42-.25-1.82-.96-1.05-1.82-2.1-3.64-3.15-5.46-.34-.59-.96-.58-1.3.02-1.04,1.81-2.08,3.62-3.13,5.42-.54.92-1.44,1.25-2.32.86-.55-.24-.87-.67-1.03-1.23-.18-.64-.34-1.29-.52-1.93-.18-.64-.48-.82-1.12-.66-.63.16-1.26.34-1.89.51-.84.22-1.56,0-2.01-.63-.48-.67-.46-1.36-.05-2.06,1.05-1.82,2.1-3.64,3.16-5.46.16-.28.15-.47,0-.75C18.88,9.67,23.28.96,31.19.07c.42-.05.85-.05,1.27-.07ZM30.41,21.93c-2.58-.52-4.67-1.75-6.39-3.69-1.02,1.77-2.02,3.48-3,5.21-.08.14-.06.35-.08.53.18.02.38.08.55.04.6-.14,1.19-.32,1.79-.47,1.43-.37,2.51.26,2.91,1.69.17.63.33,1.26.52,1.88.04.13.17.28.29.33.08.03.27-.1.33-.21,1.02-1.74,2.02-3.49,3.08-5.3ZM34.49,21.92c.02.07.02.13.04.16.98,1.71,1.96,3.42,2.96,5.12.07.12.26.25.37.23.12-.02.25-.2.29-.34.2-.67.35-1.35.55-2.03.36-1.24,1.48-1.87,2.74-1.56.62.15,1.22.34,1.84.48.2.04.42-.03.63-.05-.04-.19-.04-.41-.14-.58-.91-1.6-1.83-3.19-2.76-4.78-.06-.1-.14-.2-.22-.32-1.72,1.93-3.81,3.14-6.31,3.65Z"/>
      <path class="cls-1" d="M32.43,15.72c-.86.63-1.7,1.25-2.55,1.85-1.01.71-2.29.2-2.4-.96-.02-.25.04-.52.11-.76.27-.87.54-1.74.84-2.6.09-.27.04-.41-.18-.57-.75-.53-1.48-1.07-2.22-1.61-.66-.49-.88-1.06-.66-1.73.21-.66.73-1.01,1.55-1.01.9,0,1.79-.02,2.69,0,.32,0,.46-.1.55-.4.25-.84.53-1.68.8-2.51.26-.8.77-1.21,1.47-1.21.71,0,1.19.4,1.45,1.22.27.82.55,1.64.79,2.46.1.35.28.45.62.44.86-.02,1.73-.01,2.59,0,.86,0,1.37.34,1.59,1.03.22.67-.01,1.25-.71,1.76-.7.51-1.39,1.03-2.1,1.51-.31.2-.33.4-.22.72.29.83.56,1.67.82,2.5.24.76.06,1.39-.49,1.79-.56.4-1.2.37-1.85-.1-.82-.59-1.63-1.19-2.5-1.82ZM28.97,16.29s.06.03.09.05c.7-.51,1.4-1.01,2.1-1.52,1.1-.79,1.47-.79,2.57.02.68.5,1.36.99,2.04,1.48-.19-.92-.46-1.79-.74-2.65-.35-1.08-.21-1.52.7-2.18.74-.53,1.47-1.07,2.31-1.68-.28-.01-.44-.03-.59-.03-.8,0-1.6,0-2.4,0-.97,0-1.39-.32-1.69-1.24-.3-.91-.6-1.82-.92-2.81-.08.19-.13.31-.17.43-.26.8-.52,1.61-.79,2.41-.29.88-.73,1.2-1.67,1.21-.85,0-1.7,0-2.54,0-.11,0-.22.03-.43.05.83.6,1.56,1.13,2.3,1.67.87.64,1.03,1.13.7,2.15-.29.88-.57,1.76-.86,2.64Z"/>
    </g>
  </g>
</svg>