<svg xmlns="http://www.w3.org/2000/svg" viewBox="0 0 61.26 61.26"><defs><style>.cls-1{fill:#6d9cbc;}.cls-2{fill:none;stroke:#fff;stroke-miterlimit:10;stroke-width:0.39px;}.cls-3{fill:#fff;}</style></defs><g id="Capa_2" data-name="Capa 2"><g id="Capa_2-2" data-name="Capa 2"><circle class="cls-1" cx="30.63" cy="30.63" r="30.63"/><circle class="cls-2" cx="30.63" cy="30.63" r="28"/><path class="cls-3" d="M45,31.53c-.07.52-.13,1-.22,1.57A14.3,14.3,0,0,1,34,44.55c-.73.17-1.49.24-2.23.36l-.21,0H29.79c-.62-.09-1.25-.15-1.87-.26a13.8,13.8,0,0,1-5.58-2.39l-.21-.14-.12,0a6.26,6.26,0,0,1-.44.49,1.1,1.1,0,0,1-1.89-.51c-.19-.7-.38-1.4-.55-2.11a1.09,1.09,0,0,1,1.32-1.36c.75.16,1.49.36,2.22.57a1.09,1.09,0,0,1,.5,1.8,7.29,7.29,0,0,1-.55.51c.67.4,1.26.8,1.89,1.12a13.41,13.41,0,0,0,16.06-2.92,13.27,13.27,0,0,0,3.54-8.94c0-.42.22-.64.53-.54a1.34,1.34,0,0,1,.31.22Zm-25,8.26c.18.69.37,1.45.6,2.2.05.19.27.2.41,0,.53-.52,1.06-1,1.58-1.58.17-.18.11-.36-.13-.45s-.26-.07-.4-.11c-.55-.14-1.09-.29-1.64-.42C20.08,39.41,19.94,39.5,19.94,39.79Z"/><path class="cls-3" d="M26.93,21.41a1.75,1.75,0,0,1-.13,1.31,1.81,1.81,0,0,0,0,1.15A6.5,6.5,0,0,1,27,25.3a1.75,1.75,0,0,1-1.73,1.58c-.34,0-.69,0-1,0a.75.75,0,0,0-.33.06.22.22,0,0,0-.07.38l.41.38a3.8,3.8,0,0,1,.43.47.93.93,0,0,1-.27,1.39,8,8,0,0,1-.92.47.79.79,0,0,0-.55.81,3.54,3.54,0,0,1-.11.91c-.05.25.07.32.28.33H24a11,11,0,0,1,2.56.15,2.39,2.39,0,0,1,1.6,3.66c-.15.26-.32.51-.46.77a2,2,0,0,0,0,2c.28.54.58,1.06.89,1.58a.51.51,0,0,0,.29.12,9.6,9.6,0,0,0,6.64-1.08,9.75,9.75,0,0,0,5-7.16,9.47,9.47,0,0,0-.11-3.67.85.85,0,0,0-.69.51.58.58,0,0,0,0,.43,2.49,2.49,0,0,1,0,2.34,1.87,1.87,0,0,1-.62.66,1.43,1.43,0,0,0-.67.91c-.08.34-.13.68-.2,1s-.25.43-.48.39a.42.42,0,0,1-.34-.54c.09-.47.18-.93.31-1.39a1.54,1.54,0,0,1,.78-1A1.47,1.47,0,0,0,39,29.93a1.47,1.47,0,0,1,.79-2.14l.35-.14A10.11,10.11,0,0,0,36,22.25a3,3,0,0,1-1.94.36,3.48,3.48,0,0,0-1.06.15c-.34.1-.44.34-.41.7A1.37,1.37,0,0,1,31.27,25a.45.45,0,0,0-.47.49.39.39,0,0,0,.44.43,3.64,3.64,0,0,0,1-.15,2.76,2.76,0,0,1,2,.15,2.57,2.57,0,0,1,.74.57,1.27,1.27,0,0,1-.44,2,3,3,0,0,1-2,.13c-.47-.09-.94-.25-1.41-.31-1-.13-1.49.3-1.51,1.28a12.3,12.3,0,0,0,.12,1.92,1,1,0,0,0,1.07.89c.46,0,.92,0,1.37,0a8.48,8.48,0,0,1,.87.06,1.37,1.37,0,0,1,1.27,1.33c0,.51,0,1,.06,1.54a8.54,8.54,0,0,0,.12,1.33c.1.56.48.77,1,.5a4.24,4.24,0,0,0,.93-.77,3.87,3.87,0,0,0,.37-.53.39.39,0,0,1,.55-.11.37.37,0,0,1,.17.51,3.21,3.21,0,0,1-2.09,1.8,1.31,1.31,0,0,1-1.64-.93,5.78,5.78,0,0,1-.22-1.32c0-.64,0-1.28-.07-1.92,0-.41-.18-.57-.59-.6s-1.08,0-1.62,0c-.24,0-.49,0-.73,0a1.75,1.75,0,0,1-1.61-1.46,7,7,0,0,1-.12-2.53,1.91,1.91,0,0,1,2.13-1.76,11.21,11.21,0,0,1,1.29.22,14,14,0,0,0,1.43.2.79.79,0,0,0,.82-.47c.06-.24-.18-.57-.56-.76a2.18,2.18,0,0,0-1.55-.09,5.31,5.31,0,0,1-1.31.14,1.19,1.19,0,0,1-1.08-1,1.43,1.43,0,0,1,.53-1.42,1.82,1.82,0,0,1,.65-.2c.42-.05.62-.26.58-.68A1.43,1.43,0,0,1,32.56,22a3,3,0,0,1,1.57-.26,4.3,4.3,0,0,0,.88,0,8.31,8.31,0,0,0-2.33-.83c-.34-.07-.69-.11-1-.16s-.47-.22-.45-.47a.45.45,0,0,1,.54-.37,10.64,10.64,0,0,1,7.29,4,10.44,10.44,0,0,1,2.33,7.85A10.78,10.78,0,1,1,28.1,20.16a13.79,13.79,0,0,1,1.43-.25.43.43,0,0,1,.54.35c0,.25-.14.44-.44.47a10.58,10.58,0,0,0-2.54.61Zm-.74.37A9.89,9.89,0,0,0,27.4,40c-.12-.21-.24-.39-.35-.58a3,3,0,0,1,0-3.42,7,7,0,0,0,.4-.7,1.52,1.52,0,0,0-1-2.2,6.35,6.35,0,0,0-1.3-.17c-.69,0-1.38,0-2.07,0s-1.18-.44-1.1-1.26a7.78,7.78,0,0,0,.11-1,1.38,1.38,0,0,1,.75-1.25c.3-.18.63-.31.94-.48s.29-.23.07-.45-.43-.38-.63-.6a1.06,1.06,0,0,1,.59-1.82,3.08,3.08,0,0,1,.53,0c.28,0,.56,0,.83,0a.94.94,0,0,0,1-1.2c-.05-.29-.13-.58-.2-.87a2.49,2.49,0,0,1,.12-1.72A2.51,2.51,0,0,0,26.19,21.78Z"/><path class="cls-3" d="M39.22,19.16c.16-.18.31-.36.48-.52a1.1,1.1,0,0,1,1.89.52c.18.69.36,1.38.53,2.08a1.09,1.09,0,0,1-1.34,1.38c-.73-.17-1.45-.36-2.17-.56a1.09,1.09,0,0,1-.49-1.83,5.45,5.45,0,0,1,.49-.45,13.17,13.17,0,0,0-2.34-1.4A13.5,13.5,0,0,0,17.15,30.49a.83.83,0,0,1,0,.32.37.37,0,0,1-.46.22.38.38,0,0,1-.32-.43c0-.64,0-1.29.13-1.92a14.32,14.32,0,0,1,12-12.2,14.09,14.09,0,0,1,10.63,2.6Zm2.11,2.33c-.19-.71-.38-1.46-.59-2.2-.06-.19-.27-.22-.43-.07-.54.52-1.06,1.05-1.58,1.58a.25.25,0,0,0,.11.44c.71.2,1.43.39,2.16.56C41.19,21.85,41.31,21.74,41.33,21.49Z"/></g></g></svg>