<?xml version="1.0" encoding="UTF-8"?>
<svg id="Capa_2" data-name="Capa 2" xmlns="http://www.w3.org/2000/svg" viewBox="0 0 29.1 23.12">
  <defs>
    <style>
      .cls-1 {
        fill: #2b2d45;
        stroke-width: 0px;
      }
    </style>
  </defs>
  <g id="Capa_1-2" data-name="Capa 1">
    <g>
      <path class="cls-1" d="M29.1,12.64c-.08.61-.13,1.22-.23,1.83-.51,3.06-1.76,5.78-3.75,8.15-.5.59-1.27.66-1.85.21-.73-.58-.89-1.34-.38-2.01.66-.88,1.3-1.76,1.8-2.75.72-1.43,1.2-2.94,1.4-4.53.46-3.68-.39-7.03-2.53-10.05-.29-.42-.64-.8-.95-1.21-.41-.56-.34-1.23.16-1.75.54-.56,1.21-.68,1.79-.3.11.07.21.16.3.26,2.15,2.46,3.51,5.3,4.02,8.54.09.58.15,1.16.22,1.74v1.88Z"/>
      <path class="cls-1" d="M14.56,11.71c0,2.93,0,5.85,0,8.78,0,.81-.45,1.36-1.19,1.45-.41.05-.75-.11-1.07-.37-1.97-1.63-3.94-3.26-5.91-4.89-.34-.28-.68-.58-1.03-.85-.12-.09-.3-.16-.45-.17-1.15-.01-2.29,0-3.44,0C.52,15.65,0,15.13,0,14.17c0-1.65,0-3.3,0-4.94,0-.94.54-1.48,1.48-1.48,1.15,0,2.29,0,3.44,0,.15,0,.33-.07.45-.17,2.31-1.9,4.61-3.81,6.92-5.72.68-.56,1.5-.5,2,.14.22.28.27.61.27.96,0,2.92,0,5.83,0,8.75Z"/>
      <path class="cls-1" d="M22.7,11.61c0,2.41-.7,4.51-2.06,6.38-.45.61-1.24.76-1.84.35-.73-.5-.97-1.3-.54-1.96.44-.68.87-1.35,1.12-2.13.82-2.52.49-4.87-1.03-7.05-.2-.28-.41-.58-.5-.91-.18-.63.24-1.32.9-1.63.56-.26,1.21-.1,1.62.43,1.54,1.94,2.31,4.14,2.32,6.52Z"/>
    </g>
  </g>
</svg>