<?xml version="1.0" encoding="UTF-8"?>
<svg id="Capa_2" data-name="Capa 2" xmlns="http://www.w3.org/2000/svg" viewBox="0 0 37.45 38.7">
  <defs>
    <style>
      .cls-1 {
        fill: #000;
        stroke-width: 0px;
      }
    </style>
  </defs>
  <g id="Capa_2-2" data-name="Capa 2">
    <g>
      <path class="cls-1" d="M27.05,0c.26.14.55.26.78.44.46.36.63.86.63,1.43,0,.47,0,.93,0,1.45.45,0,.87,0,1.3,0,1.18,0,1.91.73,1.91,1.91,0,1.52,0,3.05,0,4.57,0,.21.07.45.17.63,1.53,2.62,1.65,5.31.36,8.05-.12.27-.1.41.11.6.46.43.9.88,1.34,1.33.29.3.32.62.09.87-.24.25-.58.23-.89-.07-.47-.47-.94-.94-1.31-1.31-.57.56-1.11,1.1-1.65,1.64-.04-.02-.07-.05-.11-.07.07.07.13.15.2.22,1.41,1.41,2.82,2.81,4.22,4.22.32.32.68.52,1.15.43.44-.08.76-.34.9-.77.15-.44.07-.85-.25-1.19-.35-.37-.73-.73-1.09-1.1-.32-.33-.36-.63-.12-.89.25-.26.59-.23.92.1.35.34.7.69,1.04,1.04.93.97.93,2.38.02,3.29-.92.93-2.34.91-3.32-.05-.58-.57-1.15-1.15-1.8-1.8v.5c0,3.74,0,7.48,0,11.22,0,1.3-.71,2-2.01,2-8.14,0-16.28,0-24.41,0-1.31,0-2-.69-2.01-2,0-.43,0-.85,0-1.32-.49,0-.94,0-1.38,0-1.03,0-1.76-.7-1.83-1.73,0-.15,0-.3,0-.45C.01,22.88.02,12.56,0,2.24,0,1.14.35.37,1.43,0,3.77,0,6.11,0,8.46,0c.01.02.02.05.04.06.27.17.37.42.26.71-.11.29-.35.36-.64.36-1.99,0-3.98,0-5.97,0-.83,0-.99.16-.99,1,0,10.38,0,20.76,0,31.14,0,.15-.04.33.03.44.13.2.3.47.49.49.5.07,1.02.02,1.56.02v-.53c0-9.46,0-18.92,0-28.38,0-1.32.69-2,2-2,7.19,0,14.39,0,21.58,0h.46c.03-.07.04-.09.05-.12,0-.38.01-.76.01-1.13,0-.76-.18-.94-.93-.94-4.3,0-8.59,0-12.89,0-.86,0-1.71.02-2.57-.02-.2,0-.45-.18-.56-.35-.14-.22-.05-.49.18-.67.04-.03.06-.07.1-.11,5.47,0,10.93,0,16.4,0ZM30.53,8.68c0-.05,0-.15,0-.24,0-1.06,0-2.12,0-3.17,0-.58-.22-.8-.8-.8-8.19,0-16.37,0-24.56,0-.59,0-.8.21-.8.79,0,10.5,0,21.01,0,31.51,0,.58.22.81.79.81,8.19,0,16.37,0,24.56,0,.58,0,.81-.22.81-.8,0-4.22,0-8.44,0-12.66,0-.15-.08-.34-.19-.45-.42-.45-.88-.87-1.3-1.32-.18-.2-.32-.23-.57-.1-1.09.57-2.26.84-3.48.88-5.2.13-9.21-4.44-8.43-9.59.83-5.5,6.83-8.66,11.82-6.21.76.37,1.44.9,2.17,1.36ZM24.75,7.63c-3.98,0-7.17,3.2-7.17,7.18,0,3.96,3.21,7.19,7.13,7.19,3.99,0,7.25-3.26,7.23-7.23-.01-3.94-3.23-7.13-7.19-7.13Z"/>
      <path class="cls-1" d="M19.12,25.93c.88,3.37.51,5.07-1.59,7.37.2.45.39.93.62,1.38.05.09.25.14.38.14,1.76,0,3.53,0,5.29,0,.1,0,.2,0,.3,0,.39.02.62.22.62.56,0,.33-.23.57-.62.57-2.08,0-4.15,0-6.23,0-.3,0-.49-.15-.61-.42-.22-.51-.45-1.01-.68-1.54-.85.5-1.74.82-2.7.94-3.3.41-6.46-1.86-7.1-5.13-.59-2.99.9-5.93,3.66-7.2,2.72-1.25,5.94-.46,7.8,1.93.15.2.31.25.54.25,1.85,0,3.7,0,5.55,0,.15,0,.31.01.44.07.27.11.37.34.31.62-.06.3-.27.44-.58.44-.74,0-1.49,0-2.23,0-1.04,0-2.09,0-3.16,0ZM18.53,27.95c-.21-.64-.4-1.2-.59-1.77-.07-.21-.21-.27-.43-.26-.45.02-.91.01-1.36,0-.39,0-.62-.22-.62-.56,0-.33.23-.56.61-.57.24,0,.49,0,.78,0-1.4-1.56-4.03-2.18-6.22-1.05-2.24,1.15-3.39,3.71-2.74,6.12.57,2.14,2.73,3.99,4.6,3.91,0-.13,0-.27,0-.4,0-1.52,0-3.05,0-4.57,0-.7.15-.85.83-.85,1.54,0,3.07,0,4.61,0h.53ZM13.72,29.11v4.7c.9-.08,1.67-.37,2.4-.88-.18-.41-.35-.78-.51-1.17-.15-.36-.05-.66.25-.8.31-.15.61-.02.79.36.13.27.25.54.38.82.76-.71,1.38-2.06,1.4-3.03h-4.7Z"/>
      <path class="cls-1" d="M10.7,12.32c-1.11,0-2.21,0-3.32,0-.46,0-.74-.22-.73-.57,0-.35.27-.56.74-.56,2.23,0,4.45,0,6.68,0,.47,0,.74.21.73.57,0,.36-.27.56-.74.56-1.12,0-2.24,0-3.36,0Z"/>
      <path class="cls-1" d="M10.75,17.83c1.11,0,2.22,0,3.33,0,.47,0,.74.22.73.57,0,.35-.27.56-.71.56-2.24,0-4.48,0-6.73,0-.44,0-.7-.22-.71-.56,0-.34.26-.57.7-.57,1.13,0,2.27,0,3.4,0Z"/>
      <path class="cls-1" d="M10.69,9.09c-1.13,0-2.27,0-3.4,0-.38,0-.63-.23-.63-.55,0-.32.24-.55.62-.58.08,0,.15,0,.23,0,.35,0,.71,0,1.06,0,1.79,0,3.58,0,5.36,0,.15,0,.3,0,.45.03.28.07.43.27.42.55,0,.3-.18.49-.48.54-.11.02-.23.01-.34.01-1.1,0-2.19,0-3.29,0Z"/>
      <path class="cls-1" d="M10.76,14.39c1.07,0,2.14,0,3.21,0,.14,0,.28,0,.41.03.28.07.46.29.4.55-.05.19-.24.38-.42.51-.1.07-.29.04-.44.04-2.13,0-4.26,0-6.38,0-.09,0-.18,0-.26,0-.38-.02-.63-.25-.62-.57,0-.32.25-.55.64-.56.68-.01,1.36,0,2.04,0,.48,0,.96,0,1.44,0Z"/>
      <path class="cls-1" d="M26.37,30.74c.57,0,1.13,0,1.7,0,.41,0,.63.2.65.53.01.35-.22.59-.63.59-1.16.01-2.32.01-3.47,0-.4,0-.65-.27-.64-.6.02-.32.26-.52.66-.53.58,0,1.16,0,1.74,0Z"/>
      <path class="cls-1" d="M26.35,29.09c-.55,0-1.11,0-1.66,0-.44,0-.71-.22-.71-.56,0-.35.25-.57.69-.57,1.12,0,2.24,0,3.36,0,.45,0,.69.21.69.57,0,.35-.26.56-.71.56-.55,0-1.11,0-1.66,0Z"/>
      <path class="cls-1" d="M24.76,8.84c3.31,0,5.99,2.68,5.97,5.98-.02,3.29-2.69,5.96-5.97,5.95-3.31,0-5.97-2.68-5.96-5.99.01-3.31,2.66-5.94,5.96-5.94ZM24.76,9.97c-2.68,0-4.83,2.14-4.83,4.82,0,2.67,2.14,4.84,4.81,4.85,2.67.01,4.87-2.18,4.86-4.85,0-2.67-2.16-4.82-4.84-4.82Z"/>
      <path class="cls-1" d="M23.59,15.63c1-.97,1.96-1.89,2.93-2.82.08-.08.16-.17.25-.23.27-.18.53-.16.75.08.2.22.2.48.02.72-.06.08-.14.15-.21.22-1.12,1.07-2.23,2.15-3.35,3.22-.51.49-.85.43-1.17-.2-.29-.59-.58-1.17-.87-1.76-.18-.38-.11-.69.18-.85.31-.17.64-.03.83.35.21.4.4.81.63,1.27Z"/>
    </g>
  </g>
</svg>