<?xml version="1.0" encoding="UTF-8"?>
<svg id="Capa_2" data-name="Capa 2" xmlns="http://www.w3.org/2000/svg" viewBox="0 0 45.49 45.5">
  <defs>
    <style>
      .cls-1 {
        fill: #fff;
        stroke-width: 0px;
      }
    </style>
  </defs>
  <g id="Capa_1-2" data-name="Capa 1">
    <g>
      <path class="cls-1" d="M0,20.78c.19-1.27.35-2.55.68-3.79.82-3.08,2.2-5.87,4.16-8.37.39-.5.92-.59,1.36-.27.46.34.52.88.12,1.41-1.43,1.85-2.57,3.87-3.33,6.09-.66,1.93-1.04,3.91-1.13,5.95-.18,4.23.78,8.18,3.01,11.77,3.31,5.35,8.09,8.65,14.29,9.74,5.34.94,10.32-.1,14.91-3.01.09-.05.17-.11.29-.2-.34-.16-.66-.16-.97-.21-.66-.11-1.06-.55-.98-1.09.09-.58.6-.87,1.28-.76.98.16,1.95.32,2.93.48,1,.16,1.27.53,1.07,1.52-.2,1.02-.41,2.03-.62,3.04-.13.63-.57.97-1.08.87-.56-.11-.84-.54-.75-1.21.03-.23.09-.46.14-.7.02-.09.07-.19,0-.25-.1-.09-.19.02-.27.08-.76.49-1.54.93-2.36,1.33-2.51,1.23-5.16,2-7.95,2.21-7.38.56-13.67-1.83-18.76-7.19C2.87,34.89.97,30.87.24,26.31.15,25.75.08,25.17,0,24.6c0-1.27,0-2.55,0-3.82Z"/>
      <path class="cls-1" d="M24.69,0c1.15.17,2.31.31,3.45.59,2.7.66,5.2,1.78,7.49,3.36.5.34.62.9.32,1.35-.31.45-.84.55-1.37.19-1.71-1.14-3.51-2.09-5.48-2.68-6.11-1.83-11.92-1.15-17.4,2.17-.17.1-.37.18-.5.39.29.16.6.15.89.2.66.12,1.06.55.97,1.09-.09.58-.6.87-1.28.76-1.06-.18-2.13-.35-3.19-.54-.7-.13-1-.56-.86-1.24.21-1.09.44-2.17.67-3.26.14-.63.57-.97,1.08-.87.56.11.84.54.75,1.21-.03.23-.1.46-.14.69-.02.09-.08.22.04.28.09.05.16-.04.24-.09.85-.56,1.75-1.05,2.67-1.49C15.46.98,17.99.28,20.66.05c.07,0,.14-.04.21-.05,1.27,0,2.55,0,3.82,0Z"/>
      <path class="cls-1" d="M5.92,27.75c-.02-1,.34-1.79.98-2.46.48-.5.99-.98,1.47-1.48.66-.68.66-1.49,0-2.16-.48-.49-.97-.96-1.44-1.44-1.16-1.18-1.36-2.77-.51-4.2.74-1.25,1.49-2.49,2.24-3.73.82-1.35,2.24-1.97,3.8-1.66.7.14,1.38.33,2.07.49,1.09.25,1.87-.2,2.19-1.26.17-.55.32-1.11.49-1.66.46-1.55,1.76-2.57,3.37-2.61,1.55-.03,3.11-.03,4.66,0,1.65.03,2.93,1.03,3.41,2.61.17.55.33,1.11.49,1.66.3,1.04,1.09,1.5,2.14,1.26.71-.16,1.41-.35,2.12-.5,1.46-.31,2.94.29,3.73,1.55.8,1.28,1.58,2.57,2.34,3.88.83,1.43.62,2.97-.54,4.15-.47.48-.95.94-1.41,1.41-.69.7-.69,1.54,0,2.24.49.5.99.98,1.47,1.48,1.05,1.09,1.3,2.61.56,3.93-.79,1.41-1.6,2.8-2.5,4.14-.84,1.26-2.11,1.72-3.6,1.45-.71-.13-1.41-.33-2.12-.49-1.11-.26-1.88.2-2.2,1.29-.16.54-.32,1.08-.48,1.62-.48,1.59-1.76,2.59-3.41,2.61-1.54.03-3.08.02-4.62,0-1.66-.03-2.96-1.05-3.43-2.65-.16-.54-.31-1.08-.48-1.62-.32-1.06-1.1-1.51-2.19-1.26-.72.16-1.44.36-2.16.5-1.44.29-2.9-.35-3.67-1.6-.78-1.27-1.55-2.56-2.31-3.84-.32-.53-.51-1.1-.48-1.67ZM34,33.04c.81,0,1.26-.25,1.62-.84.73-1.2,1.46-2.41,2.17-3.62.48-.81.39-1.41-.26-2.08-.49-.5-.99-.97-1.47-1.48-1.23-1.3-1.23-3.28,0-4.58.46-.48.94-.94,1.41-1.41.73-.74.81-1.32.27-2.22-.67-1.12-1.34-2.23-2.01-3.35-.56-.93-1.17-1.18-2.24-.93-.68.16-1.35.34-2.03.47-1.81.34-3.47-.64-4.03-2.39-.21-.65-.38-1.31-.59-1.95-.25-.77-.79-1.16-1.59-1.17-1.52,0-3.05,0-4.57,0-.83,0-1.39.43-1.64,1.23-.19.59-.35,1.19-.53,1.79-.53,1.8-2.21,2.84-4.05,2.5-.73-.14-1.44-.33-2.16-.5-.94-.21-1.58.04-2.08.86-.73,1.19-1.44,2.38-2.15,3.58-.44.74-.36,1.35.24,1.97.43.44.88.88,1.32,1.32,1.51,1.51,1.51,3.5.02,5.01-.45.45-.91.89-1.35,1.35-.58.6-.67,1.22-.24,1.93.71,1.2,1.42,2.39,2.15,3.58.52.85,1.14,1.1,2.11.88.63-.15,1.26-.31,1.9-.45,2.02-.45,3.74.57,4.32,2.56.16.54.32,1.08.49,1.61.27.88.81,1.3,1.72,1.3,1.48,0,2.96,0,4.44,0,.9,0,1.44-.4,1.71-1.27.2-.64.38-1.28.57-1.91.2-.64.55-1.18,1.07-1.6,1.03-.83,2.18-.98,3.43-.65.73.19,1.45.43,2.05.47Z"/>
      <path class="cls-1" d="M45.49,22.71c0,5.23-1.59,9.91-4.78,14.05-.26.33-.55.59-1,.53-.74-.1-1.06-.89-.59-1.52.67-.91,1.33-1.82,1.87-2.8,1.59-2.85,2.46-5.91,2.62-9.17.22-4.63-.95-8.87-3.52-12.73-.08-.12-.16-.25-.23-.38-.2-.42-.08-.89.29-1.15.38-.28.88-.24,1.21.11.1.11.18.23.27.35,2.18,3.23,3.46,6.78,3.8,10.67.02.21.06.41.06.62,0,.47,0,.95,0,1.42Z"/>
      <path class="cls-1" d="M38.18,8.2c-.54,0-.95-.37-.95-.9,0-.47.43-.91.9-.93.5-.02.95.4.97.9.02.52-.38.92-.92.93Z"/>
      <path class="cls-1" d="M33.07,22.74c0,5.54-4.62,10.15-10.15,10.15-5.49,0-10.15-4.66-10.15-10.14,0-5.5,4.67-10.16,10.18-10.16,5.5,0,10.12,4.64,10.12,10.15ZM30.07,26.76c1.89-2.94,1.56-7.74-2.21-10.61-3.62-2.77-8.73-2.03-11.52,1.66-1.29,1.7-1.85,3.63-1.64,5.75.14,1.39.68,2.79,1.11,3.12.34-2.17,1.52-3.57,3.7-4.05.19-.04.22-.13.15-.28-.45-.84-.34-1.76-.33-2.65,0-1.5.95-2.8,2.37-3.33,1.4-.51,3-.12,3.95,1.03,1.2,1.44,1.1,3.09.62,4.75-.1.35-.08.43.28.52,1.64.4,2.73,1.42,3.27,3.02.12.34.17.71.25,1.07ZM22.92,24.44c-.9,0-1.8-.01-2.71,0-1.19.02-2.18.85-2.44,2.02-.13.59,0,1.18-.08,1.77-.09.69.18,1.13.77,1.42.07.03.13.08.19.12.25.17.33.08.33-.2,0-.65,0-1.3,0-1.95,0-.67.35-1.07.91-1.08.55-.01.92.4.93,1.06,0,.87.02,1.75,0,2.62-.02.42.15.58.54.64,1.06.18,2.12.18,3.18,0,.37-.06.52-.23.51-.62-.03-.92-.02-1.83,0-2.75,0-.53.37-.91.87-.95.49-.04.88.3.97.84.03.22.04.44.05.66,0,.5,0,1.01,0,1.51,0,.11-.05.3.17.29.35-.02,1.06-.75,1.06-1.11,0-.59,0-1.18,0-1.77-.03-1.42-1.1-2.48-2.52-2.51-.9-.02-1.8,0-2.71,0ZM24.67,20.4c0-.27,0-.47,0-.66-.02-.87-.66-1.6-1.47-1.69-.98-.11-1.75.4-1.96,1.33-.14.6-.12,1.21,0,1.8.16.76.85,1.32,1.62,1.34.83.02,1.54-.5,1.76-1.29.08-.31.04-.62.05-.85Z"/>
    </g>
  </g>
</svg>