<?xml version="1.0" encoding="UTF-8"?>
<svg id="Capa_2" data-name="Capa 2" xmlns="http://www.w3.org/2000/svg" viewBox="0 0 44.9 44.88">
  <defs>
    <style>
      .cls-1 {
        fill: #fff;
        stroke-width: 0px;
      }
    </style>
  </defs>
  <g id="Capa_1-2" data-name="Capa 1">
    <g>
      <path class="cls-1" d="M0,27.51c.4-.95,1.13-1.34,2.15-1.33,2.06.02,4.12,0,6.18,0,1.44,0,2.18.74,2.19,2.19q0,.71.63.4c1.16-.58,2.31-1.18,3.49-1.72,2.27-1.04,4.48-.85,6.61.41.83.49,1.68.96,2.47,1.5,1.43.99,2.99,1.12,4.65.95.71-.07,1.42-.21,2.13-.08,1.64.28,2.66,1.67,2.45,3.33-.06.49-.04.51.47.41,2.71-.52,5.41-1.04,8.12-1.54,1.43-.26,2.82.63,3.23,2.01.42,1.43-.25,2.98-1.64,3.51-2.17.82-4.37,1.56-6.56,2.32-.45.16-.82-.03-.95-.44-.13-.38.07-.74.53-.91,2.01-.71,4.02-1.42,6.03-2.12.1-.03.19-.06.29-.1.78-.31,1.17-1.05.96-1.83-.21-.75-.95-1.2-1.78-1.04-2.46.47-4.93.94-7.39,1.42-3.29.63-6.59,1.24-9.91,1.75-1.8.27-3.58.08-5.35-.26-.4-.08-.81-.13-1.2-.22-.46-.1-.69-.4-.63-.8.05-.39.35-.63.84-.57.71.09,1.41.22,2.11.34,1.98.34,3.95.18,5.91-.19,1.32-.25,2.64-.46,3.97-.69.95-.16,1.41-.54,1.55-1.3.16-.87-.48-1.7-1.37-1.71-.65,0-1.32.02-1.96.11-1.87.25-3.59-.11-5.18-1.15-.82-.53-1.66-1.03-2.51-1.52-1.78-1.05-3.61-1.16-5.47-.25-1.36.67-2.71,1.36-4.08,2.03-.31.15-.46.34-.46.7.01,3.12,0,6.25,0,9.37,0,.24,0,.46.29.57,1.92.78,3.82,1.6,5.89,1.93,3.09.5,6.1.21,9.05-.83,2.5-.88,5.01-1.76,7.52-2.64.07-.02.14-.05.21-.07.44-.13.8.02.94.39.15.38-.04.77-.48.94-.42.16-.85.3-1.28.45-2.27.8-4.54,1.61-6.82,2.38-4.76,1.61-9.44,1.33-14.05-.63-.28-.12-.57-.22-.85-.35-.29-.14-.44-.1-.42.26,0,.14-.03.29-.05.43-.14.89-.86,1.53-1.75,1.54-2.32,0-4.64,0-6.96,0-.88,0-1.38-.54-1.74-1.25v-9.81c.22-.24.47-.46.83-.35.42.13.52.46.51.86,0,2.8,0,5.6,0,8.4,0,.63.15.78.77.78,2.07,0,4.14,0,6.21,0,.61,0,.75-.14.75-.75,0-4.81,0-9.63,0-14.44,0-.58-.11-.7-.69-.7-2.12,0-4.23,0-6.35,0-.56,0-.7.13-.7.69,0,1.01,0,2.01,0,3.02,0,.36-.07.68-.44.82-.38.13-.68-.02-.9-.35v-4.29Z"/>
      <path class="cls-1" d="M27.33,0c.33.18.45.47.45.83,0,.81,0,1.63,0,2.44,0,.56-.29.91-.73.9-.41,0-.69-.35-.7-.89,0-.77.01-1.54,0-2.31,0-.39.08-.72.38-.98h.61Z"/>
      <path class="cls-1" d="M22.76,23.54c.3-1.32-.25-2.16-1.26-3.05-2.97-2.59-3.3-7.46-.86-10.54.41-.53,1.01-.51,1.27.02.16.33.01.6-.17.85-.56.77-.97,1.6-1.14,2.53-.51,2.68.29,4.91,2.41,6.62.64.52,1.19,1.03,1.19,1.92,0,.16.09.24.25.24.54,0,1.08,0,1.62,0,.21,0,.28-.12.28-.31,0-1.11,0-2.22,0-3.33,0-.24-.17-.31-.34-.41-.69-.4-1.1-.99-1.19-1.78-.06-.45.19-.83.58-.9.4-.07.73.2.82.66.12.6.38.85.87.84.47-.01.72-.27.83-.84.08-.45.39-.71.78-.66.38.05.62.35.61.78-.02.85-.44,1.47-1.16,1.88-.27.15-.36.33-.36.62.01,1.01.01,2.01,0,3.02,0,.32.1.45.43.44.47-.02.93,0,1.4,0,.21,0,.33-.07.33-.3,0-.78.42-1.29,1.02-1.73,1.8-1.33,2.72-3.15,2.73-5.37.02-4.87-5.17-8.07-9.54-5.91-.18.09-.36.2-.54.28-.4.19-.8.07-.98-.28-.17-.34-.06-.71.3-.94.89-.56,1.86-.91,2.9-1.06,4.54-.66,8.65,2.39,9.19,6.95.36,3.02-.73,5.53-3.16,7.41-.37.28-.5.57-.5,1.02,0,1.11.11,2.22-.06,3.32-.22,1.46-1.44,2.51-2.92,2.53-.86.01-1.72.01-2.58,0-1.71-.02-3.01-1.31-3.04-3.03,0-.5,0-.99,0-1.49ZM27.08,23.56c-.82,0-1.63,0-2.45,0-.31,0-.46.1-.44.43.02.38,0,.76,0,1.14.03.83.64,1.47,1.47,1.49.93.02,1.87.02,2.8,0,.8-.02,1.42-.66,1.46-1.46.02-.38,0-.76.01-1.14.02-.34-.11-.47-.46-.46-.8.01-1.6,0-2.41,0Z"/>
      <path class="cls-1" d="M14.8,13.64c.44,0,.87,0,1.31,0,.46.01.76.27.78.66.03.37-.26.72-.71.74-.95.03-1.89.03-2.84,0-.43-.02-.69-.35-.67-.72.02-.39.31-.66.77-.68.45-.01.9,0,1.36,0Z"/>
      <path class="cls-1" d="M39.32,15.07c-.41,0-.82.01-1.22,0-.54-.02-.87-.32-.87-.73,0-.42.34-.69.89-.69.83,0,1.66,0,2.49,0,.51,0,.84.28.85.69.01.39-.29.67-.78.73-.04,0-.09,0-.13,0-.41,0-.82,0-1.22,0,0,0,0,0,0,0Z"/>
      <path class="cls-1" d="M37.43,4.69c0,.2-.09.37-.23.5-.64.64-1.27,1.28-1.92,1.91-.36.35-.75.35-1.04.04-.27-.28-.26-.69.05-1.02.63-.65,1.27-1.28,1.91-1.92.24-.24.53-.31.84-.16.26.13.38.35.38.64Z"/>
      <path class="cls-1" d="M20.08,6.67c-.01.26-.13.48-.39.62-.24.13-.51.13-.7-.06-.73-.71-1.47-1.42-2.16-2.16-.26-.28-.19-.64.08-.91.28-.27.62-.27.91-.02.36.31.69.66,1.03,1,.31.31.62.62.93.93.16.16.28.34.29.59Z"/>
      <path class="cls-1" d="M5.58,39.5c0-.28-.02-.55,0-.83.03-.38.26-.61.64-.66.34-.04.67.22.73.61.09.61.09,1.22,0,1.82-.06.4-.36.64-.72.62-.36-.02-.63-.29-.65-.69-.02-.29,0-.58,0-.87h0Z"/>
    </g>
  </g>
</svg>