<svg xmlns="http://www.w3.org/2000/svg" viewBox="0 0 61.26 61.26"><defs><style>.cls-1{fill:#3c6586;}.cls-2{fill:none;stroke:#fff;stroke-miterlimit:10;stroke-width:0.39px;}.cls-3{fill:#fff;}</style></defs><g id="Capa_2" data-name="Capa 2"><g id="Capa_2-2" data-name="Capa 2"><circle class="cls-1" cx="30.63" cy="30.63" r="30.63"/><circle class="cls-2" cx="30.63" cy="30.63" r="28"/><path class="cls-3" d="M45.19,26.42c-.08.57-.16,1.13-.23,1.69-.11.91-.21,1.82-.33,2.73a1.92,1.92,0,0,1-.74,1.27c-.53.43-1.06.87-1.57,1.32a.52.52,0,0,0-.16.35c0,.64,0,1.27,0,1.91s-.27,1-.95,1H39.13c-.18,0-.27,0-.32.23a2.72,2.72,0,0,1-5.28,0c0-.18-.11-.22-.28-.22H27.32l-.18,0c0,.15,0,.3,0,.45a4.8,4.8,0,0,1-.49,3c-.3.59-.59,1.18-.9,1.81.55.26.59.75.57,1.27,0,.35,0,.7,0,1a.91.91,0,0,1-.95,1H18.59a.9.9,0,0,1-.95-.95c0-.38,0-.77,0-1.16,0-.83.15-1,1-1.29-.06-.29-.09-.6-.18-.89s-.29-.68-.43-1a.43.43,0,1,1,.77-.34,4.51,4.51,0,0,1,.65,2.28l.29,0h4.9a.37.37,0,0,0,.39-.23c.25-.55.51-1.1.8-1.63a4.63,4.63,0,0,0,.51-3c-.12-.93-.16-1.87-.19-2.81,0-1.24,0-2.48,0-3.72,0-.13,0-.27,0-.4-.07-.44-.37-.6-.75-.35a2.28,2.28,0,0,0-.59.57A4.58,4.58,0,0,0,23.86,33v2A1.26,1.26,0,0,1,23,36.21a1.33,1.33,0,0,1-1.56-.28L20,34.44a2.65,2.65,0,0,1-.86-2.08c0-1.05,0-2.11,0-3.16v-.38a8.94,8.94,0,0,1-.83.68,2,2,0,0,0-.91,1.72c-.1,1.22-.27,2.43-.42,3.64a2.69,2.69,0,0,0,.28,1.63l.58,1.07a.43.43,0,0,1-.14.64.44.44,0,0,1-.61-.24c-.15-.27-.29-.55-.45-.82a3.72,3.72,0,0,1-.5-2.46c.19-1.41.34-2.84.52-4.26a1.86,1.86,0,0,1,.72-1.25c.53-.42,1-.87,1.57-1.3a.44.44,0,0,0,.19-.41c0-.63,0-1.25,0-1.88s.28-.88.9-.88h2.16a.23.23,0,0,0,.27-.21,2.71,2.71,0,0,1,5.29,0c0,.17.12.2.28.2h5.92l.2,0c0-.19,0-.36-.05-.54a4.76,4.76,0,0,1,.46-2.87c.31-.62.61-1.24.92-1.87a1,1,0,0,1-.56-1.12c0-.4,0-.8,0-1.2a.91.91,0,0,1,1-1c2.27,0,4.53,0,6.8,0a.89.89,0,0,1,1,1c0,.4,0,.79,0,1.19,0,.78-.18,1-1,1.24a4.6,4.6,0,0,0,.19.91c.46,1,.94,2,1.44,3a8,8,0,0,1,.91,2.13Zm-14.13-.87v.33c0,.79,0,1.58,0,2.36,0,.4-.12.53-.51.56a1.87,1.87,0,0,0-.1,3.73c.54,0,.62.13.62.67v2.27c0,.1,0,.2,0,.32h2.58c.52,0,.61.09.66.6a1.86,1.86,0,0,0,2.89,1.38A1.83,1.83,0,0,0,38,36.35c0-.46.14-.55.61-.56h2.62c0-.1,0-.17,0-.24V28.78a1.74,1.74,0,0,0-.55-1.29c-.51-.5-1-1-1.51-1.51a.59.59,0,0,0-.67-.15.5.5,0,0,0-.32.55c0,.69,0,1.38,0,2.07a5.18,5.18,0,0,1-1.34,3.39,2.4,2.4,0,0,1-.86.62,1.21,1.21,0,0,1-1.7-.87,2.81,2.81,0,0,1-.07-.65V28.12c0-.76,0-1.53,0-2.3,0-.2-.07-.28-.28-.27H31.06Zm11.11,6.89c.4-.34.75-.66,1.12-.94a1.32,1.32,0,0,0,.53-1c.15-1.24.27-2.49.45-3.72a3.58,3.58,0,0,0-.44-2.4c-.51-.89-1-1.81-1.39-2.73a14.72,14.72,0,0,1-.57-1.57,3.11,3.11,0,0,1-.06-.62h-3a1.62,1.62,0,0,1-.31,0,.42.42,0,0,1,.06-.83c.15,0,.3,0,.45,0H42.5a.4.4,0,0,0,.26-.12c0-.5,0-1,0-1.5h-7v.78c0,.27-.06.61.08.79s.47.05.73.06.48.15.49.4-.17.41-.47.46a.43.43,0,0,0-.28.17c-.36.71-.72,1.42-1.06,2.13a3.88,3.88,0,0,0-.31,2.28c.08.65.17,1.31.19,2,0,1.6,0,3.21,0,4.81a2.59,2.59,0,0,0,0,.48c.06.35.3.49.62.33a1.91,1.91,0,0,0,.55-.43,4.46,4.46,0,0,0,1-2.76c0-.73,0-1.46,0-2.19a1.23,1.23,0,0,1,.85-1.22,1.31,1.31,0,0,1,1.52.26l1.51,1.51a2.68,2.68,0,0,1,.87,2.08c0,1.06,0,2.12,0,3.18C42.15,32.18,42.16,32.28,42.17,32.44ZM20,25.55c0,.08,0,.14,0,.19v6.8a1.67,1.67,0,0,0,.53,1.22c.52.51,1,1,1.54,1.55a.56.56,0,0,0,.65.12A.49.49,0,0,0,23,34.9c0-.7,0-1.39,0-2.08a5.22,5.22,0,0,1,1.33-3.39,2.44,2.44,0,0,1,.92-.63,1.2,1.2,0,0,1,1.67,1,4,4,0,0,1,.05.6v3.35c0,.58,0,1.16,0,1.73,0,.23.08.31.32.31H30.2c0-.78,0-1.54,0-2.29,0-.06-.14-.15-.23-.18a2.71,2.71,0,0,1-2.06-2.64A2.68,2.68,0,0,1,30,28c.2-.05.24-.14.24-.32,0-.59,0-1.19,0-1.79v-.37H27.88c-.61,0-.84-.19-1-.78a1.87,1.87,0,0,0-3.67,0c-.15.66-.34.82-1,.82H20Zm5.52,18.73c0-.45,0-.89,0-1.32,0-.26-.08-.31-.32-.31H18.74c-.09,0-.24.09-.24.14,0,.49,0,1,0,1.48Z"/></g></g></svg>