<?xml version="1.0" encoding="UTF-8"?>
<svg id="Capa_2" data-name="Capa 2" xmlns="http://www.w3.org/2000/svg" viewBox="0 0 39.44 39.44">
  <defs>
    <style>
      .cls-1 {
        fill: #000;
        stroke-width: 0px;
      }
    </style>
  </defs>
  <g id="Capa_2-2" data-name="Capa 2">
    <g>
      <path class="cls-1" d="M20.18,0c.26.1.53.17.78.29,1.07.5,1.73,1.62,1.66,2.77-.07,1.19-.84,2.24-1.97,2.6-.31.1-.38.24-.37.54.02,1.14,0,2.28,0,3.42,0,.13,0,.26-.02.38-.05.31-.25.48-.56.48-.31,0-.52-.17-.55-.48-.03-.25-.02-.51-.02-.77,0-1.05,0-2.1,0-3.16,0-.2-.04-.31-.26-.39-1.33-.46-2.14-1.6-2.08-2.9.07-1.34.96-2.38,2.32-2.72.05-.01.09-.04.13-.07.31,0,.62,0,.92,0ZM19.73,1.16c-.97,0-1.77.79-1.77,1.76,0,.96.81,1.77,1.77,1.76.95-.01,1.74-.8,1.75-1.74.01-.96-.79-1.77-1.75-1.77Z"/>
      <path class="cls-1" d="M0,19.26c.03-.09.07-.19.1-.28.35-1.26,1.47-2.14,2.77-2.17,1.25-.03,2.41.78,2.8,2.01.09.28.22.34.48.34,1.22-.01,2.44,0,3.66,0,.5,0,.79.35.65.75-.12.34-.4.4-.71.4-.91,0-1.82,0-2.73,0-.17,0-.34.02-.5,0-.51-.08-.77.09-.97.61-.42,1.11-1.59,1.79-2.75,1.72-1.23-.07-2.27-.86-2.64-2.02-.05-.14-.1-.29-.14-.43,0-.31,0-.62,0-.92ZM1.16,19.74c0,.96.82,1.76,1.78,1.74.95-.02,1.73-.81,1.73-1.76,0-.96-.81-1.77-1.76-1.76-.97,0-1.76.81-1.75,1.78Z"/>
      <path class="cls-1" d="M13.46,16.16c0,.31,0,.59,0,.87-.01.42-.23.68-.57.68-.35,0-.57-.25-.58-.67,0-.56,0-1.13,0-1.69,0-.32.15-.52.45-.64,2.22-.83,4.44-1.67,6.66-2.49.19-.07.44-.06.63,0,2.21.81,4.42,1.65,6.63,2.47.34.13.48.35.48.7,0,1.31,0,2.62,0,3.93,0,.45-.22.71-.59.7-.35,0-.56-.26-.57-.69,0-.91,0-1.82,0-2.73,0-.14,0-.28,0-.48-.34.13-.63.23-.91.34-1.49.56-2.98,1.11-4.47,1.67-.17.06-.32.12-.32.36.01,2.41,0,4.83.01,7.24,0,.02.01.05.04.12.11-.03.23-.06.34-.1,1.66-.62,3.31-1.25,4.97-1.85.27-.1.35-.23.34-.5-.02-.38-.01-.77,0-1.15.01-.41.25-.67.59-.66.33,0,.55.26.56.65,0,.62,0,1.23,0,1.85,0,.34-.16.54-.47.66-2.21.82-4.41,1.66-6.63,2.47-.2.07-.46.06-.66,0-2.2-.81-4.39-1.64-6.59-2.46-.34-.12-.49-.33-.49-.69,0-1.36,0-2.72,0-4.08,0-.44.23-.71.58-.7.35,0,.57.28.57.73,0,1.1.02,2.21,0,3.31,0,.37.12.5.45.62,1.6.58,3.19,1.19,4.79,1.79.13.05.26.09.44.14.01-.14.03-.25.03-.36,0-2.3,0-4.6,0-6.89,0-.22-.03-.37-.28-.47-1.71-.63-3.41-1.27-5.11-1.91-.08-.03-.17-.04-.3-.07ZM24.9,15.3c-.17-.08-.29-.13-.41-.18-1.45-.55-2.91-1.08-4.35-1.64-.3-.11-.55-.11-.84,0-.6.25-1.22.46-1.83.69-.96.36-1.91.72-2.94,1.1,1.72.65,3.38,1.27,5.03,1.88.12.04.28.02.4-.03.72-.26,1.44-.54,2.16-.81.91-.34,1.81-.68,2.77-1.04Z"/>
      <path class="cls-1" d="M27.63,11.03c-1.43-2.13-.73-4.39.69-5.53,1.59-1.27,3.82-1.17,5.28.22,1.44,1.38,1.63,3.62.48,5.23-1.02,1.42-3.33,2.4-5.67.87-.39.4-.8.82-1.2,1.22-.36.36-.71.41-.97.14-.26-.26-.2-.6.17-.97.4-.4.81-.79,1.22-1.19ZM30.84,5.77c-1.57,0-2.84,1.26-2.85,2.83,0,1.56,1.31,2.88,2.87,2.86,1.57-.02,2.82-1.29,2.82-2.86,0-1.57-1.26-2.83-2.84-2.83Z"/>
      <path class="cls-1" d="M27.61,28.42c-.41-.41-.83-.82-1.24-1.24-.33-.34-.37-.69-.11-.94.26-.25.6-.2.94.14.41.41.81.82,1.23,1.25,1.1-.75,2.27-.99,3.54-.63.93.27,1.68.82,2.21,1.63,1.08,1.63.82,3.8-.61,5.13-1.45,1.35-3.61,1.43-5.19.22-1.32-1.01-2.26-3.27-.76-5.56ZM33.67,30.83c0-1.57-1.28-2.84-2.84-2.84-1.55,0-2.84,1.28-2.85,2.84,0,1.57,1.28,2.85,2.87,2.85,1.57,0,2.82-1.27,2.82-2.85Z"/>
      <path class="cls-1" d="M11.03,27.62c.43-.44.84-.86,1.25-1.28.31-.31.66-.34.91-.1.25.25.21.6-.1.91-.42.42-.84.83-1.28,1.26.76,1.11,1,2.29.62,3.57-.28.93-.83,1.67-1.65,2.2-1.65,1.08-3.82.78-5.15-.68-1.32-1.46-1.37-3.65-.13-5.19,1.11-1.38,3.35-2.13,5.52-.69ZM5.77,30.82c0,1.58,1.24,2.84,2.81,2.85,1.59,0,2.88-1.27,2.87-2.84,0-1.56-1.29-2.84-2.84-2.84-1.56,0-2.84,1.27-2.84,2.83Z"/>
      <path class="cls-1" d="M11.83,11.02c.41.41.83.82,1.25,1.24.33.33.37.69.11.94-.25.24-.59.2-.91-.12-.42-.42-.82-.84-1.25-1.28-1.08.75-2.23.99-3.47.65-.94-.25-1.69-.79-2.24-1.59-1.11-1.6-.88-3.8.52-5.14,1.43-1.37,3.61-1.49,5.19-.32,1.33.99,2.35,3.26.81,5.61ZM5.77,8.61c0,1.57,1.27,2.84,2.83,2.85,1.55,0,2.84-1.27,2.86-2.83.02-1.57-1.27-2.86-2.86-2.86-1.57,0-2.83,1.26-2.83,2.84Z"/>
      <path class="cls-1" d="M20.3,31.51c0,.6.01,1.21,0,1.81,0,.26.07.37.34.45,1.38.44,2.19,1.82,1.95,3.26-.24,1.4-1.48,2.43-2.91,2.41-1.38-.02-2.58-1.04-2.81-2.4-.24-1.42.52-2.77,1.87-3.24.33-.11.42-.26.42-.59-.02-1.17-.01-2.34,0-3.5,0-.18.03-.43.14-.53.15-.13.44-.24.6-.17.18.07.37.34.38.54.05.65.02,1.31.02,1.96,0,0,0,0,0,0ZM19.7,38.29c.97.01,1.77-.78,1.78-1.74,0-.96-.79-1.77-1.76-1.77-.95,0-1.74.78-1.76,1.73-.02.96.77,1.78,1.74,1.79Z"/>
      <path class="cls-1" d="M31.53,19.15c.59,0,1.18-.01,1.77,0,.28,0,.39-.08.48-.35.42-1.3,1.75-2.15,3.04-1.98,1.45.19,2.53,1.3,2.62,2.7.09,1.39-.8,2.64-2.14,3.01-1.47.41-3.02-.4-3.51-1.87-.1-.29-.23-.36-.51-.36-1.17.02-2.34,0-3.5,0-.16,0-.39.02-.48-.08-.15-.15-.3-.39-.31-.59,0-.31.24-.47.55-.48.67,0,1.33,0,2,0,0,0,0,0,0,0ZM38.29,19.72c0-.97-.81-1.76-1.77-1.76-.95,0-1.73.79-1.74,1.75-.01.96.79,1.77,1.75,1.78.96,0,1.76-.8,1.76-1.77Z"/>
    </g>
  </g>
</svg>