<svg xmlns="http://www.w3.org/2000/svg" viewBox="0 0 301.22 290"><defs><style>.cls-1{fill:#fff;}</style></defs><g id="Capa_2" data-name="Capa 2"><g id="Capa_1-2" data-name="Capa 1"><path class="cls-1" d="M0,280.38c2,.08,4,.23,5.92.23,12.47,0,25,0,37.65,0V205.84H34.16v-28H53.27c0-4.94.34-9.57-.06-14.13-1.13-12.59,7.53-20.32,18.28-22.66,4.69-1,9.29-2.48,13.92-3.79a2.84,2.84,0,0,0,1.62-.92c.92-1.44-.09-8-1.33-9.33a27.66,27.66,0,0,1-7.9-19.44c0-6.1-.37-12.18,1.5-18.23,4.28-13.82,21.31-21.86,34.66-18.3,14.65,3.91,22.4,16.37,21.7,29.27-.24,4.42-.07,8.89-.73,13.24-.79,5.24-3.51,9.7-7.21,13.53-1.1,1.14-2.06,8.2-1.12,9.38a4.43,4.43,0,0,0,2.2,1c5.09,1.42,10.19,2.79,15.29,4.17,8.86,2.39,15,7.39,16.09,17.4h9.92c5.1,0,10.21,0,15.31,0a4.66,4.66,0,0,0,2.84-.77c4.23-3.88,8.38-7.85,12.48-11.86s8.12-8.15,11.78-11.84c-3.76-3.08-7.47-6.14-11.21-9.16s-5.46-7.2-6.24-11.66c-1.4-8-1.81-16.14.64-24.09,4.06-13.18,20-22.28,34.44-18.72,8.57,2.13,14.52,7.31,19.1,14.33a17.91,17.91,0,0,1,2.89,8.17,146.44,146.44,0,0,1,0,19.2c-.43,6.33-4.67,10.87-8.38,14.85,2.69,3.32,6,6.11,7.54,9.66s1.35,8.05,1.95,12.45h18.59c.06,1.28.15,2.29.15,3.29q0,27.89,0,55.79c0,5.33-.51,10.6-3.09,15.37-4.93,9.08-12,15.53-22.39,17.88-.92.21-1.82.49-3.16.86.22,2.7.4,5.48.68,8.24.91,9.2,1.92,18.4,2.73,27.6.2,2.22,1.51,2,2.92,2,13.43,0,26.85,0,40.28,0,3.77,0,7.53-.15,11.3-.23V290H0Zm53.37.23c3.64,0,7,.09,10.41-.08a3.11,3.11,0,0,0,2-1.58c2.78-5,5.51-10,8.11-15.1a3.15,3.15,0,0,1,3.28-2q39.57.08,79.13,0a3.08,3.08,0,0,1,3.23,2c2.35,4.94,4.82,9.82,7.34,14.67.42.81,1.32,1.89,2.05,1.93,3.45.2,6.93.09,10.45.09V224.36H77.93v-9.17H179.4V206H53.5v9.4H67.66v9.25H53.37Zm96.54-121.74a8.58,8.58,0,0,0-6.29-7.5c-6.12-1.89-12.33-3.52-18.53-5.16a3.12,3.12,0,0,0-2.23.53c-1.45,1-2.72,2.25-4.12,3.32-8.44,6.43-19,5.68-26.29-2.12-1.72-1.85-3.21-2.05-5.42-1.39C81.7,148.14,76.31,149.5,71,151s-7.71,4.74-7.82,10.37c-.09,4.81,0,9.62,0,14.43a11,11,0,0,0,.3,1.79h68.09C130.31,164.57,134.36,160.43,149.91,158.87Zm39.72,56.33c12.63,0,24.91,0,37.2,0,10.3,0,15.93-5.71,15.93-16q0-26.19,0-52.38V145c-2.09,2.66-4.31,5.74-6.78,8.61-1.4,1.61-3.25,2.81-4.8,4.31-8.45,8.21-16.91,16.41-25.24,24.74a6.6,6.6,0,0,0-1.7,4.12c-.18,6.2-.08,12.4-.08,19H189.63ZM126.39,103.54c0-1.92.06-3.24,0-4.56-.32-6.17-2.23-11.32-7.54-15.3C109,76.29,92.59,78.21,88,94.21c-2,7-2.14,14.92,2,22.16,6.29,11.08,21.73,13.88,32,3C126.29,114.82,126.57,108.89,126.39,103.54Zm77.78-.67c0,1.42,0,2.83,0,4.25.17,9.43,5.38,16.12,14.45,18.48,10,2.61,22.55-3.32,23.85-15.88a96,96,0,0,0,.27-10.46c-.07-9.89-5.22-16.82-14.82-19.06-7.5-1.75-14.21.12-19.42,6.16C204.36,91.16,203.83,96.9,204.17,102.87ZM44,196.31h150v-9.06H44Zm208.68-37.09v3.34q0,18.41,0,36.81c0,6.2-1.31,11.76-5.82,16.52s-9.72,8.21-16.41,8.35c-12.48.24-24.95.17-37.43.23h-3.26v9.38c16.47,0,32.72.11,49-.06a23.26,23.26,0,0,0,13.77-4.56c6.71-5,9.6-11.89,9.6-20.13q0-23.64,0-47.28c0-.83-.09-1.65-.14-2.6Zm-81.87,18.57c7.93,0,15.87,0,23.81,0a5.24,5.24,0,0,0,3.09-.84c2.74-2.29,5.34-4.75,7.9-7.23,3.52-3.42,6.95-6.94,10.44-10.39,5.48-5.42,11.05-10.76,16.4-16.32a4.22,4.22,0,0,0,.46-3.81c-1.88-3.85-6.22-4.46-9.45-1.55-2.78,2.53-5.55,5.06-8.25,7.67-7.32,7.06-14.55,14.22-21.95,21.2a7.12,7.12,0,0,1-4.38,1.78c-13.61.13-27.21.07-40.82.1-1.31,0-2.93-.17-3.85.5-1.3.95-2.88,2.61-2.87,4,0,1.5,1.43,3.23,2.68,4.39.74.67,2.33.55,3.54.56C155.26,177.81,163,177.79,170.76,177.79Zm43,65.59h-24v37h28.5C216.72,267.84,215.25,255.64,213.77,243.38Zm-56.54,37.09a67.51,67.51,0,0,0-3.59-7.08,4.67,4.67,0,0,0-3.21-2c-22.67-.11-45.35-.09-68-.06-.68,0-1.71.19-2,.64-1.5,2.67-2.82,5.44-4.37,8.5Zm80.34.14c-1.29-12.8-2.53-25-3.75-37.18H224c1.2,12.07,2.36,23.88,3.61,35.68a2.19,2.19,0,0,0,1.55,1.43C231.82,280.69,234.54,280.61,237.57,280.61ZM97.36,134.1c-1.23,4.73.94,7.4,4.39,9.41a9.44,9.44,0,0,0,10.86-.49c3.12-2.13,4.59-4.85,3.4-8.89A31.15,31.15,0,0,1,97.36,134.1Z"/><path class="cls-1" d="M233.15,0q.09,17,.17,33.93c0,4.14,0,8.28,0,12.89h-3.47c-13.32,0-26.64.08-39.95-.06a10.28,10.28,0,0,0-6.92,2.5q-14,11.42-28,22.84c-1.3,1.05-2.73,1.92-4.53,3.17V46.84H116.29V0Zm-72.9,55.47c7.31-5.89,13.85-11.26,20.53-16.47A7.52,7.52,0,0,1,185,37.47c11.62-.12,23.24-.07,34.86-.07h3.42V9.57H126.6V37.41h33.65Z"/><path class="cls-1" d="M155.68,27.92v-9h38.26v9Z"/><path class="cls-1" d="M135.76,18.87h9.78v9h-9.78Z"/><path class="cls-1" d="M213.22,28h-8.84v-9.1h8.84Z"/></g></g></svg>