<svg xmlns="http://www.w3.org/2000/svg" viewBox="0 0 27.64 26.94"><defs><style>.cls-1{fill:#fff;}</style></defs><g id="Capa_2" data-name="Capa 2"><g id="Capa_1-2" data-name="Capa 1"><path class="cls-1" d="M0,2.72A1.31,1.31,0,0,1,1.46,1.8c.5,0,1,0,1.49,0,.32,0,.5.15.5.4s-.18.41-.5.41H1.28c-.36,0-.47.11-.47.47V19.52c0,.39.11.48.54.48H22.54c.3,0,.47.16.46.41a.41.41,0,0,1-.45.4H20.18v.64c0,.84-.33,1.17-1.18,1.17H15.21c.06.13.1.21.15.3.55,1.08,1.1,2.16,1.66,3.24,0,.08.12.18.11.27a.88.88,0,0,1-.18.43.35.35,0,0,1-.49-.06,1.28,1.28,0,0,1-.16-.28c-.63-1.22-1.26-2.44-1.88-3.67a.36.36,0,0,0-.39-.23H10.09a.37.37,0,0,0-.4.23c-.61,1.23-1.24,2.45-1.87,3.67a1.83,1.83,0,0,1-.13.24.38.38,0,0,1-.51.12A.37.37,0,0,1,7,26.4a2.56,2.56,0,0,1,.11-.24c.55-1.08,1.1-2.16,1.66-3.24l.13-.28-.3,0H5.08c-.81,0-1.14-.33-1.14-1.15v-.66h-.3c-.72,0-1.45,0-2.18,0A1.3,1.3,0,0,1,0,19.89ZM19.37,20.83H4.75v.58c0,.4,0,.4.39.4h14c.16,0,.23-.07.22-.23Z"/><path class="cls-1" d="M21.15,7.45A5.26,5.26,0,0,1,26.48,12a5.12,5.12,0,0,1-1.07,4c-.29.37-.3.36-.06.78l2,3.48A1.54,1.54,0,1,1,24.8,22c-.26-.41-.49-.84-.73-1.26-.51-.87-1-1.74-1.51-2.61a.27.27,0,0,0-.34-.16A5.28,5.28,0,0,1,19.68,7.69a7.18,7.18,0,0,1,.92-.2A3.94,3.94,0,0,1,21.15,7.45Zm.08.81a4.48,4.48,0,1,0,4.49,4.41A4.46,4.46,0,0,0,21.23,8.26Zm3.27,8.67-1.24.73a1.19,1.19,0,0,0,.08.16l2.07,3.6a.75.75,0,0,0,.81.44.73.73,0,0,0,.46-1.16c-.63-1.09-1.26-2.19-1.9-3.28C24.69,17.25,24.6,17.09,24.5,16.93Z"/><path class="cls-1" d="M7.41,9.68c.45-.26.89-.49,1.32-.76a.43.43,0,0,0,.12-.3,1.33,1.33,0,0,1,.79-1.28,1.28,1.28,0,0,1,1.46.23,1.24,1.24,0,0,1,.44,1,.32.32,0,0,0,.2.36c.42.22.83.46,1.25.7a1.47,1.47,0,0,1,1.24-.33c.06,0,.16,0,.21-.11.67-.93,1.34-1.87,2-2.81a.35.35,0,0,0,0-.3,1.37,1.37,0,0,1,.15-1.5A1.29,1.29,0,0,1,18,4.2,1.27,1.27,0,0,1,19,5.36,1.33,1.33,0,0,1,17.41,6.8a.29.29,0,0,0-.34.16l-2,2.72a.27.27,0,0,0,0,.35,1.31,1.31,0,0,1-.18,1.55,1.38,1.38,0,0,1-1.49.34,1.3,1.3,0,0,1-.84-1.28.37.37,0,0,0-.23-.4c-.35-.18-.69-.38-1-.58a.29.29,0,0,0-.36,0,1.28,1.28,0,0,1-1.52,0,.27.27,0,0,0-.36,0c-.33.2-.66.39-1,.57a.39.39,0,0,0-.26.43A1.32,1.32,0,0,1,6.64,12,1.35,1.35,0,0,1,6.1,9.38,1.41,1.41,0,0,1,7.41,9.68Zm2.8-.59a.53.53,0,0,0,.52-.54A.56.56,0,0,0,10.19,8a.57.57,0,0,0-.53.55A.55.55,0,0,0,10.21,9.09ZM17.1,5.47a.53.53,0,1,0,1.06,0,.55.55,0,0,0-.52-.55A.54.54,0,0,0,17.1,5.47ZM13.91,11.2a.54.54,0,0,0,.54-.53.56.56,0,0,0-.53-.54.56.56,0,0,0-.54.54A.53.53,0,0,0,13.91,11.2ZM7,10.68a.57.57,0,0,0-.53-.55.56.56,0,0,0-.54.53.54.54,0,0,0,1.07,0Z"/><path class="cls-1" d="M9.82,1.81c0-.31,0-.57,0-.83a1,1,0,0,1,.93-1c.87,0,1.73,0,2.59,0a1,1,0,0,1,1,1c0,.25,0,.5,0,.79h8.46a1.19,1.19,0,0,1,1.36,1.35V6.59a1.34,1.34,0,0,1,0,.35.34.34,0,0,1-.42.25.87.87,0,0,1-.33-.33c0-.06,0-.17,0-.26V3.14c0-.42-.1-.52-.53-.52H4.65a.37.37,0,0,1-.37-.39.38.38,0,0,1,.33-.4H9.82Zm3.67,0a6.17,6.17,0,0,0,0-.75.31.31,0,0,0-.22-.22c-.8,0-1.6,0-2.4,0a.34.34,0,0,0-.22.2,6.74,6.74,0,0,0,0,.78Z"/><path class="cls-1" d="M9,15.25V12.6c0-.44.13-.58.58-.58H10.9c.37,0,.53.15.53.52V18c0,.37-.16.52-.51.52H9.49c-.37,0-.52-.15-.52-.53Zm.83-2.41v4.81h.8V12.84Z"/><path class="cls-1" d="M15.14,16.27v1.67c0,.4-.14.54-.54.54H13.2c-.36,0-.51-.15-.51-.51,0-1.12,0-2.25,0-3.37,0-.36.14-.5.51-.51h1.43c.37,0,.5.14.51.51C15.15,15.16,15.14,15.72,15.14,16.27Zm-1.62-1.35v2.73h.79V14.92Z"/><path class="cls-1" d="M5.25,16.25c0-.53,0-1.06,0-1.6s.13-.55.56-.56H7.17c.4,0,.54.15.54.54,0,1.1,0,2.21,0,3.31,0,.39-.14.54-.54.54H5.77c-.36,0-.51-.15-.51-.51C5.25,17.4,5.25,16.82,5.25,16.25Zm1.64,1.41V14.92H6.08v2.74Z"/><path class="cls-1" d="M17.22,17.67h1.14c.31,0,.49.16.49.41s-.18.4-.48.4H16.89c-.33,0-.48-.16-.48-.48s0-.7,0-1.05a.4.4,0,0,1,.38-.46c.25,0,.41.16.42.45S17.22,17.41,17.22,17.67Z"/><path class="cls-1" d="M21.08,8.89a4,4,0,0,1,2.4.73.41.41,0,0,1,.16.6.39.39,0,0,1-.59.07,3.14,3.14,0,0,0-1.87-.58,3,3,0,1,0,2.91,2,2.83,2.83,0,0,1-.11-.31.4.4,0,0,1,.75-.28,3.5,3.5,0,0,1,.35,1.8A3.84,3.84,0,1,1,20.28,9,6.48,6.48,0,0,1,21.08,8.89Z"/></g></g></svg>