<svg xmlns="http://www.w3.org/2000/svg" viewBox="0 0 40.45 38.83"><defs><style>.cls-1{fill:#2f3146;}</style></defs><g id="Capa_2" data-name="Capa 2"><g id="Capa_1-2" data-name="Capa 1"><path class="cls-1" d="M0,16.49c0-.1.09-.21.13-.32A2.22,2.22,0,0,1,2,14.59a.53.53,0,0,0,.51-.46A18.5,18.5,0,0,1,4.62,9.3c.26-.44.56-.54.9-.33s.37.52.12.93a18.35,18.35,0,0,0-2,4.61c-.07.23-.06.38.17.52a1.24,1.24,0,0,1,.44.44c.18.31.39.32.72.25a35.51,35.51,0,0,1,6.58-.7.63.63,0,0,0,.57-.31,2.28,2.28,0,0,1,2.34-1.06A.53.53,0,0,0,15,13.4a25.07,25.07,0,0,1,3.66-4,.48.48,0,0,0,.18-.6,3.47,3.47,0,0,1-.1-1.16.37.37,0,0,0-.21-.4,25.89,25.89,0,0,0-5.82-2.48,2.44,2.44,0,0,1-3.59.85c-.52.54-1,1.09-1.58,1.62A.8.8,0,0,1,7,7.54a.7.7,0,0,1-.5-.35.71.71,0,0,1,.11-.6C7.13,6,7.67,5.5,8.21,5a.42.42,0,0,0,.13-.5,2.35,2.35,0,0,1,.92-2.75,2.33,2.33,0,0,1,2.91.19.35.35,0,0,0,.45.05A19,19,0,0,1,22.77.07a18.39,18.39,0,0,1,6.58,1.77.48.48,0,0,0,.6,0,2.27,2.27,0,0,1,2.69-.1A2.35,2.35,0,0,1,33.7,4.25a.47.47,0,0,0,.18.58,1.12,1.12,0,0,1,.2.18,1.51,1.51,0,0,0,1.67.6A2,2,0,0,1,38,6.74a2.23,2.23,0,0,1,0,2.5.51.51,0,0,0,0,.62A19.2,19.2,0,0,1,40.3,21.73a19.05,19.05,0,0,1-6.15,12,.39.39,0,0,0-.13.47,2.38,2.38,0,0,1-3.78,2.58.36.36,0,0,0-.45,0,19.12,19.12,0,0,1-10.33,2,18.32,18.32,0,0,1-6.9-1.94.54.54,0,0,0-.66,0,2.39,2.39,0,0,1-3.63-2.53.49.49,0,0,0-.17-.58A19.38,19.38,0,0,1,1.88,21.18c0-.54,0-1.08-.08-1.61,0-.12-.07-.29-.14-.32A2.6,2.6,0,0,1,0,17.44Zm13.41,1.85a.47.47,0,0,0-.06.09,25.78,25.78,0,0,0-2.51,13.79.43.43,0,0,0,.28.29,2.49,2.49,0,0,1,1.34.85.3.3,0,0,0,.42.13,35.84,35.84,0,0,0,15.51-11.2.34.34,0,0,0,.05-.45,2.17,2.17,0,0,1-.31-1.47.41.41,0,0,0-.28-.51,36.28,36.28,0,0,0-9.52-3.12c-.62-.11-1.24-.19-1.84-.28A2.5,2.5,0,0,1,13.41,18.34Zm18.36,4.38,0,.11c.2,1,.41,2,.59,2.94a.54.54,0,0,1-.44.71c-.39.09-.65-.14-.74-.65-.17-.93-.36-1.85-.53-2.73l-1.22-.25-.26.32A36.75,36.75,0,0,1,13.78,34.4c-.49.19-.93.34-.85,1a.74.74,0,0,1,0,.25l.08.06a18,18,0,0,0,16.24.06c.22-.11.21-.24.19-.44a2.43,2.43,0,0,1,1.73-2.68.49.49,0,0,0,.27-.34c.06-.94.09-1.89.13-2.84,0-.4.23-.64.59-.64a.56.56,0,0,1,.59.64c0,1,0,1.92-.13,2.87,0,.41.22.44.42.59s.33,0,.46-.13a18.28,18.28,0,0,0,4-5.5.44.44,0,0,0-.12-.6,39.12,39.12,0,0,0-4.84-4.06C32.24,22.42,32,22.36,31.77,22.72ZM11.58,16.19c.07,0,0,0,0,0-2.2.24-4.39.48-6.59.74-.09,0-.23.19-.25.3a2.15,2.15,0,0,1-1.38,1.87.57.57,0,0,0-.4.64A19.91,19.91,0,0,0,6.87,30.58c.63.88,1.4,1.66,2.05,2.42.76-.17.75-.61.71-1.14a25.43,25.43,0,0,1,.21-6.1,27.26,27.26,0,0,1,2.43-7.84.45.45,0,0,0,0-.32C12.08,17.15,11.84,16.7,11.58,16.19ZM29.25,4.86a24.68,24.68,0,0,0-5.62,2.45c-.1.06-.13.25-.14.39a7.6,7.6,0,0,1-.11,1.08.54.54,0,0,0,.19.67,26.56,26.56,0,0,1,6.13,8c.27.53.49,1,1.2.88.19,0,.3,0,.4-.19a36.62,36.62,0,0,0,3.42-7.74.35.35,0,0,0-.17-.45,2.36,2.36,0,0,1-.93-1.46A2.63,2.63,0,0,1,34,6.55l-1-1C31.38,6.44,30.23,6.22,29.25,4.86Zm8.92,20.79.09-.23a17.56,17.56,0,0,0,1-4.65A18.13,18.13,0,0,0,37,10.52c-.06-.11-.27-.27-.32-.24-.25.13-.64-.1-.77.32a37.53,37.53,0,0,1-3.55,8.11.44.44,0,0,0,0,.4,1.93,1.93,0,0,1,.51,1.45,1.16,1.16,0,0,0,.76,1.4.23.23,0,0,1,.1.07ZM15.89,14.24c.21,1,.88,1.08,1.67,1.19a35.94,35.94,0,0,1,10.9,3.41.52.52,0,0,0,.44,0c.05,0,.05-.28,0-.39a26.16,26.16,0,0,0-6.19-8.19.37.37,0,0,0-.48-.06,2.14,2.14,0,0,1-2,.09.67.67,0,0,0-.9.16A26.7,26.7,0,0,0,15.89,14.24ZM29,3l-.5-.25A17.68,17.68,0,0,0,22,1.21,17.7,17.7,0,0,0,13.21,3a.48.48,0,0,0-.23.36.48.48,0,0,0,.29.32c.79.3,1.61.52,2.38.85,1.27.56,2.52,1.17,3.8,1.78,1.19-.89,1.91-.89,3.43,0a26.14,26.14,0,0,1,5.45-2.45C28.79,3.77,29.14,3.62,29,3ZM2.39,18.16a1.22,1.22,0,0,0,0-2.43,1.22,1.22,0,0,0,0,2.43Zm11.74-.95A1.17,1.17,0,0,0,15.32,16a1.21,1.21,0,0,0-2.42,0A1.18,1.18,0,0,0,14.13,17.21Zm17.56,3.41a1.18,1.18,0,0,0-1.2-1.2,1.22,1.22,0,0,0,0,2.43A1.18,1.18,0,0,0,31.69,20.62ZM9.4,3.71a1.2,1.2,0,1,0,2.4,0,1.2,1.2,0,1,0-2.4,0ZM21.1,6.85a1.22,1.22,0,0,0-1.19,1.21,1.23,1.23,0,0,0,1.21,1.21,1.21,1.21,0,0,0,0-2.42ZM33,35a1.2,1.2,0,1,0-2.4,0A1.2,1.2,0,1,0,33,35ZM31.38,2.5a1.19,1.19,0,0,0-1.2,1.2,1.2,1.2,0,1,0,2.4,0A1.2,1.2,0,0,0,31.38,2.5Zm-22,32.37a1.21,1.21,0,0,0,2.41,0,1.25,1.25,0,0,0-1.22-1.24A1.23,1.23,0,0,0,9.39,34.87ZM37.15,8A1.18,1.18,0,0,0,36,6.76a1.16,1.16,0,0,0-1.21,1.18A1.17,1.17,0,0,0,36,9.17,1.19,1.19,0,0,0,37.15,8Z"/></g></g></svg>