<svg xmlns="http://www.w3.org/2000/svg" viewBox="0 0 14.42 132.09"><defs><style>.cls-1{fill:#008dcf;}.cls-2{fill:#fff;}</style></defs><g id="Capa_2" data-name="Capa 2"><g id="Capa_1-2" data-name="Capa 1"><polygon class="cls-1" points="0 9.01 0 132.09 7.21 132.09 14.42 132.09 14.42 9.01 7.21 0 0 9.01"/><path class="cls-2" d="M10.62,75.61H4V71.48h.65v3.35H6.94V71.67h.65v3.16h3Z"/><path class="cls-2" d="M10.71,69.12a1.28,1.28,0,0,1-.42,1,1.75,1.75,0,0,1-1.19.36H4v-.77H9.05a1.47,1.47,0,0,0,.55-.09.67.67,0,0,0,.34-.27.76.76,0,0,0,.12-.44,1.5,1.5,0,0,0,0-.22,1.3,1.3,0,0,0,0-.21l.64,0c0,.1,0,.2,0,.29A2.64,2.64,0,0,1,10.71,69.12Z"/><path class="cls-2" d="M10.71,66.1a2,2,0,0,1-.2.93,1.29,1.29,0,0,1-.61.54,2.35,2.35,0,0,1-1,.19H6V67H8.88a1.65,1.65,0,0,0,.67-.11.75.75,0,0,0,.4-.34,1.29,1.29,0,0,0,.13-.59A1.23,1.23,0,0,0,9.4,64.8a1.67,1.67,0,0,0-.76-.17H6v-.77h4.59v.75h-1v-.12a1.6,1.6,0,0,1,.85.62A1.75,1.75,0,0,1,10.71,66.1Z"/><path class="cls-2" d="M4.89,62.49H4v-.94h.87Zm7.56,1.13-.6.05,0-.4a.9.9,0,0,0-.31-.65,1.09,1.09,0,0,0-.74-.22H6v-.77h4.66a2.2,2.2,0,0,1,.72.1,1.36,1.36,0,0,1,.53.29,1.29,1.29,0,0,1,.33.49,2.34,2.34,0,0,1,.15.7Z"/><path class="cls-2" d="M10.71,58.29a2.29,2.29,0,0,1-.29,1.16,2,2,0,0,1-.83.76,2.78,2.78,0,0,1-1.26.27,2.8,2.8,0,0,1-1.27-.27,2,2,0,0,1-.82-.76,2.41,2.41,0,0,1,0-2.33,2,2,0,0,1,.82-.76,2.8,2.8,0,0,1,1.27-.27,2.78,2.78,0,0,1,1.26.27,2,2,0,0,1,.83.76A2.31,2.31,0,0,1,10.71,58.29Zm-.62,0a1.3,1.3,0,0,0-.45-1,2,2,0,0,0-1.31-.38A2,2,0,0,0,7,57.25a1.42,1.42,0,0,0,0,2.07,2,2,0,0,0,1.32.38,2,2,0,0,0,1.31-.38A1.31,1.31,0,0,0,10.09,58.29Z"/></g></g></svg>