<svg xmlns="http://www.w3.org/2000/svg" viewBox="0 0 38.26 38.18"><defs><style>.cls-1{fill:#fff;}</style></defs><g id="Capa_2" data-name="Capa 2"><g id="Capa_1-2" data-name="Capa 1"><path class="cls-1" d="M0,22.23,1.57,20c.42-.59.79-.67,1.39-.28l2,1.37a.79.79,0,0,1,.33,1.17.83.83,0,0,1-1.19.15c-.21-.13-.46-.45-.61-.33s0,.47.06.71A15.57,15.57,0,0,0,7.41,29.9a15.85,15.85,0,0,0,9.4,5c.6.1.89.53.74,1a.78.78,0,0,1-.94.53A16.63,16.63,0,0,1,9.9,34,17.42,17.42,0,0,1,2,22.76c0-.11,0-.27-.12-.3s-.17.14-.25.23-.07.1-.11.15c-.46.65-1,.64-1.49,0Z"/><path class="cls-1" d="M38.26,15.07c-.12,0-.17.17-.24.27-.44.66-.88,1.33-1.33,2a.84.84,0,0,1-1.38.27c-.71-.48-1.41-1-2.11-1.46A.8.8,0,0,1,32.92,15a.81.81,0,0,1,1.16-.14l.65.45a10.24,10.24,0,0,0-.64-2.09,15.84,15.84,0,0,0-12.36-10l-.36-.08a.79.79,0,0,1-.61-.86.75.75,0,0,1,.81-.66,11.2,11.2,0,0,1,2.8.6A17.4,17.4,0,0,1,36.2,14.6l.11.34a.75.75,0,0,0,.34-.39.85.85,0,0,1,1.49-.16.32.32,0,0,0,.12.08Z"/><path class="cls-1" d="M15.07,0c.9.5,1.73,1.11,2.58,1.7a.75.75,0,0,1,.15,1.07Q17,3.93,16.18,5.05a.77.77,0,0,1-1.12.17.78.78,0,0,1-.14-1.1c.12-.19.26-.37.41-.58a.68.68,0,0,0-.41,0A15.84,15.84,0,0,0,3.45,15.92c-.06.26-.09.52-.14.77a.8.8,0,0,1-.86.75.76.76,0,0,1-.68-1,14.93,14.93,0,0,1,1.1-4.09,17.48,17.48,0,0,1,11-10.14c.19-.07.38-.12.57-.17l.61-.17a1.28,1.28,0,0,0-.41-.34c-.74-.5-.73-1.09,0-1.56Z"/><path class="cls-1" d="M11.66,10.76a8.8,8.8,0,0,1,1.81.35c.85.19,1.22,0,1.47-.86l.24-.82a2.46,2.46,0,0,1,2.39-1.95,22.21,22.21,0,0,1,3.46,0,2.34,2.34,0,0,1,2,1.64c.15.39.25.8.37,1.21a1,1,0,0,0,1.33.78,11.15,11.15,0,0,1,1.6-.35A2.41,2.41,0,0,1,28.77,12c.53.85,1.05,1.72,1.55,2.59A2.3,2.3,0,0,1,30,17.35c-.32.35-.67.67-1,1a.85.85,0,0,0,0,1.36c.29.29.58.57.87.87a2.33,2.33,0,0,1,.39,3c-.48.82-1,1.64-1.48,2.46a2.54,2.54,0,0,1-2.88,1.19l-1.19-.29a1,1,0,0,0-1.29.72l-.3,1A2.38,2.38,0,0,1,21,30.55a17.79,17.79,0,0,1-3.72,0,2.36,2.36,0,0,1-2.05-1.77c-.12-.38-.21-.77-.33-1.15a1,1,0,0,0-1.24-.7c-.41.09-.82.2-1.23.3A2.54,2.54,0,0,1,9.53,26c-.51-.81-1-1.63-1.48-2.46a2.33,2.33,0,0,1,.38-3c.29-.29.59-.58.87-.87a.86.86,0,0,0,0-1.39c-.29-.31-.6-.6-.9-.9a2.34,2.34,0,0,1-.35-2.94L9.55,12A2.48,2.48,0,0,1,11.66,10.76Zm14.84,15a1,1,0,0,0,1-.51c.47-.8,1-1.59,1.43-2.4a.81.81,0,0,0-.14-1.14c-.3-.31-.61-.61-.92-.92a2.4,2.4,0,0,1,0-3.42c.3-.31.62-.61.92-.92a.84.84,0,0,0,.16-1.18c-.48-.8-.95-1.6-1.44-2.39a.93.93,0,0,0-1.11-.46c-.5.11-1,.24-1.49.34A2.46,2.46,0,0,1,22,11.06c-.15-.42-.26-.86-.39-1.28a.94.94,0,0,0-.93-.73c-1,0-2,0-3.05,0a.92.92,0,0,0-.92.74c-.13.42-.25.85-.39,1.28a2.47,2.47,0,0,1-2.86,1.65c-.5-.1-1-.23-1.49-.35a.92.92,0,0,0-1.08.44c-.5.81-1,1.62-1.46,2.43a.8.8,0,0,0,.14,1.14c.32.34.67.66,1,1a2.39,2.39,0,0,1,0,3.31c-.31.32-.63.63-.95.95a.82.82,0,0,0-.15,1.17c.47.79.94,1.58,1.42,2.37a1,1,0,0,0,1.21.47c.48-.11,1-.24,1.45-.33A2.47,2.47,0,0,1,16.35,27c.13.42.24.84.37,1.25a.91.91,0,0,0,1,.72h2.95a.92.92,0,0,0,1-.76c.13-.42.24-.84.38-1.25a2.38,2.38,0,0,1,1.26-1.45,2.49,2.49,0,0,1,1.82-.16Z"/><path class="cls-1" d="M22.54,36.38c.16.11.33.22.5.35A.78.78,0,1,1,22.19,38c-.76-.49-1.52-1-2.27-1.5a.75.75,0,0,1-.24-1.08c.5-.8,1-1.58,1.57-2.36a.75.75,0,0,1,1.08-.21A.78.78,0,0,1,22.54,34c-.15.25-.32.49-.51.79a8.65,8.65,0,0,0,1.9-.44A15.83,15.83,0,0,0,35,21.66c0-.14,0-.27.08-.41a.76.76,0,0,1,.88-.62.73.73,0,0,1,.65.81,10.52,10.52,0,0,1-.51,2.48A17.41,17.41,0,0,1,22.76,36.26C22.69,36.28,22.6,36.25,22.54,36.38Z"/><path class="cls-1" d="M19.35,24.8a5.9,5.9,0,0,1-5.94-5.2,5.85,5.85,0,0,1,4.82-6.27,5.62,5.62,0,0,1,5.31,2,1.09,1.09,0,0,1,.27.48.76.76,0,0,1-.43.86.77.77,0,0,1-1-.27,4.19,4.19,0,0,0-7.4,2.2,4.29,4.29,0,0,0,4,4.68,4,4,0,0,0,2.87-1.06c.19-.17.36-.37.54-.56a.79.79,0,0,1,1.13-.12.76.76,0,0,1,.07,1.13,5.68,5.68,0,0,1-1.89,1.55A5.23,5.23,0,0,1,19.35,24.8Z"/><path class="cls-1" d="M18.43,21.36a.8.8,0,0,1-.6-.25c-.42-.42-.85-.84-1.26-1.27a.78.78,0,1,1,1.1-1.1c.18.16.36.34.53.52s.28.17.45,0c.6-.62,1.21-1.22,1.82-1.82a.75.75,0,0,1,.87-.24.76.76,0,0,1,.31,1.25c-.88.92-1.8,1.81-2.71,2.72A.68.68,0,0,1,18.43,21.36Z"/><path class="cls-1" d="M24.94,19a.75.75,0,0,1-.78.77.74.74,0,0,1-.76-.74.78.78,0,0,1,.75-.8A.77.77,0,0,1,24.94,19Z"/></g></g></svg>