<svg xmlns="http://www.w3.org/2000/svg" viewBox="0 0 58 58"><defs><style>.cls-1{fill:#00a365;}</style></defs><g id="Capa_2" data-name="Capa 2"><g id="Capa_1-2" data-name="Capa 1"><path class="cls-1" d="M56.35,58H47c-.65-.47-.86-.94-.66-1.52s.61-.78,1.42-.78h7.12c.79,0,.79,0,.79-.79V31c0-.75,0-.76-.76-.76h-8.2a1.2,1.2,0,0,1-1.26-1.75,3,3,0,0,0,.23-1.38,2.72,2.72,0,0,0-1.87-2.34,2.57,2.57,0,0,0-2.81.66,2.67,2.67,0,0,0-.63,3c.41,1.19-.07,1.84-1.35,1.85-2.71,0-5.43,0-8.14,0-.51,0-.71.14-.7.67q0,3.15,0,6.28c0,.54.2.67.7.67a5.13,5.13,0,0,1,0,10.25c-.54,0-.72.17-.71.72,0,2,0,4.11,0,6.16,0,.72,0,.74.73.74h7.18c.81,0,1.23.23,1.42.78s0,1-.66,1.52Q19.64,58,.46,58C.08,58,0,57.92,0,57.53Q0,29.58,0,1.64A2.57,2.57,0,0,1,2.64,0Q29,0,55.35,0A2.67,2.67,0,0,1,56.82.3,2.44,2.44,0,0,1,58,2.59q0,26.36,0,52.71A2.6,2.6,0,0,1,56.35,58Zm-54-42.89c0,4,0,8,0,12,0,.54.15.74.7.73,1.62,0,3.25,0,4.87,0,1.19,0,2.37,0,3.56,0a1.17,1.17,0,0,1,1.15,1.58c-.05.17-.12.32-.16.49a2.75,2.75,0,1,0,5.21-.17c-.43-1.28,0-1.9,1.38-1.9,2.67,0,5.35,0,8,0,.74,0,.75,0,.75-.77,0-2,0-4.08,0-6.11,0-.58-.18-.74-.75-.74a5.13,5.13,0,0,1,0-10.25c.6,0,.74-.21.73-.76,0-2,0-4.07,0-6.11,0-.73,0-.75-.77-.75H3.1c-.78,0-.78,0-.78.8ZM42.91,2.36c-4,0-8,0-12,0-.54,0-.73.16-.72.71,0,1.74,0,3.47,0,5.21,0,1.07,0,2.15,0,3.22a1.16,1.16,0,0,1-1.58,1.15c-.17-.05-.32-.12-.48-.17a2.75,2.75,0,1,0,.16,5.21c1.28-.42,1.91,0,1.91,1.39v8c0,.72,0,.74.72.74,2.05,0,4.11,0,6.16,0,.58,0,.73-.19.74-.75a5.13,5.13,0,0,1,10.25,0c0,.76,0,.76.76.77h6.1c.74,0,.75,0,.75-.78V3.15c0-.78,0-.79-.79-.79ZM15.05,55.68H27c.74,0,.76,0,.76-.76v-8.2a1.2,1.2,0,0,1,1.75-1.26,2.85,2.85,0,0,0,1.38.22,2.76,2.76,0,1,0-1.28-5.31c-1.19.44-1.85-.06-1.85-1.34,0-2.71,0-5.43,0-8.14,0-.51-.14-.71-.67-.7q-3.15,0-6.28,0c-.53,0-.67.18-.68.69a5.12,5.12,0,0,1-10.24,0c0-.54-.16-.73-.71-.72-2,0-4.08,0-6.11,0-.8,0-.8,0-.8.77V54.9c0,.78,0,.78.79.78Z" transform="translate(0 0)"/><path class="cls-1" d="M42.44,58a1.28,1.28,0,0,1-.7-.9,1.17,1.17,0,1,1,2,.63c-.11.1-.24.18-.36.27Z" transform="translate(0 0)"/></g></g></svg>