<svg xmlns="http://www.w3.org/2000/svg" viewBox="0 0 14.42 55.27"><defs><style>.cls-1{fill:#008dcf;}.cls-2{fill:#fff;}</style></defs><g id="Capa_2" data-name="Capa 2"><g id="Capa_1-2" data-name="Capa 1"><polygon class="cls-1" points="0 9.01 0 55.27 7.21 55.27 14.42 55.27 14.42 9.01 7.21 0 0 9.01"/><path class="cls-2" d="M10.62,39.24H4V35.12h.65v3.35H6.94V35.31h.65v3.16h3Z"/><path class="cls-2" d="M10.71,32.76a1.28,1.28,0,0,1-.42,1.05,1.75,1.75,0,0,1-1.19.36H4V33.4H9.05a1.47,1.47,0,0,0,.55-.09A.67.67,0,0,0,9.94,33a.78.78,0,0,0,.12-.44,1.5,1.5,0,0,0,0-.22,1.3,1.3,0,0,0,0-.21l.64,0c0,.1,0,.2,0,.29A2.46,2.46,0,0,1,10.71,32.76Z"/><path class="cls-2" d="M10.71,29.74a1.93,1.93,0,0,1-.2.92,1.26,1.26,0,0,1-.61.55,2.35,2.35,0,0,1-1,.19H6v-.77H8.88a1.65,1.65,0,0,0,.67-.11.75.75,0,0,0,.4-.34,1.29,1.29,0,0,0-.55-1.74,1.55,1.55,0,0,0-.76-.17H6V27.5h4.59v.75h-1v-.12a1.6,1.6,0,0,1,.85.62A1.72,1.72,0,0,1,10.71,29.74Z"/><path class="cls-2" d="M4.89,26.13H4v-.94h.86Zm7.56,1.13-.6,0,0-.4a.94.94,0,0,0-.31-.66,1.14,1.14,0,0,0-.74-.21H6v-.77h4.66a2.2,2.2,0,0,1,.72.1,1.36,1.36,0,0,1,.53.29,1.21,1.21,0,0,1,.33.49,2.34,2.34,0,0,1,.15.7Z"/><path class="cls-2" d="M10.71,21.92a2.31,2.31,0,0,1-.29,1.17,2,2,0,0,1-.83.76,2.78,2.78,0,0,1-1.26.27,2.8,2.8,0,0,1-1.27-.27,2,2,0,0,1-.82-.76,2.41,2.41,0,0,1,0-2.33A2,2,0,0,1,7.06,20a2.8,2.8,0,0,1,1.27-.27A2.78,2.78,0,0,1,9.59,20a2,2,0,0,1,.83.76A2.29,2.29,0,0,1,10.71,21.92Zm-.62,0a1.28,1.28,0,0,0-.45-1,2,2,0,0,0-1.31-.38A2,2,0,0,0,7,20.89,1.4,1.4,0,0,0,7,23a2,2,0,0,0,1.32.39A2,2,0,0,0,9.64,23,1.28,1.28,0,0,0,10.09,21.92Z"/></g></g></svg>