<svg xmlns="http://www.w3.org/2000/svg" viewBox="0 0 41.14 41.13"><defs><style>.cls-1{fill:#1a1a1a;}</style></defs><g id="Capa_2" data-name="Capa 2"><g id="Capa_1-2" data-name="Capa 1"><path class="cls-1" d="M27.39,18.51c0-1,0-2,0-3,0-.29-.08-.41-.39-.41-.84,0-1.68,0-2.52,0a1,1,0,0,0-.52.16c-.78.48-1.57.94-2.35,1.41a.87.87,0,0,0-.31,1c.08.17.23.14.37.14h2.22c.56,0,.81.25.82.81v3.93a.71.71,0,0,1-.8.79c-.74,0-1.48,0-2.22,0-.3,0-.41.09-.41.4,0,1.09-.11.9.9.92.71,0,1.42,0,2.13,0,.3,0,.41.11.4.4,0,1.24.14,1-1,1-.68,0-1.37,0-2.05,0-.28,0-.38.1-.38.38,0,1.15-.12.92,1,.93a2.44,2.44,0,0,1,2.21,3.53c-.17.32-.33.4-.61.14a1.46,1.46,0,0,0-.34-.26.56.56,0,0,1-.29-.79.88.88,0,0,0-.63-1.1,1.48,1.48,0,0,0-.46-.08c-1,0-2.08,0-3.12,0-.85,0-1.32.66-1,1.36a1,1,0,0,0,1,.62c1,.05.95.05.92,1,0,.29-.09.43-.39.41a6.22,6.22,0,0,1-1.36-.09,2.45,2.45,0,0,1-1.72-2.72,2.41,2.41,0,0,1,2.38-2.05c1,0,1,0,1-1,0-.87,0-1.74,0-2.61,0-.29-.09-.4-.39-.4-.74,0-1.48,0-2.22,0-.56,0-.81-.26-.81-.82,0-1.3,0-2.6,0-3.89,0-.58.25-.82.85-.82s1.31,0,2,0c.21,0,.48.14.6-.18a.8.8,0,0,0-.34-.95l-2.46-1.47c-.85-.52-.85-1.06,0-1.59l2.42-1.45a.85.85,0,0,0,.36-1c-.05-.14-.16-.16-.28-.16h-.72a2.43,2.43,0,0,1,0-4.85h3.51a2.43,2.43,0,0,1,0,4.85,3.09,3.09,0,0,0-.43,0c-.2,0-.52-.14-.58.18s-.14.7.29.94c.8.44,1.57.92,2.35,1.4a1.25,1.25,0,0,0,.65.16h3.33c.65,0,.88.23.88.87,0,2.31,0,4.62,0,6.93,0,.35-.1.48-.46.48-1.15,0-1,.13-1-1C27.38,20.16,27.39,19.34,27.39,18.51Zm-6.77.71c-.79,0-1.57,0-2.36,0-.29,0-.41.09-.4.39q0,1,0,1.92c0,.29.11.37.38.37H22.9c.28,0,.39-.08.38-.37,0-.64,0-1.28,0-1.92,0-.3-.12-.4-.41-.39C22.13,19.23,21.37,19.22,20.62,19.22ZM20.57,7.59c-.54,0-1.08,0-1.62,0a1,1,0,1,0,0,2c1.09,0,2.19,0,3.29,0a1,1,0,1,0,0-2C21.66,7.57,21.12,7.59,20.57,7.59Zm0,8,.14-.05,1.65-1c.19-.12.07-.21-.05-.28l-1.53-.93a.36.36,0,0,0-.4,0l-1.54.92c-.15.09-.22.19,0,.31l1.57.94Z"/><path class="cls-1" d="M20.58,4.85H7.49c-.57,0-.57,0-.57.56,0,1,0,2.05,0,3.07,0,.34-.08.49-.45.48-1.16,0-1,.13-1-1q0-2.26,0-4.53A3.4,3.4,0,0,1,9,0H32.18a3.4,3.4,0,0,1,3.48,3.46c0,7.81,0,15.63,0,23.44,0,.44-.14.56-.56.54-1,0-.88.1-.88-.86V5.45c0-.6,0-.6-.61-.6Zm0-3.42H9.19A2.08,2.08,0,0,0,7.06,2.77c-.21.6-.18.65.45.65h26c.73,0,.79-.1.5-.77a2.19,2.19,0,0,0-.16-.3,2.16,2.16,0,0,0-2-.92Z"/><path class="cls-1" d="M5.43,25.63a6.57,6.57,0,0,0-.86.89A12.78,12.78,0,0,0,1.5,34.15c-.12,2.12,0,4.25-.06,6.37,0,.6,0,.6-.58.6-1,0-.84.1-.84-.84,0-1.91,0-3.82,0-5.73a14.13,14.13,0,0,1,3.74-9.31,10.82,10.82,0,0,1,1.38-1.33.86.86,0,0,0,.35-.77V10.91c0-.64,0-.65.66-.64.84,0,.77-.08.77.75V29.11l1.6-1.62a2.53,2.53,0,0,1,1.92-.8,2.65,2.65,0,0,1,1.93,4.45c-.92,1-1.88,1.91-2.84,2.84a.53.53,0,0,0-.11.77,4.79,4.79,0,0,1,.47,1.09.54.54,0,0,0,.61.44c2.92,0,5.84,0,8.77,0,.65,0,.65,0,.65.65,0,.1,0,.2,0,.3,0,.38-.12.49-.49.49-2.88,0-5.76,0-8.64,0-.37,0-.52.07-.5.49a6,6,0,0,1-.1,1.19c0,.22,0,.33.26.32h13c.61,0,.62,0,.61.6,0,.94.1.83-.81.83H9.48c-.9,0-1.16-.35-.92-1.2a5.81,5.81,0,0,0-.79-5.1.8.8,0,0,1,.13-1.24l3.23-3.24a1.26,1.26,0,0,0,.46-1.26,1.17,1.17,0,0,0-1.87-.7,5.6,5.6,0,0,0-.45.4C7.83,30.22,6.38,31.66,5,33.11c-.24.25-.4.26-.65,0-.69-.71-.76-.77,0-1.38a3,3,0,0,0,1.2-2.92,25,25,0,0,1,0-2.74C5.48,25.93,5.53,25.79,5.43,25.63Z"/><path class="cls-1" d="M26,33.75V32.09c0-2.13,0-4.27,0-6.41a2.39,2.39,0,0,1,2.07-2.4,2.44,2.44,0,0,1,2.73,1.87,6.46,6.46,0,0,1,.05,1.32c0,.68,0,1.37,0,2.05,0,.27,0,.39.36.31a2.32,2.32,0,0,1,2,.35.48.48,0,0,0,.64,0,2.36,2.36,0,0,1,2.77,0,.5.5,0,0,0,.64,0,2.33,2.33,0,0,1,2.59-.13,2.38,2.38,0,0,1,1.24,2.23c0,3,0,5.93,0,8.89,0,.73-.21.95-.93.95H26.94a1.23,1.23,0,0,1-.88-.34c-1.8-1.6-3.61-3.19-5.39-4.81a2.59,2.59,0,0,1-.14-3.66,2.64,2.64,0,0,1,3.73-.18c.57.53,1.09,1.12,1.63,1.68Zm7.27,5.94c2,0,3.93,0,5.9,0,.42,0,.54-.13.52-.53,0-.86,0-1.71,0-2.57,0-1.7,0-3.39,0-5.09,0-.84-.37-1.33-1-1.32s-1,.48-1,1.34c0,.23,0,.46,0,.68a.69.69,0,0,1-.72.69.68.68,0,0,1-.7-.7c0-.31,0-.63,0-.94a1,1,0,1,0-2,0c0,.31,0,.63,0,.94a.71.71,0,0,1-1.41,0c0-.31,0-.62,0-.94a1,1,0,1,0-2,0c0,.32,0,.65,0,1a.65.65,0,0,1-.54.64.7.7,0,0,1-.8-.35,1,1,0,0,1-.08-.55v-5.9a2.19,2.19,0,0,0-.07-.67,1,1,0,0,0-1.22-.65,1,1,0,0,0-.7,1.14c0,1.4,0,2.8,0,4.19,0,1.81,0,3.62,0,5.43a.7.7,0,0,1-.42.73.71.71,0,0,1-.86-.18l-.3-.3c-.82-.82-1.62-1.64-2.45-2.44a1.23,1.23,0,0,0-1.8-.05,1.18,1.18,0,0,0,.2,1.77c1.64,1.46,3.29,2.91,4.92,4.38a1,1,0,0,0,.69.26Z"/><path class="cls-1" d="M28.74,8.27c-.55,0-1.11,0-1.66,0-.27,0-.38-.1-.38-.38,0-1.28-.14-1,1-1.05.91,0,1.82,0,2.73,0,.31,0,.43.1.42.42,0,1.21.14,1-1,1Z"/><path class="cls-1" d="M28.74,11H27.08c-.28,0-.38-.1-.38-.37,0-1.28-.14-1,1-1.06h2.73c.31,0,.43.1.42.42,0,1.2.14,1-1,1Z"/><path class="cls-1" d="M12.39,13.75h-1.7c-.29,0-.42-.08-.41-.39,0-1.25-.14-1,1-1,.9,0,1.8,0,2.69,0,.36,0,.51.09.5.48,0,1.12.12.94-.95,1Z"/><path class="cls-1" d="M12.36,16.48H10.65c-.27,0-.38-.1-.37-.38,0-1.28-.15-1,1-1,.91,0,1.83,0,2.74,0,.31,0,.42.11.42.42,0,1.21.13,1-1,1H12.36Z"/><path class="cls-1" d="M12.36,19.91c-.57,0-1.14,0-1.71,0-.28,0-.38-.11-.37-.38,0-1.27-.14-1,1-1.05.92,0,1.85,0,2.77,0,.32,0,.42.12.42.43,0,1.2.13,1-1,1Z"/><path class="cls-1" d="M12.36,22.64c-.57,0-1.14,0-1.71,0-.27,0-.38-.11-.37-.38,0-1.27-.14-1,1-1.05.93,0,1.85,0,2.78,0,.31,0,.42.11.42.42,0,1.21.13,1-1,1Z"/><path class="cls-1" d="M9.65,6.88c0,.71,0,.71-.71.71s-.71,0-.71-.72,0-.71.75-.71S9.65,6.16,9.65,6.88Z"/><path class="cls-1" d="M11,6.83c0-.67,0-.67.76-.67s.67,0,.67.76,0,.67-.75.67S11,7.59,11,6.83Z"/><path class="cls-1" d="M14.39,7.59c-.69,0-.69,0-.69-.74s0-.68.78-.69c.65,0,.65,0,.65.78S15.13,7.59,14.39,7.59Z"/></g></g></svg>