<svg xmlns="http://www.w3.org/2000/svg" viewBox="0 0 38.94 38.96"><defs><style>.cls-1{fill:#fff;}</style></defs><g id="Capa_2" data-name="Capa 2"><g id="Capa_1-2" data-name="Capa 1"><path class="cls-1" d="M38.94,20.68c-.1.7-.15,1.41-.29,2.1C37.13,30.34,32.75,35.5,25.46,38A19.45,19.45,0,0,1,8.66,3.28,2.07,2.07,0,0,1,9,3.09a.47.47,0,0,1,.65.22,1.15,1.15,0,0,1,0,.66c0,.09-.18.16-.29.24a17.66,17.66,0,0,0-8,12.73,17.72,17.72,0,0,0,6.82,16.9,17.53,17.53,0,0,0,12.12,3.93,18.32,18.32,0,0,0,2.62-36.3A17.94,17.94,0,0,0,12,2.72c-.55.24-.89.19-1-.18s0-.62.57-.86A19.23,19.23,0,0,1,17.93.06,1.91,1.91,0,0,0,18.26,0h2.43c.1,0,.19.05.29.06,1,.16,2,.25,3,.47A19.45,19.45,0,0,1,38.65,16.11c.11.71.19,1.42.29,2.14Z"/><path class="cls-1" d="M4.57,21.19A15.07,15.07,0,0,0,17.73,34.36c0-.51,0-1,0-1.51a1.66,1.66,0,0,1,1-1.53,1.71,1.71,0,0,1,2.43,1.53v1.57c.79-.16,1.53-.29,2.26-.48A14.46,14.46,0,0,0,27.71,32c.13-.08.31-.22.43-.19a.89.89,0,0,1,.57.33.49.49,0,0,1-.23.71c-.9.5-1.79,1-2.73,1.47a15.21,15.21,0,0,1-4.92,1.23c-.56,0-.8-.17-.8-.74s0-1.21,0-1.82-.2-.7-.57-.71-.59.25-.59.73v1.86c0,.5-.25.72-.74.68A16.19,16.19,0,0,1,3.58,22.33c-.08-.47-.14-.95-.2-1.43s.12-.85.74-.85H5.91c.44,0,.7-.22.71-.56s-.27-.59-.73-.6-1.21,0-1.82,0-.76-.25-.7-.79A16,16,0,0,1,14,4.28a14.83,14.83,0,0,1,4.17-.92.59.59,0,0,1,.73.65v2.7c0,.49.35.78.76.65A.61.61,0,0,0,20,6.7c0-.87,0-1.74,0-2.62,0-.56.25-.78.81-.72a16,16,0,0,1,13.55,9.92,15,15,0,0,1,1.19,4.85c.05.5-.17.74-.67.75s-1.29,0-1.93,0c-.47,0-.74.24-.73.6s.27.56.72.56h1.94c.5,0,.72.25.67.74A16.07,16.07,0,0,1,30.77,31c-.31.31-.66.34-.9.09s-.21-.59.1-.9A15,15,0,0,0,34.27,22c0-.26.08-.52.12-.84-.53,0-1,0-1.53,0a1.72,1.72,0,1,1,0-3.44h1.48A15,15,0,0,0,21.19,4.58c0,.13,0,.26,0,.39,0,.64,0,1.27,0,1.9a1.67,1.67,0,0,1-1.69,1.65,1.71,1.71,0,0,1-1.74-1.65c0-.38,0-.76,0-1.14V4.59A15,15,0,0,0,4.57,17.74H6A1.72,1.72,0,1,1,6,21.18C5.56,21.2,5.08,21.19,4.57,21.19Z"/><path class="cls-1" d="M24.28,24.86a2.14,2.14,0,0,1-2.37,2.05H17.16a2.18,2.18,0,0,1-2.51-2.05c-1.27,0-2.55,0-3.83,0A1.75,1.75,0,0,1,9,23.38a14.07,14.07,0,0,1,.1-2.75.54.54,0,0,1,.73-.47c.3.09.41.39.37.77-.07.7-.11,1.41-.12,2.12a.68.68,0,0,0,.74.66c1.28,0,2.55,0,3.88,0a5,5,0,0,1,1-3.51A3,3,0,0,0,11.88,19l-.24.11a.57.57,0,1,1-.53-1,4.15,4.15,0,0,1,4.57.36c.32.26.61.56.94.87a4.89,4.89,0,0,1,5.71,0l.23-.26a4.16,4.16,0,0,1,4.54-1.26A4.21,4.21,0,0,1,30,21.62c0,.45,0,.89,0,1.33a1.88,1.88,0,0,1-1.91,1.91c-1.11,0-2.23,0-3.34,0Zm-4.85.91c.9,0,1.8,0,2.7,0a.94.94,0,0,0,1-1c0-.6,0-1.21,0-1.82a3.64,3.64,0,0,0-7.21-.45,15.54,15.54,0,0,0-.07,2.16,1,1,0,0,0,1.1,1.09C17.76,25.78,18.6,25.77,19.43,25.77Zm5-2.05h.19c1.16,0,2.33,0,3.49,0a.71.71,0,0,0,.75-.78c0-.43,0-.86,0-1.29a3.06,3.06,0,0,0-5.46-1.78.37.37,0,0,0,0,.52,3.76,3.76,0,0,1,.57,1.06C24.12,22.17,24.23,22.92,24.39,23.72Z"/><path class="cls-1" d="M22.21,14.9a2.74,2.74,0,1,1-2.73-2.73A2.75,2.75,0,0,1,22.21,14.9Zm-1.14,0a1.6,1.6,0,1,0-1.58,1.61A1.6,1.6,0,0,0,21.07,14.89Z"/><path class="cls-1" d="M15.52,14.38a2.44,2.44,0,1,1-2.43-2.44A2.44,2.44,0,0,1,15.52,14.38Zm-1.14,0a1.3,1.3,0,1,0-1.31,1.29A1.3,1.3,0,0,0,14.38,14.37Z"/><path class="cls-1" d="M28.22,14.35a2.44,2.44,0,1,1-2.46-2.41A2.44,2.44,0,0,1,28.22,14.35Zm-3.73,0a1.3,1.3,0,1,0,1.32-1.28A1.3,1.3,0,0,0,24.49,14.36Z"/></g></g></svg>