<svg xmlns="http://www.w3.org/2000/svg" viewBox="0 0 41.49 41.48"><defs><style>.cls-1{fill:#fff;}</style></defs><g id="Capa_2" data-name="Capa 2"><g id="Capa_1-2" data-name="Capa 1"><path class="cls-1" d="M0,25.42a1.92,1.92,0,0,1,2-1.23c1.9,0,3.81,0,5.71,0a1.8,1.8,0,0,1,2,2c0,.65,0,.65.59.36,1.07-.53,2.13-1.09,3.22-1.59a6.27,6.27,0,0,1,6.12.38c.76.45,1.55.88,2.28,1.39a6.15,6.15,0,0,0,4.3.88,7.22,7.22,0,0,1,2-.08,2.68,2.68,0,0,1,2.26,3.08c-.06.46,0,.47.44.38,2.5-.47,5-1,7.5-1.42a2.67,2.67,0,0,1,1.47,5.1c-2,.76-4,1.44-6.07,2.15a.65.65,0,1,1-.39-1.24l5.58-2,.26-.1a1.38,1.38,0,0,0-.76-2.65l-6.83,1.31c-3,.58-6.09,1.15-9.16,1.61a14.4,14.4,0,0,1-4.94-.23l-1.11-.21a.65.65,0,0,1-.59-.73.62.62,0,0,1,.78-.53c.65.08,1.3.21,1.95.32a15,15,0,0,0,5.47-.18c1.21-.23,2.44-.43,3.66-.63.88-.15,1.31-.51,1.43-1.2a1.32,1.32,0,0,0-1.26-1.58,12.27,12.27,0,0,0-1.82.1,6.87,6.87,0,0,1-4.79-1.06c-.75-.5-1.53-.95-2.31-1.41a5,5,0,0,0-5.06-.23l-3.77,1.88a.63.63,0,0,0-.42.64q0,4.34,0,8.67c0,.22,0,.42.27.52a24.78,24.78,0,0,0,5.44,1.79A16.78,16.78,0,0,0,23.79,39l6.94-2.44.2-.07a.65.65,0,0,1,.86.36.66.66,0,0,1-.44.87c-.39.15-.79.28-1.18.42-2.1.73-4.19,1.49-6.3,2.2a17.66,17.66,0,0,1-13-.59c-.26-.11-.53-.2-.79-.32s-.4-.1-.39.23a2.57,2.57,0,0,1-.05.4A1.65,1.65,0,0,1,8,41.48H1.61A1.77,1.77,0,0,1,0,40.32V31.25c.21-.23.43-.43.77-.32s.48.42.48.79q0,3.89,0,7.77c0,.58.14.72.72.72H7.7c.56,0,.69-.13.69-.69q0-6.68,0-13.35c0-.54-.1-.65-.63-.65H1.9c-.53,0-.65.13-.66.64,0,.93,0,1.86,0,2.79,0,.34-.07.64-.42.76A.68.68,0,0,1,0,29.39Z"/><path class="cls-1" d="M25.26,0a.82.82,0,0,1,.42.77c0,.75,0,1.51,0,2.26,0,.52-.27.84-.67.83s-.64-.32-.65-.82c0-.71,0-1.42,0-2.14a1.08,1.08,0,0,1,.34-.9Z"/><path class="cls-1" d="M21,21.76a2.68,2.68,0,0,0-1.16-2.82,7.29,7.29,0,0,1-.8-9.74c.39-.49.94-.48,1.18,0a.71.71,0,0,1-.16.78,6.1,6.1,0,0,0,1.17,8.46,2.25,2.25,0,0,1,1.1,1.77c0,.15.09.22.24.22h1.49c.2,0,.26-.11.26-.28,0-1,0-2.05,0-3.08,0-.22-.16-.28-.31-.37a2.13,2.13,0,0,1-1.11-1.65.7.7,0,0,1,.53-.83.68.68,0,0,1,.77.61c.1.55.35.78.8.77s.67-.25.77-.78a.65.65,0,0,1,.72-.6.64.64,0,0,1,.56.72A2,2,0,0,1,26,16.69a.57.57,0,0,0-.33.58q0,1.39,0,2.79c0,.29.09.41.4.4s.86,0,1.29,0c.2,0,.31-.07.31-.28a1.94,1.94,0,0,1,.94-1.6,5.92,5.92,0,0,0,2.52-5,6.12,6.12,0,0,0-8.81-5.46l-.5.26a.65.65,0,1,1-.63-1.13,7,7,0,0,1,2.68-1,7.37,7.37,0,0,1,8.5,6.42,7.14,7.14,0,0,1-2.92,6.85,1.07,1.07,0,0,0-.47.95,21,21,0,0,1-.05,3.07,2.73,2.73,0,0,1-2.69,2.34c-.8,0-1.6,0-2.39,0A2.79,2.79,0,0,1,21,23.13C21,22.67,21,22.21,21,21.76Zm4,0c-.76,0-1.51,0-2.26,0-.29,0-.43.1-.41.4s0,.7,0,1a1.39,1.39,0,0,0,1.36,1.38c.86,0,1.73,0,2.59,0a1.4,1.4,0,0,0,1.35-1.35c0-.35,0-.7,0-1.05s-.1-.44-.42-.43C26.51,21.78,25.77,21.77,25,21.77Z"/><path class="cls-1" d="M13.68,12.61h1.21a.67.67,0,0,1,.73.61.65.65,0,0,1-.65.68c-.88,0-1.75,0-2.63,0a.62.62,0,0,1-.62-.66.66.66,0,0,1,.71-.63Z"/><path class="cls-1" d="M36.33,13.93c-.37,0-.75,0-1.13,0s-.8-.29-.8-.67.31-.64.82-.64h2.3c.48,0,.78.25.78.63s-.26.62-.71.68H36.33Z"/><path class="cls-1" d="M34.59,4.33a.64.64,0,0,1-.21.47c-.59.59-1.17,1.18-1.77,1.77a.64.64,0,0,1-1,0,.66.66,0,0,1,.05-.94c.58-.6,1.18-1.19,1.77-1.77a.64.64,0,0,1,.78-.15A.62.62,0,0,1,34.59,4.33Z"/><path class="cls-1" d="M18.56,6.16a.65.65,0,0,1-.36.57.52.52,0,0,1-.64-.05c-.68-.65-1.36-1.31-2-2a.57.57,0,0,1,.08-.84.58.58,0,0,1,.84,0c.33.29.64.61.95.92l.86.86A.79.79,0,0,1,18.56,6.16Z"/><path class="cls-1" d="M5.16,36.51c0-.26,0-.51,0-.77a.61.61,0,0,1,.58-.61.63.63,0,0,1,.67.56,5.63,5.63,0,0,1,0,1.69.62.62,0,0,1-.67.57.64.64,0,0,1-.6-.64c0-.27,0-.53,0-.8Z"/></g></g></svg>