<svg xmlns="http://www.w3.org/2000/svg" viewBox="0 0 55.27 14.42"><defs><style>.cls-1{fill:#00a365;}.cls-2{fill:#fff;}</style></defs><g id="Capa_2" data-name="Capa 2"><g id="Capa_1-2" data-name="Capa 1"><polygon class="cls-1" points="9.01 0 55.27 0 55.27 7.21 55.27 14.42 9.01 14.42 0 7.21 9.01 0"/><path class="cls-2" d="M17,10.71a3.17,3.17,0,0,1-1.68-.42,2.69,2.69,0,0,1-1.08-1.18,4.25,4.25,0,0,1-.37-1.82,4.19,4.19,0,0,1,.37-1.82,2.75,2.75,0,0,1,1.08-1.18A3.17,3.17,0,0,1,17,3.87a3.78,3.78,0,0,1,1.28.22,2.67,2.67,0,0,1,1,.63l-.3.64a2.78,2.78,0,0,0-.91-.59,2.63,2.63,0,0,0-1-.19,2.13,2.13,0,0,0-1.72.71,3,3,0,0,0-.6,2,3,3,0,0,0,.6,2A2.13,2.13,0,0,0,17,10,2.62,2.62,0,0,0,19,9.22l.3.64a2.67,2.67,0,0,1-1,.63A3.78,3.78,0,0,1,17,10.71Z"/><path class="cls-2" d="M22.29,10.71a2.31,2.31,0,0,1-1.17-.29,2,2,0,0,1-.76-.83,2.78,2.78,0,0,1-.27-1.26,2.8,2.8,0,0,1,.27-1.27,2,2,0,0,1,.76-.82,2.41,2.41,0,0,1,2.33,0,2,2,0,0,1,.76.82,2.8,2.8,0,0,1,.27,1.27,2.78,2.78,0,0,1-.27,1.26,2,2,0,0,1-.76.83A2.29,2.29,0,0,1,22.29,10.71Zm0-.62a1.28,1.28,0,0,0,1-.45,2,2,0,0,0,.38-1.31A2,2,0,0,0,23.32,7a1.28,1.28,0,0,0-1-.45,1.31,1.31,0,0,0-1,.45,2,2,0,0,0-.38,1.32,2,2,0,0,0,.38,1.31A1.31,1.31,0,0,0,22.29,10.09Z"/><path class="cls-2" d="M25.63,10.62V6h.75v1h-.1a1.54,1.54,0,0,1,.64-.83,2,2,0,0,1,1-.28,1.91,1.91,0,0,1,.91.2,1.22,1.22,0,0,1,.54.6,2.52,2.52,0,0,1,.18,1v2.86h-.76V7.81a1.94,1.94,0,0,0-.11-.7.78.78,0,0,0-.34-.41,1.21,1.21,0,0,0-.6-.13,1.54,1.54,0,0,0-.73.17,1.22,1.22,0,0,0-.48.5A1.55,1.55,0,0,0,26.4,8v2.62Z"/><path class="cls-2" d="M32.55,10.71a3.11,3.11,0,0,1-.69-.07,3.87,3.87,0,0,1-.63-.2,2.16,2.16,0,0,1-.49-.31L31,9.59a2.29,2.29,0,0,0,.5.3,2.55,2.55,0,0,0,.53.18,3.53,3.53,0,0,0,.56,0,1.36,1.36,0,0,0,.82-.2.62.62,0,0,0,.27-.53A.55.55,0,0,0,33.48,9a1.39,1.39,0,0,0-.57-.24l-.86-.19a1.61,1.61,0,0,1-.88-.42,1.1,1.1,0,0,1-.29-.79,1.21,1.21,0,0,1,.22-.73,1.56,1.56,0,0,1,.63-.48,2.52,2.52,0,0,1,.95-.17,3,3,0,0,1,.61.07,2.38,2.38,0,0,1,.55.19,1.52,1.52,0,0,1,.45.32L34,7.06a2,2,0,0,0-.41-.29,2.07,2.07,0,0,0-.47-.18,2,2,0,0,0-.48-.06,1.33,1.33,0,0,0-.81.21.66.66,0,0,0-.27.55.56.56,0,0,0,.17.43A1,1,0,0,0,32.3,8l.86.18a1.92,1.92,0,0,1,.92.42,1,1,0,0,1,.31.78,1.17,1.17,0,0,1-.23.72,1.36,1.36,0,0,1-.64.47A2.59,2.59,0,0,1,32.55,10.71Z"/><path class="cls-2" d="M37.18,10.71a2,2,0,0,1-.93-.2,1.29,1.29,0,0,1-.54-.61,2.35,2.35,0,0,1-.19-1V6h.77V8.88a1.65,1.65,0,0,0,.11.67.75.75,0,0,0,.34.4,1.29,1.29,0,0,0,.59.13A1.31,1.31,0,0,0,38,9.9a1.27,1.27,0,0,0,.46-.51,1.6,1.6,0,0,0,.17-.75V6h.77v4.59h-.75v-1h.12a1.6,1.6,0,0,1-.62.85A1.75,1.75,0,0,1,37.18,10.71Z"/><path class="cls-2" d="M42.26,10.71a1.31,1.31,0,0,1-1-.42,1.75,1.75,0,0,1-.36-1.19V4h.77V9a1.49,1.49,0,0,0,.09.56.67.67,0,0,0,.27.34.78.78,0,0,0,.44.12l.23,0,.2,0,0,.64-.29,0Z"/><path class="cls-2" d="M45.5,10.71a1.58,1.58,0,0,1-1.22-.44A1.74,1.74,0,0,1,43.87,9V6.63H43V6h.9V4.62h.77V6h1.45v.6H44.64V9a1.29,1.29,0,0,0,.22.82.92.92,0,0,0,.74.28,1.54,1.54,0,0,0,.3,0l.28-.08.13.59a2.21,2.21,0,0,1-.81.18Z"/><path class="cls-2" d="M48.41,10.71a1.8,1.8,0,0,1-.85-.19A1.52,1.52,0,0,1,47,10a1.3,1.3,0,0,1-.22-.72A1.17,1.17,0,0,1,47,8.5a1.51,1.51,0,0,1,.86-.42A8.8,8.8,0,0,1,49.51,8h.43v.5h-.42a8.73,8.73,0,0,0-1,0,2.07,2.07,0,0,0-.61.13.62.62,0,0,0-.33.25.7.7,0,0,0-.09.37.84.84,0,0,0,.27.64,1.05,1.05,0,0,0,.73.24,1.22,1.22,0,0,0,1.12-.67,1.53,1.53,0,0,0,.17-.72V7.67a1.22,1.22,0,0,0-.24-.85,1,1,0,0,0-.77-.26,2.74,2.74,0,0,0-.81.12,3,3,0,0,0-.79.38l-.27-.56A3.17,3.17,0,0,1,48.15,6a3.9,3.9,0,0,1,.66-.07,2.19,2.19,0,0,1,1,.2,1.25,1.25,0,0,1,.58.58,2.47,2.47,0,0,1,.18,1v2.89h-.71V9.56h.08a1.44,1.44,0,0,1-.29.61,1.48,1.48,0,0,1-.52.4A1.75,1.75,0,0,1,48.41,10.71Z"/></g></g></svg>