<svg xmlns="http://www.w3.org/2000/svg" viewBox="0 0 42.62 42.59"><defs><style>.cls-1{fill:#2f3146;}</style></defs><g id="Capa_2" data-name="Capa 2"><g id="Capa_1-2" data-name="Capa 1"><path class="cls-1" d="M21.47,0c.86.14,1.73.23,2.58.43a10.23,10.23,0,0,1,1.7.64.61.61,0,0,1,.39.87.62.62,0,0,1-.92.25,9,9,0,0,0-4.64-.87A8.87,8.87,0,0,0,14,15.25c.08.12.24.28.36.28a4,4,0,0,1,3.51,1.77L19.27,16l-.47-1.45c-.78,0-1.52.54-2.29.1s-.88-1.13-1.24-1.74c-.75-1.27.34-1.93,1-2.73-.42-.65-1.23-1-1.23-1.93a4.17,4.17,0,0,1,.9-2c.73-1.25,1.84-.63,2.84-.47.35-.69.28-1.59,1.05-2a4,4,0,0,1,2.12-.2c1.5,0,1.51,1.25,1.88,2.21.77,0,1.51-.54,2.28-.1S27,6.81,27.34,7.4a1.36,1.36,0,0,1,.05,1.54,14.33,14.33,0,0,1-1,1.22c.41.65,1.24,1,1.22,1.95a4.15,4.15,0,0,1-.88,1.9c-.72,1.3-1.84.69-2.88.52L23.34,16l1.37,1.3a4,4,0,0,1,2.49-1.68,2.35,2.35,0,0,1,.74-.07.71.71,0,0,0,.71-.38A8.88,8.88,0,0,0,27.68,4c-.05-.06-.12-.11-.17-.18a.62.62,0,1,1,.9-.85,9.25,9.25,0,0,1,2.06,2.9,10,10,0,0,1-.55,9.64,3.37,3.37,0,0,0-.19.32s0,0,0,0a4.06,4.06,0,0,1,1.21,6.43,2.77,2.77,0,0,0,.26.1,3.71,3.71,0,0,1,2.68,4,.62.62,0,0,1-1.24,0c0-.26,0-.53,0-.79a2.28,2.28,0,0,0-2.14-2c-1.36-.08-2.73,0-4.18,0a3.93,3.93,0,0,1,.86,2.73c0,.16,0,.31,0,.46,0,.49,0,1,0,1.46a1.42,1.42,0,0,0,.77,1.62,2.42,2.42,0,0,1,.91,3c-.05.14-.11.27-.19.47,1,0,1.92,0,2.86,0a1.07,1.07,0,0,0,.77-.3,1.1,1.1,0,0,0,.37-.95c0-.87,0-1.75,0-2.62,0-.46.23-.74.6-.75s.64.28.64.75,0,1.21,0,1.9c.17-.16.28-.25.38-.36,1.29-1.28,2.56-2.58,3.86-3.85a2.63,2.63,0,0,1,4.45,1.44,2.55,2.55,0,0,1-.81,2.38c-2.26,2.27-4.51,4.55-6.81,6.79a4.33,4.33,0,0,1-1.67,1c-3.19,1-6.4,2-9.6,3a9.05,9.05,0,0,1-3.55.22.6.6,0,0,1-.59-.67.57.57,0,0,1,.68-.56,9.36,9.36,0,0,0,4.26-.52c1.12-.39,2.27-.71,3.4-1.06,1.62-.5,3.24-1,4.84-1.52a3.47,3.47,0,0,0,1.37-.81c2.28-2.23,4.53-4.5,6.78-6.75a1.38,1.38,0,0,0,.42-1.51,1.34,1.34,0,0,0-1.16-.95,1.48,1.48,0,0,0-1.26.51c-2,2-4,4-5.93,5.95a1.46,1.46,0,0,1-1.14.48c-4,0-7.93,0-11.9,0a1,1,0,0,0-.9.38,2,2,0,0,1-.39.38.57.57,0,0,1-.82-.08.57.57,0,0,1,0-.8,7.41,7.41,0,0,1,1-1,1.06,1.06,0,0,1,.62-.15h6.7a2.53,2.53,0,0,0,.78-.1,1.39,1.39,0,0,0-.53-2.69c-1.87,0-3.74,0-5.61,0A2.33,2.33,0,0,1,19,29.87,6.52,6.52,0,0,0,15.41,28a5.86,5.86,0,0,0-4.3,1,14.88,14.88,0,0,0-1.25,1,.59.59,0,0,0-.2.37v9.53s0,.05,0,.11l2.42.17,4.69.29a4,4,0,0,1,.5.05.61.61,0,0,1-.1,1.22c-.48,0-.95-.06-1.42-.08l-8.64-.43c-.15,0-.3,0-.51,0,0,.24,0,.44,0,.64,0,.47-.23.7-.69.7-1.75,0-3.5,0-5.24,0-.24,0-.47-.23-.7-.36V28.31a.84.84,0,0,1,.75-.43H5.91c.48,0,.7.22.72.71,0,.2,0,.4,0,.6h2.1c0-1.11,0-2.19,0-3.27a3.67,3.67,0,0,1,2.65-3.53l.3-.11a4.07,4.07,0,0,1,1.22-6.44l-.14-.25A10.11,10.11,0,0,1,18.93.33c.7-.16,1.42-.22,2.13-.33ZM21.3,15.53h.37c.41.07.61-.11.69-.51a6.49,6.49,0,0,1,.23-.75c.37-1.19.4-1.21,1.61-.95.43.09.95.34,1.27.18s.51-.72.75-1.11v0c0-.18,0-.39-.06-.51a7.26,7.26,0,0,0-.7-.77c-.81-.9-.81-.94,0-1.84s.93-1,.23-2.18a.43.43,0,0,0,0-.07.35.35,0,0,0-.47-.21c-.34.09-.68.15-1,.23C23,7.27,23,7.25,22.6,6.09c-.43-1.35-.43-1.35-1.86-1.27a.58.58,0,0,0-.4.3,8,8,0,0,0-.31.94c-.37,1.19-.41,1.21-1.61.94-1.35-.29-1.35-.29-2,.94l0,0c0,.17,0,.39.07.51a6.68,6.68,0,0,0,.67.74c.84.93.84.95,0,1.87s-1,1.05-.17,2.25a.54.54,0,0,0,.46.19c.52-.08,1-.22,1.55-.33a.68.68,0,0,1,.87.49c.12.33.2.66.32,1C20.49,15.65,20.22,15.52,21.3,15.53Zm-20,13.62V41.3h4.1V29.15Zm24.63.07c0-1.13,0-2.19,0-3.26a2.37,2.37,0,0,0-2.39-2.45c-1.46,0-2.91,0-4.37,0a2.36,2.36,0,0,0-2.37,2,11.1,11.1,0,0,0,0,1.53,9.29,9.29,0,0,1,3.25,2,.84.84,0,0,0,.49.15c1.17,0,2.33,0,3.49,0Zm2.16-7a2.74,2.74,0,1,0-2.75-2.7A2.75,2.75,0,0,0,28.05,22.25Zm-13.52,0a2.73,2.73,0,1,0-2.69-2.77A2.72,2.72,0,0,0,14.53,22.25Zm6.78,0a2.74,2.74,0,1,0-2.74-2.75A2.75,2.75,0,0,0,21.31,22.25Zm-5,1.28c-1.47,0-2.87-.06-4.26,0a2.2,2.2,0,0,0-2.06,2c-.08.87,0,1.76,0,2.7a7.37,7.37,0,0,1,5.46-1.51A4.27,4.27,0,0,1,16.35,23.53Zm-9.68,7V40H8.38V30.49Z"/><path class="cls-1" d="M21.31,12.14a2,2,0,0,1-2-2,2,2,0,0,1,3.94,0A2,2,0,0,1,21.31,12.14Zm.72-2a.72.72,0,0,0-1.44,0,.74.74,0,0,0,.75.72A.75.75,0,0,0,22,10.14Z"/><path class="cls-1" d="M4,31.19a.7.7,0,0,1-.65.68.67.67,0,0,1-.69-.64.65.65,0,0,1,.66-.69A.67.67,0,0,1,4,31.19Z"/><path class="cls-1" d="M3.31,33.22a.69.69,0,0,1,.68.65.67.67,0,0,1-.69.68.65.65,0,0,1-.65-.67A.66.66,0,0,1,3.31,33.22Z"/></g></g></svg>