<svg xmlns="http://www.w3.org/2000/svg" viewBox="0 0 303.4 303.28"><defs><style>.cls-1{fill:#fff;}</style></defs><g id="Capa_2" data-name="Capa 2"><g id="Capa_1-2" data-name="Capa 1"><path class="cls-1" d="M286.77,0c2.37,1,4.91,1.61,7.07,2.9,6.12,3.68,9.24,9.29,9.49,16.41.12,3.46,0,6.92,0,10.37,0,12.31-4.92,18.82-17.05,22.22C291.67,61,290.69,71.1,290.7,81q0,60.29,0,120.58c0,16.26-9.1,29.62-23.88,34.55a41.44,41.44,0,0,1-12.77,2c-31.3.16-62.6.09-93.91.09h-4a22.16,22.16,0,0,0,.11,5.06c.2.78,1.47,1.59,2.41,1.85,11.59,3.23,19,10.67,21.79,22.3,3.82,15.8-7,32.39-22.75,35.32-17,3.16-32.68-7.77-35.15-24.46a29.3,29.3,0,0,1,20.16-32.53c5-1.59,5-1.59,4.22-7.54H72.43a18.12,18.12,0,0,1-3-.07,4.4,4.4,0,0,1-.4-8.66,14.9,14.9,0,0,1,3.54-.15q90.81,0,181.6,0c13.44,0,23.88-8,26.81-20.6a34.32,34.32,0,0,0,.75-7.64q.08-65.32,0-130.65c0-6.07-1.24-11.79-4.94-16.7-.7-.93-2.17-1.32-3.35-1.8a4.91,4.91,0,0,0-1.76,0q-120.13,0-240.26-.08c-3.15,0-4.86,1.07-6.3,3.66a29.12,29.12,0,0,0-3.66,14.46q0,65.91,0,131.83c0,16.44,11.44,27.53,27.94,27.57.89,0,1.78,0,2.67,0A4.44,4.44,0,0,1,56.58,234c-.11,2.39-1.85,4-4.48,4.23-22,1.65-39.36-14.35-39.42-36.48-.07-24,0-48,0-72,0-17.48.05-35,0-52.44,0-8.71-.26-17.42,4.52-25.49C7.7,50,2.45,44.22,0,35.55v-19A57.16,57.16,0,0,1,2.68,9.86c3-5.51,8-8.32,13.91-9.86ZM151.67,8.89h-117c-5,0-10.07-.06-15.1,0S10,12,9.47,16.82a76.67,76.67,0,0,0,0,18.23c.7,5.43,5.37,7.94,12.16,7.94H281.73a26.17,26.17,0,0,0,2.66-.07,10.66,10.66,0,0,0,10.07-10.78c.07-3.46,0-6.91,0-10.37,0-8.89-4-12.88-12.77-12.88Zm-.22,285.58A20.66,20.66,0,1,0,131,273.74,20.77,20.77,0,0,0,151.45,294.47Z"/><path class="cls-1" d="M240.66,99c6.41,0,12.33,0,18.25,0,7.73,0,12.6,4.74,12.78,12.46.09,4,.1,7.9,0,11.85-.21,7.53-5.1,12.28-12.63,12.34-6,.05-12,0-18.2,0v8.21c.9.05,1.83.13,2.77.13,5.33,0,10.66,0,16,0,6.59.05,11.54,4.48,11.95,11.07a122.31,122.31,0,0,1,0,14.2c-.37,6.69-5.25,11.19-12.07,11.34-5.13.12-10.27,0-15.4,0h-3.48c0,2.71.06,5.06,0,7.41a16.67,16.67,0,0,1-16.48,16.42c-7.6.14-15.2,0-22.8.05h-3.52c0,2,0,3.8,0,5.54-.14,7.79-5.52,13.25-13.27,13.32q-12.44.12-24.88,0c-8-.07-13.27-5.48-13.35-13.48,0-1.66,0-3.32,0-5.19h-9.44c0,2.38,0,4.8,0,7.22-.06,7-4.43,11.38-11.5,11.46-3.26,0-6.52,0-9.78,0-6.65-.1-11.07-4.52-11.22-11.19,0-2.45,0-4.9,0-7.68H94.09c-5.13,0-10.27.07-15.4,0a16.68,16.68,0,0,1-16.55-16.34c-.09-2.66,0-5.31,0-8C42.31,175.6,30,163.88,30,143.3S42.26,111,62.1,106.45c0-4.43,0-8.86,0-13.3C62.15,82,69,75.11,80.21,75c7.7-.07,15.4,0,23.1-.06a4.23,4.23,0,0,0,.8-.2c.19-1.23.35-2.56.61-3.88a13.28,13.28,0,0,1,13.14-11c14.81-.08,29.62,0,44.43,0,3.24,0,5.25,1.68,5.31,4.3s-2,4.55-5.4,4.56c-14,0-28,0-42.06,0-5.47,0-6.87,1.37-6.88,6.77,0,3.06-.05,6.12,0,9.18.09,3.72,1.79,5.5,5.46,5.51q33.61,0,67.23,0c3.37,0,5.19-1.76,5.29-5,.12-3.75.12-7.51,0-11.26-.1-3.34-1.91-5-5.22-5.13-1.68,0-3.36.06-5,0-2.77-.2-4.51-2-4.46-4.55s1.85-4.19,4.67-4.28c1.88-.07,3.76,0,5.63,0a13.4,13.4,0,0,1,13,10.92c.25,1.25.38,2.52.6,4.1,1,0,2,.14,3.08.14,6.42,0,12.84,0,19.26,0,11,.13,17.85,7,17.92,18C240.67,94.89,240.66,96.75,240.66,99ZM104.38,195.51c0-2.95-.09-5.69,0-8.42a10.58,10.58,0,0,1,10.83-10.61c3.55-.07,7.11-.06,10.66,0,6.55.11,10.9,4.48,11,11,0,2.63,0,5.26,0,8h9.44c0-2,0-3.84,0-5.69.08-7.87,5.32-13.21,13.18-13.28q12.59-.1,25.17,0c7.63.07,12.95,5.43,13.14,13.09.05,1.93,0,3.87,0,6,9.25,0,18.12.12,27-.06a7.29,7.29,0,0,0,6.78-6.42,84.19,84.19,0,0,0,.06-8.44c-6.35,0-12.45.08-18.55,0-6.79-.12-12-4.86-12.2-11.24-.17-4.73-.16-9.48,0-14.21A11.61,11.61,0,0,1,212.51,144c5.43-.08,10.86,0,16.29,0h2.81v-8.35c-6.26,0-12.35,0-18.45,0-5.91-.06-11-3.36-11.7-8.86a79.6,79.6,0,0,1,0-18.83c.63-5.45,5.7-8.88,11.32-8.93,6.28-.07,12.56,0,18.95,0,0-3,.15-5.51,0-8-.25-3.32-2.89-6.57-6.13-6.68-8.34-.28-16.71-.09-25.05-.09-1.16,12.13-8.53,15.48-17.66,15-7.49-.39-15-.08-22.51-.08-13.82,0-27.65,0-41.47,0-8.22,0-13.58-5-14.44-13-.06-.65-.19-1.3-.3-2-8.75,0-17.33-.13-25.9.07a7.17,7.17,0,0,0-7,6.75c-.24,5.21-.06,10.44-.06,15.91,9.22,1.47,17.1,5.44,23.18,12.54A36.73,36.73,0,0,1,96.11,165c-6.21,8.43-14.69,13.2-25,14.85,0,3.08-.16,5.94,0,8.77.26,3.56,3.15,6.76,6.68,6.85C86.54,195.65,95.3,195.51,104.38,195.51ZM94.3,143.21a27.86,27.86,0,0,0-55.71.14,27.86,27.86,0,1,0,55.71-.14Zm141.81-35.37c-7.4,0-14.79,0-22.19,0-3.3,0-4.15.9-4.17,4.24s0,6.9,0,10.35c0,3.28.95,4.28,4.18,4.28q22.33,0,44.67,0c3.17,0,4.14-.93,4.2-4,.07-3.64.07-7.3,0-10.94-.07-3.12-1-3.93-4.21-3.94C251.1,107.82,243.6,107.84,236.11,107.84Zm0,45c-7.49,0-15,0-22.48,0-2.76,0-3.95,1.22-3.9,3.93.06,3.65.07,7.3,0,11-.05,2.74,1.23,4,3.91,4h45.26c2.72,0,3.95-1.33,3.93-4,0-3.65.05-7.3,0-10.95-.06-3.1-1-3.91-4.2-3.92C251.1,152.83,243.61,152.85,236.11,152.85Zm-64,32.5c-4,0-8.09,0-12.14,0-3.36,0-4.73,1.34-4.75,4.6q-.07,9.91,0,19.84c0,3.22,1.47,4.65,4.75,4.67q12,.08,24,0c3.44,0,4.93-1.44,5-4.81q.09-9.76,0-19.54c0-3.41-1.45-4.73-4.95-4.76C180,185.32,176.07,185.35,172.12,185.35ZM128,199.69c0-3.85-.06-7.7,0-11.55,0-2-.81-2.86-2.82-2.81q-4.59.1-9.18,0c-2.09-.05-2.78,1-2.77,2.91q0,11.7,0,23.4c0,2,.84,2.9,2.86,2.86,3-.06,5.93-.07,8.89,0,2.12.05,3.07-.79,3-3C127.94,207.59,128,203.64,128,199.69Z"/><path class="cls-1" d="M164.26,273.69a12.58,12.58,0,1,1-12.64-12.46A12.5,12.5,0,0,1,164.26,273.69Zm-12.63,3.82a3.56,3.56,0,0,0,3.71-3.72,3.43,3.43,0,0,0-3.47-3.64,3.68,3.68,0,1,0-.24,7.36Z"/><path class="cls-1" d="M151.48,161.16H127.8c-3.61,0-5.75-1.77-5.66-4.57s2.14-4.31,5.63-4.31H175.7c3.43,0,5.52,1.71,5.53,4.42s-2.07,4.44-5.49,4.45C167.65,161.18,159.57,161.16,151.48,161.16Z"/><path class="cls-1" d="M151.55,120.38c-8,0-16,0-24,0-3.41,0-5.49-1.77-5.44-4.46s2.12-4.4,5.56-4.41q24,0,47.93,0c.29,0,.59,0,.89,0,2.87.23,4.82,2.18,4.69,4.68s-2,4.15-4.81,4.17C168.11,120.41,159.83,120.38,151.55,120.38Z"/><path class="cls-1" d="M151.76,131.94c8.18,0,16.37-.13,24.54.13a6.36,6.36,0,0,1,4.35,2.68c.62.93.2,3.16-.56,4.24a5.26,5.26,0,0,1-3.79,1.75q-24.54.16-49.1,0c-3.13,0-5.15-2-5-4.59s2-4.22,5.06-4.24C135.39,131.9,143.57,131.94,151.76,131.94Z"/><path class="cls-1" d="M66.55,140.47c-4.45,0-8.89,0-13.33,0-3.18,0-5.19-1.85-5.13-4.49s2-4.34,5-4.36q13.33-.07,26.66,0c3.23,0,5.11,1.78,5.07,4.52s-1.9,4.31-5.23,4.34C75.24,140.5,70.89,140.47,66.55,140.47Z"/><path class="cls-1" d="M66.59,146.1c4.34,0,8.69,0,13,0,3.4,0,5.16,1.6,5.18,4.36S83,154.92,79.7,155q-13.17.11-26.35,0c-3.23,0-5.23-1.81-5.26-4.4s2-4.41,5.48-4.44C57.91,146.06,62.25,146.09,66.59,146.1Z"/></g></g></svg>