<svg xmlns="http://www.w3.org/2000/svg" viewBox="0 0 41.47 41.47"><defs><style>.cls-1{fill:#2f3146;}</style></defs><g id="Capa_2" data-name="Capa 2"><g id="Capa_1-2" data-name="Capa 1"><path class="cls-1" d="M0,29.73c.7-1.86,1.44-2.4,4.25-3v-.94c0-.67,0-1.33,0-2a1.41,1.41,0,0,1,1.53-1.5h5.46a1.11,1.11,0,0,0,.61-.23c.82-.7,1.63-1.41,2.44-2.13a1.74,1.74,0,0,1,1.25-.47h4.51V16.2H18.2c-.59,0-1.19,0-1.78,0s-.74-.2-.74-.7c0-1.56,0-3.13,0-4.69,0-.47.23-.68.72-.68,1.06,0,2.13,0,3.2,0h.46V6.89h-8c-.68,0-.87-.18-.87-.86V.85c0-.66.19-.85.84-.85h4.21c.53,0,.83.22.82.62s-.29.59-.8.6H12.46V5.64H29V1.22H19.35a.62.62,0,0,1-.64-.59A.63.63,0,0,1,19.37,0h10c.7,0,.87.18.88.89V2.84h5.36a1.43,1.43,0,0,1,1.6,1.6c0,1.63,0,3.26,0,4.9,0,.33.11.43.43.47A5.06,5.06,0,0,1,40.42,11a2.73,2.73,0,0,1,0,4.3,5.09,5.09,0,0,1-2.82,1.21c-.31,0-.4.15-.39.46,0,1.6,0,3.21,0,4.82,0,1.17-.52,1.69-1.71,1.69-1.75,0-3.51,0-5.26,0a1.14,1.14,0,0,0-.64.24c-.84.7-1.66,1.43-2.47,2.15a1.74,1.74,0,0,1-1.19.44H21.33v7c1.15.19,2.28.34,3.4.58a7.36,7.36,0,0,1,3.07,1.38A2.6,2.6,0,0,1,29,37.78a2.84,2.84,0,0,1-1.23,1.84,8.65,8.65,0,0,1-3.71,1.52c-.72.15-1.46.23-2.19.33H19.6c-.15,0-.31-.06-.47-.07a12.78,12.78,0,0,1-4-1,4.43,4.43,0,0,1-2.44-2.06.49.49,0,0,0-.54-.34H5.93a1.48,1.48,0,0,1-1.68-1.69c0-.81,0-1.62,0-2.43,0-.27-.09-.35-.36-.4-1.79-.29-3.29-1-3.9-2.9Zm21.31-19.6h.43c1.1,0,2.19,0,3.28,0,.56,0,.77.2.78.74v4.58c0,.54-.22.75-.77.75H21.32v3.24h4.59a1.78,1.78,0,0,1,1.28.48c.8.72,1.62,1.43,2.44,2.13a1,1,0,0,0,.57.22c1.77,0,3.53,0,5.3,0,.39,0,.52-.12.51-.51,0-1.42,0-2.83,0-4.25,0-.89,0-.85-.88-1.11a11.64,11.64,0,0,1-2-.83.6.6,0,0,1-.26-.92c.22-.3.55-.33.93-.08l.1.06a5,5,0,0,0,5.24.06c1.46-.82,1.43-2.24,0-3.11l-.36-.19a5.12,5.12,0,0,0-3-.41A3.33,3.33,0,0,0,33,12.8a.59.59,0,0,1-1.06-.5A4.92,4.92,0,0,1,32.82,11a4.83,4.83,0,0,1,2.8-1.23c.28,0,.39-.12.39-.42Q36,7,36,4.52c0-.37-.12-.48-.49-.48-1.62,0-3.24,0-4.86,0l-.4,0c0,.68,0,1.31,0,1.95s-.18.87-.85.87H21.31ZM5.47,26.72l.55.09A5.18,5.18,0,0,1,8.68,28a2.73,2.73,0,0,1,0,4.3,5.15,5.15,0,0,1-2.82,1.21c-.3,0-.39.12-.39.42,0,.8,0,1.62,0,2.42,0,.37.13.47.48.47h6.23a.42.42,0,0,0,.46-.28,4.29,4.29,0,0,1,2.53-2.14.52.52,0,0,1,.68.28.56.56,0,0,1-.15.76,2.53,2.53,0,0,1-.36.2,9.85,9.85,0,0,0-1.07.7,1.26,1.26,0,0,0,0,2.16,3.49,3.49,0,0,0,1,.67,19,19,0,0,0,2.94.87,14.16,14.16,0,0,0,7.07-.51,4.81,4.81,0,0,0,2.13-1.27,1.11,1.11,0,0,0,0-1.69,5.42,5.42,0,0,0-1.3-.93,11.2,11.2,0,0,0-4.83-1c-1,0-2.07.11-3.11.18a.64.64,0,0,1-.75-.5A.61.61,0,0,1,18,33.6l.44-.07,1.66-.17v-7H15.61a1.88,1.88,0,0,1-1.36-.51c-.8-.73-1.62-1.43-2.44-2.13a.7.7,0,0,0-.42-.19H5.84c-.25,0-.37.08-.37.34Zm7.28-3.84c.83.73,1.63,1.44,2.44,2.13a.68.68,0,0,0,.41.1H25.88a.67.67,0,0,0,.38-.08c.82-.7,1.63-1.41,2.46-2.14-.83-.73-1.62-1.44-2.43-2.13a.72.72,0,0,0-.41-.1H15.59a.69.69,0,0,0-.38.08C14.39,21.44,13.59,22.15,12.75,22.88ZM16.9,15h7.66V11.37H16.9Zm-12.06,13a4.57,4.57,0,0,0-2.9.92,1.54,1.54,0,0,0,0,2.58,2.36,2.36,0,0,0,.36.26,5.13,5.13,0,0,0,5.23,0,2.12,2.12,0,0,0,.42-.32,1.5,1.5,0,0,0-.06-2.44A4.47,4.47,0,0,0,4.84,27.93Z"/><path class="cls-1" d="M20.74,2.84H23c.45,0,.71.22.72.59s-.25.62-.72.62H18.43c-.45,0-.71-.22-.72-.59s.26-.62.73-.62Z"/><path class="cls-1" d="M8.44,18.73c.07-.51-.14-1.21.64-1.21s.55.71.62,1.2c.47.12,1.25-.16,1.21.68s-.71.52-1.19.6c-.12.47.15,1.24-.69,1.2s-.51-.72-.59-1.19c-.47-.11-1.21.14-1.21-.66S8,18.82,8.44,18.73Z"/><path class="cls-1" d="M32.15,18.76c.39,0,.78,0,1.17,0a.6.6,0,1,1,0,1.2q-1.23,0-2.46,0a.57.57,0,0,1-.61-.61.58.58,0,0,1,.63-.59C31.32,18.75,31.73,18.76,32.15,18.76Z"/><path class="cls-1" d="M36.59,13.77H35.46a.61.61,0,1,1,0-1.21h2.31a.6.6,0,0,1,.66.6.61.61,0,0,1-.67.61Z"/><path class="cls-1" d="M20.77,36.82H23c.48,0,.74.23.73.62s-.25.59-.71.59H18.44c-.48,0-.74-.23-.73-.62s.26-.58.75-.59Z"/><path class="cls-1" d="M20.74,23.49c-.77,0-1.54,0-2.31,0-.46,0-.73-.24-.72-.63s.27-.58.72-.58c1.54,0,3.08,0,4.61,0,.45,0,.71.22.72.59s-.25.62-.72.62C22.27,23.5,21.5,23.49,20.74,23.49Z"/><path class="cls-1" d="M20.72,13.77H19.59a.61.61,0,0,1-.67-.6.6.6,0,0,1,.66-.61h2.3a.6.6,0,0,1,.67.6.61.61,0,0,1-.66.61Z"/><path class="cls-1" d="M4.86,29.55H6a.57.57,0,0,1,.64.57.6.6,0,0,1-.64.63q-1.17,0-2.34,0a.59.59,0,0,1-.64-.62c0-.36.25-.58.68-.59Z"/></g></g></svg>