<svg xmlns="http://www.w3.org/2000/svg" viewBox="0 0 26.22 23.97"><defs><style>.cls-1{fill:#fff;}</style></defs><g id="Capa_2" data-name="Capa 2"><g id="Capa_1-2" data-name="Capa 1"><path class="cls-1" d="M.75,3.36H.05a13.37,13.37,0,0,1,0-1.9A1.77,1.77,0,0,1,1.78,0H24.2a1.86,1.86,0,0,1,1.92,1.28,2.3,2.3,0,0,1,.1.69v16.3a1.85,1.85,0,0,1-1.95,1.95H16.5v1.47a11.37,11.37,0,0,1,1.19.16,1.65,1.65,0,0,1,1.41,1.59c0,.36-.1.53-.46.53h-11c-.36,0-.5-.17-.47-.53a1.75,1.75,0,0,1,1.7-1.65c.3,0,.59-.06.91-.08V20.22H2a1.87,1.87,0,0,1-2-2V4.88H.74V16.46H25.47V2A1.13,1.13,0,0,0,24.19.75H2A1.13,1.13,0,0,0,.75,2Zm0,13.89a9.79,9.79,0,0,0,0,1.33,1.29,1.29,0,0,0,.37.63,1.1,1.1,0,0,0,.88.27l8.17,0H24.42a1,1,0,0,0,1-.78,11.48,11.48,0,0,0,.08-1.44Zm15,3h-5.2v1.46h5.2Zm-7.79,3H18.29a.69.69,0,0,0-.51-.54,4,4,0,0,0-1-.18q-3.7,0-7.39,0a3.67,3.67,0,0,0-1,.17A.69.69,0,0,0,7.93,23.21Z"/><path class="cls-1" d="M11.62,18.71V18h3v.71Z"/></g></g></svg>