<svg xmlns="http://www.w3.org/2000/svg" viewBox="0 0 7.25 5.76"><defs><style>.cls-1{fill:#2b2d45;}</style></defs><g id="Capa_2" data-name="Capa 2"><g id="Capa_1-2" data-name="Capa 1"><path class="cls-1" d="M7.25,3.15c0,.15,0,.3-.06.45a4.25,4.25,0,0,1-.93,2,.32.32,0,0,1-.46,0,.33.33,0,0,1-.1-.5,5,5,0,0,0,.45-.68A3.5,3.5,0,0,0,5.87.87c-.08-.11-.16-.2-.24-.3a.34.34,0,0,1,0-.44A.33.33,0,0,1,6.12.06l.07.06a4.13,4.13,0,0,1,1,2.13c0,.14,0,.29.06.43Z"/><path class="cls-1" d="M3.63,2.92V5.1a.34.34,0,0,1-.3.36.31.31,0,0,1-.27-.09L1.59,4.15l-.25-.21a.28.28,0,0,0-.12,0H.37A.33.33,0,0,1,0,3.53V2.3a.33.33,0,0,1,.37-.37h.86a.25.25,0,0,0,.11,0L3.06.46a.33.33,0,0,1,.5,0,.4.4,0,0,1,.07.24Z"/><path class="cls-1" d="M5.65,2.89a2.63,2.63,0,0,1-.51,1.59.34.34,0,0,1-.46.09.35.35,0,0,1-.13-.49,2.69,2.69,0,0,0,.28-.53,1.91,1.91,0,0,0-.26-1.76.68.68,0,0,1-.12-.22.37.37,0,0,1,.22-.41.32.32,0,0,1,.4.11A2.52,2.52,0,0,1,5.65,2.89Z"/></g></g></svg>