<svg xmlns="http://www.w3.org/2000/svg" viewBox="0 0 47.93 47.3"><defs><style>.cls-1{fill:#fff;}</style></defs><g id="Capa_2" data-name="Capa 2"><g id="Capa_1-2" data-name="Capa 1"><path class="cls-1" d="M33.8,9.23H27.1a1.58,1.58,0,0,1-1.76-1.75v-6l-.56,0H3.05C1.93,1.5,1.5,2,1.5,3.08V44.24c0,1.12.44,1.56,1.57,1.56H32.21c1.15,0,1.59-.44,1.59-1.59V36.55a3.38,3.38,0,0,1,0-.45.69.69,0,0,1,.71-.68.7.7,0,0,1,.75.6,1.6,1.6,0,0,1,0,.44v7.86a2.76,2.76,0,0,1-3,3H3a2.76,2.76,0,0,1-3-3V3A2.75,2.75,0,0,1,2.94,0Q14.36,0,25.77,0a1.62,1.62,0,0,1,1,.38c2.69,2.42,5.34,4.86,8,7.29a1.37,1.37,0,0,1,.5,1.13c0,1.72,0,3.44,0,5.17v.2c0,.53-.31.87-.76.87s-.74-.33-.74-.87v-5ZM26.87,2.48V7.71h5.71Z"/><path class="cls-1" d="M36.76,34.21c-.41-.32-.77-.81-1.17-.85s-.78.39-1.16.63a10.29,10.29,0,1,1-5-19,10.22,10.22,0,0,1,9.85,11.31,27.32,27.32,0,0,1-.67,3.11l1.22,1c.66-.49.81-.49,1.44,0,.47.37.94.73,1.4,1.12a.75.75,0,1,1-.93,1.16c-.36-.27-.7-.55-1.07-.85l-2.28,2.86.21.21c1.59,1.27,3.18,2.55,4.78,3.81a1.85,1.85,0,0,0,3-1.07,1.77,1.77,0,0,0-.68-1.76c-.43-.36-.88-.7-1.32-1.06s-.53-.79-.23-1.16a.79.79,0,0,1,1.15,0c.47.37.94.73,1.39,1.12a3.33,3.33,0,0,1,.5,4.64,3.29,3.29,0,0,1-4.62.59c-1.92-1.47-3.8-3-5.68-4.5C36.47,35.12,36.45,34.87,36.76,34.21Zm1.07-9A8.8,8.8,0,1,0,28.89,34C32.78,34.05,37.85,30.88,37.83,25.23Zm0,5.45L36.64,32.2l1.08.86,1.19-1.48Z"/><path class="cls-1" d="M17.35,12.48H30.27c.49,0,.77.29.77.72a.73.73,0,0,1-.74.77,3.38,3.38,0,0,1-.45,0H4.91a2.32,2.32,0,0,1-.64-.06.73.73,0,0,1,.11-1.43,5,5,0,0,1,.55,0Z"/><path class="cls-1" d="M17.38,41.77H5a4.13,4.13,0,0,1-.5,0A.73.73,0,0,1,3.73,41a.75.75,0,0,1,.71-.76H30a2,2,0,0,1,.49,0,.7.7,0,0,1,.57.76.68.68,0,0,1-.65.69,3.21,3.21,0,0,1-.54,0Z"/><path class="cls-1" d="M12.46,34.82H4.86a3.32,3.32,0,0,1-.55,0,.6.6,0,0,1-.55-.65,1.37,1.37,0,0,1,.45-.74c.14-.11.41-.08.63-.08H20.29c.63,0,1,.27,1,.74s-.34.76-1,.76Z"/><path class="cls-1" d="M11.05,20.92H4.84a2.35,2.35,0,0,1-.59-.05.73.73,0,0,1,.06-1.41,3.2,3.2,0,0,1,.54,0H17.22a4.1,4.1,0,0,1,.5,0,.73.73,0,0,1,0,1.43,2.46,2.46,0,0,1-.54,0Z"/><path class="cls-1" d="M11,27.87H4.78c-.22,0-.49,0-.63-.09a1,1,0,0,1-.39-.67,1.22,1.22,0,0,1,.48-.66c.15-.11.41-.07.63-.07,4.11,0,8.21,0,12.32,0a1.34,1.34,0,0,1,.2,0c.62,0,.95.29.94.77s-.33.72-.93.73Z"/><path class="cls-1" d="M11,5.53c2.09,0,4.18,0,6.26,0a1.06,1.06,0,0,1,.66.12,1,1,0,0,1,.35.69,1.07,1.07,0,0,1-.47.61A1.29,1.29,0,0,1,17.2,7C13.09,7,9,7,4.87,7a2.08,2.08,0,0,1-.25,0c-.56,0-.9-.31-.89-.77s.33-.72.89-.72C6.76,5.52,8.89,5.53,11,5.53Z"/><path class="cls-1" d="M21.7,24.75a7.37,7.37,0,0,1,5.67-6.66.78.78,0,0,1,1,.54c.1.45-.15.79-.72.94A5.75,5.75,0,0,0,23.32,24c-.07.31-.09.62-.14.93a.74.74,0,0,1-.81.69A.78.78,0,0,1,21.7,24.75Z"/></g></g></svg>