<svg xmlns="http://www.w3.org/2000/svg" viewBox="0 0 327.28 258.75"><defs><style>.cls-1{fill:#fff;}</style></defs><g id="Capa_2" data-name="Capa 2"><g id="Capa_1-2" data-name="Capa 1"><path class="cls-1" d="M0,214.67c1.54-2.55,3.82-3.31,6.74-3.26,8.07.13,16.14,0,24.55,0v-12c0-5.75-.06-11.51,0-17.26a8.16,8.16,0,0,1,8-8.31q11.34-.24,22.69,0c4.9.1,8.15,3.85,8.2,9.17.06,8.21,0,16.41,0,24.61v3.64H88.1v-5.64c0-8.09.06-16.19-.08-24.29a4.48,4.48,0,0,0-1.63-3.3A96.67,96.67,0,0,1,46,133.28a7.67,7.67,0,0,0-.78-1c-3.76,3-7.54,5.84-11.13,8.93-.62.54-.77,2.07-.58,3a14.32,14.32,0,1,1-20.12-9.83,12.93,12.93,0,0,1,10.84-.45,3.82,3.82,0,0,0,4.53-.8c3.68-3.07,7.43-6.06,11.27-8.92a3.25,3.25,0,0,0,1.42-4c-7.17-27.32-3.41-53.13,12-76.78S90.61,5.37,118.58,1.21c33.42-5,61.74,5.5,84.89,29.94,8.67,9.15,14.87,19.92,19.38,32.22,3.75-2.54,7.43-4.8,10.82-7.43,2.93-2.27,5.62-2.32,8.85-.7,5,2.51,10.2,4.7,15.84,7.26V58.69q0-22.21,0-44.43c0-6.94,3.18-10.13,10.12-10.16,6.39,0,12.79,0,19.18,0s9.62,3.32,9.63,9.64c0,21.2,0,42.4-.05,63.6,0,2.22.47,3.67,2.72,4.27a8.81,8.81,0,0,1,2,.9c2.76,1.54,5.15,2.08,8.48.45,6.33-3.11,14,.82,16.16,7.54a12.38,12.38,0,0,1-8.55,15.81,12.08,12.08,0,0,1-15.29-9.7c-.5-3.44-2.18-4.63-5.28-5.32V211.45h3.39c7,0,14.06,0,21.09,0,3.22,0,5.31,2.08,5.26,4.82s-2,4.47-5.09,4.71c-1,.07-1.92,0-2.88,0H235.48c2.51,3.94,4.72,7.49,7,11s3.43,7.27,2.42,11.51c-1.79,7.57-15.76,16.64-23.37,15-4.21-.87-7.18-3.41-9.46-7-5.93-9.36-12-18.6-17.89-28a5,5,0,0,0-4.88-2.59q-90.93.09-181.87.09c-3.05,0-5.71-.38-7.44-3.2ZM154.41,77.56c0,4.13.1,8,0,11.77-.12,3.54-2,5.5-5,5.38-2.76-.11-4.43-2-4.51-5.49-.09-3.83-.05-7.67,0-11.5.05-6.6,3.22-9.83,9.75-9.88s12.78,0,19.17,0c6.72,0,9.88,3.26,9.92,10,0,3.88,0,7.77,0,12.29l8.48-5.79c8.72-6,8.72-6,4.74-15.83-11.16-27.77-41.36-46.08-70.87-42.25C97,30.06,77.32,46.11,67.4,73.68a61.59,61.59,0,0,0-2.69,30.91c3.49-2.74,6.68-5.19,9.8-7.71a5.43,5.43,0,0,1,6.77-.53c2.07,1.21,4.2,2.29,6.82,3.7,0-6,0-11.43,0-16.83.05-6.32,3.29-9.58,9.66-9.63,6,0,11.93,0,17.89,0,8.46,0,11.37,2.88,11.38,11.22,0,11.19.17,22.38-.11,33.55-.08,3.27,1.58,4.3,3.83,5.74s3.5-.08,5-1c.9-.56,1.7-1.31,2.65-1.78,4.79-2.36,7.78-5.69,6.47-11.48a3.49,3.49,0,0,1,.13-1.27,4.27,4.27,0,0,1,4.3-3.94,4.22,4.22,0,0,1,4.81,3.67,20.18,20.18,0,0,1,.28,3.81q0,22.53,0,45.06v3.27l1,.74c5.4-2.89,10.79-5.79,16.21-8.64,2-1.07,2.63-2.61,2.62-4.9-.09-22.15-.05-44.31-.06-66.46,0-1.14-.1-2.27-.16-3.57Zm113.53-.11v4.43q0,44.76,0,89.5a21.61,21.61,0,0,1-.11,3.51,4.35,4.35,0,0,1-4.25,4,4.2,4.2,0,0,1-4.79-3.31,16.16,16.16,0,0,1-.4-4.11c0-29.94-.26-59.88.17-89.81.1-6.6-1.36-10.42-7.91-12.25-4.14-1.16-8.16-4.93-11.95-4.58s-7.25,4.45-10.94,6.77c-1.58,1-2,2-1.55,3.9a88.35,88.35,0,0,1,1.45,29.85c-.57,4.4-1.33,8.78-2.05,13.5h3.92c8,0,11,2.92,11,10.91v81.42h17.88c0-2.38,0-4.51,0-6.64,0-3.73-.11-7.46.11-11.18a4.82,4.82,0,0,1,4.73-4.71c2.63,0,4.53,2,4.71,5,.07,1.17,0,2.34,0,3.52v14h19.68c0-.89.1-1.53.1-2.16q0-59.94,0-119.87a3.51,3.51,0,0,0,0-1.26c-.31-.69-.64-1.62-1.22-1.9C280.53,83.19,274.54,80.48,267.94,77.45Zm-59.21-4.39c1.54-1,2.61-1.92,3.81-2.56,1.73-.91,2-2,1.33-3.85-14-40-56-63.92-97.48-55.52a85.68,85.68,0,0,0-67.48,99.08c8.37,46.68,53.21,78,100,68.8,33.17-6.5,55.16-26.74,65.94-58.73,4.48-13.29,5.06-27,2.32-41.17a29.32,29.32,0,0,1-2.63,1.62c-2.84,1.37-3.5,3.26-3.15,6.58a74.69,74.69,0,0,1-6,39c-15.81,35.22-51.64,53.64-89.44,45.47a78.19,78.19,0,0,1-59.8-92.63c6.8-32.58,31.54-56.33,64.34-61.61,28-4.5,51.89,4.29,71.23,25C199.68,51.19,205.12,61.38,208.73,73.06Zm-31.38,106.5c.67,1.11,1.2,2,1.76,2.91l31.53,49.12c3.22,5,6.39,10,9.67,15,1.95,3,3.69,3.31,6.7,1.5,1.64-1,3.22-2.06,4.83-3.1,4.78-3.08,5-4.09,1.89-8.93q-20.16-31.4-40.33-62.8c-.61-1-1.25-1.89-1.89-2.85Zm52.59,32.1.73-.44V128.44a36.93,36.93,0,0,1-5,0c-2.69-.38-3.77.89-4.86,3.24-2.53,5.37-5.58,10.5-8.29,15.78a10.53,10.53,0,0,0-1.36,4.42q-.18,14.53,0,29.07a8.29,8.29,0,0,0,1.19,4.14c5.15,8.2,10.42,16.33,15.68,24.45A18.3,18.3,0,0,0,229.94,211.66Zm38-197.8c0,17.47,0,34.5.05,51.53a2.58,2.58,0,0,0,1.1,2c6,2.86,12.11,5.6,18.45,8.49v-62ZM117.09,162.23a4.59,4.59,0,0,0,.33-1c0-10.64.08-21.29,0-31.94a4.19,4.19,0,0,0-2-2.79c-3.72-2.27-7.57-4.31-11.38-6.43l-6.33-3.51c0,12.63,0,24.55,0,36.47A2.73,2.73,0,0,0,98.81,155,60.4,60.4,0,0,0,117.09,162.23ZM202,89.34c-5.74,3.92-10.88,7.51-16.11,11a4.37,4.37,0,0,0-2.18,4.18c.08,11.5,0,23,.05,34.49a27.34,27.34,0,0,0,.34,2.82C197.36,126.51,203.26,109.5,202,89.34Zm-141.57,122V183.54H41.11v27.82Zm56.79-95v-33H97.69c0,7,0,13.85,0,20.66a2.75,2.75,0,0,0,1.07,2C104.78,109.5,110.82,112.83,117.2,116.39Zm10,16.32v31.65c5.06-.27,9.9-.63,14.75-.73,2.44,0,3-1.09,2.93-3.33-.1-9.57,0-19.14,0-28.71,0-.81-.14-1.62-.27-3-1.91,1.31-3.54,2.26-5,3.44C135.86,135.15,132.05,137,127.23,132.71Zm-40,14.35.84-.41V119.37c0-8.56,0-8.61-7.74-12.48a3.77,3.77,0,0,0-3.24.25c-3,2.06-5.67,4.46-8.57,6.62-1.33,1-1.5,1.91-1,3.49a66.76,66.76,0,0,0,11.64,21.06C81.77,141.34,84.58,144.15,87.26,147.06Zm30.19,64.23c0-7.15,0-13.95,0-20.74a2.38,2.38,0,0,0-1.27-1.82c-6-1.67-12.07-3.2-18.26-4.81v27.37Zm56.72,0c0-3.86-.36-7.59.08-11.23.69-5.72-1.22-10.41-4.73-14.62a3.68,3.68,0,0,0-3-1.22,107.32,107.32,0,0,0-10.34,3.19c-.72.25-1.69,1.19-1.7,1.82-.12,7.3-.08,14.61-.08,22.06Zm-29.49-21.14H127.22v21.15h17.46ZM19.56,142.55a4.93,4.93,0,0,0-4.82,4.59,4.78,4.78,0,0,0,4.8,4.88,4.87,4.87,0,0,0,4.69-4.71A5,5,0,0,0,19.56,142.55ZM319,94.48c-1.95-1.4-3.11-2.88-4.08-2.76a4.12,4.12,0,0,0-2.63,2.78c-.15.64,1.56,2.38,2.5,2.43S317,95.72,319,94.48Z"/></g></g></svg>