<svg xmlns="http://www.w3.org/2000/svg" viewBox="0 0 58.08 49.18"><defs><style>.cls-1{fill:#fff;}</style></defs><g id="Capa_2" data-name="Capa 2"><g id="Capa_1-2" data-name="Capa 1"><path class="cls-1" d="M0,2.36c.09-.23.17-.46.28-.68A3,3,0,0,1,3.13,0H54.85A3,3,0,0,1,58,2.4a4.48,4.48,0,0,1,0,.73V35.46A2.89,2.89,0,0,1,55,38.56H46.9c-.59,0-.95-.32-1-.82a.87.87,0,0,1,1-.88H55a1.22,1.22,0,0,0,1.36-1.37V29.4H1.7v6c0,1.1.41,1.5,1.52,1.5H43.14a1,1,0,0,1,1,.55.83.83,0,0,1-.83,1.15H39.42c-1.36,0-2.73,0-4.09,0-.45,0-.57.16-.62.57a5.38,5.38,0,0,0,2,5,1.49,1.49,0,0,0,.75.28c.31.05.64,0,1,0A2.67,2.67,0,0,1,41,46.39c.13.39.31.77.42,1.17a1.22,1.22,0,0,1-1,1.61,4.34,4.34,0,0,1-.51,0c-7.2,0-14.41,0-21.61,0A2.27,2.27,0,0,1,17,48.78a1.12,1.12,0,0,1-.35-.94,9.35,9.35,0,0,1,.91-2.3,2.34,2.34,0,0,1,2.31-1.06,2.56,2.56,0,0,0,2.49-1.3,5.47,5.47,0,0,0,1-4.18c-.06-.48-.35-.44-.68-.44-6.33,0-12.66,0-19,0C1.87,38.6.62,38,0,36.28ZM4.88,4.91V19.09a4.34,4.34,0,0,1,0,.51.83.83,0,0,1-.83.78.85.85,0,0,1-.86-.81c0-.15,0-.3,0-.45V4.48c0-1.07.22-1.3,1.29-1.3H53.64c1,0,1.26.24,1.26,1.27V27.64h1.48V3.24c0-1.11-.43-1.54-1.55-1.54H3.27c-1.15,0-1.57.42-1.57,1.57V27.63H3.18V27c0-1.32,0-2.64,0-4A.84.84,0,0,1,4,22.09c.49,0,.82.36.85.94v4.6H53.17V4.91ZM33.05,38.59H25a7.2,7.2,0,0,1-1.46,5.83h11A7.17,7.17,0,0,1,33.05,38.59ZM18.58,47.42H39.5c-.24-1-.5-1.26-1.47-1.26h-18C19.08,46.16,18.82,46.38,18.58,47.42Z"/><path class="cls-1" d="M29.05,32.29c.38,0,.76,0,1.13,0a.77.77,0,0,1,.76.77.73.73,0,0,1-.65.86,18.51,18.51,0,0,1-2.47,0,.74.74,0,0,1-.68-.84.77.77,0,0,1,.78-.8c.38,0,.76,0,1.13,0Z"/></g></g></svg>