<svg xmlns="http://www.w3.org/2000/svg" viewBox="0 0 41.04 54.09"><g id="Capa_2" data-name="Capa 2"><g id="Capa_1-2" data-name="Capa 1"><path d="M18.29,54.09c-1.08-.11-2.17-.19-3.24-.32-4-.5-7.85-1.32-11.3-3.47a13.05,13.05,0,0,1-2.58-2.23A4.44,4.44,0,0,1,0,44.82c0-.46,0-.92,0-1.37a.77.77,0,0,1,.83-.77.77.77,0,0,1,.74.8,8.34,8.34,0,0,1,0,1A4,4,0,0,0,3.1,47.87,13.16,13.16,0,0,0,7,50.19a31.38,31.38,0,0,0,8.9,2.09,44.93,44.93,0,0,0,12.2-.41,22.79,22.79,0,0,0,8.14-2.77,13,13,0,0,0,2.27-1.85,3.28,3.28,0,0,0,.93-2.51c0-1.76,0-3.52,0-5.28v-.6c-.42.35-.75.65-1.11.93a18.46,18.46,0,0,1-6.67,3,44,44,0,0,1-16.8,1.05,33.17,33.17,0,0,1-8.62-2.12A13.8,13.8,0,0,1,1.85,39a2,2,0,0,0-.24-.17c0,.35,0,.62,0,.89a.79.79,0,0,1-.77.79.75.75,0,0,1-.79-.75c.08-2-.29-4,.25-6a.81.81,0,0,0,0-.31A23.25,23.25,0,0,1,0,31.11c0-2.79,0-5.57,0-8.35,0-1.42.09-2.82,0-4.25-.13-3.06,0-6.13,0-9.19A5.28,5.28,0,0,1,1.39,5.71c.41-.47.86-.54,1.23-.22s.36.76,0,1.22C1.2,8.51,1.28,10,2.92,11.6a13.58,13.58,0,0,0,5.34,3,38.27,38.27,0,0,0,13.36,1.8,34.88,34.88,0,0,0,12.29-2.22A13.32,13.32,0,0,0,37.72,12c2.22-1.9,2.24-4,0-5.88a15.39,15.39,0,0,0-5.7-2.89A40.25,40.25,0,0,0,18.33,1.65,35.35,35.35,0,0,0,8.39,3.39c-.9.31-1.76.7-2.63,1.08-.66.29-1.08.22-1.31-.27s0-.84.59-1.15A27.77,27.77,0,0,1,13.29.58a44.53,44.53,0,0,1,17.4.6A19.88,19.88,0,0,1,38.32,4.5a6.06,6.06,0,0,1,2.62,3.94,5.83,5.83,0,0,1,.05.84c0,3.09.06,6.19,0,9.29,0,1.28,0,2.55,0,3.83.09,3.1.13,6.2,0,9.29-.07,1.41,0,2.8,0,4.21,0,2.85,0,5.7,0,8.55a5.79,5.79,0,0,1-2.23,4.78,17.9,17.9,0,0,1-6.86,3.37A38.21,38.21,0,0,1,23.29,54a5.43,5.43,0,0,0-.56.09ZM1.61,12.62c0,2,0,3.85,0,5.73a4,4,0,0,0,1.25,3,11.42,11.42,0,0,0,3.51,2.3,32.3,32.3,0,0,0,12,2.52,41.91,41.91,0,0,0,13.37-1.4,1.05,1.05,0,0,1,.85.21c.48.42.22,1.15-.49,1.3-2,.42-3.94.91-5.94,1.17a43.26,43.26,0,0,1-16.38-1,18.5,18.5,0,0,1-7.15-3.24c-.28-.22-.54-.46-.81-.69a1.49,1.49,0,0,0,.14.74,5.91,5.91,0,0,0,2.15,2.34,17.67,17.67,0,0,0,5.81,2.55,42.79,42.79,0,0,0,19.81.37,18.79,18.79,0,0,0,7.16-2.84,13.42,13.42,0,0,0,2.05-2,3.94,3.94,0,0,0,.5-1.1l-.13-.06a4.32,4.32,0,0,1-.39.34c-1,.64-2,1.31-3,1.92a.76.76,0,0,1-1.09-.29.81.81,0,0,1,.39-1.11c.14-.08.29-.13.42-.22.89-.65,1.83-1.24,2.66-2a3.49,3.49,0,0,0,1.13-2.79c0-1.78,0-3.56,0-5.34,0-.14,0-.28,0-.51a13.14,13.14,0,0,1-4.15,2.74A36,36,0,0,1,22.38,18a41.34,41.34,0,0,1-8.89-.51C9.21,16.73,5,15.72,1.61,12.62Zm0,13.14c0,.22,0,.38,0,.54,0,1.74,0,3.49,0,5.23a3.73,3.73,0,0,0,1.15,2.85,11,11,0,0,0,1.53,1.28,23.81,23.81,0,0,0,9.46,3.22,44.6,44.6,0,0,0,11,.31A31.38,31.38,0,0,0,34,37.09a11.9,11.9,0,0,0,4.29-2.73,3.82,3.82,0,0,0,1.12-2.81c0-1.74,0-3.48,0-5.22v-.6c-.41.34-.71.63-1,.88a17.82,17.82,0,0,1-6.35,3,43.82,43.82,0,0,1-19.66.77C8.48,29.67,4.72,28.59,1.64,25.76Zm37.7,9.92c-3.17,2.33-4.57,3-7.64,3.85a44,44,0,0,1-20.94.36,18.47,18.47,0,0,1-8.93-4.14l-.22,0a5,5,0,0,0,.58,1.21,11.68,11.68,0,0,0,2,1.89A21.89,21.89,0,0,0,13,42,44.24,44.24,0,0,0,25,42.45a31.74,31.74,0,0,0,8.81-2,12.05,12.05,0,0,0,4.56-2.87A3.62,3.62,0,0,0,39.34,35.68Z"/><path d="M13.8,48.69a27.92,27.92,0,0,1-10-3.23.8.8,0,1,1,.81-1.36A25.48,25.48,0,0,0,13.37,47c.25,0,.49.06.73.12a.79.79,0,0,1,.62.91A.81.81,0,0,1,13.8,48.69Z"/><path d="M36.05,45.07a.76.76,0,0,1-.73.8.8.8,0,0,1-.84-.75.83.83,0,0,1,.8-.82A.78.78,0,0,1,36.05,45.07Z"/><path d="M30.36,46a.79.79,0,0,1,.78.81.82.82,0,0,1-.79.77.79.79,0,0,1-.77-.83A.77.77,0,0,1,30.36,46Z"/><path d="M13.7,22.43a27.59,27.59,0,0,1-9.88-3.22.79.79,0,1,1,.76-1.38,26,26,0,0,0,9.11,3,2.7,2.7,0,0,1,.41.08.74.74,0,0,1,.61.9C14.66,22.22,14.32,22.46,13.7,22.43Z"/><path d="M35.28,18.07a.76.76,0,0,1,.77.76.79.79,0,0,1-.78.81.82.82,0,0,1-.79-.77A.79.79,0,0,1,35.28,18.07Z"/><path d="M29.58,20.46a.77.77,0,0,1,.77-.76.8.8,0,0,1,.79.82.78.78,0,0,1-.84.74A.74.74,0,0,1,29.58,20.46Z"/><path d="M14.72,34.57c0,.7-.39,1.08-.89,1a28.53,28.53,0,0,1-9.7-3,3.14,3.14,0,0,1-.57-.38.72.72,0,0,1-.15-.91.75.75,0,0,1,.89-.4,1.08,1.08,0,0,1,.29.13,25.59,25.59,0,0,0,9,3,1.49,1.49,0,0,1,.57.12A5,5,0,0,1,14.72,34.57Z"/><path d="M36.05,32a.78.78,0,0,1-.8.74.8.8,0,0,1-.77-.83.82.82,0,0,1,.81-.75A.79.79,0,0,1,36.05,32Z"/><path d="M30.29,34.4a.78.78,0,0,1-.71-.87.75.75,0,0,1,.83-.69.78.78,0,0,1,.73.8A.81.81,0,0,1,30.29,34.4Z"/></g></g></svg>