<svg xmlns="http://www.w3.org/2000/svg" viewBox="0 0 43.42 43.52"><defs><style>.cls-1{fill:#1a1a1a;}</style></defs><g id="Capa_2" data-name="Capa 2"><g id="Capa_1-2" data-name="Capa 1"><path class="cls-1" d="M22,0a1.11,1.11,0,0,1,.59,1.05c0,1.15,0,2.29,0,3.44a1.52,1.52,0,0,1-.06.42.88.88,0,0,1-1,.63.81.81,0,0,1-.75-.83c0-1.3,0-2.6,0-3.9A1,1,0,0,1,21.29,0Z"/><path class="cls-1" d="M22.66,34.15H20.24a1.6,1.6,0,0,0-1.24.52c-.86.88-1.74,1.75-2.62,2.61a.55.55,0,0,0-.14.7,2.82,2.82,0,0,1-.65,3.21c-.5.51-1,1-1.54,1.52a2.84,2.84,0,0,1-3.76.19,20,20,0,0,1-2.17-2.15.83.83,0,0,1,0-1.25.87.87,0,0,1,1.26,0c.58.55,1.14,1.13,1.72,1.7a1.16,1.16,0,0,0,1.85,0l1.2-1.2a1.11,1.11,0,0,0,0-1.82Q9.95,34,5.71,29.72l-.21-.21c-.89-.87-1.32-.86-2.2,0-.36.36-.73.72-1.08,1.08a1.13,1.13,0,0,0,0,1.73C2.8,32.92,3.41,33.5,4,34.1a.9.9,0,0,1-.42,1.54.87.87,0,0,1-.85-.27c-.66-.64-1.33-1.27-1.95-1.95a2.86,2.86,0,0,1,.07-4c.51-.53,1-1.06,1.57-1.56a2.7,2.7,0,0,1,2.85-.69A.57.57,0,0,0,5.92,27Q7,25.92,8.11,24.84c.22-.2.24-.34,0-.59a3,3,0,0,1,.93-4.61c.25-.14.26-.25.15-.49A3,3,0,0,1,10.9,15c.23-.09.33-.16.29-.45a3,3,0,0,1,1.92-3.28c.28-.11.36-.24.31-.53A3,3,0,0,1,17,7.42a.88.88,0,0,0,.78-.15,2.5,2.5,0,0,1,2-.28c2,.34,3.92.72,5.88,1.08a3.41,3.41,0,0,0,.55,0,3,3,0,0,1,3,3.41c0,.29,0,.39.28.5a2.9,2.9,0,0,1,1.94,3.2.44.44,0,0,0,.35.55A3,3,0,0,1,33.56,19a.35.35,0,0,0,.25.45,3,3,0,0,1,1.24,4.86c-.13.16-.14.27,0,.42l2.41,2.4a.32.32,0,0,0,.41.07,2.88,2.88,0,0,1,3.33.77c.39.41.8.8,1.2,1.2a2.92,2.92,0,0,1,0,4.43l-3.55,3.54L33.6,42.41a2.93,2.93,0,0,1-4.44.05c-.52-.5-1-1-1.51-1.55A2.74,2.74,0,0,1,27.16,38a.44.44,0,0,0-.11-.56Q25.57,36,24.11,34.48a.8.8,0,0,0-.65-.24h-.8Zm.6-19.94a3,3,0,0,1-2.48,3c-.29,0-.48.12-.55.46a2.88,2.88,0,0,1-2.54,2.53.47.47,0,0,0-.44.43,2.93,2.93,0,0,1-2.56,2.57.46.46,0,0,0-.43.43,3,3,0,0,1-4.18,2.31.46.46,0,0,0-.59.12c-.71.73-1.43,1.45-2.17,2.16-.24.23-.23.37,0,.6L14.54,36c.24.25.38.22.61,0,.9-.92,1.82-1.82,2.72-2.73a2.84,2.84,0,0,1,1.51-.81,6.12,6.12,0,0,1,1.86-.07c.65.07,1.3,0,2,.07a2.5,2.5,0,0,0,2.11-.9,2.71,2.71,0,0,1,.42-.41.92.92,0,0,1,1.3,0,.9.9,0,0,1,0,1.26c-.32.34-.66.67-1,1-.19.16-.2.25,0,.42.76.75,1.53,1.51,2.28,2.28.18.19.3.18.48,0l7.35-7.35c.17-.16.19-.27,0-.45-.75-.72-1.5-1.46-2.24-2.2-.22-.23-.36-.2-.54,0a1.37,1.37,0,0,1-.6.46.9.9,0,0,1-1-.36.87.87,0,0,1,.11-1.09c.61-.64,1.25-1.24,1.85-1.88a1.24,1.24,0,0,0,.06-1.78,1.22,1.22,0,0,0-1.78.1c-.17.16-.34.34-.51.51a1,1,0,0,1-1.42.12c-.4-.41-.35-.91.15-1.41s.89-.88,1.31-1.33a1.2,1.2,0,0,0,0-1.71,1.21,1.21,0,0,0-1.72,0c-.27.25-.52.52-.79.77a.93.93,0,0,1-.8.3.86.86,0,0,1-.72-.58.88.88,0,0,1,.2-.95c.49-.49,1-1,1.47-1.47A1.22,1.22,0,0,0,29.19,14a1.24,1.24,0,0,0-1.81.12l-.64.63a.9.9,0,1,1-1.26-1.27c.48-.49,1-1,1.46-1.47a1.24,1.24,0,0,0,0-1.76,1.26,1.26,0,0,0-1.72.06c-.73.72-1.44,1.45-2.17,2.16a.35.35,0,0,0-.09.48A2.69,2.69,0,0,1,23.26,14.21ZM28.78,39a1,1,0,0,0,.33.85c.46.47.93.94,1.41,1.4a1.12,1.12,0,0,0,1.69,0l9-9a1.13,1.13,0,0,0,0-1.72c-.43-.44-.87-.88-1.32-1.31a1.12,1.12,0,0,0-1.75,0c-.61.59-1.2,1.19-1.8,1.79L29.25,38.1A1.16,1.16,0,0,0,28.78,39ZM13,14.18a1.2,1.2,0,0,0,.46.91l2.85,2.84a1.72,1.72,0,0,0,.4.31,1.19,1.19,0,0,0,1.49-1.82c-1.07-1.1-2.15-2.17-3.24-3.23A1.12,1.12,0,0,0,13.63,13,1.13,1.13,0,0,0,13,14.18Zm3.55-5a1.18,1.18,0,0,0-1.21.68,1.12,1.12,0,0,0,.22,1.33c.53.56,1.08,1.09,1.62,1.63.75.75,1.49,1.51,2.26,2.24a1.18,1.18,0,0,0,1.95-.41.88.88,0,0,0-.53-1.25,7,7,0,0,1-3.65-3.68C17,9.33,16.8,9.17,16.53,9.18Zm-1,11a1.17,1.17,0,0,0-.25-.75,30.5,30.5,0,0,0-2.61-2.6,1.18,1.18,0,0,0-1.58.14,1.15,1.15,0,0,0,0,1.58c.81.86,1.65,1.7,2.51,2.51a1.1,1.1,0,0,0,1.31.14A1.17,1.17,0,0,0,15.49,20.22Zm-4.18,4.13a1.11,1.11,0,0,0,1-.65,1.08,1.08,0,0,0-.13-1.27,10.8,10.8,0,0,0-1-1,1.19,1.19,0,0,0-2,.95A2.88,2.88,0,0,0,11.31,24.35ZM19.5,8.77c-.71,0-.77,0-.57.45a5.79,5.79,0,0,0,2.17,2.3.27.27,0,0,0,.38,0l1.74-1.73c.14-.14.12-.25-.09-.29Z"/><path class="cls-1" d="M32.36,5.1a.9.9,0,0,1-.77-1.29,1.44,1.44,0,0,1,.31-.39Q33.34,2,34.81.51A.9.9,0,0,1,36.37.9a.91.91,0,0,1-.29.88c-.34.36-.69.71-1,1.06L33.1,4.74A1.07,1.07,0,0,1,32.36,5.1Z"/><path class="cls-1" d="M11.79,4.21a.94.94,0,0,1-.54.8.85.85,0,0,1-1-.19C9.62,4.21,9,3.6,8.41,3,8,2.58,7.58,2.18,7.18,1.76A.87.87,0,0,1,7.12.48.88.88,0,0,1,8.44.5c1,1,2,2,3,3A1.1,1.1,0,0,1,11.79,4.21Z"/><path class="cls-1" d="M6.8,37.39a.88.88,0,1,1-1.76,0,.88.88,0,1,1,1.76,0Z"/><path class="cls-1" d="M29,28.17a.89.89,0,1,1,0,1.78.93.93,0,0,1-.9-.89A.91.91,0,0,1,29,28.17Z"/></g></g></svg>