<svg xmlns="http://www.w3.org/2000/svg" viewBox="0 0 32.48 38.37"><defs><style>.cls-1{fill:#fff;}</style></defs><g id="Capa_2" data-name="Capa 2"><g id="Capa_1-2" data-name="Capa 1"><path class="cls-1" d="M12,38.37a.89.89,0,0,1-.4-.69c-.26-1.52-.54-3-.8-4.56-.05-.28-.14-.33-.42-.31a7.61,7.61,0,0,1-3.18-.25A3.74,3.74,0,0,1,4.76,30.1a53.55,53.55,0,0,1-1.42-5.88A2.44,2.44,0,0,1,3.28,24c0-.33-.19-.4-.49-.39s-.83,0-1.24,0A1.46,1.46,0,0,1,.14,21.46c.63-1.56,1.27-3.11,1.92-4.67A67.89,67.89,0,0,0,4.63,9.58a14.16,14.16,0,0,1,3.2-5.7A11.3,11.3,0,0,1,14.18.34,17,17,0,0,1,26,2.2l.23.14c.46.28.59.6.39.94s-.54.37-1,.1a14.78,14.78,0,0,0-1.42-.75,15.93,15.93,0,0,0-5.93-1.39A13.8,13.8,0,0,0,12.82,2,10.77,10.77,0,0,0,6.91,7.26a14.87,14.87,0,0,0-1.38,3.47A49,49,0,0,1,3.28,17c-.64,1.59-1.3,3.17-1.95,4.74-.22.54-.13.67.45.68H3.54c.54,0,.7.14.81.68.39,2,.79,4,1.34,5.94a5.7,5.7,0,0,0,.41,1.16,3,3,0,0,0,2.38,1.43,8,8,0,0,0,2.49-.1c.57-.09.82.07.92.63.26,1.44.51,2.87.77,4.31.16.89,0,.76.88.76H26.45c.34,0,.47,0,.4-.43-.17-.88-.29-1.77-.42-2.66,0-.08,0-.17,0-.26a.64.64,0,0,1,.49-.76.62.62,0,0,1,.7.58c.12.71.23,1.42.34,2.14.08.55.14,1.11.25,1.66a.86.86,0,0,1-.27.88Z"/><path class="cls-1" d="M15.66,14.11c.47,0,.94,0,1.42,0,.31,0,.41-.11.4-.41a13.45,13.45,0,0,1,0-1.42c0-.34-.1-.37-.39-.3a2.39,2.39,0,0,1-2.38-3.83,2.27,2.27,0,0,1,2.4-.84c.34.08.38,0,.37-.3q0-.75,0-1.5c0-.26-.09-.32-.33-.3A9.52,9.52,0,0,0,12.39,7c-.12.08-.22.17-.33.25-.37.27-.69.26-.92,0s-.18-.61.18-.91a10,10,0,0,1,2.25-1.39A10.72,10.72,0,0,1,28.22,11.2a10.24,10.24,0,0,1-2.07,10.62,10.41,10.41,0,0,1-8.71,3.68,10.81,10.81,0,0,1-10-8.93,10.69,10.69,0,0,1,2-8.31l.14-.18a.6.6,0,0,1,1,.72c-.24.37-.51.72-.73,1.09a9.18,9.18,0,0,0-1.26,3.73c-.05.44,0,.49.45.49h2.55a2.88,2.88,0,0,1,.41,0,.6.6,0,0,1,.33,1.07,1.21,1.21,0,0,0-.46,1.33,1.14,1.14,0,0,0,1,.85,1.18,1.18,0,0,0,1.2-.6,1.2,1.2,0,0,0-.11-1.33l-.08-.09c-.28-.23-.53-.49-.35-.89s.56-.36.91-.36Zm1.81,3.13c0-.49,0-1,0-1.46,0-.33-.08-.47-.43-.45a13.64,13.64,0,0,1-1.43,0c-.28,0-.38,0-.31.37a2.39,2.39,0,1,1-4.68,0c.08-.35,0-.38-.32-.37-.43,0-.87,0-1.3,0s-.52,0-.46.52a9.24,9.24,0,0,0,1.11,3.47,9.47,9.47,0,0,0,7.16,4.9c.65.09.65.09.65-.57,0-.91,0-1.82,0-2.73a.62.62,0,0,1,.4-.65.6.6,0,0,1,.7.23,1.07,1.07,0,0,0,.18.19A1.18,1.18,0,0,0,20.36,19a1.16,1.16,0,0,0-1.77.15.66.66,0,0,1-.73.24.6.6,0,0,1-.39-.65C17.48,18.21,17.47,17.73,17.47,17.24Zm3.05-1.91c-.48,0-.95,0-1.42,0s-.48.07-.46.43,0,.83,0,1.24-.11.56.51.45a2.4,2.4,0,1,1-.13,4.7c-.32-.07-.4,0-.39.31a11.21,11.21,0,0,1,0,1.42c0,.32.11.42.42.38A9.54,9.54,0,0,0,25.3,21a9.42,9.42,0,0,0,2.27-5.16c.06-.45,0-.49-.43-.5H24.52c-.35,0-.7,0-.87-.37s.06-.64.33-.87a.86.86,0,0,0,.13-.14,1.19,1.19,0,0,0-1.23-1.86,1.18,1.18,0,0,0-.5,2.05c.25.23.42.48.27.82s-.43.37-.75.37Zm-1.87-3.09c0,.51,0,1,0,1.54,0,.24.08.33.32.33h1.5c.3,0,.41,0,.34-.39a2.39,2.39,0,1,1,4.68,0c-.06.28,0,.36.27.35h1.31c.53,0,.56,0,.49-.59A9.61,9.61,0,0,0,19,5.21c-.32,0-.38.08-.38.37,0,1,0,2,0,2.95a.59.59,0,0,1-.39.65.62.62,0,0,1-.73-.25l-.14-.16A1.21,1.21,0,0,0,16,8.62,1.23,1.23,0,0,0,15.44,10a1.16,1.16,0,0,0,1.12.83,1.21,1.21,0,0,0,1-.49.58.58,0,0,1,.69-.23.6.6,0,0,1,.4.65C18.64,11.24,18.65,11.74,18.65,12.24Z"/><path class="cls-1" d="M32.48,13.35a22,22,0,0,1-1.83,8.47A37.72,37.72,0,0,1,27.1,28.3a1.2,1.2,0,0,0-.21.94c.11.68.21,1.36.32,2a.65.65,0,0,1-.49.8.64.64,0,0,1-.7-.58c-.15-.93-.29-1.85-.43-2.77a1.15,1.15,0,0,1,.32-.81,37.5,37.5,0,0,0,2.71-4.56,23.48,23.48,0,0,0,2.52-7.87,12.26,12.26,0,0,0-2.31-9.25,13.73,13.73,0,0,0-1.27-1.37c-.33-.32-.36-.65-.11-.92A.63.63,0,0,1,28.4,4a12.37,12.37,0,0,1,4,7.84C32.42,12.44,32.45,13,32.48,13.35Z"/></g></g></svg>