<svg xmlns="http://www.w3.org/2000/svg" viewBox="0 0 10.64 12.57"><defs><style>.cls-1{fill:#1a1a1a;}</style></defs><g id="Capa_2" data-name="Capa 2"><g id="Capa_1-2" data-name="Capa 1"><path class="cls-1" d="M3.94,12.57a.27.27,0,0,1-.12-.22l-.27-1.5c0-.09,0-.1-.13-.1a2.49,2.49,0,0,1-1-.08,1.22,1.22,0,0,1-.81-.8,18.7,18.7,0,0,1-.47-1.93s0-.06,0-.09S1,7.72.91,7.72H.51A.48.48,0,0,1,.05,7c.2-.51.41-1,.62-1.53a22.13,22.13,0,0,0,.85-2.36,4.67,4.67,0,0,1,1-1.87A3.8,3.8,0,0,1,4.65.11,5.53,5.53,0,0,1,8.51.72l.07.05c.16.09.2.19.14.3s-.18.13-.34,0A4.09,4.09,0,0,0,7.92.86,5.24,5.24,0,0,0,6,.41,4.47,4.47,0,0,0,4.2.65,3.54,3.54,0,0,0,2.26,2.38a5.11,5.11,0,0,0-.45,1.14,15.72,15.72,0,0,1-.74,2.05c-.2.52-.42,1-.63,1.55-.08.17,0,.22.14.22h.58c.18,0,.23,0,.26.22.13.66.26,1.31.44,2A2.46,2.46,0,0,0,2,9.89a1,1,0,0,0,.78.47,2.75,2.75,0,0,0,.81,0c.19,0,.27,0,.31.2.08.47.16.94.25,1.41,0,.3,0,.26.29.26H8.67c.11,0,.15,0,.13-.14-.06-.29-.09-.58-.14-.87,0,0,0-.06,0-.09s0-.23.16-.25S9,10.9,9,11s.07.47.11.7,0,.37.08.55a.26.26,0,0,1-.09.28Z"/><path class="cls-1" d="M5.13,4.62H5.6c.1,0,.13,0,.13-.13a3.69,3.69,0,0,1,0-.47c0-.11,0-.12-.13-.09a.78.78,0,0,1-.78-1.26.73.73,0,0,1,.79-.27c.11,0,.12,0,.12-.1a4,4,0,0,1,0-.49c0-.09,0-.11-.11-.1a3.14,3.14,0,0,0-1.56.59L4,2.38c-.12.09-.22.09-.3,0s-.06-.2.06-.3a3.12,3.12,0,0,1,.74-.45,3.51,3.51,0,0,1,4.8,2.05,3.37,3.37,0,0,1-.68,3.48A3.41,3.41,0,0,1,5.72,8.36,3.54,3.54,0,0,1,2.44,5.43a3.47,3.47,0,0,1,.65-2.72l.05-.06a.2.2,0,1,1,.31.24c-.07.12-.16.23-.24.35A3.33,3.33,0,0,0,2.8,4.46c0,.15,0,.16.15.16h1a.18.18,0,0,1,.17.13A.19.19,0,0,1,4,5a.4.4,0,0,0,.17.72.39.39,0,0,0,.35-.64l0,0c-.09-.08-.18-.17-.11-.3s.18-.12.29-.12Zm.6,1c0-.16,0-.32,0-.48S5.7,5,5.59,5a3.69,3.69,0,0,1-.47,0C5,5,5,5,5,5.14a.79.79,0,1,1-1.54,0c0-.11,0-.12-.1-.12H3c-.15,0-.17,0-.15.16a2.84,2.84,0,0,0,.37,1.14A3.12,3.12,0,0,0,5.51,7.94c.22,0,.22,0,.22-.19v-.9a.19.19,0,0,1,.35-.13l.06.06a.41.41,0,0,0,.55,0,.4.4,0,0,0,0-.56.39.39,0,0,0-.58,0,.2.2,0,0,1-.24.08.17.17,0,0,1-.12-.21Zm1-.62H6.26c-.11,0-.16,0-.15.15s0,.27,0,.4,0,.19.17.15a.78.78,0,1,1,0,1.54c-.11,0-.13,0-.13.1a3.69,3.69,0,0,1,0,.47c0,.1,0,.13.14.12a3.13,3.13,0,0,0,2-1.07A3.06,3.06,0,0,0,9,5.19C9.05,5,9,5,8.89,5S8.32,5,8,5c-.11,0-.22,0-.28-.12s0-.21.11-.29l0,0a.38.38,0,0,0,0-.45A.37.37,0,0,0,7.5,4a.36.36,0,0,0-.29.27.4.4,0,0,0,.12.4.21.21,0,0,1,.09.27c0,.1-.14.12-.24.12S6.88,5,6.72,5ZM6.11,4v.5c0,.08,0,.12.11.11h.49c.1,0,.13,0,.11-.12a.79.79,0,0,1,1-.9.77.77,0,0,1,.5.91c0,.09,0,.12.09.11h.43c.18,0,.19,0,.16-.19a3.12,3.12,0,0,0-.8-1.72,3.06,3.06,0,0,0-2-1c-.1,0-.12,0-.12.12v1A.2.2,0,0,1,6,3a.19.19,0,0,1-.23-.08l0-.06a.43.43,0,0,0-.47-.05.4.4,0,0,0-.17.45.39.39,0,0,0,.37.28.4.4,0,0,0,.32-.16.2.2,0,0,1,.36.13Z"/><path class="cls-1" d="M10.64,4.37A7.2,7.2,0,0,1,10,7.15,12.56,12.56,0,0,1,8.88,9.28a.37.37,0,0,0-.07.3c0,.23.07.45.11.67a.22.22,0,0,1-.16.26.2.2,0,0,1-.23-.19c0-.3-.1-.61-.14-.91,0-.11,0-.18.1-.26a12.59,12.59,0,0,0,.89-1.5,7.73,7.73,0,0,0,.83-2.58,4.06,4.06,0,0,0-.76-3A4.47,4.47,0,0,0,9,1.59c-.1-.1-.12-.21,0-.3s.2-.08.31,0A4.11,4.11,0,0,1,10.6,3.88C10.62,4.08,10.64,4.27,10.64,4.37Z"/></g></g></svg>