<svg xmlns="http://www.w3.org/2000/svg" viewBox="0 0 171.08 170.91"><defs><style>.cls-1{fill:#fff;}</style></defs><g id="Capa_2" data-name="Capa 2"><g id="Capa_1-2" data-name="Capa 1"><path class="cls-1" d="M86.21,0c3.45.56,6.94.93,10.33,1.73a41.11,41.11,0,0,1,6.85,2.58c1.69.74,2.22,2.12,1.56,3.48s-2,1.78-3.7,1A36.73,36.73,0,0,0,82.61,5.29C66.91,6.35,53,19,50.46,34.52a35.48,35.48,0,0,0,5.9,26.66,2.55,2.55,0,0,0,1.46,1.14c7.74.84,9.48,1.69,14.1,7.08l5.45-5.19-1.9-5.84c-3.16.18-6.22,2.24-9.31.33-2.61-1.61-3.51-4.54-4.92-7-2.89-5,1.46-7.65,4-10.82-1.72-2.66-5-4.26-4.92-7.91.1-3.13,2.21-5.42,3.7-7.91,3-4.9,7.32-2.37,11.31-1.78,1.43-2.77,1.12-6.47,4.34-8.19,2.76-1.48,5.8-.76,8.71-.74,5.76.05,5.71,5.13,7.23,8.87,3.11-.15,6.15-2.25,9.24-.35,2.68,1.64,3.61,4.61,5,7.15,2.77,5-1.51,7.55-4.15,10.82,1.06,1.16,2.11,2.28,3.14,3.42a6,6,0,0,1,.88,7.65c-.84,1.51-1.7,3-2.59,4.48a5.87,5.87,0,0,1-6.82,2.93c-1.52-.32-3-.66-4.68-1-.36,1-.7,2-1,3s-.64,2-.94,2.92c1.82,1.71,3.62,3.42,5.48,5.18.39-.48.85-1.1,1.36-1.66a15.42,15.42,0,0,1,11.94-5.38,2.42,2.42,0,0,0,2.3-1.21,35.62,35.62,0,0,0-3.52-45,11.87,11.87,0,0,1-.91-1,2.44,2.44,0,0,1,.1-3.46,2.36,2.36,0,0,1,3.45,0,48.44,48.44,0,0,1,4.39,5,40.44,40.44,0,0,1,2.06,45l-1.18,2c4.8,2.47,8,6.22,9.06,11.53s-.46,10-4.12,14.17a10.31,10.31,0,0,0,1,.45,14.93,14.93,0,0,1,10.81,16,2.49,2.49,0,0,1-2.51,2.4,2.44,2.44,0,0,1-2.48-2.41c-.08-1.11,0-2.24-.15-3.33a9.35,9.35,0,0,0-9-8.16c-5.33-.22-10.67,0-16,0,0,.16-.13.3-.1.35,2.68,3.49,3.43,7.48,3.25,11.79-.15,3.34-.07,6.68,0,10a2,2,0,0,0,.78,1.53A10.7,10.7,0,0,1,115.11,133a2.28,2.28,0,0,0,0,.56h6.44c1.45,0,2.91-.11,4.34,0a4.43,4.43,0,0,0,4.08-1.67,3.59,3.59,0,0,0,1.07-2.62c-.06-3.67,0-7.35,0-11,0-2.07,1-3.27,2.54-3.24s2.46,1.23,2.47,3.32c0,2.32,0,4.65,0,7.31.65-.6,1.1-1,1.51-1.38,5-5,10-9.81,14.85-14.91,6.46-6.84,16.81-3.38,18.47,4.65a2.87,2.87,0,0,0,.26.6v3.67c-1,3.4-3.32,5.79-5.74,8.18q-12.4,12.28-24.7,24.68a16.8,16.8,0,0,1-7,4.41q-19.5,6-39,12c-4.52,1.38-9.14,1.14-13.75.75a2.44,2.44,0,0,1-2.43-2.64,2.31,2.31,0,0,1,2.85-2.3c6.17.79,12-.36,17.85-2.37,4.2-1.45,8.48-2.66,12.73-4,6.48-2,13-3.89,19.41-6.08a15.32,15.32,0,0,0,5.65-3.34c9.12-8.91,18.08-18,27.1-27,1.71-1.7,2.51-3.66,1.73-6.05a5.34,5.34,0,0,0-4.59-3.84,5.76,5.76,0,0,0-5.08,2c-8,8-16,16-23.94,24a5.67,5.67,0,0,1-4.41,1.84c-16-.05-32,0-47.94-.06A3.92,3.92,0,0,0,76.33,140a7.4,7.4,0,0,1-1.55,1.51,2.34,2.34,0,0,1-3.32-.22,2.27,2.27,0,0,1-.1-3.31,32,32,0,0,1,3.8-3.75,4.21,4.21,0,0,1,2.48-.64c8.91-.05,17.82,0,26.73,0a15.91,15.91,0,0,0,1.83-.06,5.59,5.59,0,0,0-.47-11.16c-2.67-.06-5.34,0-8,0-5.57,0-11.13.06-16.7,0a5.81,5.81,0,0,1-3.15-1.12c-3.51-2.63-6.67-5.74-10.92-7.27a23.53,23.53,0,0,0-22.54,2.82c-1.92,1.32-4.29,2.55-5.32,4.43-.92,1.69-.31,4.23-.31,6.39q0,15.61,0,31.23v1.91l16.27,1,13.17.81c.33,0,.67.06,1,.11,1.68.24,2.66,1.32,2.49,2.74a2.56,2.56,0,0,1-3,2.21c-3.62-.21-7.23-.49-10.84-.67-9.73-.48-19.45-.92-29.18-1.38-.6,0-1.2,0-2,0,0,1,.05,1.91,0,2.78A2.46,2.46,0,0,1,24,170.87q-10.6.07-21.22,0c-1.91,0-2.74-1-2.74-3,0-6.74,0-13.48,0-20.21V115.42c0-2.79.74-3.51,3.59-3.52H22.8c3.17,0,3.81.64,3.84,3.79,0,.44,0,.89,0,1.46H35.1v-1.68c0-4-.06-7.91,0-11.86a14.55,14.55,0,0,1,9.94-13.49L47,89.48c-3.64-4.14-5.22-8.84-4.18-14.19a15.77,15.77,0,0,1,8.61-11.35c-1.74-4.27-3.84-8.29-5-12.57C39.82,28.09,55.65,4,79.59.61c1.64-.23,3.3-.41,5-.61Zm-.6,62.33a6.4,6.4,0,0,1,1.16,0c1.75.28,2.66-.41,3-2.16a46.28,46.28,0,0,1,1.62-5.26A2.74,2.74,0,0,1,95,53c2.06.44,4.11,1,6.19,1.34A2.31,2.31,0,0,0,103,53.5c.89-1.2,1.51-2.59,2.31-3.86a1.57,1.57,0,0,0-.27-2.22c-1.28-1.32-2.5-2.69-3.74-4-1.9-2.08-1.91-3.12,0-5.15,1.25-1.35,2.45-2.74,3.75-4a1.66,1.66,0,0,0,.25-2.36c-.78-1.22-1.5-2.47-2.17-3.75a1.51,1.51,0,0,0-2-.84c-1.94.51-3.9.9-5.86,1.32s-3.22-.23-3.86-2.17-1.23-3.8-1.76-5.73a1.61,1.61,0,0,0-1.91-1.38c-1.44.07-2.89.06-4.34,0a1.55,1.55,0,0,0-1.77,1.34c-.53,1.87-1.12,3.72-1.71,5.57-.7,2.18-1.83,2.83-4,2.34-1.9-.42-3.82-.77-5.69-1.29a1.6,1.6,0,0,0-2.15.94c-.65,1.23-1.34,2.45-2.09,3.61a1.72,1.72,0,0,0,.31,2.49c1.38,1.38,2.67,2.84,4,4.29s1.44,2.83,0,4.41-2.68,3-4.08,4.41a1.65,1.65,0,0,0-.25,2.36c.74,1.17,1.46,2.37,2.08,3.61a1.7,1.7,0,0,0,2.31,1c1.93-.51,3.9-.91,5.85-1.33A2.83,2.83,0,0,1,79.71,55c.43,1.26.76,2.55,1.19,3.81C82.28,62.84,81.18,62.27,85.61,62.33ZM21.5,165.77V117H5.1v48.73Zm82.25-48.5a2.77,2.77,0,0,0,.17-.5c0-4.17,0-8.34,0-12.51,0-5.65-3.92-9.79-9.54-9.93-5.89-.13-11.79-.11-17.69,0a9.37,9.37,0,0,0-9.35,7.75,32.2,32.2,0,0,0-.18,5.82,1.26,1.26,0,0,0,.71.91c4.65,1.54,8.38,4.53,12.07,7.59a3.08,3.08,0,0,0,1.72.83C89,117.29,96.35,117.27,103.75,117.27Zm8.87-28a11,11,0,1,0-11.05-10.8A11,11,0,0,0,112.62,89.27Zm-54,0a11,11,0,1,0-.13-21.92,11,11,0,1,0,.13,21.92Zm26.94,0a11,11,0,1,0-11-11A11,11,0,0,0,85.54,89.27ZM65.71,94.38c-5.93,0-11.43-.2-16.92.07-4.15.2-7.75,3.18-8.24,7.08s-.11,7.79-.11,11.75a29.62,29.62,0,0,1,21.72-5.91C61.84,102.61,62.39,98.26,65.71,94.38Zm-32.07,66v-38H26.75v38Z"/><path class="cls-1" d="M85.54,32.89a7.91,7.91,0,1,1-7.91,7.82A7.95,7.95,0,0,1,85.54,32.89Zm-.07,5a2.91,2.91,0,0,0-2.82,2.9,2.89,2.89,0,1,0,5.78-.14A2.91,2.91,0,0,0,85.47,37.92Z"/><path class="cls-1" d="M16,125.2a2.8,2.8,0,0,1-2.66,2.7,2.68,2.68,0,0,1-2.7-2.78,2.6,2.6,0,0,1,2.7-2.57A2.67,2.67,0,0,1,16,125.2Z"/><path class="cls-1" d="M16,136a2.69,2.69,0,0,1-2.69,2.63,2.61,2.61,0,0,1-2.66-2.78,2.64,2.64,0,0,1,2.72-2.57A2.75,2.75,0,0,1,16,136Z"/></g></g></svg>