<svg xmlns="http://www.w3.org/2000/svg" viewBox="0 0 18.53 24.43"><g id="Capa_2" data-name="Capa 2"><g id="Capa_1-2" data-name="Capa 1"><path d="M8.26,24.43l-1.47-.15a12.39,12.39,0,0,1-5.1-1.57,5.79,5.79,0,0,1-1.16-1A2,2,0,0,1,0,20.24c0-.21,0-.41,0-.62a.35.35,0,0,1,.37-.35.35.35,0,0,1,.34.36c0,.15,0,.31,0,.46a1.78,1.78,0,0,0,.67,1.53,6.08,6.08,0,0,0,1.75,1.05,14.27,14.27,0,0,0,4,.94,20,20,0,0,0,5.51-.19,10.18,10.18,0,0,0,3.67-1.25,6.35,6.35,0,0,0,1-.83,1.51,1.51,0,0,0,.42-1.13c0-.8,0-1.59,0-2.39v-.27l-.5.42a8.2,8.2,0,0,1-3,1.37,19.56,19.56,0,0,1-7.58.47,14.54,14.54,0,0,1-3.9-.95,6.22,6.22,0,0,1-2-1.23l-.1-.08V18a.36.36,0,0,1-.35.35A.34.34,0,0,1,0,18a11.88,11.88,0,0,1,.12-2.73.65.65,0,0,0,0-.14,9.38,9.38,0,0,1-.12-1c0-1.26,0-2.52,0-3.77C0,9.64.06,9,0,8.36,0,7,0,5.59,0,4.21A2.39,2.39,0,0,1,.63,2.58c.18-.21.38-.25.56-.1s.16.34,0,.55a1.44,1.44,0,0,0,.14,2.21A6.06,6.06,0,0,0,3.73,6.59a17.14,17.14,0,0,0,6,.81,15.66,15.66,0,0,0,5.55-1A6.24,6.24,0,0,0,17,5.4a1.55,1.55,0,0,0,0-2.65,7,7,0,0,0-2.58-1.31A18,18,0,0,0,8.28.75a15.56,15.56,0,0,0-4.49.78c-.41.14-.8.32-1.19.49s-.49.1-.59-.12,0-.38.27-.52A12.49,12.49,0,0,1,6,.26a20.2,20.2,0,0,1,7.86.27A9.17,9.17,0,0,1,17.31,2a2.78,2.78,0,0,1,1.18,1.78c0,.12,0,.25,0,.38,0,1.4,0,2.8,0,4.2,0,.57,0,1.15,0,1.73,0,1.39.06,2.8,0,4.19,0,.64,0,1.27,0,1.9,0,1.29,0,2.58,0,3.86a2.62,2.62,0,0,1-1,2.16,8,8,0,0,1-3.1,1.52,17.66,17.66,0,0,1-3.89.64,1.17,1.17,0,0,0-.26,0ZM.73,5.7c0,.89,0,1.74,0,2.59a1.77,1.77,0,0,0,.57,1.36,5,5,0,0,0,1.58,1,14.55,14.55,0,0,0,5.4,1.14,19,19,0,0,0,6-.63.48.48,0,0,1,.38.09c.22.19.1.52-.22.59-.89.19-1.78.41-2.68.53A19.64,19.64,0,0,1,4.39,12a8.38,8.38,0,0,1-3.23-1.46c-.13-.1-.24-.21-.37-.32a.74.74,0,0,0,.07.34,2.68,2.68,0,0,0,1,1.06,8,8,0,0,0,2.62,1.15,19.48,19.48,0,0,0,9,.17,8.41,8.41,0,0,0,3.23-1.29,5.65,5.65,0,0,0,.93-.9,1.9,1.9,0,0,0,.22-.5l-.05,0-.18.15c-.44.3-.88.6-1.33.87a.35.35,0,0,1-.5-.13.38.38,0,0,1,.18-.5l.19-.1a14.89,14.89,0,0,0,1.2-.89,1.58,1.58,0,0,0,.51-1.26c0-.8,0-1.6,0-2.41,0-.06,0-.13,0-.23a6,6,0,0,1-1.87,1.24,16.72,16.72,0,0,1-5.8,1.18,19.31,19.31,0,0,1-4-.23A10.05,10.05,0,0,1,.73,5.7Zm0,5.93c0,.1,0,.17,0,.25,0,.78,0,1.57,0,2.36a1.69,1.69,0,0,0,.52,1.28,3.79,3.79,0,0,0,.69.58,10.69,10.69,0,0,0,4.28,1.46,20.42,20.42,0,0,0,4.94.14,14.54,14.54,0,0,0,4.21-.95,5.48,5.48,0,0,0,1.94-1.23,1.76,1.76,0,0,0,.5-1.27c0-.79,0-1.57,0-2.36v-.27c-.19.15-.32.28-.47.4a8.31,8.31,0,0,1-2.87,1.35,19.88,19.88,0,0,1-8.88.35A9.24,9.24,0,0,1,.74,11.63Zm17,4.48a8.39,8.39,0,0,1-3.45,1.74A19.91,19.91,0,0,1,4.86,18a8.31,8.31,0,0,1-4-1.86l-.1,0a2.17,2.17,0,0,0,.26.55,4.71,4.71,0,0,0,.88.85,9.85,9.85,0,0,0,4,1.46,20.28,20.28,0,0,0,5.39.18,14.37,14.37,0,0,0,4-.9A5.51,5.51,0,0,0,17.32,17,1.62,1.62,0,0,0,17.77,16.11Z"/><path d="M6.23,22a12.66,12.66,0,0,1-4.5-1.46c-.23-.14-.29-.33-.18-.52a.36.36,0,0,1,.54-.1,11.31,11.31,0,0,0,4,1.32l.33.06a.35.35,0,0,1,.28.4A.38.38,0,0,1,6.23,22Z"/><path d="M16.28,20.35a.34.34,0,0,1-.33.36.36.36,0,0,1-.38-.34.37.37,0,0,1,.36-.36A.35.35,0,0,1,16.28,20.35Z"/><path d="M13.71,20.75a.35.35,0,0,1,.35.37.36.36,0,0,1-.35.34.35.35,0,0,1-.35-.37A.35.35,0,0,1,13.71,20.75Z"/><path d="M6.19,10.13A12.75,12.75,0,0,1,1.72,8.68a.37.37,0,0,1-.17-.52.36.36,0,0,1,.52-.11A11.7,11.7,0,0,0,6.18,9.4l.19,0a.32.32,0,0,1,.27.4C6.62,10,6.47,10.14,6.19,10.13Z"/><path d="M15.93,8.16a.35.35,0,0,1,.35.34.37.37,0,0,1-.35.37.37.37,0,0,1-.36-.35A.35.35,0,0,1,15.93,8.16Z"/><path d="M13.36,9.24a.35.35,0,0,1,.35-.34.36.36,0,0,1,.35.37.35.35,0,0,1-.38.33A.33.33,0,0,1,13.36,9.24Z"/><path d="M6.65,15.61c0,.32-.18.49-.41.45a13,13,0,0,1-4.37-1.37,1.2,1.2,0,0,1-.26-.18.32.32,0,0,1-.07-.41.34.34,0,0,1,.4-.18l.13.06a11.76,11.76,0,0,0,4.07,1.34.66.66,0,0,1,.25,0A1.61,1.61,0,0,1,6.65,15.61Z"/><path d="M16.28,14.46a.35.35,0,0,1-.36.33.36.36,0,0,1-.35-.37.37.37,0,0,1,.37-.34A.37.37,0,0,1,16.28,14.46Z"/><path d="M13.68,15.53a.35.35,0,0,1,.05-.7.35.35,0,0,1,.33.36A.36.36,0,0,1,13.68,15.53Z"/></g></g></svg>