<svg xmlns="http://www.w3.org/2000/svg" viewBox="0 0 44.13 44.13"><defs><style>.cls-1{fill:#fff;}</style></defs><g id="Capa_2" data-name="Capa 2"><g id="Capa_1-2" data-name="Capa 1"><path class="cls-1" d="M42.88,44.12H35.74c-.5-.36-.66-.72-.51-1.16s.47-.59,1.08-.59h5.42c.6,0,.6,0,.6-.61V23.56c0-.57,0-.58-.57-.58H35.51a.92.92,0,0,1-.95-1.34,2.35,2.35,0,0,0,.17-1.05,2.05,2.05,0,0,0-1.43-1.78,2,2,0,0,0-2.13.5,2,2,0,0,0-.48,2.26c.31.91-.06,1.41-1,1.41h-6.2c-.38,0-.53.11-.53.51,0,1.6,0,3.19,0,4.78,0,.41.15.51.54.51a3.9,3.9,0,0,1,0,7.8c-.42,0-.55.13-.55.55,0,1.56,0,3.12,0,4.69,0,.54,0,.56.56.56H29c.62,0,.93.18,1.08.59s0,.8-.5,1.16H.35c-.29,0-.35-.06-.35-.35Q0,22.51,0,1.25A2,2,0,0,1,2,0Q22.07,0,42.12,0a2.07,2.07,0,0,1,1.12.22A1.86,1.86,0,0,1,44.13,2q0,20.06,0,40.11A2,2,0,0,1,42.88,44.12ZM1.76,11.48c0,3.06,0,6.11,0,9.17,0,.4.11.55.53.55,1.24,0,2.47,0,3.7,0,.91,0,1.81,0,2.72,0a.89.89,0,0,1,.87,1.21c0,.12-.09.24-.12.36a2.09,2.09,0,1,0,4-.12c-.32-1,0-1.45,1.05-1.45h6.11c.56,0,.57,0,.57-.59,0-1.55,0-3.1,0-4.64,0-.44-.14-.57-.57-.57a3.9,3.9,0,0,1,0-7.79c.45,0,.56-.17.55-.58,0-1.55,0-3.1,0-4.65,0-.56,0-.57-.59-.57H2.36c-.59,0-.6,0-.6.6ZM32.65,1.8c-3.06,0-6.11,0-9.17,0-.41,0-.55.12-.55.54,0,1.32,0,2.64,0,4,0,.82,0,1.64,0,2.45a.89.89,0,0,1-1.21.88l-.37-.13a2.09,2.09,0,1,0,.13,4c1-.32,1.45,0,1.45,1.06v6.11c0,.55,0,.57.55.57,1.56,0,3.12,0,4.69,0,.44,0,.56-.15.56-.57a3.9,3.9,0,0,1,7.8,0c0,.59,0,.59.58.59h4.64c.56,0,.57,0,.57-.59V2.4c0-.6,0-.6-.6-.6ZM11.45,42.37h9.12c.57,0,.58,0,.58-.58V35.55a.92.92,0,0,1,1.34-1,2.1,2.1,0,1,0,.07-3.87c-.9.33-1.41,0-1.41-1,0-2.07,0-4.13,0-6.2,0-.38-.1-.53-.51-.53-1.59,0-3.19,0-4.78,0-.4,0-.51.14-.51.53a3.9,3.9,0,0,1-7.8,0c0-.41-.12-.56-.54-.55-1.55,0-3.1,0-4.65,0-.6,0-.61,0-.61.59v18.2c0,.6,0,.6.61.6Z"/><path class="cls-1" d="M32.29,44.12a1,1,0,0,1-.53-.68.89.89,0,0,1,.54-1,.9.9,0,0,1,1.09.35.88.88,0,0,1-.14,1.13,2.78,2.78,0,0,1-.27.21Z"/></g></g></svg>