<svg xmlns="http://www.w3.org/2000/svg" viewBox="0 0 28.25 30.35"><defs><style>.cls-1{fill:#fff;}</style></defs><g id="Capa_2" data-name="Capa 2"><g id="Capa_1-2" data-name="Capa 1"><path class="cls-1" d="M9.38,0a1.38,1.38,0,0,1,.77.91,1,1,0,0,1,.09.22c.11.65.62.86,1.15,1a.53.53,0,0,0,.28,0l1-.4A1,1,0,0,1,13.8,2l1,1A1,1,0,0,1,15,4.09a3.71,3.71,0,0,1-.19.46,1.29,1.29,0,0,0,0,1.41.72.72,0,0,0,.38.37l.91.38a1,1,0,0,1,.63,1V9.1a.94.94,0,0,1-.61.93,3.46,3.46,0,0,1-.6.25,1.17,1.17,0,0,0-.85.84.89.89,0,0,0,0,.75c.13.27.23.55.34.83a.93.93,0,0,1-.21,1.06c-.34.36-.69.71-1,1.05a1,1,0,0,1-1.1.22,3.71,3.71,0,0,1-.46-.19,1.27,1.27,0,0,0-1.41,0,.73.73,0,0,0-.4.39,9.58,9.58,0,0,1-.39.93.9.9,0,0,1-.84.6c-.54,0-1.07,0-1.6,0a.93.93,0,0,1-.87-.61c-.12-.29-.25-.58-.36-.88a.81.81,0,0,0-.43-.44,1.36,1.36,0,0,0-1.31,0c-1.14.5-1.19.47-2.08-.42-.16-.16-.33-.34-.5-.5a1,1,0,0,1-.27-1.31,8.26,8.26,0,0,0,.33-.82,1.06,1.06,0,0,0,0-.5,1.31,1.31,0,0,0-.94-1C0,9.83,0,9.74,0,8.55v-1a.93.93,0,0,1,.57-.86c.37-.17.75-.32,1.12-.47a.44.44,0,0,1,.6.22A.44.44,0,0,1,2,7.08c-.3.14-.61.27-.92.39a.29.29,0,0,0-.23.32c0,.39,0,.79,0,1.18a.28.28,0,0,0,.21.31l1,.39a1,1,0,0,1,.6.62c.56,1.37.57,1,0,2.36-.22.55-.25.36.17.79.2.22.42.42.62.63a.3.3,0,0,0,.39.09c.28-.14.58-.25.87-.37L5,13.71a2.35,2.35,0,0,1,2.12,1c.13.31.25.64.41.95a.45.45,0,0,0,.3.2,11.61,11.61,0,0,0,1.18,0,.4.4,0,0,0,.28-.19c.16-.32.29-.65.42-1a1,1,0,0,1,.59-.59c1.4-.58,1.06-.59,2.44,0a.51.51,0,0,0,.7-.15,7.06,7.06,0,0,1,.67-.67.29.29,0,0,0,.08-.39c-.13-.28-.24-.57-.35-.85a2.83,2.83,0,0,1-.11-.31,2.43,2.43,0,0,1,1-2.05l.93-.39A.3.3,0,0,0,15.86,9a11.22,11.22,0,0,1,0-1.16.3.3,0,0,0-.22-.33c-.3-.11-.58-.24-.88-.36L14.55,7a2.39,2.39,0,0,1-.8-2.17c.13-.32.25-.65.4-1a.29.29,0,0,0-.07-.39c-.28-.27-.56-.54-.82-.82a.29.29,0,0,0-.39-.07,6,6,0,0,1-1,.39,3,3,0,0,1-.8,0l0,0C9.67,2.4,9.93,2.67,9.34,1.24,9.22,1,9.1.86,8.8.88a6.41,6.41,0,0,1-1,0,.32.32,0,0,0-.36.26c-.12.31-.26.61-.39.93a1,1,0,0,1-.59.59h0c-1.43.59-1,.56-2.5,0a.4.4,0,0,0-.54.1,7.49,7.49,0,0,1-.69.69.38.38,0,0,0-.1.54c.13.29.24.58.36.88a.47.47,0,0,1-.21.65.46.46,0,0,1-.61-.31C2,4.8,1.86,4.43,1.71,4.05A1,1,0,0,1,1.94,3l1-1a1,1,0,0,1,1.09-.22,2.65,2.65,0,0,1,.49.2A1.27,1.27,0,0,0,6,1.92a.69.69,0,0,0,.37-.38c.07-.22.19-.42.26-.63A1.39,1.39,0,0,1,7.37,0Z"/><path class="cls-1" d="M22.25,0a1.29,1.29,0,0,1,.66.85.62.62,0,0,0,.93.4l.35-.15a.78.78,0,0,1,.9.18q.32.3.63.63a.78.78,0,0,1,.18.89l-.17.42a.6.6,0,0,0,.36.84l.4.17A.79.79,0,0,1,27,5c0,.29,0,.57,0,.86a.79.79,0,0,1-.5.77l-.43.19a.58.58,0,0,0-.34.82c.05.14.11.28.16.41A.78.78,0,0,1,25.7,9l-.6.6a.78.78,0,0,1-.9.19l-.41-.17a.6.6,0,0,0-.85.35l-.18.43a.76.76,0,0,1-.73.48h-.91a.77.77,0,0,1-.76-.51c-.06-.14-.12-.27-.17-.41a.6.6,0,0,0-.83-.35L19,9.75a.81.81,0,0,1-1-.19L17.42,9a.78.78,0,0,1-.18-.92c.05-.13.1-.26.16-.39A.6.6,0,0,0,17,6.8l-.43-.19a.73.73,0,0,1-.46-.7c0-.32,0-.63,0-1a.75.75,0,0,1,.47-.72l.44-.18a.61.61,0,0,0,.35-.85l-.17-.41a.78.78,0,0,1,.18-.9c.2-.2.41-.4.61-.61a.8.8,0,0,1,.92-.19l.41.17a.59.59,0,0,0,.83-.34c.15-.37.28-.76.71-.93Zm2.8,2.53-.12-.16c-.4-.44-.41-.45-.95-.22a1.19,1.19,0,0,1-.89,0,1.43,1.43,0,0,1-1-1C22,1,22,.91,21.9.91a1.68,1.68,0,0,0-.67,0c-.11,0-.17.24-.23.38a1.44,1.44,0,0,1-2,.82A1.53,1.53,0,0,0,18.77,2a.25.25,0,0,0-.19,0,.65.65,0,0,0-.32,1,1.45,1.45,0,0,1-.77,1.89C17,5,17,5,17,5.53a.38.38,0,0,0,.29.43,1.65,1.65,0,0,1,.72.47,1.42,1.42,0,0,1,.17,1.63c-.15.23-.08.38.11.55s.32.36.64.2a1.5,1.5,0,0,1,.84-.17,1.4,1.4,0,0,1,1.26,1c.05.28.23.3.46.28s.48.07.58-.28a1.26,1.26,0,0,1,.72-.88,1.46,1.46,0,0,1,1.43,0,.3.3,0,0,0,.46-.09.85.85,0,0,1,.16-.17c.17-.12.18-.26.1-.46a1.73,1.73,0,0,1-.2-.84,1.4,1.4,0,0,1,1-1.28A.43.43,0,0,0,26,5.89a.44.44,0,0,0,.14-.22c.06-.62,0-.62-.51-.86A1.45,1.45,0,0,1,24.84,3C24.91,2.87,25,2.71,25.05,2.53Z"/><path class="cls-1" d="M22.73,28V26.92H20a.45.45,0,0,1-.47-.47A.43.43,0,0,1,20,26c.94,0,1.88,0,2.82,0a.55.55,0,0,0,.5-.22A2.41,2.41,0,0,1,24.51,25a.27.27,0,0,0,.22-.3c0-2.59,0-5.17,0-7.76,0-.36-.1-.46-.46-.46H16.52c-.34,0-.44.1-.44.44V27.57c0,.35.11.45.47.46.7,0,1.41,0,2.11,0,.36,0,.55.15.56.42s-.19.46-.56.46q-1.08,0-2.16,0a1.22,1.22,0,0,1-1.31-1.32V16.89a1.22,1.22,0,0,1,1.31-1.32h7.79a1.22,1.22,0,0,1,1.32,1.34c0,2.52,0,5,0,7.56,0,.26.07.34.33.38A2.77,2.77,0,0,1,26,30.3a2.7,2.7,0,0,1-2.86-1.19.41.41,0,0,0-.38-.2c-.7,0-1.41,0-2.11,0-.12,0-.29,0-.37-.06a.78.78,0,0,1-.23-.46.38.38,0,0,1,.43-.36h2.22Zm4.63-.46a1.88,1.88,0,0,0-1.89-1.88,1.89,1.89,0,1,0,1.89,1.88Z"/><path class="cls-1" d="M12.31,8.37A3.94,3.94,0,1,1,8.37,4.44,3.95,3.95,0,0,1,12.31,8.37Zm-.89,0a3.05,3.05,0,0,0-6.1,0,3.05,3.05,0,1,0,6.1,0Z"/><path class="cls-1" d="M8.81,22.63h3.48l-.53-.47c-.26-.24-.29-.49-.1-.7a.45.45,0,0,1,.68,0c.47.39.93.79,1.39,1.2.31.27.32.52,0,.79-.46.41-.93.8-1.4,1.2-.26.22-.53.22-.7,0s-.13-.46.14-.69l.51-.45-.33,0H8.55c-.48,0-.62-.14-.63-.61V18.11c0-.09,0-.22,0-.28a.92.92,0,0,1,.41-.31.37.37,0,0,1,.42.33,1.22,1.22,0,0,1,0,.33v4.45Z"/><path class="cls-1" d="M21.73,22.64h1.66c.33,0,.52.18.52.44s-.19.45-.52.45H20.08c-.33,0-.52-.17-.52-.44s.19-.44.51-.45Z"/><path class="cls-1" d="M21.72,18.45H20.09c-.34,0-.54-.18-.53-.46s.2-.43.53-.43h3.28c.35,0,.55.18.54.46s-.2.42-.53.43Z"/><path class="cls-1" d="M21.76,19.26h1.63c.33,0,.52.16.52.43a.46.46,0,0,1-.51.46H20.08c-.33,0-.52-.18-.52-.44s.19-.45.54-.45Z"/><path class="cls-1" d="M21.71,21.83h-1.6c-.36,0-.54-.15-.55-.43s.19-.46.54-.46h3.28a.46.46,0,0,1,.53.44c0,.28-.19.45-.54.45Z"/><path class="cls-1" d="M21.75,24.33h1.68a.41.41,0,0,1,.45.31.66.66,0,0,1-.13.45c-.05.09-.22.12-.34.12H20.06c-.32,0-.51-.18-.5-.45a.45.45,0,0,1,.5-.44Z"/><path class="cls-1" d="M17.91,17.56h.53a.45.45,0,0,1,.45.44.42.42,0,0,1-.45.44H17.35A.41.41,0,0,1,16.9,18a.44.44,0,0,1,.45-.45Z"/><path class="cls-1" d="M17.88,20.14a5.23,5.23,0,0,1-.56,0,.42.42,0,0,1-.42-.47.42.42,0,0,1,.45-.41c.36,0,.72,0,1.09,0a.41.41,0,0,1,.45.41.42.42,0,0,1-.42.47A5.8,5.8,0,0,1,17.88,20.14Z"/><path class="cls-1" d="M17.9,23.53h-.53a.44.44,0,0,1-.47-.46.42.42,0,0,1,.46-.42h1.06a.42.42,0,0,1,.47.42.44.44,0,0,1-.46.46Z"/><path class="cls-1" d="M17.89,26c.19,0,.38,0,.56,0a.43.43,0,0,1,.44.42.42.42,0,0,1-.4.46,11.61,11.61,0,0,1-1.18,0,.41.41,0,0,1-.41-.45.43.43,0,0,1,.43-.43h.56Z"/><path class="cls-1" d="M17.88,21.83c-.19,0-.38,0-.56,0a.41.41,0,0,1-.42-.41.4.4,0,0,1,.37-.46,8.83,8.83,0,0,1,1.26,0,.39.39,0,0,1,.36.46.4.4,0,0,1-.43.41C18.27,21.84,18.07,21.83,17.88,21.83Z"/><path class="cls-1" d="M17.89,25.21h-.6a.4.4,0,0,1-.39-.4.4.4,0,0,1,.37-.46,10.76,10.76,0,0,1,1.27,0,.39.39,0,0,1,.35.44.4.4,0,0,1-.38.42Z"/><path class="cls-1" d="M21.77,8.07a2.7,2.7,0,0,1-2.69-1.74,2.64,2.64,0,0,1,3.83-3.17c.13.08.29.2.32.32a.63.63,0,0,1-.1.48c-.15.19-.36.16-.56,0a1.76,1.76,0,1,0,.75,1.48c0-.1,0-.2,0-.3a.42.42,0,0,1,.39-.49.44.44,0,0,1,.49.41A2.55,2.55,0,0,1,24,6.48,2.55,2.55,0,0,1,21.77,8.07Z"/><path class="cls-1" d="M25.31,27.37c.16-.17.3-.35.47-.5a.43.43,0,0,1,.65,0,.42.42,0,0,1,0,.63l-.81.82-.09.07a.43.43,0,0,1-.61-.1c-.22-.26-.66-.43-.44-.89C24.59,27.09,24.88,27.08,25.31,27.37Z"/></g></g></svg>