<svg xmlns="http://www.w3.org/2000/svg" viewBox="0 0 18.22 24.01"><defs><style>.cls-1{fill:#fff;}</style></defs><g id="Capa_2" data-name="Capa 2"><g id="Capa_1-2" data-name="Capa 1"><path class="cls-1" d="M8.12,24c-.48-.05-1-.08-1.44-.14a12.3,12.3,0,0,1-5-1.54,6.33,6.33,0,0,1-1.14-1A2,2,0,0,1,0,19.89c0-.2,0-.4,0-.61a.35.35,0,1,1,.69,0,2.16,2.16,0,0,1,0,.44,1.77,1.77,0,0,0,.67,1.51,5.74,5.74,0,0,0,1.71,1,13.84,13.84,0,0,0,4,.92A19.63,19.63,0,0,0,12.46,23a10,10,0,0,0,3.61-1.23,5.66,5.66,0,0,0,1-.82,1.44,1.44,0,0,0,.41-1.11c0-.78,0-1.56,0-2.34v-.27c-.18.15-.33.29-.49.41A8.13,8.13,0,0,1,14,19a19.53,19.53,0,0,1-7.46.47,14.75,14.75,0,0,1-3.82-.95,5.9,5.9,0,0,1-1.94-1.2l-.1-.08c0,.16,0,.28,0,.4A.35.35,0,0,1,.37,18,.34.34,0,0,1,0,17.66,11.47,11.47,0,0,1,.14,15a.29.29,0,0,0,0-.13,9.42,9.42,0,0,1-.11-1c0-1.24,0-2.47,0-3.71,0-.63,0-1.25,0-1.89C0,6.86,0,5.5,0,4.14a2.33,2.33,0,0,1,.61-1.6c.18-.21.38-.25.54-.1s.16.33,0,.54a1.42,1.42,0,0,0,.13,2.17A6.18,6.18,0,0,0,3.66,6.48a17.34,17.34,0,0,0,5.94.8,15.6,15.6,0,0,0,5.45-1,5.84,5.84,0,0,0,1.69-1,1.52,1.52,0,0,0,0-2.61,6.86,6.86,0,0,0-2.52-1.29A17.93,17.93,0,0,0,8.14.73a15.79,15.79,0,0,0-4.42.78c-.39.13-.78.31-1.16.47s-.48.1-.58-.11,0-.38.26-.51A12.09,12.09,0,0,1,5.9.26a19.87,19.87,0,0,1,7.72.26A8.8,8.8,0,0,1,17,2a2.64,2.64,0,0,1,1.16,1.74,2.42,2.42,0,0,1,0,.38c0,1.37,0,2.75,0,4.12,0,.57,0,1.13,0,1.7,0,1.38.06,2.75,0,4.13,0,.62,0,1.24,0,1.86,0,1.27,0,2.53,0,3.8a2.57,2.57,0,0,1-1,2.12,8,8,0,0,1-3,1.5,17.11,17.11,0,0,1-3.83.62,1.09,1.09,0,0,0-.25,0ZM.72,5.6c0,.88,0,1.71,0,2.55a1.8,1.8,0,0,0,.55,1.34,5,5,0,0,0,1.56,1,14.47,14.47,0,0,0,5.31,1.12A18.56,18.56,0,0,0,14.06,11a.44.44,0,0,1,.38.09c.21.19.1.51-.22.58-.87.18-1.75.4-2.63.52a19.41,19.41,0,0,1-7.28-.43,8.3,8.3,0,0,1-3.17-1.44L.78,10a.7.7,0,0,0,.06.33,2.6,2.6,0,0,0,1,1,7.84,7.84,0,0,0,2.58,1.13,19.06,19.06,0,0,0,8.79.17,8.52,8.52,0,0,0,3.18-1.26,6.44,6.44,0,0,0,.91-.9,1.76,1.76,0,0,0,.22-.48l-.06,0a1.22,1.22,0,0,1-.17.15c-.43.28-.87.58-1.31.85a.33.33,0,0,1-.48-.13.35.35,0,0,1,.17-.49c.06,0,.13-.06.18-.1.4-.29.82-.55,1.18-.87a1.55,1.55,0,0,0,.51-1.24c0-.79,0-1.58,0-2.37,0-.06,0-.13,0-.23a5.68,5.68,0,0,1-1.84,1.22A16.11,16.11,0,0,1,9.93,8,18.55,18.55,0,0,1,6,7.74,9.8,9.8,0,0,1,.72,5.6Zm0,5.83a2.18,2.18,0,0,0,0,.24c0,.78,0,1.55,0,2.32a1.65,1.65,0,0,0,.51,1.27,4.57,4.57,0,0,0,.68.57,10.65,10.65,0,0,0,4.2,1.43A20.26,20.26,0,0,0,11,17.4a14.07,14.07,0,0,0,4.14-.94A5.23,5.23,0,0,0,17,15.25,1.69,1.69,0,0,0,17.5,14c0-.78,0-1.55,0-2.32v-.27c-.18.15-.31.28-.46.39a7.79,7.79,0,0,1-2.82,1.33,19.46,19.46,0,0,1-8.72.34A9,9,0,0,1,.73,11.43Zm16.73,4.41a8.42,8.42,0,0,1-3.39,1.71,19.72,19.72,0,0,1-9.29.16,8.25,8.25,0,0,1-4-1.84H.71a2,2,0,0,0,.26.53,5,5,0,0,0,.87.85,9.78,9.78,0,0,0,4,1.42,19.6,19.6,0,0,0,5.3.18A14.22,14.22,0,0,0,15,18a5.31,5.31,0,0,0,2-1.28A1.59,1.59,0,0,0,17.46,15.84Z"/><path class="cls-1" d="M6.13,21.61A12.45,12.45,0,0,1,1.7,20.18c-.23-.14-.29-.33-.18-.51a.36.36,0,0,1,.53-.1,11.46,11.46,0,0,0,3.89,1.3l.32.05a.34.34,0,0,1,.27.4A.35.35,0,0,1,6.13,21.61Z"/><path class="cls-1" d="M16,20a.33.33,0,0,1-.32.35.34.34,0,0,1-.37-.33.35.35,0,0,1,.35-.36A.34.34,0,0,1,16,20Z"/><path class="cls-1" d="M13.47,20.4a.34.34,0,0,1,.35.36.35.35,0,1,1-.69,0A.33.33,0,0,1,13.47,20.4Z"/><path class="cls-1" d="M6.08,10A12.58,12.58,0,0,1,1.69,8.53.36.36,0,1,1,2,7.91,11.57,11.57,0,0,0,6.08,9.24l.18,0a.32.32,0,0,1,.27.4C6.51,9.86,6.35,10,6.08,10Z"/><path class="cls-1" d="M15.66,8a.34.34,0,0,1,.34.34.34.34,0,0,1-.35.36.37.37,0,0,1-.35-.34A.36.36,0,0,1,15.66,8Z"/><path class="cls-1" d="M13.13,9.08a.33.33,0,0,1,.34-.33.35.35,0,0,1,.35.36.34.34,0,0,1-.37.33A.33.33,0,0,1,13.13,9.08Z"/><path class="cls-1" d="M6.53,15.34c0,.31-.17.48-.39.45a12.62,12.62,0,0,1-4.31-1.36,1.32,1.32,0,0,1-.25-.16.31.31,0,0,1-.06-.41.33.33,0,0,1,.39-.17l.13.05a11.45,11.45,0,0,0,4,1.32c.09,0,.19,0,.25,0A2,2,0,0,1,6.53,15.34Z"/><path class="cls-1" d="M16,14.21a.34.34,0,0,1-.35.33.35.35,0,0,1-.34-.37.36.36,0,0,1,.35-.33A.34.34,0,0,1,16,14.21Z"/><path class="cls-1" d="M13.45,15.27a.35.35,0,0,1-.32-.39.33.33,0,0,1,.37-.3.33.33,0,0,1,.32.35A.36.36,0,0,1,13.45,15.27Z"/></g></g></svg>