<svg xmlns="http://www.w3.org/2000/svg" viewBox="0 0 14.42 94.13"><defs><style>.cls-1{fill:#008dcf;}.cls-2{fill:#fff;}</style></defs><g id="Capa_2" data-name="Capa 2"><g id="Capa_1-2" data-name="Capa 1"><polygon class="cls-1" points="0 9.01 0 94.13 7.21 94.13 14.42 94.13 14.42 9.01 7.21 0 0 9.01"/><path class="cls-2" d="M10,56.63H3.28V52.51h.65v3.34H6.26V52.69h.65v3.16h3Z"/><path class="cls-2" d="M10,50.14a1.34,1.34,0,0,1-.41,1.06,1.83,1.83,0,0,1-1.19.35H3.28v-.77H8.37a1.53,1.53,0,0,0,.56-.09.64.64,0,0,0,.34-.26A.88.88,0,0,0,9.38,50a1.62,1.62,0,0,0,0-.22,1.17,1.17,0,0,0,0-.2H10c0,.11,0,.2,0,.29A1.32,1.32,0,0,1,10,50.14Z"/><path class="cls-2" d="M10,47.13a1.82,1.82,0,0,1-.2.92,1.36,1.36,0,0,1-.61.55,2.5,2.5,0,0,1-1,.18H5.35V48H8.2a1.82,1.82,0,0,0,.67-.1.77.77,0,0,0,.4-.35A1.17,1.17,0,0,0,9.4,47a1.23,1.23,0,0,0-.68-1.15A1.67,1.67,0,0,0,8,45.65H5.35v-.77H10v.75H8.89v-.12a1.65,1.65,0,0,1,.85.62A1.68,1.68,0,0,1,10,47.13Z"/><path class="cls-2" d="M4.21,43.51H3.35v-.94h.86Zm7.56,1.13-.59.06,0-.41a.93.93,0,0,0-.3-.65,1.14,1.14,0,0,0-.75-.22H5.35v-.77H10a2.63,2.63,0,0,1,.73.1,1.32,1.32,0,0,1,.52.29,1.31,1.31,0,0,1,.34.49,2.07,2.07,0,0,1,.14.7Z"/><path class="cls-2" d="M10,39.31a2.2,2.2,0,0,1-.29,1.16,2,2,0,0,1-.83.76,2.73,2.73,0,0,1-1.26.27,2.75,2.75,0,0,1-1.26-.27,2,2,0,0,1-.83-.76,2.49,2.49,0,0,1,0-2.33,2,2,0,0,1,.83-.76,2.75,2.75,0,0,1,1.26-.27,2.73,2.73,0,0,1,1.26.27,2,2,0,0,1,.83.76A2.21,2.21,0,0,1,10,39.31Zm-.61,0a1.28,1.28,0,0,0-.46-1,2,2,0,0,0-1.31-.38,2,2,0,0,0-1.31.38,1.39,1.39,0,0,0,0,2.07,2,2,0,0,0,1.31.39A2,2,0,0,0,9,40.34,1.27,1.27,0,0,0,9.42,39.31Z"/></g></g></svg>