<svg xmlns="http://www.w3.org/2000/svg" viewBox="0 0 36.28 50.19"><defs><style>.cls-1,.cls-2{fill:#fff;}.cls-2{font-size:14px;font-family:Lato-Bold, Lato;font-weight:700;letter-spacing:-0.02em;}.cls-3{letter-spacing:0em;}</style></defs><g id="Capa_2" data-name="Capa 2"><g id="Capa_1-2" data-name="Capa 1"><g id="Icon"><path id="Body" class="cls-1" d="M15.32,29.66H7.9A1.05,1.05,0,0,1,6.85,28.6V12.71L17.44,4.24,28,12.71V28.6A1.05,1.05,0,0,1,27,29.66H19.56v-9A1.59,1.59,0,0,0,18,19.07H16.91a1.59,1.59,0,0,0-1.59,1.59Z"/><path id="Roof" class="cls-1" d="M4.71,15.89a2.83,2.83,0,0,1-.29,0,2.16,2.16,0,0,1-.69-.23,2.11,2.11,0,0,1-1-1.32,2.2,2.2,0,0,1,0-1.14,2,2,0,0,1,.41-.76,1.31,1.31,0,0,1,.2-.21L16,.56a1.24,1.24,0,0,1,.22-.18A2.71,2.71,0,0,1,16.6.17a2.14,2.14,0,0,1,1.8.06,2.21,2.21,0,0,1,.36.23l.11.1L31.58,12.21a2,2,0,0,1,.2.21,1.94,1.94,0,0,1,.36.62,2.26,2.26,0,0,1,.13.85,2.16,2.16,0,0,1-1.67,1.95,2.17,2.17,0,0,1-.72,0,2.08,2.08,0,0,1-.93-.36,1.3,1.3,0,0,1-.23-.18L17.44,5,6.16,15.33l-.11.1-.24.16a2.08,2.08,0,0,1-.53.23l-.43.07Z"/></g><text class="cls-2" transform="translate(0 46.2)">M<tspan class="cls-3" x="13.01" y="0">enú</tspan></text></g></g></svg>