<svg xmlns="http://www.w3.org/2000/svg" viewBox="0 0 29.1 23.12"><defs><style>.cls-1{fill:#2b2d45;}</style></defs><g id="Capa_2" data-name="Capa 2"><g id="Capa_1-2" data-name="Capa 1"><path class="cls-1" d="M29.1,12.64c-.07.61-.13,1.22-.23,1.82a16.81,16.81,0,0,1-3.75,8.16,1.29,1.29,0,0,1-1.85.2,1.36,1.36,0,0,1-.38-2,18.08,18.08,0,0,0,1.8-2.75,13.86,13.86,0,0,0,1.39-4.53,13.85,13.85,0,0,0-2.53-10c-.29-.42-.64-.8-.94-1.21A1.3,1.3,0,0,1,22.77.52a1.35,1.35,0,0,1,1.79-.3,1.48,1.48,0,0,1,.3.26,16.85,16.85,0,0,1,4,8.54c.09.58.15,1.16.22,1.74Z"/><path class="cls-1" d="M14.56,11.71v8.78a1.34,1.34,0,0,1-1.19,1.45,1.36,1.36,0,0,1-1.07-.37q-3-2.45-5.9-4.9c-.35-.28-.68-.57-1-.84a.83.83,0,0,0-.45-.17H1.47A1.34,1.34,0,0,1,0,14.17V9.23A1.35,1.35,0,0,1,1.48,7.75c1.15,0,2.29,0,3.44,0a.82.82,0,0,0,.45-.16l6.92-5.73a1.33,1.33,0,0,1,2,.15,1.48,1.48,0,0,1,.27,1Z"/><path class="cls-1" d="M22.7,11.61A10.56,10.56,0,0,1,20.64,18a1.34,1.34,0,0,1-1.84.35,1.41,1.41,0,0,1-.54-2,9.16,9.16,0,0,0,1.12-2.12,7.62,7.62,0,0,0-1-7,3.26,3.26,0,0,1-.5-.91,1.46,1.46,0,0,1,.89-1.63,1.33,1.33,0,0,1,1.63.43A10.38,10.38,0,0,1,22.7,11.61Z"/></g></g></svg>