<svg xmlns="http://www.w3.org/2000/svg" viewBox="0 0 12.35 21.61"><defs><style>.cls-1{fill:#fff;}</style></defs><g id="Capa_2" data-name="Capa 2"><g id="Capa_1-2" data-name="Capa 1"><path id="Icon" class="cls-1" d="M1.6,0l.21,0a1.8,1.8,0,0,1,.58.23,1.59,1.59,0,0,1,.24.2L11.9,9.71l.13.16a2,2,0,0,1,.17.27,1.55,1.55,0,0,1,0,1.33,2,2,0,0,1-.17.27l-.13.16L2.63,21.16a.93.93,0,0,1-.15.13,1.69,1.69,0,0,1-.67.3,1.57,1.57,0,0,1-.53,0,1.87,1.87,0,0,1-.4-.13A1.56,1.56,0,0,1,0,20.22a1.62,1.62,0,0,1,.06-.62,1.89,1.89,0,0,1,.24-.47L.45,19,8.62,10.8.45,2.63.38,2.56a1.92,1.92,0,0,1-.13-.17A2.06,2.06,0,0,1,0,1.91a2,2,0,0,1,0-.42A1.55,1.55,0,0,1,.79.2,1.45,1.45,0,0,1,1.28,0l.21,0Z"/></g></g></svg>