<svg xmlns="http://www.w3.org/2000/svg" viewBox="0 0 34.13 47.34"><defs><style>.cls-1{fill:#00ae65;}</style></defs><g id="Capa_2" data-name="Capa 2"><g id="Capa_1-2" data-name="Capa 1"><path class="cls-1" d="M6.43,10.92s0-4.53,0-6.79a4.28,4.28,0,0,1,8.55,0c0,1.1,0,2.2,0,3.29h0c0,1.14.09,3.94.09,3.94S15,14,15,14.26a5.84,5.84,0,0,1,2-.47,4.18,4.18,0,0,1,3.89,2.31c.2.36.34.42.72.24a4.24,4.24,0,0,1,5.64,1.86c.2.38.35.45.75.25a4.26,4.26,0,0,1,6.11,3.87c0,3,.07,6,0,9-.16,6.37-3.09,11.15-8.47,14.48a13.53,13.53,0,0,1-3.44,1.51,1.11,1.11,0,1,1-.68-2.11l.35-.13a14.56,14.56,0,0,0,7.06-5.12,14.19,14.19,0,0,0,2.92-8c.17-3.18.05-6.36.06-9.55a2.1,2.1,0,0,0-2.08-2.17,2.14,2.14,0,0,0-2.07,2.19c0,.71,0,1.42,0,2.12a1.1,1.1,0,1,1-2.19,0c0-1.38,0-2.76,0-4.14a2.09,2.09,0,1,0-4.16-.06c0,1.41,0,2.83,0,4.24a1.1,1.1,0,1,1-2.19-.08c0-2.07,0-4.14,0-6.2a2.11,2.11,0,0,0-1.3-2.13A2.07,2.07,0,0,0,15,18.27c0,2.09,0,4.18,0,6.26a1.09,1.09,0,0,1-1,1.23,1.07,1.07,0,0,1-1.14-1,5.61,5.61,0,0,1,0-.58V4.64a2.2,2.2,0,0,0-1.18-2.2,2.06,2.06,0,0,0-3,1.86c0,.21,0,.42,0,.63V30.67a1.52,1.52,0,0,1-.21,1,1.06,1.06,0,0,1-1.23.38,1,1,0,0,1-.75-1c0-1.54,0-3.08,0-4.61,0-.5-.12-.72-.65-.67s-.92,0-1.37,0A2,2,0,0,0,2.3,27.72c-.11,2.87-.16,5.74.91,8.49a14.58,14.58,0,0,0,9,8.81l.45.16a1.11,1.11,0,0,1-.7,2.11,14.56,14.56,0,0,1-3.81-1.73,16.83,16.83,0,0,1-8-12.08,29.89,29.89,0,0,1-.11-6.2,4.15,4.15,0,0,1,4.05-3.71c.6,0,1.2,0,1.8,0,.34,0,.48-.11.48-.46,0-2.88,0-5.77,0-8.65Z"/></g></g></svg>