<svg xmlns="http://www.w3.org/2000/svg" viewBox="0 0 436.27 433.1"><defs><style>.cls-1{fill:none;stroke:#000;stroke-linecap:round;stroke-miterlimit:10;}.cls-2{fill:#f4f4f4;}.cls-3{fill:#00ae65;}</style></defs><g id="Capa_2" data-name="Capa 2"><g id="Capa_1-2" data-name="Capa 1"><circle class="cls-1" cx="217.14" cy="221.26" r="209.23"/><circle class="cls-2" cx="217.14" cy="221.26" r="151.52"/><circle class="cls-3" cx="217.14" cy="221.26" r="130.93"/><circle class="cls-2" cx="217.14" cy="12.03" r="12.03"/><circle class="cls-3" cx="217.14" cy="12.03" r="5.99"/><circle class="cls-2" cx="343.39" cy="53.82" r="12.03"/><circle class="cls-3" cx="343.39" cy="53.82" r="5.99"/><circle class="cls-2" cx="424.24" cy="198.42" r="12.03"/><circle class="cls-3" cx="424.24" cy="198.42" r="5.99"/><circle class="cls-2" cx="392.69" cy="334.62" r="12.03"/><circle class="cls-3" cx="392.69" cy="334.62" r="5.99"/><circle class="cls-2" cx="326.05" cy="403.34" r="12.03"/><circle class="cls-3" cx="326.05" cy="403.34" r="5.99"/><circle class="cls-2" cx="160.61" cy="421.07" r="12.03"/><circle class="cls-3" cx="159.61" cy="421.07" r="5.99"/><circle class="cls-2" cx="51.59" cy="352.12" r="12.03"/><circle class="cls-3" cx="51.59" cy="352.12" r="5.99"/><circle class="cls-2" cx="12.03" cy="187.36" r="12.03"/><circle class="cls-3" cx="12.03" cy="187.36" r="5.99"/><circle class="cls-2" cx="89.68" cy="53.82" r="12.03"/><circle class="cls-3" cx="89.68" cy="53.82" r="5.99"/></g></g></svg>